M48
; DRILL file {KiCad 8.0.6-8.0.6-0~ubuntu22.04.1} date 2025-02-02T12:48:45+0100
; FORMAT={-:-/ absolute / metric / decimal}
; #@! TF.CreationDate,2025-02-02T12:48:45+01:00
; #@! TF.GenerationSoftware,Kicad,Pcbnew,8.0.6-8.0.6-0~ubuntu22.04.1
; #@! TF.FileFunction,Plated,1,2,PTH
FMAT,2
METRIC
; #@! TA.AperFunction,Plated,PTH,ViaDrill
T1C0.400
; #@! TA.AperFunction,Plated,PTH,ComponentDrill
T2C0.800
; #@! TA.AperFunction,Plated,PTH,ComponentDrill
T3C0.900
; #@! TA.AperFunction,Plated,PTH,ComponentDrill
T4C1.000
; #@! TA.AperFunction,Plated,PTH,ComponentDrill
T5C1.220
; #@! TA.AperFunction,Plated,PTH,ComponentDrill
T6C1.420
; #@! TA.AperFunction,Plated,PTH,ComponentDrill
T7C1.430
%
G90
G05
T1
X111.2Y-139.2
X111.2Y-140.2
T2
X103.43Y-68.4
X103.44Y-49.8
X103.45Y-108.4
X103.48Y-88.4
X103.49Y-71.1
X103.49Y-111.1
X103.5Y-91.1
X111.05Y-68.4
X111.06Y-49.8
X111.07Y-108.4
X111.1Y-88.4
X111.11Y-71.1
X111.11Y-111.1
X111.12Y-91.1
X113.29Y-50.2
X113.54Y-142.3
X114.0Y-124.2
X114.0Y-131.82
X116.9Y-124.19
X116.9Y-131.81
X117.8Y-108.18
X117.8Y-115.8
X119.5Y-124.19
X119.5Y-131.81
X120.465Y-113.905
X120.465Y-120.105
X120.475Y-117.005
X120.91Y-50.2
X121.16Y-142.3
X122.395Y-126.005
X122.395Y-131.005
X125.495Y-123.38
X125.495Y-125.92
X125.495Y-128.46
X125.495Y-131.0
X125.495Y-133.54
X125.495Y-136.08
X125.495Y-138.62
X128.085Y-113.905
X128.085Y-120.105
X128.095Y-117.005
X130.345Y-113.905
X130.355Y-117.005
X130.355Y-120.105
X133.115Y-123.38
X133.115Y-125.92
X133.115Y-128.46
X133.115Y-131.0
X133.115Y-133.54
X133.115Y-136.08
X133.115Y-138.62
X136.195Y-126.005
X136.195Y-131.005
X137.965Y-113.905
X137.975Y-117.005
X137.975Y-120.105
X140.8Y-35.39
X140.8Y-43.01
X140.8Y-57.6
X140.8Y-65.22
X140.8Y-77.59
X140.8Y-85.21
X140.8Y-97.59
X140.8Y-105.21
X140.8Y-117.58
X140.8Y-125.2
X140.8Y-134.6
X140.8Y-142.22
T3
X114.08Y-40.3
X114.08Y-60.3
X114.08Y-80.3
X114.08Y-100.3
X114.08Y-120.3
X114.08Y-137.3
X116.62Y-40.3
X116.62Y-60.3
X116.62Y-80.3
X116.62Y-100.3
X116.62Y-120.3
X116.62Y-137.3
T4
X124.9Y-47.8
X124.9Y-67.8
X124.9Y-87.8
X124.9Y-107.8
X127.4Y-47.8
X127.4Y-67.8
X127.4Y-87.8
X127.4Y-107.8
X129.9Y-47.8
X129.9Y-67.8
X129.9Y-87.8
X129.9Y-107.8
X136.9Y-42.1
X136.9Y-44.64
X136.9Y-47.18
X136.9Y-49.72
X136.9Y-52.26
X136.9Y-54.8
X136.9Y-57.34
X136.9Y-59.88
X136.9Y-62.42
X136.9Y-64.96
X136.9Y-67.5
X136.9Y-70.04
X136.9Y-81.8
X136.9Y-84.34
X136.9Y-86.88
X136.9Y-89.42
X136.9Y-91.96
X136.9Y-94.5
X136.9Y-97.04
X136.9Y-99.58
X136.9Y-102.12
X136.9Y-104.66
X136.9Y-107.2
X136.9Y-109.74
X138.3Y-133.3
X138.3Y-135.84
X138.3Y-138.38
X138.3Y-140.92
T5
X107.4Y-46.8
X107.4Y-53.82
X107.4Y-73.82
X107.4Y-93.82
X107.4Y-113.82
X107.4Y-130.82
X147.4Y-46.8
X147.4Y-53.82
X147.4Y-73.82
X147.4Y-93.82
X147.4Y-113.82
X147.4Y-130.82
T6
X107.4Y-43.7
X107.4Y-56.92
X107.4Y-76.92
X107.4Y-96.92
X107.4Y-116.92
X107.4Y-133.92
X147.4Y-43.7
X147.4Y-56.92
X147.4Y-76.92
X147.4Y-96.92
X147.4Y-116.92
X147.4Y-133.92
T7
X107.4Y-35.4
X107.4Y-65.22
X107.4Y-85.22
X107.4Y-105.22
X107.4Y-125.22
X107.4Y-142.22
X147.4Y-35.4
X147.4Y-65.22
X147.4Y-85.22
X147.4Y-105.22
X147.4Y-125.22
X147.4Y-142.22
M30
