%TF.GenerationSoftware,KiCad,Pcbnew,8.0.6-8.0.6-0~ubuntu22.04.1*%
%TF.CreationDate,2025-02-02T12:48:45+01:00*%
%TF.ProjectId,Drumbox,4472756d-626f-4782-9e6b-696361645f70,rev?*%
%TF.SameCoordinates,Original*%
%TF.FileFunction,Drillmap*%
%TF.FilePolarity,Positive*%
%FSLAX45Y45*%
G04 Gerber Fmt 4.5, Leading zero omitted, Abs format (unit mm)*
G04 Created by KiCad (PCBNEW 8.0.6-8.0.6-0~ubuntu22.04.1) date 2025-02-02 12:48:45*
%MOMM*%
%LPD*%
G01*
G04 APERTURE LIST*
%ADD10C,0.050000*%
%ADD11C,0.200000*%
%ADD12C,0.320000*%
G04 APERTURE END LIST*
D10*
X10240000Y-3380000D02*
X10240000Y-14380000D01*
X15240000Y-3380000D02*
X15240000Y-14380000D01*
X10240000Y-3380000D02*
X15240000Y-3380000D01*
X10240000Y-14380000D02*
X15240000Y-14380000D01*
D11*
X12200000Y-3980000D02*
X12400000Y-4180000D01*
X12400000Y-3980000D02*
X12200000Y-4180000D01*
X12200000Y-5980000D02*
X12400000Y-6180000D01*
X12400000Y-5980000D02*
X12200000Y-6180000D01*
X12200000Y-7980000D02*
X12400000Y-8180000D01*
X12400000Y-7980000D02*
X12200000Y-8180000D01*
X12200000Y-9980000D02*
X12400000Y-10180000D01*
X12400000Y-9980000D02*
X12200000Y-10180000D01*
X13080000Y-3980000D02*
X13280000Y-4180000D01*
X13280000Y-3980000D02*
X13080000Y-4180000D01*
X13080000Y-5980000D02*
X13280000Y-6180000D01*
X13280000Y-5980000D02*
X13080000Y-6180000D01*
X13080000Y-7980000D02*
X13280000Y-8180000D01*
X13280000Y-7980000D02*
X13080000Y-8180000D01*
X13080000Y-9980000D02*
X13280000Y-10180000D01*
X13280000Y-9980000D02*
X13080000Y-10180000D01*
D12*
X12000000Y-7170000D02*
G75*
G02*
X11680000Y-7170000I-160000J0D01*
G01*
X11680000Y-7170000D02*
G75*
G02*
X12000000Y-7170000I160000J0D01*
G01*
D11*
X10498277Y-14693984D02*
X10498277Y-14493984D01*
X10498277Y-14493984D02*
X10545896Y-14493984D01*
X10545896Y-14493984D02*
X10574467Y-14503508D01*
X10574467Y-14503508D02*
X10593515Y-14522555D01*
X10593515Y-14522555D02*
X10603039Y-14541603D01*
X10603039Y-14541603D02*
X10612563Y-14579698D01*
X10612563Y-14579698D02*
X10612563Y-14608269D01*
X10612563Y-14608269D02*
X10603039Y-14646365D01*
X10603039Y-14646365D02*
X10593515Y-14665412D01*
X10593515Y-14665412D02*
X10574467Y-14684460D01*
X10574467Y-14684460D02*
X10545896Y-14693984D01*
X10545896Y-14693984D02*
X10498277Y-14693984D01*
X10698277Y-14693984D02*
X10698277Y-14560650D01*
X10698277Y-14598746D02*
X10707801Y-14579698D01*
X10707801Y-14579698D02*
X10717324Y-14570174D01*
X10717324Y-14570174D02*
X10736372Y-14560650D01*
X10736372Y-14560650D02*
X10755420Y-14560650D01*
X10822086Y-14693984D02*
X10822086Y-14560650D01*
X10822086Y-14493984D02*
X10812563Y-14503508D01*
X10812563Y-14503508D02*
X10822086Y-14513031D01*
X10822086Y-14513031D02*
X10831610Y-14503508D01*
X10831610Y-14503508D02*
X10822086Y-14493984D01*
X10822086Y-14493984D02*
X10822086Y-14513031D01*
X10945896Y-14693984D02*
X10926848Y-14684460D01*
X10926848Y-14684460D02*
X10917324Y-14665412D01*
X10917324Y-14665412D02*
X10917324Y-14493984D01*
X11050658Y-14693984D02*
X11031610Y-14684460D01*
X11031610Y-14684460D02*
X11022086Y-14665412D01*
X11022086Y-14665412D02*
X11022086Y-14493984D01*
X11279229Y-14693984D02*
X11279229Y-14493984D01*
X11279229Y-14493984D02*
X11345896Y-14636841D01*
X11345896Y-14636841D02*
X11412562Y-14493984D01*
X11412562Y-14493984D02*
X11412562Y-14693984D01*
X11593515Y-14693984D02*
X11593515Y-14589222D01*
X11593515Y-14589222D02*
X11583991Y-14570174D01*
X11583991Y-14570174D02*
X11564943Y-14560650D01*
X11564943Y-14560650D02*
X11526848Y-14560650D01*
X11526848Y-14560650D02*
X11507801Y-14570174D01*
X11593515Y-14684460D02*
X11574467Y-14693984D01*
X11574467Y-14693984D02*
X11526848Y-14693984D01*
X11526848Y-14693984D02*
X11507801Y-14684460D01*
X11507801Y-14684460D02*
X11498277Y-14665412D01*
X11498277Y-14665412D02*
X11498277Y-14646365D01*
X11498277Y-14646365D02*
X11507801Y-14627317D01*
X11507801Y-14627317D02*
X11526848Y-14617793D01*
X11526848Y-14617793D02*
X11574467Y-14617793D01*
X11574467Y-14617793D02*
X11593515Y-14608269D01*
X11688753Y-14560650D02*
X11688753Y-14760650D01*
X11688753Y-14570174D02*
X11707801Y-14560650D01*
X11707801Y-14560650D02*
X11745896Y-14560650D01*
X11745896Y-14560650D02*
X11764943Y-14570174D01*
X11764943Y-14570174D02*
X11774467Y-14579698D01*
X11774467Y-14579698D02*
X11783991Y-14598746D01*
X11783991Y-14598746D02*
X11783991Y-14655888D01*
X11783991Y-14655888D02*
X11774467Y-14674936D01*
X11774467Y-14674936D02*
X11764943Y-14684460D01*
X11764943Y-14684460D02*
X11745896Y-14693984D01*
X11745896Y-14693984D02*
X11707801Y-14693984D01*
X11707801Y-14693984D02*
X11688753Y-14684460D01*
X11869705Y-14674936D02*
X11879229Y-14684460D01*
X11879229Y-14684460D02*
X11869705Y-14693984D01*
X11869705Y-14693984D02*
X11860182Y-14684460D01*
X11860182Y-14684460D02*
X11869705Y-14674936D01*
X11869705Y-14674936D02*
X11869705Y-14693984D01*
X11869705Y-14570174D02*
X11879229Y-14579698D01*
X11879229Y-14579698D02*
X11869705Y-14589222D01*
X11869705Y-14589222D02*
X11860182Y-14579698D01*
X11860182Y-14579698D02*
X11869705Y-14570174D01*
X11869705Y-14570174D02*
X11869705Y-14589222D01*
X10037500Y-14922500D02*
X10237500Y-15122500D01*
X10237500Y-14922500D02*
X10037500Y-15122500D01*
X10488753Y-14933031D02*
X10498277Y-14923508D01*
X10498277Y-14923508D02*
X10517324Y-14913984D01*
X10517324Y-14913984D02*
X10564944Y-14913984D01*
X10564944Y-14913984D02*
X10583991Y-14923508D01*
X10583991Y-14923508D02*
X10593515Y-14933031D01*
X10593515Y-14933031D02*
X10603039Y-14952079D01*
X10603039Y-14952079D02*
X10603039Y-14971127D01*
X10603039Y-14971127D02*
X10593515Y-14999698D01*
X10593515Y-14999698D02*
X10479229Y-15113984D01*
X10479229Y-15113984D02*
X10603039Y-15113984D01*
X10688753Y-15094936D02*
X10698277Y-15104460D01*
X10698277Y-15104460D02*
X10688753Y-15113984D01*
X10688753Y-15113984D02*
X10679229Y-15104460D01*
X10679229Y-15104460D02*
X10688753Y-15094936D01*
X10688753Y-15094936D02*
X10688753Y-15113984D01*
X10822086Y-14913984D02*
X10841134Y-14913984D01*
X10841134Y-14913984D02*
X10860182Y-14923508D01*
X10860182Y-14923508D02*
X10869705Y-14933031D01*
X10869705Y-14933031D02*
X10879229Y-14952079D01*
X10879229Y-14952079D02*
X10888753Y-14990174D01*
X10888753Y-14990174D02*
X10888753Y-15037793D01*
X10888753Y-15037793D02*
X10879229Y-15075888D01*
X10879229Y-15075888D02*
X10869705Y-15094936D01*
X10869705Y-15094936D02*
X10860182Y-15104460D01*
X10860182Y-15104460D02*
X10841134Y-15113984D01*
X10841134Y-15113984D02*
X10822086Y-15113984D01*
X10822086Y-15113984D02*
X10803039Y-15104460D01*
X10803039Y-15104460D02*
X10793515Y-15094936D01*
X10793515Y-15094936D02*
X10783991Y-15075888D01*
X10783991Y-15075888D02*
X10774467Y-15037793D01*
X10774467Y-15037793D02*
X10774467Y-14990174D01*
X10774467Y-14990174D02*
X10783991Y-14952079D01*
X10783991Y-14952079D02*
X10793515Y-14933031D01*
X10793515Y-14933031D02*
X10803039Y-14923508D01*
X10803039Y-14923508D02*
X10822086Y-14913984D01*
X11012563Y-14913984D02*
X11031610Y-14913984D01*
X11031610Y-14913984D02*
X11050658Y-14923508D01*
X11050658Y-14923508D02*
X11060182Y-14933031D01*
X11060182Y-14933031D02*
X11069705Y-14952079D01*
X11069705Y-14952079D02*
X11079229Y-14990174D01*
X11079229Y-14990174D02*
X11079229Y-15037793D01*
X11079229Y-15037793D02*
X11069705Y-15075888D01*
X11069705Y-15075888D02*
X11060182Y-15094936D01*
X11060182Y-15094936D02*
X11050658Y-15104460D01*
X11050658Y-15104460D02*
X11031610Y-15113984D01*
X11031610Y-15113984D02*
X11012563Y-15113984D01*
X11012563Y-15113984D02*
X10993515Y-15104460D01*
X10993515Y-15104460D02*
X10983991Y-15094936D01*
X10983991Y-15094936D02*
X10974467Y-15075888D01*
X10974467Y-15075888D02*
X10964944Y-15037793D01*
X10964944Y-15037793D02*
X10964944Y-14990174D01*
X10964944Y-14990174D02*
X10974467Y-14952079D01*
X10974467Y-14952079D02*
X10983991Y-14933031D01*
X10983991Y-14933031D02*
X10993515Y-14923508D01*
X10993515Y-14923508D02*
X11012563Y-14913984D01*
X11203039Y-14913984D02*
X11222086Y-14913984D01*
X11222086Y-14913984D02*
X11241134Y-14923508D01*
X11241134Y-14923508D02*
X11250658Y-14933031D01*
X11250658Y-14933031D02*
X11260182Y-14952079D01*
X11260182Y-14952079D02*
X11269705Y-14990174D01*
X11269705Y-14990174D02*
X11269705Y-15037793D01*
X11269705Y-15037793D02*
X11260182Y-15075888D01*
X11260182Y-15075888D02*
X11250658Y-15094936D01*
X11250658Y-15094936D02*
X11241134Y-15104460D01*
X11241134Y-15104460D02*
X11222086Y-15113984D01*
X11222086Y-15113984D02*
X11203039Y-15113984D01*
X11203039Y-15113984D02*
X11183991Y-15104460D01*
X11183991Y-15104460D02*
X11174467Y-15094936D01*
X11174467Y-15094936D02*
X11164944Y-15075888D01*
X11164944Y-15075888D02*
X11155420Y-15037793D01*
X11155420Y-15037793D02*
X11155420Y-14990174D01*
X11155420Y-14990174D02*
X11164944Y-14952079D01*
X11164944Y-14952079D02*
X11174467Y-14933031D01*
X11174467Y-14933031D02*
X11183991Y-14923508D01*
X11183991Y-14923508D02*
X11203039Y-14913984D01*
X11355420Y-15113984D02*
X11355420Y-14980650D01*
X11355420Y-14999698D02*
X11364943Y-14990174D01*
X11364943Y-14990174D02*
X11383991Y-14980650D01*
X11383991Y-14980650D02*
X11412563Y-14980650D01*
X11412563Y-14980650D02*
X11431610Y-14990174D01*
X11431610Y-14990174D02*
X11441134Y-15009222D01*
X11441134Y-15009222D02*
X11441134Y-15113984D01*
X11441134Y-15009222D02*
X11450658Y-14990174D01*
X11450658Y-14990174D02*
X11469705Y-14980650D01*
X11469705Y-14980650D02*
X11498277Y-14980650D01*
X11498277Y-14980650D02*
X11517324Y-14990174D01*
X11517324Y-14990174D02*
X11526848Y-15009222D01*
X11526848Y-15009222D02*
X11526848Y-15113984D01*
X11622086Y-15113984D02*
X11622086Y-14980650D01*
X11622086Y-14999698D02*
X11631610Y-14990174D01*
X11631610Y-14990174D02*
X11650658Y-14980650D01*
X11650658Y-14980650D02*
X11679229Y-14980650D01*
X11679229Y-14980650D02*
X11698277Y-14990174D01*
X11698277Y-14990174D02*
X11707801Y-15009222D01*
X11707801Y-15009222D02*
X11707801Y-15113984D01*
X11707801Y-15009222D02*
X11717324Y-14990174D01*
X11717324Y-14990174D02*
X11736372Y-14980650D01*
X11736372Y-14980650D02*
X11764943Y-14980650D01*
X11764943Y-14980650D02*
X11783991Y-14990174D01*
X11783991Y-14990174D02*
X11793515Y-15009222D01*
X11793515Y-15009222D02*
X11793515Y-15113984D01*
X12183991Y-14904460D02*
X12012563Y-15161603D01*
X12441134Y-14913984D02*
X12460182Y-14913984D01*
X12460182Y-14913984D02*
X12479229Y-14923508D01*
X12479229Y-14923508D02*
X12488753Y-14933031D01*
X12488753Y-14933031D02*
X12498277Y-14952079D01*
X12498277Y-14952079D02*
X12507801Y-14990174D01*
X12507801Y-14990174D02*
X12507801Y-15037793D01*
X12507801Y-15037793D02*
X12498277Y-15075888D01*
X12498277Y-15075888D02*
X12488753Y-15094936D01*
X12488753Y-15094936D02*
X12479229Y-15104460D01*
X12479229Y-15104460D02*
X12460182Y-15113984D01*
X12460182Y-15113984D02*
X12441134Y-15113984D01*
X12441134Y-15113984D02*
X12422086Y-15104460D01*
X12422086Y-15104460D02*
X12412563Y-15094936D01*
X12412563Y-15094936D02*
X12403039Y-15075888D01*
X12403039Y-15075888D02*
X12393515Y-15037793D01*
X12393515Y-15037793D02*
X12393515Y-14990174D01*
X12393515Y-14990174D02*
X12403039Y-14952079D01*
X12403039Y-14952079D02*
X12412563Y-14933031D01*
X12412563Y-14933031D02*
X12422086Y-14923508D01*
X12422086Y-14923508D02*
X12441134Y-14913984D01*
X12593515Y-15094936D02*
X12603039Y-15104460D01*
X12603039Y-15104460D02*
X12593515Y-15113984D01*
X12593515Y-15113984D02*
X12583991Y-15104460D01*
X12583991Y-15104460D02*
X12593515Y-15094936D01*
X12593515Y-15094936D02*
X12593515Y-15113984D01*
X12726848Y-14913984D02*
X12745896Y-14913984D01*
X12745896Y-14913984D02*
X12764944Y-14923508D01*
X12764944Y-14923508D02*
X12774467Y-14933031D01*
X12774467Y-14933031D02*
X12783991Y-14952079D01*
X12783991Y-14952079D02*
X12793515Y-14990174D01*
X12793515Y-14990174D02*
X12793515Y-15037793D01*
X12793515Y-15037793D02*
X12783991Y-15075888D01*
X12783991Y-15075888D02*
X12774467Y-15094936D01*
X12774467Y-15094936D02*
X12764944Y-15104460D01*
X12764944Y-15104460D02*
X12745896Y-15113984D01*
X12745896Y-15113984D02*
X12726848Y-15113984D01*
X12726848Y-15113984D02*
X12707801Y-15104460D01*
X12707801Y-15104460D02*
X12698277Y-15094936D01*
X12698277Y-15094936D02*
X12688753Y-15075888D01*
X12688753Y-15075888D02*
X12679229Y-15037793D01*
X12679229Y-15037793D02*
X12679229Y-14990174D01*
X12679229Y-14990174D02*
X12688753Y-14952079D01*
X12688753Y-14952079D02*
X12698277Y-14933031D01*
X12698277Y-14933031D02*
X12707801Y-14923508D01*
X12707801Y-14923508D02*
X12726848Y-14913984D01*
X12860182Y-14913984D02*
X12993515Y-14913984D01*
X12993515Y-14913984D02*
X12907801Y-15113984D01*
X13098277Y-14999698D02*
X13079229Y-14990174D01*
X13079229Y-14990174D02*
X13069706Y-14980650D01*
X13069706Y-14980650D02*
X13060182Y-14961603D01*
X13060182Y-14961603D02*
X13060182Y-14952079D01*
X13060182Y-14952079D02*
X13069706Y-14933031D01*
X13069706Y-14933031D02*
X13079229Y-14923508D01*
X13079229Y-14923508D02*
X13098277Y-14913984D01*
X13098277Y-14913984D02*
X13136372Y-14913984D01*
X13136372Y-14913984D02*
X13155420Y-14923508D01*
X13155420Y-14923508D02*
X13164944Y-14933031D01*
X13164944Y-14933031D02*
X13174467Y-14952079D01*
X13174467Y-14952079D02*
X13174467Y-14961603D01*
X13174467Y-14961603D02*
X13164944Y-14980650D01*
X13164944Y-14980650D02*
X13155420Y-14990174D01*
X13155420Y-14990174D02*
X13136372Y-14999698D01*
X13136372Y-14999698D02*
X13098277Y-14999698D01*
X13098277Y-14999698D02*
X13079229Y-15009222D01*
X13079229Y-15009222D02*
X13069706Y-15018746D01*
X13069706Y-15018746D02*
X13060182Y-15037793D01*
X13060182Y-15037793D02*
X13060182Y-15075888D01*
X13060182Y-15075888D02*
X13069706Y-15094936D01*
X13069706Y-15094936D02*
X13079229Y-15104460D01*
X13079229Y-15104460D02*
X13098277Y-15113984D01*
X13098277Y-15113984D02*
X13136372Y-15113984D01*
X13136372Y-15113984D02*
X13155420Y-15104460D01*
X13155420Y-15104460D02*
X13164944Y-15094936D01*
X13164944Y-15094936D02*
X13174467Y-15075888D01*
X13174467Y-15075888D02*
X13174467Y-15037793D01*
X13174467Y-15037793D02*
X13164944Y-15018746D01*
X13164944Y-15018746D02*
X13155420Y-15009222D01*
X13155420Y-15009222D02*
X13136372Y-14999698D01*
X13241134Y-14913984D02*
X13374467Y-14913984D01*
X13374467Y-14913984D02*
X13288753Y-15113984D01*
X13441134Y-14913984D02*
X13441134Y-14952079D01*
X13517325Y-14913984D02*
X13517325Y-14952079D01*
X13812563Y-15190174D02*
X13803039Y-15180650D01*
X13803039Y-15180650D02*
X13783991Y-15152079D01*
X13783991Y-15152079D02*
X13774468Y-15133031D01*
X13774468Y-15133031D02*
X13764944Y-15104460D01*
X13764944Y-15104460D02*
X13755420Y-15056841D01*
X13755420Y-15056841D02*
X13755420Y-15018746D01*
X13755420Y-15018746D02*
X13764944Y-14971127D01*
X13764944Y-14971127D02*
X13774468Y-14942555D01*
X13774468Y-14942555D02*
X13783991Y-14923508D01*
X13783991Y-14923508D02*
X13803039Y-14894936D01*
X13803039Y-14894936D02*
X13812563Y-14885412D01*
X13917325Y-14999698D02*
X13898277Y-14990174D01*
X13898277Y-14990174D02*
X13888753Y-14980650D01*
X13888753Y-14980650D02*
X13879229Y-14961603D01*
X13879229Y-14961603D02*
X13879229Y-14952079D01*
X13879229Y-14952079D02*
X13888753Y-14933031D01*
X13888753Y-14933031D02*
X13898277Y-14923508D01*
X13898277Y-14923508D02*
X13917325Y-14913984D01*
X13917325Y-14913984D02*
X13955420Y-14913984D01*
X13955420Y-14913984D02*
X13974468Y-14923508D01*
X13974468Y-14923508D02*
X13983991Y-14933031D01*
X13983991Y-14933031D02*
X13993515Y-14952079D01*
X13993515Y-14952079D02*
X13993515Y-14961603D01*
X13993515Y-14961603D02*
X13983991Y-14980650D01*
X13983991Y-14980650D02*
X13974468Y-14990174D01*
X13974468Y-14990174D02*
X13955420Y-14999698D01*
X13955420Y-14999698D02*
X13917325Y-14999698D01*
X13917325Y-14999698D02*
X13898277Y-15009222D01*
X13898277Y-15009222D02*
X13888753Y-15018746D01*
X13888753Y-15018746D02*
X13879229Y-15037793D01*
X13879229Y-15037793D02*
X13879229Y-15075888D01*
X13879229Y-15075888D02*
X13888753Y-15094936D01*
X13888753Y-15094936D02*
X13898277Y-15104460D01*
X13898277Y-15104460D02*
X13917325Y-15113984D01*
X13917325Y-15113984D02*
X13955420Y-15113984D01*
X13955420Y-15113984D02*
X13974468Y-15104460D01*
X13974468Y-15104460D02*
X13983991Y-15094936D01*
X13983991Y-15094936D02*
X13993515Y-15075888D01*
X13993515Y-15075888D02*
X13993515Y-15037793D01*
X13993515Y-15037793D02*
X13983991Y-15018746D01*
X13983991Y-15018746D02*
X13974468Y-15009222D01*
X13974468Y-15009222D02*
X13955420Y-14999698D01*
X14231610Y-15113984D02*
X14231610Y-14913984D01*
X14317325Y-15113984D02*
X14317325Y-15009222D01*
X14317325Y-15009222D02*
X14307801Y-14990174D01*
X14307801Y-14990174D02*
X14288753Y-14980650D01*
X14288753Y-14980650D02*
X14260182Y-14980650D01*
X14260182Y-14980650D02*
X14241134Y-14990174D01*
X14241134Y-14990174D02*
X14231610Y-14999698D01*
X14441134Y-15113984D02*
X14422087Y-15104460D01*
X14422087Y-15104460D02*
X14412563Y-15094936D01*
X14412563Y-15094936D02*
X14403039Y-15075888D01*
X14403039Y-15075888D02*
X14403039Y-15018746D01*
X14403039Y-15018746D02*
X14412563Y-14999698D01*
X14412563Y-14999698D02*
X14422087Y-14990174D01*
X14422087Y-14990174D02*
X14441134Y-14980650D01*
X14441134Y-14980650D02*
X14469706Y-14980650D01*
X14469706Y-14980650D02*
X14488753Y-14990174D01*
X14488753Y-14990174D02*
X14498277Y-14999698D01*
X14498277Y-14999698D02*
X14507801Y-15018746D01*
X14507801Y-15018746D02*
X14507801Y-15075888D01*
X14507801Y-15075888D02*
X14498277Y-15094936D01*
X14498277Y-15094936D02*
X14488753Y-15104460D01*
X14488753Y-15104460D02*
X14469706Y-15113984D01*
X14469706Y-15113984D02*
X14441134Y-15113984D01*
X14622087Y-15113984D02*
X14603039Y-15104460D01*
X14603039Y-15104460D02*
X14593515Y-15085412D01*
X14593515Y-15085412D02*
X14593515Y-14913984D01*
X14774468Y-15104460D02*
X14755420Y-15113984D01*
X14755420Y-15113984D02*
X14717325Y-15113984D01*
X14717325Y-15113984D02*
X14698277Y-15104460D01*
X14698277Y-15104460D02*
X14688753Y-15085412D01*
X14688753Y-15085412D02*
X14688753Y-15009222D01*
X14688753Y-15009222D02*
X14698277Y-14990174D01*
X14698277Y-14990174D02*
X14717325Y-14980650D01*
X14717325Y-14980650D02*
X14755420Y-14980650D01*
X14755420Y-14980650D02*
X14774468Y-14990174D01*
X14774468Y-14990174D02*
X14783991Y-15009222D01*
X14783991Y-15009222D02*
X14783991Y-15028269D01*
X14783991Y-15028269D02*
X14688753Y-15047317D01*
X14860182Y-15104460D02*
X14879230Y-15113984D01*
X14879230Y-15113984D02*
X14917325Y-15113984D01*
X14917325Y-15113984D02*
X14936372Y-15104460D01*
X14936372Y-15104460D02*
X14945896Y-15085412D01*
X14945896Y-15085412D02*
X14945896Y-15075888D01*
X14945896Y-15075888D02*
X14936372Y-15056841D01*
X14936372Y-15056841D02*
X14917325Y-15047317D01*
X14917325Y-15047317D02*
X14888753Y-15047317D01*
X14888753Y-15047317D02*
X14869706Y-15037793D01*
X14869706Y-15037793D02*
X14860182Y-15018746D01*
X14860182Y-15018746D02*
X14860182Y-15009222D01*
X14860182Y-15009222D02*
X14869706Y-14990174D01*
X14869706Y-14990174D02*
X14888753Y-14980650D01*
X14888753Y-14980650D02*
X14917325Y-14980650D01*
X14917325Y-14980650D02*
X14936372Y-14990174D01*
X15012563Y-15190174D02*
X15022087Y-15180650D01*
X15022087Y-15180650D02*
X15041134Y-15152079D01*
X15041134Y-15152079D02*
X15050658Y-15133031D01*
X15050658Y-15133031D02*
X15060182Y-15104460D01*
X15060182Y-15104460D02*
X15069706Y-15056841D01*
X15069706Y-15056841D02*
X15069706Y-15018746D01*
X15069706Y-15018746D02*
X15060182Y-14971127D01*
X15060182Y-14971127D02*
X15050658Y-14942555D01*
X15050658Y-14942555D02*
X15041134Y-14923508D01*
X15041134Y-14923508D02*
X15022087Y-14894936D01*
X15022087Y-14894936D02*
X15012563Y-14885412D01*
X15374468Y-15190174D02*
X15364944Y-15180650D01*
X15364944Y-15180650D02*
X15345896Y-15152079D01*
X15345896Y-15152079D02*
X15336372Y-15133031D01*
X15336372Y-15133031D02*
X15326849Y-15104460D01*
X15326849Y-15104460D02*
X15317325Y-15056841D01*
X15317325Y-15056841D02*
X15317325Y-15018746D01*
X15317325Y-15018746D02*
X15326849Y-14971127D01*
X15326849Y-14971127D02*
X15336372Y-14942555D01*
X15336372Y-14942555D02*
X15345896Y-14923508D01*
X15345896Y-14923508D02*
X15364944Y-14894936D01*
X15364944Y-14894936D02*
X15374468Y-14885412D01*
X15450658Y-14980650D02*
X15450658Y-15113984D01*
X15450658Y-14999698D02*
X15460182Y-14990174D01*
X15460182Y-14990174D02*
X15479230Y-14980650D01*
X15479230Y-14980650D02*
X15507801Y-14980650D01*
X15507801Y-14980650D02*
X15526849Y-14990174D01*
X15526849Y-14990174D02*
X15536372Y-15009222D01*
X15536372Y-15009222D02*
X15536372Y-15113984D01*
X15660182Y-15113984D02*
X15641134Y-15104460D01*
X15641134Y-15104460D02*
X15631611Y-15094936D01*
X15631611Y-15094936D02*
X15622087Y-15075888D01*
X15622087Y-15075888D02*
X15622087Y-15018746D01*
X15622087Y-15018746D02*
X15631611Y-14999698D01*
X15631611Y-14999698D02*
X15641134Y-14990174D01*
X15641134Y-14990174D02*
X15660182Y-14980650D01*
X15660182Y-14980650D02*
X15688753Y-14980650D01*
X15688753Y-14980650D02*
X15707801Y-14990174D01*
X15707801Y-14990174D02*
X15717325Y-14999698D01*
X15717325Y-14999698D02*
X15726849Y-15018746D01*
X15726849Y-15018746D02*
X15726849Y-15075888D01*
X15726849Y-15075888D02*
X15717325Y-15094936D01*
X15717325Y-15094936D02*
X15707801Y-15104460D01*
X15707801Y-15104460D02*
X15688753Y-15113984D01*
X15688753Y-15113984D02*
X15660182Y-15113984D01*
X15783992Y-14980650D02*
X15860182Y-14980650D01*
X15812563Y-14913984D02*
X15812563Y-15085412D01*
X15812563Y-15085412D02*
X15822087Y-15104460D01*
X15822087Y-15104460D02*
X15841134Y-15113984D01*
X15841134Y-15113984D02*
X15860182Y-15113984D01*
X16079230Y-14980650D02*
X16079230Y-15180650D01*
X16079230Y-14990174D02*
X16098277Y-14980650D01*
X16098277Y-14980650D02*
X16136373Y-14980650D01*
X16136373Y-14980650D02*
X16155420Y-14990174D01*
X16155420Y-14990174D02*
X16164944Y-14999698D01*
X16164944Y-14999698D02*
X16174468Y-15018746D01*
X16174468Y-15018746D02*
X16174468Y-15075888D01*
X16174468Y-15075888D02*
X16164944Y-15094936D01*
X16164944Y-15094936D02*
X16155420Y-15104460D01*
X16155420Y-15104460D02*
X16136373Y-15113984D01*
X16136373Y-15113984D02*
X16098277Y-15113984D01*
X16098277Y-15113984D02*
X16079230Y-15104460D01*
X16288753Y-15113984D02*
X16269706Y-15104460D01*
X16269706Y-15104460D02*
X16260182Y-15085412D01*
X16260182Y-15085412D02*
X16260182Y-14913984D01*
X16450658Y-15113984D02*
X16450658Y-15009222D01*
X16450658Y-15009222D02*
X16441134Y-14990174D01*
X16441134Y-14990174D02*
X16422087Y-14980650D01*
X16422087Y-14980650D02*
X16383992Y-14980650D01*
X16383992Y-14980650D02*
X16364944Y-14990174D01*
X16450658Y-15104460D02*
X16431611Y-15113984D01*
X16431611Y-15113984D02*
X16383992Y-15113984D01*
X16383992Y-15113984D02*
X16364944Y-15104460D01*
X16364944Y-15104460D02*
X16355420Y-15085412D01*
X16355420Y-15085412D02*
X16355420Y-15066365D01*
X16355420Y-15066365D02*
X16364944Y-15047317D01*
X16364944Y-15047317D02*
X16383992Y-15037793D01*
X16383992Y-15037793D02*
X16431611Y-15037793D01*
X16431611Y-15037793D02*
X16450658Y-15028269D01*
X16517325Y-14980650D02*
X16593515Y-14980650D01*
X16545896Y-14913984D02*
X16545896Y-15085412D01*
X16545896Y-15085412D02*
X16555420Y-15104460D01*
X16555420Y-15104460D02*
X16574468Y-15113984D01*
X16574468Y-15113984D02*
X16593515Y-15113984D01*
X16736373Y-15104460D02*
X16717325Y-15113984D01*
X16717325Y-15113984D02*
X16679230Y-15113984D01*
X16679230Y-15113984D02*
X16660182Y-15104460D01*
X16660182Y-15104460D02*
X16650658Y-15085412D01*
X16650658Y-15085412D02*
X16650658Y-15009222D01*
X16650658Y-15009222D02*
X16660182Y-14990174D01*
X16660182Y-14990174D02*
X16679230Y-14980650D01*
X16679230Y-14980650D02*
X16717325Y-14980650D01*
X16717325Y-14980650D02*
X16736373Y-14990174D01*
X16736373Y-14990174D02*
X16745896Y-15009222D01*
X16745896Y-15009222D02*
X16745896Y-15028269D01*
X16745896Y-15028269D02*
X16650658Y-15047317D01*
X16917325Y-15113984D02*
X16917325Y-14913984D01*
X16917325Y-15104460D02*
X16898277Y-15113984D01*
X16898277Y-15113984D02*
X16860182Y-15113984D01*
X16860182Y-15113984D02*
X16841135Y-15104460D01*
X16841135Y-15104460D02*
X16831611Y-15094936D01*
X16831611Y-15094936D02*
X16822087Y-15075888D01*
X16822087Y-15075888D02*
X16822087Y-15018746D01*
X16822087Y-15018746D02*
X16831611Y-14999698D01*
X16831611Y-14999698D02*
X16841135Y-14990174D01*
X16841135Y-14990174D02*
X16860182Y-14980650D01*
X16860182Y-14980650D02*
X16898277Y-14980650D01*
X16898277Y-14980650D02*
X16917325Y-14990174D01*
X16993516Y-15190174D02*
X17003039Y-15180650D01*
X17003039Y-15180650D02*
X17022087Y-15152079D01*
X17022087Y-15152079D02*
X17031611Y-15133031D01*
X17031611Y-15133031D02*
X17041135Y-15104460D01*
X17041135Y-15104460D02*
X17050658Y-15056841D01*
X17050658Y-15056841D02*
X17050658Y-15018746D01*
X17050658Y-15018746D02*
X17041135Y-14971127D01*
X17041135Y-14971127D02*
X17031611Y-14942555D01*
X17031611Y-14942555D02*
X17022087Y-14923508D01*
X17022087Y-14923508D02*
X17003039Y-14894936D01*
X17003039Y-14894936D02*
X16993516Y-14885412D01*
X10237500Y-15342500D02*
G75*
G02*
X10037500Y-15342500I-100000J0D01*
G01*
X10037500Y-15342500D02*
G75*
G02*
X10237500Y-15342500I100000J0D01*
G01*
X10479229Y-15233984D02*
X10603039Y-15233984D01*
X10603039Y-15233984D02*
X10536372Y-15310174D01*
X10536372Y-15310174D02*
X10564944Y-15310174D01*
X10564944Y-15310174D02*
X10583991Y-15319698D01*
X10583991Y-15319698D02*
X10593515Y-15329222D01*
X10593515Y-15329222D02*
X10603039Y-15348269D01*
X10603039Y-15348269D02*
X10603039Y-15395888D01*
X10603039Y-15395888D02*
X10593515Y-15414936D01*
X10593515Y-15414936D02*
X10583991Y-15424460D01*
X10583991Y-15424460D02*
X10564944Y-15433984D01*
X10564944Y-15433984D02*
X10507801Y-15433984D01*
X10507801Y-15433984D02*
X10488753Y-15424460D01*
X10488753Y-15424460D02*
X10479229Y-15414936D01*
X10688753Y-15414936D02*
X10698277Y-15424460D01*
X10698277Y-15424460D02*
X10688753Y-15433984D01*
X10688753Y-15433984D02*
X10679229Y-15424460D01*
X10679229Y-15424460D02*
X10688753Y-15414936D01*
X10688753Y-15414936D02*
X10688753Y-15433984D01*
X10774467Y-15253031D02*
X10783991Y-15243508D01*
X10783991Y-15243508D02*
X10803039Y-15233984D01*
X10803039Y-15233984D02*
X10850658Y-15233984D01*
X10850658Y-15233984D02*
X10869705Y-15243508D01*
X10869705Y-15243508D02*
X10879229Y-15253031D01*
X10879229Y-15253031D02*
X10888753Y-15272079D01*
X10888753Y-15272079D02*
X10888753Y-15291127D01*
X10888753Y-15291127D02*
X10879229Y-15319698D01*
X10879229Y-15319698D02*
X10764944Y-15433984D01*
X10764944Y-15433984D02*
X10888753Y-15433984D01*
X11012563Y-15233984D02*
X11031610Y-15233984D01*
X11031610Y-15233984D02*
X11050658Y-15243508D01*
X11050658Y-15243508D02*
X11060182Y-15253031D01*
X11060182Y-15253031D02*
X11069705Y-15272079D01*
X11069705Y-15272079D02*
X11079229Y-15310174D01*
X11079229Y-15310174D02*
X11079229Y-15357793D01*
X11079229Y-15357793D02*
X11069705Y-15395888D01*
X11069705Y-15395888D02*
X11060182Y-15414936D01*
X11060182Y-15414936D02*
X11050658Y-15424460D01*
X11050658Y-15424460D02*
X11031610Y-15433984D01*
X11031610Y-15433984D02*
X11012563Y-15433984D01*
X11012563Y-15433984D02*
X10993515Y-15424460D01*
X10993515Y-15424460D02*
X10983991Y-15414936D01*
X10983991Y-15414936D02*
X10974467Y-15395888D01*
X10974467Y-15395888D02*
X10964944Y-15357793D01*
X10964944Y-15357793D02*
X10964944Y-15310174D01*
X10964944Y-15310174D02*
X10974467Y-15272079D01*
X10974467Y-15272079D02*
X10983991Y-15253031D01*
X10983991Y-15253031D02*
X10993515Y-15243508D01*
X10993515Y-15243508D02*
X11012563Y-15233984D01*
X11203039Y-15233984D02*
X11222086Y-15233984D01*
X11222086Y-15233984D02*
X11241134Y-15243508D01*
X11241134Y-15243508D02*
X11250658Y-15253031D01*
X11250658Y-15253031D02*
X11260182Y-15272079D01*
X11260182Y-15272079D02*
X11269705Y-15310174D01*
X11269705Y-15310174D02*
X11269705Y-15357793D01*
X11269705Y-15357793D02*
X11260182Y-15395888D01*
X11260182Y-15395888D02*
X11250658Y-15414936D01*
X11250658Y-15414936D02*
X11241134Y-15424460D01*
X11241134Y-15424460D02*
X11222086Y-15433984D01*
X11222086Y-15433984D02*
X11203039Y-15433984D01*
X11203039Y-15433984D02*
X11183991Y-15424460D01*
X11183991Y-15424460D02*
X11174467Y-15414936D01*
X11174467Y-15414936D02*
X11164944Y-15395888D01*
X11164944Y-15395888D02*
X11155420Y-15357793D01*
X11155420Y-15357793D02*
X11155420Y-15310174D01*
X11155420Y-15310174D02*
X11164944Y-15272079D01*
X11164944Y-15272079D02*
X11174467Y-15253031D01*
X11174467Y-15253031D02*
X11183991Y-15243508D01*
X11183991Y-15243508D02*
X11203039Y-15233984D01*
X11355420Y-15433984D02*
X11355420Y-15300650D01*
X11355420Y-15319698D02*
X11364943Y-15310174D01*
X11364943Y-15310174D02*
X11383991Y-15300650D01*
X11383991Y-15300650D02*
X11412563Y-15300650D01*
X11412563Y-15300650D02*
X11431610Y-15310174D01*
X11431610Y-15310174D02*
X11441134Y-15329222D01*
X11441134Y-15329222D02*
X11441134Y-15433984D01*
X11441134Y-15329222D02*
X11450658Y-15310174D01*
X11450658Y-15310174D02*
X11469705Y-15300650D01*
X11469705Y-15300650D02*
X11498277Y-15300650D01*
X11498277Y-15300650D02*
X11517324Y-15310174D01*
X11517324Y-15310174D02*
X11526848Y-15329222D01*
X11526848Y-15329222D02*
X11526848Y-15433984D01*
X11622086Y-15433984D02*
X11622086Y-15300650D01*
X11622086Y-15319698D02*
X11631610Y-15310174D01*
X11631610Y-15310174D02*
X11650658Y-15300650D01*
X11650658Y-15300650D02*
X11679229Y-15300650D01*
X11679229Y-15300650D02*
X11698277Y-15310174D01*
X11698277Y-15310174D02*
X11707801Y-15329222D01*
X11707801Y-15329222D02*
X11707801Y-15433984D01*
X11707801Y-15329222D02*
X11717324Y-15310174D01*
X11717324Y-15310174D02*
X11736372Y-15300650D01*
X11736372Y-15300650D02*
X11764943Y-15300650D01*
X11764943Y-15300650D02*
X11783991Y-15310174D01*
X11783991Y-15310174D02*
X11793515Y-15329222D01*
X11793515Y-15329222D02*
X11793515Y-15433984D01*
X12183991Y-15224460D02*
X12012563Y-15481603D01*
X12441134Y-15233984D02*
X12460182Y-15233984D01*
X12460182Y-15233984D02*
X12479229Y-15243508D01*
X12479229Y-15243508D02*
X12488753Y-15253031D01*
X12488753Y-15253031D02*
X12498277Y-15272079D01*
X12498277Y-15272079D02*
X12507801Y-15310174D01*
X12507801Y-15310174D02*
X12507801Y-15357793D01*
X12507801Y-15357793D02*
X12498277Y-15395888D01*
X12498277Y-15395888D02*
X12488753Y-15414936D01*
X12488753Y-15414936D02*
X12479229Y-15424460D01*
X12479229Y-15424460D02*
X12460182Y-15433984D01*
X12460182Y-15433984D02*
X12441134Y-15433984D01*
X12441134Y-15433984D02*
X12422086Y-15424460D01*
X12422086Y-15424460D02*
X12412563Y-15414936D01*
X12412563Y-15414936D02*
X12403039Y-15395888D01*
X12403039Y-15395888D02*
X12393515Y-15357793D01*
X12393515Y-15357793D02*
X12393515Y-15310174D01*
X12393515Y-15310174D02*
X12403039Y-15272079D01*
X12403039Y-15272079D02*
X12412563Y-15253031D01*
X12412563Y-15253031D02*
X12422086Y-15243508D01*
X12422086Y-15243508D02*
X12441134Y-15233984D01*
X12593515Y-15414936D02*
X12603039Y-15424460D01*
X12603039Y-15424460D02*
X12593515Y-15433984D01*
X12593515Y-15433984D02*
X12583991Y-15424460D01*
X12583991Y-15424460D02*
X12593515Y-15414936D01*
X12593515Y-15414936D02*
X12593515Y-15433984D01*
X12793515Y-15433984D02*
X12679229Y-15433984D01*
X12736372Y-15433984D02*
X12736372Y-15233984D01*
X12736372Y-15233984D02*
X12717325Y-15262555D01*
X12717325Y-15262555D02*
X12698277Y-15281603D01*
X12698277Y-15281603D02*
X12679229Y-15291127D01*
X12869706Y-15253031D02*
X12879229Y-15243508D01*
X12879229Y-15243508D02*
X12898277Y-15233984D01*
X12898277Y-15233984D02*
X12945896Y-15233984D01*
X12945896Y-15233984D02*
X12964944Y-15243508D01*
X12964944Y-15243508D02*
X12974467Y-15253031D01*
X12974467Y-15253031D02*
X12983991Y-15272079D01*
X12983991Y-15272079D02*
X12983991Y-15291127D01*
X12983991Y-15291127D02*
X12974467Y-15319698D01*
X12974467Y-15319698D02*
X12860182Y-15433984D01*
X12860182Y-15433984D02*
X12983991Y-15433984D01*
X13155420Y-15233984D02*
X13117325Y-15233984D01*
X13117325Y-15233984D02*
X13098277Y-15243508D01*
X13098277Y-15243508D02*
X13088753Y-15253031D01*
X13088753Y-15253031D02*
X13069706Y-15281603D01*
X13069706Y-15281603D02*
X13060182Y-15319698D01*
X13060182Y-15319698D02*
X13060182Y-15395888D01*
X13060182Y-15395888D02*
X13069706Y-15414936D01*
X13069706Y-15414936D02*
X13079229Y-15424460D01*
X13079229Y-15424460D02*
X13098277Y-15433984D01*
X13098277Y-15433984D02*
X13136372Y-15433984D01*
X13136372Y-15433984D02*
X13155420Y-15424460D01*
X13155420Y-15424460D02*
X13164944Y-15414936D01*
X13164944Y-15414936D02*
X13174467Y-15395888D01*
X13174467Y-15395888D02*
X13174467Y-15348269D01*
X13174467Y-15348269D02*
X13164944Y-15329222D01*
X13164944Y-15329222D02*
X13155420Y-15319698D01*
X13155420Y-15319698D02*
X13136372Y-15310174D01*
X13136372Y-15310174D02*
X13098277Y-15310174D01*
X13098277Y-15310174D02*
X13079229Y-15319698D01*
X13079229Y-15319698D02*
X13069706Y-15329222D01*
X13069706Y-15329222D02*
X13060182Y-15348269D01*
X13298277Y-15233984D02*
X13317325Y-15233984D01*
X13317325Y-15233984D02*
X13336372Y-15243508D01*
X13336372Y-15243508D02*
X13345896Y-15253031D01*
X13345896Y-15253031D02*
X13355420Y-15272079D01*
X13355420Y-15272079D02*
X13364944Y-15310174D01*
X13364944Y-15310174D02*
X13364944Y-15357793D01*
X13364944Y-15357793D02*
X13355420Y-15395888D01*
X13355420Y-15395888D02*
X13345896Y-15414936D01*
X13345896Y-15414936D02*
X13336372Y-15424460D01*
X13336372Y-15424460D02*
X13317325Y-15433984D01*
X13317325Y-15433984D02*
X13298277Y-15433984D01*
X13298277Y-15433984D02*
X13279229Y-15424460D01*
X13279229Y-15424460D02*
X13269706Y-15414936D01*
X13269706Y-15414936D02*
X13260182Y-15395888D01*
X13260182Y-15395888D02*
X13250658Y-15357793D01*
X13250658Y-15357793D02*
X13250658Y-15310174D01*
X13250658Y-15310174D02*
X13260182Y-15272079D01*
X13260182Y-15272079D02*
X13269706Y-15253031D01*
X13269706Y-15253031D02*
X13279229Y-15243508D01*
X13279229Y-15243508D02*
X13298277Y-15233984D01*
X13441134Y-15233984D02*
X13441134Y-15272079D01*
X13517325Y-15233984D02*
X13517325Y-15272079D01*
X13812563Y-15510174D02*
X13803039Y-15500650D01*
X13803039Y-15500650D02*
X13783991Y-15472079D01*
X13783991Y-15472079D02*
X13774468Y-15453031D01*
X13774468Y-15453031D02*
X13764944Y-15424460D01*
X13764944Y-15424460D02*
X13755420Y-15376841D01*
X13755420Y-15376841D02*
X13755420Y-15338746D01*
X13755420Y-15338746D02*
X13764944Y-15291127D01*
X13764944Y-15291127D02*
X13774468Y-15262555D01*
X13774468Y-15262555D02*
X13783991Y-15243508D01*
X13783991Y-15243508D02*
X13803039Y-15214936D01*
X13803039Y-15214936D02*
X13812563Y-15205412D01*
X13993515Y-15433984D02*
X13879229Y-15433984D01*
X13936372Y-15433984D02*
X13936372Y-15233984D01*
X13936372Y-15233984D02*
X13917325Y-15262555D01*
X13917325Y-15262555D02*
X13898277Y-15281603D01*
X13898277Y-15281603D02*
X13879229Y-15291127D01*
X14231610Y-15433984D02*
X14231610Y-15233984D01*
X14317325Y-15433984D02*
X14317325Y-15329222D01*
X14317325Y-15329222D02*
X14307801Y-15310174D01*
X14307801Y-15310174D02*
X14288753Y-15300650D01*
X14288753Y-15300650D02*
X14260182Y-15300650D01*
X14260182Y-15300650D02*
X14241134Y-15310174D01*
X14241134Y-15310174D02*
X14231610Y-15319698D01*
X14441134Y-15433984D02*
X14422087Y-15424460D01*
X14422087Y-15424460D02*
X14412563Y-15414936D01*
X14412563Y-15414936D02*
X14403039Y-15395888D01*
X14403039Y-15395888D02*
X14403039Y-15338746D01*
X14403039Y-15338746D02*
X14412563Y-15319698D01*
X14412563Y-15319698D02*
X14422087Y-15310174D01*
X14422087Y-15310174D02*
X14441134Y-15300650D01*
X14441134Y-15300650D02*
X14469706Y-15300650D01*
X14469706Y-15300650D02*
X14488753Y-15310174D01*
X14488753Y-15310174D02*
X14498277Y-15319698D01*
X14498277Y-15319698D02*
X14507801Y-15338746D01*
X14507801Y-15338746D02*
X14507801Y-15395888D01*
X14507801Y-15395888D02*
X14498277Y-15414936D01*
X14498277Y-15414936D02*
X14488753Y-15424460D01*
X14488753Y-15424460D02*
X14469706Y-15433984D01*
X14469706Y-15433984D02*
X14441134Y-15433984D01*
X14622087Y-15433984D02*
X14603039Y-15424460D01*
X14603039Y-15424460D02*
X14593515Y-15405412D01*
X14593515Y-15405412D02*
X14593515Y-15233984D01*
X14774468Y-15424460D02*
X14755420Y-15433984D01*
X14755420Y-15433984D02*
X14717325Y-15433984D01*
X14717325Y-15433984D02*
X14698277Y-15424460D01*
X14698277Y-15424460D02*
X14688753Y-15405412D01*
X14688753Y-15405412D02*
X14688753Y-15329222D01*
X14688753Y-15329222D02*
X14698277Y-15310174D01*
X14698277Y-15310174D02*
X14717325Y-15300650D01*
X14717325Y-15300650D02*
X14755420Y-15300650D01*
X14755420Y-15300650D02*
X14774468Y-15310174D01*
X14774468Y-15310174D02*
X14783991Y-15329222D01*
X14783991Y-15329222D02*
X14783991Y-15348269D01*
X14783991Y-15348269D02*
X14688753Y-15367317D01*
X14850658Y-15510174D02*
X14860182Y-15500650D01*
X14860182Y-15500650D02*
X14879230Y-15472079D01*
X14879230Y-15472079D02*
X14888753Y-15453031D01*
X14888753Y-15453031D02*
X14898277Y-15424460D01*
X14898277Y-15424460D02*
X14907801Y-15376841D01*
X14907801Y-15376841D02*
X14907801Y-15338746D01*
X14907801Y-15338746D02*
X14898277Y-15291127D01*
X14898277Y-15291127D02*
X14888753Y-15262555D01*
X14888753Y-15262555D02*
X14879230Y-15243508D01*
X14879230Y-15243508D02*
X14860182Y-15214936D01*
X14860182Y-15214936D02*
X14850658Y-15205412D01*
X15212563Y-15510174D02*
X15203039Y-15500650D01*
X15203039Y-15500650D02*
X15183991Y-15472079D01*
X15183991Y-15472079D02*
X15174468Y-15453031D01*
X15174468Y-15453031D02*
X15164944Y-15424460D01*
X15164944Y-15424460D02*
X15155420Y-15376841D01*
X15155420Y-15376841D02*
X15155420Y-15338746D01*
X15155420Y-15338746D02*
X15164944Y-15291127D01*
X15164944Y-15291127D02*
X15174468Y-15262555D01*
X15174468Y-15262555D02*
X15183991Y-15243508D01*
X15183991Y-15243508D02*
X15203039Y-15214936D01*
X15203039Y-15214936D02*
X15212563Y-15205412D01*
X15288753Y-15300650D02*
X15288753Y-15433984D01*
X15288753Y-15319698D02*
X15298277Y-15310174D01*
X15298277Y-15310174D02*
X15317325Y-15300650D01*
X15317325Y-15300650D02*
X15345896Y-15300650D01*
X15345896Y-15300650D02*
X15364944Y-15310174D01*
X15364944Y-15310174D02*
X15374468Y-15329222D01*
X15374468Y-15329222D02*
X15374468Y-15433984D01*
X15498277Y-15433984D02*
X15479230Y-15424460D01*
X15479230Y-15424460D02*
X15469706Y-15414936D01*
X15469706Y-15414936D02*
X15460182Y-15395888D01*
X15460182Y-15395888D02*
X15460182Y-15338746D01*
X15460182Y-15338746D02*
X15469706Y-15319698D01*
X15469706Y-15319698D02*
X15479230Y-15310174D01*
X15479230Y-15310174D02*
X15498277Y-15300650D01*
X15498277Y-15300650D02*
X15526849Y-15300650D01*
X15526849Y-15300650D02*
X15545896Y-15310174D01*
X15545896Y-15310174D02*
X15555420Y-15319698D01*
X15555420Y-15319698D02*
X15564944Y-15338746D01*
X15564944Y-15338746D02*
X15564944Y-15395888D01*
X15564944Y-15395888D02*
X15555420Y-15414936D01*
X15555420Y-15414936D02*
X15545896Y-15424460D01*
X15545896Y-15424460D02*
X15526849Y-15433984D01*
X15526849Y-15433984D02*
X15498277Y-15433984D01*
X15622087Y-15300650D02*
X15698277Y-15300650D01*
X15650658Y-15233984D02*
X15650658Y-15405412D01*
X15650658Y-15405412D02*
X15660182Y-15424460D01*
X15660182Y-15424460D02*
X15679230Y-15433984D01*
X15679230Y-15433984D02*
X15698277Y-15433984D01*
X15917325Y-15300650D02*
X15917325Y-15500650D01*
X15917325Y-15310174D02*
X15936372Y-15300650D01*
X15936372Y-15300650D02*
X15974468Y-15300650D01*
X15974468Y-15300650D02*
X15993515Y-15310174D01*
X15993515Y-15310174D02*
X16003039Y-15319698D01*
X16003039Y-15319698D02*
X16012563Y-15338746D01*
X16012563Y-15338746D02*
X16012563Y-15395888D01*
X16012563Y-15395888D02*
X16003039Y-15414936D01*
X16003039Y-15414936D02*
X15993515Y-15424460D01*
X15993515Y-15424460D02*
X15974468Y-15433984D01*
X15974468Y-15433984D02*
X15936372Y-15433984D01*
X15936372Y-15433984D02*
X15917325Y-15424460D01*
X16126849Y-15433984D02*
X16107801Y-15424460D01*
X16107801Y-15424460D02*
X16098277Y-15405412D01*
X16098277Y-15405412D02*
X16098277Y-15233984D01*
X16288753Y-15433984D02*
X16288753Y-15329222D01*
X16288753Y-15329222D02*
X16279230Y-15310174D01*
X16279230Y-15310174D02*
X16260182Y-15300650D01*
X16260182Y-15300650D02*
X16222087Y-15300650D01*
X16222087Y-15300650D02*
X16203039Y-15310174D01*
X16288753Y-15424460D02*
X16269706Y-15433984D01*
X16269706Y-15433984D02*
X16222087Y-15433984D01*
X16222087Y-15433984D02*
X16203039Y-15424460D01*
X16203039Y-15424460D02*
X16193515Y-15405412D01*
X16193515Y-15405412D02*
X16193515Y-15386365D01*
X16193515Y-15386365D02*
X16203039Y-15367317D01*
X16203039Y-15367317D02*
X16222087Y-15357793D01*
X16222087Y-15357793D02*
X16269706Y-15357793D01*
X16269706Y-15357793D02*
X16288753Y-15348269D01*
X16355420Y-15300650D02*
X16431611Y-15300650D01*
X16383992Y-15233984D02*
X16383992Y-15405412D01*
X16383992Y-15405412D02*
X16393515Y-15424460D01*
X16393515Y-15424460D02*
X16412563Y-15433984D01*
X16412563Y-15433984D02*
X16431611Y-15433984D01*
X16574468Y-15424460D02*
X16555420Y-15433984D01*
X16555420Y-15433984D02*
X16517325Y-15433984D01*
X16517325Y-15433984D02*
X16498277Y-15424460D01*
X16498277Y-15424460D02*
X16488753Y-15405412D01*
X16488753Y-15405412D02*
X16488753Y-15329222D01*
X16488753Y-15329222D02*
X16498277Y-15310174D01*
X16498277Y-15310174D02*
X16517325Y-15300650D01*
X16517325Y-15300650D02*
X16555420Y-15300650D01*
X16555420Y-15300650D02*
X16574468Y-15310174D01*
X16574468Y-15310174D02*
X16583992Y-15329222D01*
X16583992Y-15329222D02*
X16583992Y-15348269D01*
X16583992Y-15348269D02*
X16488753Y-15367317D01*
X16755420Y-15433984D02*
X16755420Y-15233984D01*
X16755420Y-15424460D02*
X16736373Y-15433984D01*
X16736373Y-15433984D02*
X16698277Y-15433984D01*
X16698277Y-15433984D02*
X16679230Y-15424460D01*
X16679230Y-15424460D02*
X16669706Y-15414936D01*
X16669706Y-15414936D02*
X16660182Y-15395888D01*
X16660182Y-15395888D02*
X16660182Y-15338746D01*
X16660182Y-15338746D02*
X16669706Y-15319698D01*
X16669706Y-15319698D02*
X16679230Y-15310174D01*
X16679230Y-15310174D02*
X16698277Y-15300650D01*
X16698277Y-15300650D02*
X16736373Y-15300650D01*
X16736373Y-15300650D02*
X16755420Y-15310174D01*
X16831611Y-15510174D02*
X16841135Y-15500650D01*
X16841135Y-15500650D02*
X16860182Y-15472079D01*
X16860182Y-15472079D02*
X16869706Y-15453031D01*
X16869706Y-15453031D02*
X16879230Y-15424460D01*
X16879230Y-15424460D02*
X16888754Y-15376841D01*
X16888754Y-15376841D02*
X16888754Y-15338746D01*
X16888754Y-15338746D02*
X16879230Y-15291127D01*
X16879230Y-15291127D02*
X16869706Y-15262555D01*
X16869706Y-15262555D02*
X16860182Y-15243508D01*
X16860182Y-15243508D02*
X16841135Y-15214936D01*
X16841135Y-15214936D02*
X16831611Y-15205412D01*
M02*
