G04 #@! TF.GenerationSoftware,KiCad,Pcbnew,8.0.6-8.0.6-0~ubuntu22.04.1*
G04 #@! TF.CreationDate,2025-02-02T12:48:45+01:00*
G04 #@! TF.ProjectId,Drumbox,4472756d-626f-4782-9e6b-696361645f70,rev?*
G04 #@! TF.SameCoordinates,Original*
G04 #@! TF.FileFunction,Soldermask,Bot*
G04 #@! TF.FilePolarity,Negative*
%FSLAX46Y46*%
G04 Gerber Fmt 4.6, Leading zero omitted, Abs format (unit mm)*
G04 Created by KiCad (PCBNEW 8.0.6-8.0.6-0~ubuntu22.04.1) date 2025-02-02 12:48:45*
%MOMM*%
%LPD*%
G01*
G04 APERTURE LIST*
%ADD10R,1.930000X1.830000*%
%ADD11C,2.130000*%
%ADD12R,1.800000X1.800000*%
%ADD13C,1.800000*%
%ADD14R,1.600000X1.600000*%
%ADD15O,1.600000X1.600000*%
%ADD16C,1.600000*%
%ADD17C,4.000000*%
%ADD18C,3.200000*%
%ADD19R,1.700000X1.700000*%
%ADD20O,1.700000X1.700000*%
G04 APERTURE END LIST*
D10*
X147400000Y-113820000D03*
D11*
X147400000Y-125220000D03*
X147400000Y-116920000D03*
D12*
X114080000Y-80300000D03*
D13*
X116620000Y-80300000D03*
D10*
X147400000Y-93820000D03*
D11*
X147400000Y-105220000D03*
X147400000Y-96920000D03*
D14*
X125495000Y-123380000D03*
D15*
X125495000Y-125920000D03*
X125495000Y-128460000D03*
X125495000Y-131000000D03*
X125495000Y-133540000D03*
X125495000Y-136080000D03*
X125495000Y-138620000D03*
X133115000Y-138620000D03*
X133115000Y-136080000D03*
X133115000Y-133540000D03*
X133115000Y-131000000D03*
X133115000Y-128460000D03*
X133115000Y-125920000D03*
X133115000Y-123380000D03*
D16*
X140800000Y-65220000D03*
D15*
X140800000Y-57600000D03*
D14*
X111110000Y-111100000D03*
D15*
X103490000Y-111100000D03*
D16*
X113540000Y-142300000D03*
D15*
X121160000Y-142300000D03*
D16*
X136195000Y-126005000D03*
X136195000Y-131005000D03*
X120465000Y-113905000D03*
D15*
X128085000Y-113905000D03*
D10*
X107400000Y-93820000D03*
D11*
X107400000Y-105220000D03*
X107400000Y-96920000D03*
D12*
X114080000Y-100300000D03*
D13*
X116620000Y-100300000D03*
D12*
X114080000Y-40300000D03*
D13*
X116620000Y-40300000D03*
D14*
X117800000Y-108180000D03*
D15*
X117800000Y-115800000D03*
D17*
X123000000Y-40800000D03*
X131800000Y-40800000D03*
D13*
X124900000Y-47800000D03*
X127400000Y-47800000D03*
X129900000Y-47800000D03*
D16*
X103430000Y-68400000D03*
D15*
X111050000Y-68400000D03*
D16*
X103480000Y-88400000D03*
D15*
X111100000Y-88400000D03*
D10*
X147400000Y-73820000D03*
D11*
X147400000Y-85220000D03*
X147400000Y-76920000D03*
D14*
X111110000Y-71100000D03*
D15*
X103490000Y-71100000D03*
D16*
X140800000Y-105210000D03*
D15*
X140800000Y-97590000D03*
D17*
X123000000Y-60800000D03*
X131800000Y-60800000D03*
D13*
X124900000Y-67800000D03*
X127400000Y-67800000D03*
X129900000Y-67800000D03*
D12*
X114080000Y-60300000D03*
D13*
X116620000Y-60300000D03*
D16*
X103450000Y-108400000D03*
D15*
X111070000Y-108400000D03*
D12*
X114080000Y-120300000D03*
D13*
X116620000Y-120300000D03*
D17*
X123000000Y-80800000D03*
X131800000Y-80800000D03*
D13*
X124900000Y-87800000D03*
X127400000Y-87800000D03*
X129900000Y-87800000D03*
D17*
X123000000Y-100800000D03*
X131800000Y-100800000D03*
D13*
X124900000Y-107800000D03*
X127400000Y-107800000D03*
X129900000Y-107800000D03*
D14*
X111120000Y-91100000D03*
D15*
X103500000Y-91100000D03*
D14*
X119500000Y-124190000D03*
D15*
X119500000Y-131810000D03*
D16*
X128095000Y-117005000D03*
D15*
X120475000Y-117005000D03*
D16*
X103440000Y-49800000D03*
D15*
X111060000Y-49800000D03*
D10*
X107400000Y-113820000D03*
D11*
X107400000Y-125220000D03*
X107400000Y-116920000D03*
D16*
X137975000Y-117005000D03*
D15*
X130355000Y-117005000D03*
D12*
X114080000Y-137300000D03*
D13*
X116620000Y-137300000D03*
D16*
X122395000Y-131005000D03*
X122395000Y-126005000D03*
D10*
X107400000Y-46800000D03*
D11*
X107400000Y-35400000D03*
X107400000Y-43700000D03*
D14*
X116900000Y-124190000D03*
D15*
X116900000Y-131810000D03*
D10*
X147400000Y-46800000D03*
D11*
X147400000Y-35400000D03*
X147400000Y-43700000D03*
D16*
X114000000Y-131820000D03*
D15*
X114000000Y-124200000D03*
D10*
X147400000Y-130820000D03*
D11*
X147400000Y-142220000D03*
X147400000Y-133920000D03*
D16*
X140800000Y-85210000D03*
D15*
X140800000Y-77590000D03*
D18*
X118400000Y-71700000D03*
D16*
X130345000Y-113905000D03*
D15*
X137965000Y-113905000D03*
D10*
X107400000Y-53820000D03*
D11*
X107400000Y-65220000D03*
X107400000Y-56920000D03*
D10*
X107400000Y-130820000D03*
D11*
X107400000Y-142220000D03*
X107400000Y-133920000D03*
D10*
X147400000Y-53820000D03*
D11*
X147400000Y-65220000D03*
X147400000Y-56920000D03*
D10*
X107400000Y-73820000D03*
D11*
X107400000Y-85220000D03*
X107400000Y-76920000D03*
D14*
X120910000Y-50200000D03*
D15*
X113290000Y-50200000D03*
D16*
X120465000Y-120105000D03*
D15*
X128085000Y-120105000D03*
D16*
X140800000Y-142220000D03*
D15*
X140800000Y-134600000D03*
D16*
X140800000Y-125200000D03*
D15*
X140800000Y-117580000D03*
D16*
X140800000Y-35390000D03*
D15*
X140800000Y-43010000D03*
D16*
X130355000Y-120105000D03*
D15*
X137975000Y-120105000D03*
D19*
X136900000Y-42100000D03*
D20*
X136900000Y-44640000D03*
X136900000Y-47180000D03*
X136900000Y-49720000D03*
X136900000Y-52260000D03*
X136900000Y-54800000D03*
X136900000Y-57340000D03*
X136900000Y-59880000D03*
X136900000Y-62420000D03*
X136900000Y-64960000D03*
X136900000Y-67500000D03*
X136900000Y-70040000D03*
D19*
X138300000Y-133300000D03*
D20*
X138300000Y-135840000D03*
X138300000Y-138380000D03*
X138300000Y-140920000D03*
D19*
X136900000Y-81800000D03*
D20*
X136900000Y-84340000D03*
X136900000Y-86880000D03*
X136900000Y-89420000D03*
X136900000Y-91960000D03*
X136900000Y-94500000D03*
X136900000Y-97040000D03*
X136900000Y-99580000D03*
X136900000Y-102120000D03*
X136900000Y-104660000D03*
X136900000Y-107200000D03*
X136900000Y-109740000D03*
M02*
