G04 #@! TF.GenerationSoftware,KiCad,Pcbnew,8.0.6-8.0.6-0~ubuntu22.04.1*
G04 #@! TF.CreationDate,2025-02-02T12:48:45+01:00*
G04 #@! TF.ProjectId,Drumbox,4472756d-626f-4782-9e6b-696361645f70,rev?*
G04 #@! TF.SameCoordinates,Original*
G04 #@! TF.FileFunction,Legend,Top*
G04 #@! TF.FilePolarity,Positive*
%FSLAX46Y46*%
G04 Gerber Fmt 4.6, Leading zero omitted, Abs format (unit mm)*
G04 Created by KiCad (PCBNEW 8.0.6-8.0.6-0~ubuntu22.04.1) date 2025-02-02 12:48:45*
%MOMM*%
%LPD*%
G01*
G04 APERTURE LIST*
%ADD10C,0.150000*%
%ADD11C,0.120000*%
%ADD12R,1.930000X1.830000*%
%ADD13C,2.130000*%
%ADD14R,1.800000X1.800000*%
%ADD15C,1.800000*%
%ADD16R,1.600000X1.600000*%
%ADD17O,1.600000X1.600000*%
%ADD18C,1.600000*%
%ADD19C,4.000000*%
%ADD20C,3.200000*%
%ADD21R,1.700000X1.700000*%
%ADD22O,1.700000X1.700000*%
G04 APERTURE END LIST*
D10*
X115528571Y-90449847D02*
X115528571Y-89449847D01*
X115528571Y-89449847D02*
X115766666Y-89449847D01*
X115766666Y-89449847D02*
X115909523Y-89497466D01*
X115909523Y-89497466D02*
X116004761Y-89592704D01*
X116004761Y-89592704D02*
X116052380Y-89687942D01*
X116052380Y-89687942D02*
X116099999Y-89878418D01*
X116099999Y-89878418D02*
X116099999Y-90021275D01*
X116099999Y-90021275D02*
X116052380Y-90211751D01*
X116052380Y-90211751D02*
X116004761Y-90306989D01*
X116004761Y-90306989D02*
X115909523Y-90402228D01*
X115909523Y-90402228D02*
X115766666Y-90449847D01*
X115766666Y-90449847D02*
X115528571Y-90449847D01*
X116528571Y-90449847D02*
X116528571Y-89783180D01*
X116528571Y-89973656D02*
X116576190Y-89878418D01*
X116576190Y-89878418D02*
X116623809Y-89830799D01*
X116623809Y-89830799D02*
X116719047Y-89783180D01*
X116719047Y-89783180D02*
X116814285Y-89783180D01*
X117576190Y-89783180D02*
X117576190Y-90449847D01*
X117147619Y-89783180D02*
X117147619Y-90306989D01*
X117147619Y-90306989D02*
X117195238Y-90402228D01*
X117195238Y-90402228D02*
X117290476Y-90449847D01*
X117290476Y-90449847D02*
X117433333Y-90449847D01*
X117433333Y-90449847D02*
X117528571Y-90402228D01*
X117528571Y-90402228D02*
X117576190Y-90354608D01*
X118052381Y-90449847D02*
X118052381Y-89783180D01*
X118052381Y-89878418D02*
X118100000Y-89830799D01*
X118100000Y-89830799D02*
X118195238Y-89783180D01*
X118195238Y-89783180D02*
X118338095Y-89783180D01*
X118338095Y-89783180D02*
X118433333Y-89830799D01*
X118433333Y-89830799D02*
X118480952Y-89926037D01*
X118480952Y-89926037D02*
X118480952Y-90449847D01*
X118480952Y-89926037D02*
X118528571Y-89830799D01*
X118528571Y-89830799D02*
X118623809Y-89783180D01*
X118623809Y-89783180D02*
X118766666Y-89783180D01*
X118766666Y-89783180D02*
X118861905Y-89830799D01*
X118861905Y-89830799D02*
X118909524Y-89926037D01*
X118909524Y-89926037D02*
X118909524Y-90449847D01*
X119385714Y-90449847D02*
X119385714Y-89449847D01*
X119385714Y-89830799D02*
X119480952Y-89783180D01*
X119480952Y-89783180D02*
X119671428Y-89783180D01*
X119671428Y-89783180D02*
X119766666Y-89830799D01*
X119766666Y-89830799D02*
X119814285Y-89878418D01*
X119814285Y-89878418D02*
X119861904Y-89973656D01*
X119861904Y-89973656D02*
X119861904Y-90259370D01*
X119861904Y-90259370D02*
X119814285Y-90354608D01*
X119814285Y-90354608D02*
X119766666Y-90402228D01*
X119766666Y-90402228D02*
X119671428Y-90449847D01*
X119671428Y-90449847D02*
X119480952Y-90449847D01*
X119480952Y-90449847D02*
X119385714Y-90402228D01*
X120433333Y-90449847D02*
X120338095Y-90402228D01*
X120338095Y-90402228D02*
X120290476Y-90354608D01*
X120290476Y-90354608D02*
X120242857Y-90259370D01*
X120242857Y-90259370D02*
X120242857Y-89973656D01*
X120242857Y-89973656D02*
X120290476Y-89878418D01*
X120290476Y-89878418D02*
X120338095Y-89830799D01*
X120338095Y-89830799D02*
X120433333Y-89783180D01*
X120433333Y-89783180D02*
X120576190Y-89783180D01*
X120576190Y-89783180D02*
X120671428Y-89830799D01*
X120671428Y-89830799D02*
X120719047Y-89878418D01*
X120719047Y-89878418D02*
X120766666Y-89973656D01*
X120766666Y-89973656D02*
X120766666Y-90259370D01*
X120766666Y-90259370D02*
X120719047Y-90354608D01*
X120719047Y-90354608D02*
X120671428Y-90402228D01*
X120671428Y-90402228D02*
X120576190Y-90449847D01*
X120576190Y-90449847D02*
X120433333Y-90449847D01*
X121100000Y-90449847D02*
X121623809Y-89783180D01*
X121100000Y-89783180D02*
X121623809Y-90449847D01*
X123290476Y-90449847D02*
X122719048Y-90449847D01*
X123004762Y-90449847D02*
X123004762Y-89449847D01*
X123004762Y-89449847D02*
X122909524Y-89592704D01*
X122909524Y-89592704D02*
X122814286Y-89687942D01*
X122814286Y-89687942D02*
X122719048Y-89735561D01*
X123719048Y-90354608D02*
X123766667Y-90402228D01*
X123766667Y-90402228D02*
X123719048Y-90449847D01*
X123719048Y-90449847D02*
X123671429Y-90402228D01*
X123671429Y-90402228D02*
X123719048Y-90354608D01*
X123719048Y-90354608D02*
X123719048Y-90449847D01*
X124385714Y-89449847D02*
X124480952Y-89449847D01*
X124480952Y-89449847D02*
X124576190Y-89497466D01*
X124576190Y-89497466D02*
X124623809Y-89545085D01*
X124623809Y-89545085D02*
X124671428Y-89640323D01*
X124671428Y-89640323D02*
X124719047Y-89830799D01*
X124719047Y-89830799D02*
X124719047Y-90068894D01*
X124719047Y-90068894D02*
X124671428Y-90259370D01*
X124671428Y-90259370D02*
X124623809Y-90354608D01*
X124623809Y-90354608D02*
X124576190Y-90402228D01*
X124576190Y-90402228D02*
X124480952Y-90449847D01*
X124480952Y-90449847D02*
X124385714Y-90449847D01*
X124385714Y-90449847D02*
X124290476Y-90402228D01*
X124290476Y-90402228D02*
X124242857Y-90354608D01*
X124242857Y-90354608D02*
X124195238Y-90259370D01*
X124195238Y-90259370D02*
X124147619Y-90068894D01*
X124147619Y-90068894D02*
X124147619Y-89830799D01*
X124147619Y-89830799D02*
X124195238Y-89640323D01*
X124195238Y-89640323D02*
X124242857Y-89545085D01*
X124242857Y-89545085D02*
X124290476Y-89497466D01*
X124290476Y-89497466D02*
X124385714Y-89449847D01*
X113647618Y-91535981D02*
X113790475Y-91583600D01*
X113790475Y-91583600D02*
X113838094Y-91631219D01*
X113838094Y-91631219D02*
X113885713Y-91726457D01*
X113885713Y-91726457D02*
X113885713Y-91869314D01*
X113885713Y-91869314D02*
X113838094Y-91964552D01*
X113838094Y-91964552D02*
X113790475Y-92012172D01*
X113790475Y-92012172D02*
X113695237Y-92059791D01*
X113695237Y-92059791D02*
X113314285Y-92059791D01*
X113314285Y-92059791D02*
X113314285Y-91059791D01*
X113314285Y-91059791D02*
X113647618Y-91059791D01*
X113647618Y-91059791D02*
X113742856Y-91107410D01*
X113742856Y-91107410D02*
X113790475Y-91155029D01*
X113790475Y-91155029D02*
X113838094Y-91250267D01*
X113838094Y-91250267D02*
X113838094Y-91345505D01*
X113838094Y-91345505D02*
X113790475Y-91440743D01*
X113790475Y-91440743D02*
X113742856Y-91488362D01*
X113742856Y-91488362D02*
X113647618Y-91535981D01*
X113647618Y-91535981D02*
X113314285Y-91535981D01*
X114457142Y-92059791D02*
X114361904Y-92012172D01*
X114361904Y-92012172D02*
X114314285Y-91916933D01*
X114314285Y-91916933D02*
X114314285Y-91059791D01*
X115219047Y-92012172D02*
X115123809Y-92059791D01*
X115123809Y-92059791D02*
X114933333Y-92059791D01*
X114933333Y-92059791D02*
X114838095Y-92012172D01*
X114838095Y-92012172D02*
X114790476Y-91916933D01*
X114790476Y-91916933D02*
X114790476Y-91535981D01*
X114790476Y-91535981D02*
X114838095Y-91440743D01*
X114838095Y-91440743D02*
X114933333Y-91393124D01*
X114933333Y-91393124D02*
X115123809Y-91393124D01*
X115123809Y-91393124D02*
X115219047Y-91440743D01*
X115219047Y-91440743D02*
X115266666Y-91535981D01*
X115266666Y-91535981D02*
X115266666Y-91631219D01*
X115266666Y-91631219D02*
X114790476Y-91726457D01*
X116076190Y-92012172D02*
X115980952Y-92059791D01*
X115980952Y-92059791D02*
X115790476Y-92059791D01*
X115790476Y-92059791D02*
X115695238Y-92012172D01*
X115695238Y-92012172D02*
X115647619Y-91916933D01*
X115647619Y-91916933D02*
X115647619Y-91535981D01*
X115647619Y-91535981D02*
X115695238Y-91440743D01*
X115695238Y-91440743D02*
X115790476Y-91393124D01*
X115790476Y-91393124D02*
X115980952Y-91393124D01*
X115980952Y-91393124D02*
X116076190Y-91440743D01*
X116076190Y-91440743D02*
X116123809Y-91535981D01*
X116123809Y-91535981D02*
X116123809Y-91631219D01*
X116123809Y-91631219D02*
X115647619Y-91726457D01*
X116552381Y-91393124D02*
X116552381Y-92393124D01*
X116552381Y-91440743D02*
X116647619Y-91393124D01*
X116647619Y-91393124D02*
X116838095Y-91393124D01*
X116838095Y-91393124D02*
X116933333Y-91440743D01*
X116933333Y-91440743D02*
X116980952Y-91488362D01*
X116980952Y-91488362D02*
X117028571Y-91583600D01*
X117028571Y-91583600D02*
X117028571Y-91869314D01*
X117028571Y-91869314D02*
X116980952Y-91964552D01*
X116980952Y-91964552D02*
X116933333Y-92012172D01*
X116933333Y-92012172D02*
X116838095Y-92059791D01*
X116838095Y-92059791D02*
X116647619Y-92059791D01*
X116647619Y-92059791D02*
X116552381Y-92012172D01*
X118171429Y-92012172D02*
X118314286Y-92059791D01*
X118314286Y-92059791D02*
X118552381Y-92059791D01*
X118552381Y-92059791D02*
X118647619Y-92012172D01*
X118647619Y-92012172D02*
X118695238Y-91964552D01*
X118695238Y-91964552D02*
X118742857Y-91869314D01*
X118742857Y-91869314D02*
X118742857Y-91774076D01*
X118742857Y-91774076D02*
X118695238Y-91678838D01*
X118695238Y-91678838D02*
X118647619Y-91631219D01*
X118647619Y-91631219D02*
X118552381Y-91583600D01*
X118552381Y-91583600D02*
X118361905Y-91535981D01*
X118361905Y-91535981D02*
X118266667Y-91488362D01*
X118266667Y-91488362D02*
X118219048Y-91440743D01*
X118219048Y-91440743D02*
X118171429Y-91345505D01*
X118171429Y-91345505D02*
X118171429Y-91250267D01*
X118171429Y-91250267D02*
X118219048Y-91155029D01*
X118219048Y-91155029D02*
X118266667Y-91107410D01*
X118266667Y-91107410D02*
X118361905Y-91059791D01*
X118361905Y-91059791D02*
X118600000Y-91059791D01*
X118600000Y-91059791D02*
X118742857Y-91107410D01*
X119314286Y-92059791D02*
X119219048Y-92012172D01*
X119219048Y-92012172D02*
X119171429Y-91964552D01*
X119171429Y-91964552D02*
X119123810Y-91869314D01*
X119123810Y-91869314D02*
X119123810Y-91583600D01*
X119123810Y-91583600D02*
X119171429Y-91488362D01*
X119171429Y-91488362D02*
X119219048Y-91440743D01*
X119219048Y-91440743D02*
X119314286Y-91393124D01*
X119314286Y-91393124D02*
X119457143Y-91393124D01*
X119457143Y-91393124D02*
X119552381Y-91440743D01*
X119552381Y-91440743D02*
X119600000Y-91488362D01*
X119600000Y-91488362D02*
X119647619Y-91583600D01*
X119647619Y-91583600D02*
X119647619Y-91869314D01*
X119647619Y-91869314D02*
X119600000Y-91964552D01*
X119600000Y-91964552D02*
X119552381Y-92012172D01*
X119552381Y-92012172D02*
X119457143Y-92059791D01*
X119457143Y-92059791D02*
X119314286Y-92059791D01*
X120504762Y-91393124D02*
X120504762Y-92059791D01*
X120076191Y-91393124D02*
X120076191Y-91916933D01*
X120076191Y-91916933D02*
X120123810Y-92012172D01*
X120123810Y-92012172D02*
X120219048Y-92059791D01*
X120219048Y-92059791D02*
X120361905Y-92059791D01*
X120361905Y-92059791D02*
X120457143Y-92012172D01*
X120457143Y-92012172D02*
X120504762Y-91964552D01*
X120980953Y-91393124D02*
X120980953Y-92059791D01*
X120980953Y-91488362D02*
X121028572Y-91440743D01*
X121028572Y-91440743D02*
X121123810Y-91393124D01*
X121123810Y-91393124D02*
X121266667Y-91393124D01*
X121266667Y-91393124D02*
X121361905Y-91440743D01*
X121361905Y-91440743D02*
X121409524Y-91535981D01*
X121409524Y-91535981D02*
X121409524Y-92059791D01*
X122314286Y-92059791D02*
X122314286Y-91059791D01*
X122314286Y-92012172D02*
X122219048Y-92059791D01*
X122219048Y-92059791D02*
X122028572Y-92059791D01*
X122028572Y-92059791D02*
X121933334Y-92012172D01*
X121933334Y-92012172D02*
X121885715Y-91964552D01*
X121885715Y-91964552D02*
X121838096Y-91869314D01*
X121838096Y-91869314D02*
X121838096Y-91583600D01*
X121838096Y-91583600D02*
X121885715Y-91488362D01*
X121885715Y-91488362D02*
X121933334Y-91440743D01*
X121933334Y-91440743D02*
X122028572Y-91393124D01*
X122028572Y-91393124D02*
X122219048Y-91393124D01*
X122219048Y-91393124D02*
X122314286Y-91440743D01*
X123504763Y-91155029D02*
X123552382Y-91107410D01*
X123552382Y-91107410D02*
X123647620Y-91059791D01*
X123647620Y-91059791D02*
X123885715Y-91059791D01*
X123885715Y-91059791D02*
X123980953Y-91107410D01*
X123980953Y-91107410D02*
X124028572Y-91155029D01*
X124028572Y-91155029D02*
X124076191Y-91250267D01*
X124076191Y-91250267D02*
X124076191Y-91345505D01*
X124076191Y-91345505D02*
X124028572Y-91488362D01*
X124028572Y-91488362D02*
X123457144Y-92059791D01*
X123457144Y-92059791D02*
X124076191Y-92059791D01*
X124695239Y-91059791D02*
X124790477Y-91059791D01*
X124790477Y-91059791D02*
X124885715Y-91107410D01*
X124885715Y-91107410D02*
X124933334Y-91155029D01*
X124933334Y-91155029D02*
X124980953Y-91250267D01*
X124980953Y-91250267D02*
X125028572Y-91440743D01*
X125028572Y-91440743D02*
X125028572Y-91678838D01*
X125028572Y-91678838D02*
X124980953Y-91869314D01*
X124980953Y-91869314D02*
X124933334Y-91964552D01*
X124933334Y-91964552D02*
X124885715Y-92012172D01*
X124885715Y-92012172D02*
X124790477Y-92059791D01*
X124790477Y-92059791D02*
X124695239Y-92059791D01*
X124695239Y-92059791D02*
X124600001Y-92012172D01*
X124600001Y-92012172D02*
X124552382Y-91964552D01*
X124552382Y-91964552D02*
X124504763Y-91869314D01*
X124504763Y-91869314D02*
X124457144Y-91678838D01*
X124457144Y-91678838D02*
X124457144Y-91440743D01*
X124457144Y-91440743D02*
X124504763Y-91250267D01*
X124504763Y-91250267D02*
X124552382Y-91155029D01*
X124552382Y-91155029D02*
X124600001Y-91107410D01*
X124600001Y-91107410D02*
X124695239Y-91059791D01*
X125409525Y-91155029D02*
X125457144Y-91107410D01*
X125457144Y-91107410D02*
X125552382Y-91059791D01*
X125552382Y-91059791D02*
X125790477Y-91059791D01*
X125790477Y-91059791D02*
X125885715Y-91107410D01*
X125885715Y-91107410D02*
X125933334Y-91155029D01*
X125933334Y-91155029D02*
X125980953Y-91250267D01*
X125980953Y-91250267D02*
X125980953Y-91345505D01*
X125980953Y-91345505D02*
X125933334Y-91488362D01*
X125933334Y-91488362D02*
X125361906Y-92059791D01*
X125361906Y-92059791D02*
X125980953Y-92059791D01*
X126885715Y-91059791D02*
X126409525Y-91059791D01*
X126409525Y-91059791D02*
X126361906Y-91535981D01*
X126361906Y-91535981D02*
X126409525Y-91488362D01*
X126409525Y-91488362D02*
X126504763Y-91440743D01*
X126504763Y-91440743D02*
X126742858Y-91440743D01*
X126742858Y-91440743D02*
X126838096Y-91488362D01*
X126838096Y-91488362D02*
X126885715Y-91535981D01*
X126885715Y-91535981D02*
X126933334Y-91631219D01*
X126933334Y-91631219D02*
X126933334Y-91869314D01*
X126933334Y-91869314D02*
X126885715Y-91964552D01*
X126885715Y-91964552D02*
X126838096Y-92012172D01*
X126838096Y-92012172D02*
X126742858Y-92059791D01*
X126742858Y-92059791D02*
X126504763Y-92059791D01*
X126504763Y-92059791D02*
X126409525Y-92012172D01*
X126409525Y-92012172D02*
X126361906Y-91964552D01*
X117647618Y-93401009D02*
X117790475Y-93448628D01*
X117790475Y-93448628D02*
X117838094Y-93496247D01*
X117838094Y-93496247D02*
X117885713Y-93591485D01*
X117885713Y-93591485D02*
X117885713Y-93734342D01*
X117885713Y-93734342D02*
X117838094Y-93829580D01*
X117838094Y-93829580D02*
X117790475Y-93877200D01*
X117790475Y-93877200D02*
X117695237Y-93924819D01*
X117695237Y-93924819D02*
X117314285Y-93924819D01*
X117314285Y-93924819D02*
X117314285Y-92924819D01*
X117314285Y-92924819D02*
X117647618Y-92924819D01*
X117647618Y-92924819D02*
X117742856Y-92972438D01*
X117742856Y-92972438D02*
X117790475Y-93020057D01*
X117790475Y-93020057D02*
X117838094Y-93115295D01*
X117838094Y-93115295D02*
X117838094Y-93210533D01*
X117838094Y-93210533D02*
X117790475Y-93305771D01*
X117790475Y-93305771D02*
X117742856Y-93353390D01*
X117742856Y-93353390D02*
X117647618Y-93401009D01*
X117647618Y-93401009D02*
X117314285Y-93401009D01*
X118457142Y-93924819D02*
X118361904Y-93877200D01*
X118361904Y-93877200D02*
X118314285Y-93829580D01*
X118314285Y-93829580D02*
X118266666Y-93734342D01*
X118266666Y-93734342D02*
X118266666Y-93448628D01*
X118266666Y-93448628D02*
X118314285Y-93353390D01*
X118314285Y-93353390D02*
X118361904Y-93305771D01*
X118361904Y-93305771D02*
X118457142Y-93258152D01*
X118457142Y-93258152D02*
X118599999Y-93258152D01*
X118599999Y-93258152D02*
X118695237Y-93305771D01*
X118695237Y-93305771D02*
X118742856Y-93353390D01*
X118742856Y-93353390D02*
X118790475Y-93448628D01*
X118790475Y-93448628D02*
X118790475Y-93734342D01*
X118790475Y-93734342D02*
X118742856Y-93829580D01*
X118742856Y-93829580D02*
X118695237Y-93877200D01*
X118695237Y-93877200D02*
X118599999Y-93924819D01*
X118599999Y-93924819D02*
X118457142Y-93924819D01*
X119647618Y-93924819D02*
X119647618Y-93401009D01*
X119647618Y-93401009D02*
X119599999Y-93305771D01*
X119599999Y-93305771D02*
X119504761Y-93258152D01*
X119504761Y-93258152D02*
X119314285Y-93258152D01*
X119314285Y-93258152D02*
X119219047Y-93305771D01*
X119647618Y-93877200D02*
X119552380Y-93924819D01*
X119552380Y-93924819D02*
X119314285Y-93924819D01*
X119314285Y-93924819D02*
X119219047Y-93877200D01*
X119219047Y-93877200D02*
X119171428Y-93781961D01*
X119171428Y-93781961D02*
X119171428Y-93686723D01*
X119171428Y-93686723D02*
X119219047Y-93591485D01*
X119219047Y-93591485D02*
X119314285Y-93543866D01*
X119314285Y-93543866D02*
X119552380Y-93543866D01*
X119552380Y-93543866D02*
X119647618Y-93496247D01*
X120123809Y-93924819D02*
X120123809Y-93258152D01*
X120123809Y-93448628D02*
X120171428Y-93353390D01*
X120171428Y-93353390D02*
X120219047Y-93305771D01*
X120219047Y-93305771D02*
X120314285Y-93258152D01*
X120314285Y-93258152D02*
X120409523Y-93258152D01*
X121171428Y-93924819D02*
X121171428Y-92924819D01*
X121171428Y-93877200D02*
X121076190Y-93924819D01*
X121076190Y-93924819D02*
X120885714Y-93924819D01*
X120885714Y-93924819D02*
X120790476Y-93877200D01*
X120790476Y-93877200D02*
X120742857Y-93829580D01*
X120742857Y-93829580D02*
X120695238Y-93734342D01*
X120695238Y-93734342D02*
X120695238Y-93448628D01*
X120695238Y-93448628D02*
X120742857Y-93353390D01*
X120742857Y-93353390D02*
X120790476Y-93305771D01*
X120790476Y-93305771D02*
X120885714Y-93258152D01*
X120885714Y-93258152D02*
X121076190Y-93258152D01*
X121076190Y-93258152D02*
X121171428Y-93305771D01*
X122361905Y-93020057D02*
X122409524Y-92972438D01*
X122409524Y-92972438D02*
X122504762Y-92924819D01*
X122504762Y-92924819D02*
X122742857Y-92924819D01*
X122742857Y-92924819D02*
X122838095Y-92972438D01*
X122838095Y-92972438D02*
X122885714Y-93020057D01*
X122885714Y-93020057D02*
X122933333Y-93115295D01*
X122933333Y-93115295D02*
X122933333Y-93210533D01*
X122933333Y-93210533D02*
X122885714Y-93353390D01*
X122885714Y-93353390D02*
X122314286Y-93924819D01*
X122314286Y-93924819D02*
X122933333Y-93924819D01*
X142560476Y-114354819D02*
X142560476Y-115069104D01*
X142560476Y-115069104D02*
X142512857Y-115211961D01*
X142512857Y-115211961D02*
X142417619Y-115307200D01*
X142417619Y-115307200D02*
X142274762Y-115354819D01*
X142274762Y-115354819D02*
X142179524Y-115354819D01*
X143560476Y-115354819D02*
X142989048Y-115354819D01*
X143274762Y-115354819D02*
X143274762Y-114354819D01*
X143274762Y-114354819D02*
X143179524Y-114497676D01*
X143179524Y-114497676D02*
X143084286Y-114592914D01*
X143084286Y-114592914D02*
X142989048Y-114640533D01*
X144512857Y-115354819D02*
X143941429Y-115354819D01*
X144227143Y-115354819D02*
X144227143Y-114354819D01*
X144227143Y-114354819D02*
X144131905Y-114497676D01*
X144131905Y-114497676D02*
X144036667Y-114592914D01*
X144036667Y-114592914D02*
X143941429Y-114640533D01*
X114135714Y-77294819D02*
X114135714Y-76294819D01*
X114135714Y-76294819D02*
X114373809Y-76294819D01*
X114373809Y-76294819D02*
X114516666Y-76342438D01*
X114516666Y-76342438D02*
X114611904Y-76437676D01*
X114611904Y-76437676D02*
X114659523Y-76532914D01*
X114659523Y-76532914D02*
X114707142Y-76723390D01*
X114707142Y-76723390D02*
X114707142Y-76866247D01*
X114707142Y-76866247D02*
X114659523Y-77056723D01*
X114659523Y-77056723D02*
X114611904Y-77151961D01*
X114611904Y-77151961D02*
X114516666Y-77247200D01*
X114516666Y-77247200D02*
X114373809Y-77294819D01*
X114373809Y-77294819D02*
X114135714Y-77294819D01*
X115659523Y-77294819D02*
X115088095Y-77294819D01*
X115373809Y-77294819D02*
X115373809Y-76294819D01*
X115373809Y-76294819D02*
X115278571Y-76437676D01*
X115278571Y-76437676D02*
X115183333Y-76532914D01*
X115183333Y-76532914D02*
X115088095Y-76580533D01*
X116040476Y-76390057D02*
X116088095Y-76342438D01*
X116088095Y-76342438D02*
X116183333Y-76294819D01*
X116183333Y-76294819D02*
X116421428Y-76294819D01*
X116421428Y-76294819D02*
X116516666Y-76342438D01*
X116516666Y-76342438D02*
X116564285Y-76390057D01*
X116564285Y-76390057D02*
X116611904Y-76485295D01*
X116611904Y-76485295D02*
X116611904Y-76580533D01*
X116611904Y-76580533D02*
X116564285Y-76723390D01*
X116564285Y-76723390D02*
X115992857Y-77294819D01*
X115992857Y-77294819D02*
X116611904Y-77294819D01*
X143036666Y-94354819D02*
X143036666Y-95069104D01*
X143036666Y-95069104D02*
X142989047Y-95211961D01*
X142989047Y-95211961D02*
X142893809Y-95307200D01*
X142893809Y-95307200D02*
X142750952Y-95354819D01*
X142750952Y-95354819D02*
X142655714Y-95354819D01*
X143417619Y-94354819D02*
X144084285Y-94354819D01*
X144084285Y-94354819D02*
X143655714Y-95354819D01*
X132933095Y-140259819D02*
X132933095Y-141069342D01*
X132933095Y-141069342D02*
X132980714Y-141164580D01*
X132980714Y-141164580D02*
X133028333Y-141212200D01*
X133028333Y-141212200D02*
X133123571Y-141259819D01*
X133123571Y-141259819D02*
X133314047Y-141259819D01*
X133314047Y-141259819D02*
X133409285Y-141212200D01*
X133409285Y-141212200D02*
X133456904Y-141164580D01*
X133456904Y-141164580D02*
X133504523Y-141069342D01*
X133504523Y-141069342D02*
X133504523Y-140259819D01*
X133885476Y-140259819D02*
X134504523Y-140259819D01*
X134504523Y-140259819D02*
X134171190Y-140640771D01*
X134171190Y-140640771D02*
X134314047Y-140640771D01*
X134314047Y-140640771D02*
X134409285Y-140688390D01*
X134409285Y-140688390D02*
X134456904Y-140736009D01*
X134456904Y-140736009D02*
X134504523Y-140831247D01*
X134504523Y-140831247D02*
X134504523Y-141069342D01*
X134504523Y-141069342D02*
X134456904Y-141164580D01*
X134456904Y-141164580D02*
X134409285Y-141212200D01*
X134409285Y-141212200D02*
X134314047Y-141259819D01*
X134314047Y-141259819D02*
X134028333Y-141259819D01*
X134028333Y-141259819D02*
X133933095Y-141212200D01*
X133933095Y-141212200D02*
X133885476Y-141164580D01*
X141254819Y-62052857D02*
X140778628Y-62386190D01*
X141254819Y-62624285D02*
X140254819Y-62624285D01*
X140254819Y-62624285D02*
X140254819Y-62243333D01*
X140254819Y-62243333D02*
X140302438Y-62148095D01*
X140302438Y-62148095D02*
X140350057Y-62100476D01*
X140350057Y-62100476D02*
X140445295Y-62052857D01*
X140445295Y-62052857D02*
X140588152Y-62052857D01*
X140588152Y-62052857D02*
X140683390Y-62100476D01*
X140683390Y-62100476D02*
X140731009Y-62148095D01*
X140731009Y-62148095D02*
X140778628Y-62243333D01*
X140778628Y-62243333D02*
X140778628Y-62624285D01*
X140254819Y-61148095D02*
X140254819Y-61624285D01*
X140254819Y-61624285D02*
X140731009Y-61671904D01*
X140731009Y-61671904D02*
X140683390Y-61624285D01*
X140683390Y-61624285D02*
X140635771Y-61529047D01*
X140635771Y-61529047D02*
X140635771Y-61290952D01*
X140635771Y-61290952D02*
X140683390Y-61195714D01*
X140683390Y-61195714D02*
X140731009Y-61148095D01*
X140731009Y-61148095D02*
X140826247Y-61100476D01*
X140826247Y-61100476D02*
X141064342Y-61100476D01*
X141064342Y-61100476D02*
X141159580Y-61148095D01*
X141159580Y-61148095D02*
X141207200Y-61195714D01*
X141207200Y-61195714D02*
X141254819Y-61290952D01*
X141254819Y-61290952D02*
X141254819Y-61529047D01*
X141254819Y-61529047D02*
X141207200Y-61624285D01*
X141207200Y-61624285D02*
X141159580Y-61671904D01*
X141254819Y-60624285D02*
X141254819Y-60433809D01*
X141254819Y-60433809D02*
X141207200Y-60338571D01*
X141207200Y-60338571D02*
X141159580Y-60290952D01*
X141159580Y-60290952D02*
X141016723Y-60195714D01*
X141016723Y-60195714D02*
X140826247Y-60148095D01*
X140826247Y-60148095D02*
X140445295Y-60148095D01*
X140445295Y-60148095D02*
X140350057Y-60195714D01*
X140350057Y-60195714D02*
X140302438Y-60243333D01*
X140302438Y-60243333D02*
X140254819Y-60338571D01*
X140254819Y-60338571D02*
X140254819Y-60529047D01*
X140254819Y-60529047D02*
X140302438Y-60624285D01*
X140302438Y-60624285D02*
X140350057Y-60671904D01*
X140350057Y-60671904D02*
X140445295Y-60719523D01*
X140445295Y-60719523D02*
X140683390Y-60719523D01*
X140683390Y-60719523D02*
X140778628Y-60671904D01*
X140778628Y-60671904D02*
X140826247Y-60624285D01*
X140826247Y-60624285D02*
X140873866Y-60529047D01*
X140873866Y-60529047D02*
X140873866Y-60338571D01*
X140873866Y-60338571D02*
X140826247Y-60243333D01*
X140826247Y-60243333D02*
X140778628Y-60195714D01*
X140778628Y-60195714D02*
X140683390Y-60148095D01*
X105785714Y-111554819D02*
X105785714Y-110554819D01*
X105785714Y-110554819D02*
X106023809Y-110554819D01*
X106023809Y-110554819D02*
X106166666Y-110602438D01*
X106166666Y-110602438D02*
X106261904Y-110697676D01*
X106261904Y-110697676D02*
X106309523Y-110792914D01*
X106309523Y-110792914D02*
X106357142Y-110983390D01*
X106357142Y-110983390D02*
X106357142Y-111126247D01*
X106357142Y-111126247D02*
X106309523Y-111316723D01*
X106309523Y-111316723D02*
X106261904Y-111411961D01*
X106261904Y-111411961D02*
X106166666Y-111507200D01*
X106166666Y-111507200D02*
X106023809Y-111554819D01*
X106023809Y-111554819D02*
X105785714Y-111554819D01*
X107309523Y-111554819D02*
X106738095Y-111554819D01*
X107023809Y-111554819D02*
X107023809Y-110554819D01*
X107023809Y-110554819D02*
X106928571Y-110697676D01*
X106928571Y-110697676D02*
X106833333Y-110792914D01*
X106833333Y-110792914D02*
X106738095Y-110840533D01*
X107642857Y-110554819D02*
X108309523Y-110554819D01*
X108309523Y-110554819D02*
X107880952Y-111554819D01*
X117183333Y-142754819D02*
X116850000Y-142278628D01*
X116611905Y-142754819D02*
X116611905Y-141754819D01*
X116611905Y-141754819D02*
X116992857Y-141754819D01*
X116992857Y-141754819D02*
X117088095Y-141802438D01*
X117088095Y-141802438D02*
X117135714Y-141850057D01*
X117135714Y-141850057D02*
X117183333Y-141945295D01*
X117183333Y-141945295D02*
X117183333Y-142088152D01*
X117183333Y-142088152D02*
X117135714Y-142183390D01*
X117135714Y-142183390D02*
X117088095Y-142231009D01*
X117088095Y-142231009D02*
X116992857Y-142278628D01*
X116992857Y-142278628D02*
X116611905Y-142278628D01*
X117564286Y-141850057D02*
X117611905Y-141802438D01*
X117611905Y-141802438D02*
X117707143Y-141754819D01*
X117707143Y-141754819D02*
X117945238Y-141754819D01*
X117945238Y-141754819D02*
X118040476Y-141802438D01*
X118040476Y-141802438D02*
X118088095Y-141850057D01*
X118088095Y-141850057D02*
X118135714Y-141945295D01*
X118135714Y-141945295D02*
X118135714Y-142040533D01*
X118135714Y-142040533D02*
X118088095Y-142183390D01*
X118088095Y-142183390D02*
X117516667Y-142754819D01*
X117516667Y-142754819D02*
X118135714Y-142754819D01*
X136554580Y-129147857D02*
X136602200Y-129195476D01*
X136602200Y-129195476D02*
X136649819Y-129338333D01*
X136649819Y-129338333D02*
X136649819Y-129433571D01*
X136649819Y-129433571D02*
X136602200Y-129576428D01*
X136602200Y-129576428D02*
X136506961Y-129671666D01*
X136506961Y-129671666D02*
X136411723Y-129719285D01*
X136411723Y-129719285D02*
X136221247Y-129766904D01*
X136221247Y-129766904D02*
X136078390Y-129766904D01*
X136078390Y-129766904D02*
X135887914Y-129719285D01*
X135887914Y-129719285D02*
X135792676Y-129671666D01*
X135792676Y-129671666D02*
X135697438Y-129576428D01*
X135697438Y-129576428D02*
X135649819Y-129433571D01*
X135649819Y-129433571D02*
X135649819Y-129338333D01*
X135649819Y-129338333D02*
X135697438Y-129195476D01*
X135697438Y-129195476D02*
X135745057Y-129147857D01*
X136649819Y-128195476D02*
X136649819Y-128766904D01*
X136649819Y-128481190D02*
X135649819Y-128481190D01*
X135649819Y-128481190D02*
X135792676Y-128576428D01*
X135792676Y-128576428D02*
X135887914Y-128671666D01*
X135887914Y-128671666D02*
X135935533Y-128766904D01*
X135983152Y-127338333D02*
X136649819Y-127338333D01*
X135602200Y-127576428D02*
X136316485Y-127814523D01*
X136316485Y-127814523D02*
X136316485Y-127195476D01*
X123632142Y-114359819D02*
X123298809Y-113883628D01*
X123060714Y-114359819D02*
X123060714Y-113359819D01*
X123060714Y-113359819D02*
X123441666Y-113359819D01*
X123441666Y-113359819D02*
X123536904Y-113407438D01*
X123536904Y-113407438D02*
X123584523Y-113455057D01*
X123584523Y-113455057D02*
X123632142Y-113550295D01*
X123632142Y-113550295D02*
X123632142Y-113693152D01*
X123632142Y-113693152D02*
X123584523Y-113788390D01*
X123584523Y-113788390D02*
X123536904Y-113836009D01*
X123536904Y-113836009D02*
X123441666Y-113883628D01*
X123441666Y-113883628D02*
X123060714Y-113883628D01*
X124489285Y-113359819D02*
X124298809Y-113359819D01*
X124298809Y-113359819D02*
X124203571Y-113407438D01*
X124203571Y-113407438D02*
X124155952Y-113455057D01*
X124155952Y-113455057D02*
X124060714Y-113597914D01*
X124060714Y-113597914D02*
X124013095Y-113788390D01*
X124013095Y-113788390D02*
X124013095Y-114169342D01*
X124013095Y-114169342D02*
X124060714Y-114264580D01*
X124060714Y-114264580D02*
X124108333Y-114312200D01*
X124108333Y-114312200D02*
X124203571Y-114359819D01*
X124203571Y-114359819D02*
X124394047Y-114359819D01*
X124394047Y-114359819D02*
X124489285Y-114312200D01*
X124489285Y-114312200D02*
X124536904Y-114264580D01*
X124536904Y-114264580D02*
X124584523Y-114169342D01*
X124584523Y-114169342D02*
X124584523Y-113931247D01*
X124584523Y-113931247D02*
X124536904Y-113836009D01*
X124536904Y-113836009D02*
X124489285Y-113788390D01*
X124489285Y-113788390D02*
X124394047Y-113740771D01*
X124394047Y-113740771D02*
X124203571Y-113740771D01*
X124203571Y-113740771D02*
X124108333Y-113788390D01*
X124108333Y-113788390D02*
X124060714Y-113836009D01*
X124060714Y-113836009D02*
X124013095Y-113931247D01*
X125489285Y-113359819D02*
X125013095Y-113359819D01*
X125013095Y-113359819D02*
X124965476Y-113836009D01*
X124965476Y-113836009D02*
X125013095Y-113788390D01*
X125013095Y-113788390D02*
X125108333Y-113740771D01*
X125108333Y-113740771D02*
X125346428Y-113740771D01*
X125346428Y-113740771D02*
X125441666Y-113788390D01*
X125441666Y-113788390D02*
X125489285Y-113836009D01*
X125489285Y-113836009D02*
X125536904Y-113931247D01*
X125536904Y-113931247D02*
X125536904Y-114169342D01*
X125536904Y-114169342D02*
X125489285Y-114264580D01*
X125489285Y-114264580D02*
X125441666Y-114312200D01*
X125441666Y-114312200D02*
X125346428Y-114359819D01*
X125346428Y-114359819D02*
X125108333Y-114359819D01*
X125108333Y-114359819D02*
X125013095Y-114312200D01*
X125013095Y-114312200D02*
X124965476Y-114264580D01*
X103036666Y-94354819D02*
X103036666Y-95069104D01*
X103036666Y-95069104D02*
X102989047Y-95211961D01*
X102989047Y-95211961D02*
X102893809Y-95307200D01*
X102893809Y-95307200D02*
X102750952Y-95354819D01*
X102750952Y-95354819D02*
X102655714Y-95354819D01*
X103560476Y-95354819D02*
X103750952Y-95354819D01*
X103750952Y-95354819D02*
X103846190Y-95307200D01*
X103846190Y-95307200D02*
X103893809Y-95259580D01*
X103893809Y-95259580D02*
X103989047Y-95116723D01*
X103989047Y-95116723D02*
X104036666Y-94926247D01*
X104036666Y-94926247D02*
X104036666Y-94545295D01*
X104036666Y-94545295D02*
X103989047Y-94450057D01*
X103989047Y-94450057D02*
X103941428Y-94402438D01*
X103941428Y-94402438D02*
X103846190Y-94354819D01*
X103846190Y-94354819D02*
X103655714Y-94354819D01*
X103655714Y-94354819D02*
X103560476Y-94402438D01*
X103560476Y-94402438D02*
X103512857Y-94450057D01*
X103512857Y-94450057D02*
X103465238Y-94545295D01*
X103465238Y-94545295D02*
X103465238Y-94783390D01*
X103465238Y-94783390D02*
X103512857Y-94878628D01*
X103512857Y-94878628D02*
X103560476Y-94926247D01*
X103560476Y-94926247D02*
X103655714Y-94973866D01*
X103655714Y-94973866D02*
X103846190Y-94973866D01*
X103846190Y-94973866D02*
X103941428Y-94926247D01*
X103941428Y-94926247D02*
X103989047Y-94878628D01*
X103989047Y-94878628D02*
X104036666Y-94783390D01*
X114135714Y-97294819D02*
X114135714Y-96294819D01*
X114135714Y-96294819D02*
X114373809Y-96294819D01*
X114373809Y-96294819D02*
X114516666Y-96342438D01*
X114516666Y-96342438D02*
X114611904Y-96437676D01*
X114611904Y-96437676D02*
X114659523Y-96532914D01*
X114659523Y-96532914D02*
X114707142Y-96723390D01*
X114707142Y-96723390D02*
X114707142Y-96866247D01*
X114707142Y-96866247D02*
X114659523Y-97056723D01*
X114659523Y-97056723D02*
X114611904Y-97151961D01*
X114611904Y-97151961D02*
X114516666Y-97247200D01*
X114516666Y-97247200D02*
X114373809Y-97294819D01*
X114373809Y-97294819D02*
X114135714Y-97294819D01*
X115659523Y-97294819D02*
X115088095Y-97294819D01*
X115373809Y-97294819D02*
X115373809Y-96294819D01*
X115373809Y-96294819D02*
X115278571Y-96437676D01*
X115278571Y-96437676D02*
X115183333Y-96532914D01*
X115183333Y-96532914D02*
X115088095Y-96580533D01*
X116516666Y-96294819D02*
X116326190Y-96294819D01*
X116326190Y-96294819D02*
X116230952Y-96342438D01*
X116230952Y-96342438D02*
X116183333Y-96390057D01*
X116183333Y-96390057D02*
X116088095Y-96532914D01*
X116088095Y-96532914D02*
X116040476Y-96723390D01*
X116040476Y-96723390D02*
X116040476Y-97104342D01*
X116040476Y-97104342D02*
X116088095Y-97199580D01*
X116088095Y-97199580D02*
X116135714Y-97247200D01*
X116135714Y-97247200D02*
X116230952Y-97294819D01*
X116230952Y-97294819D02*
X116421428Y-97294819D01*
X116421428Y-97294819D02*
X116516666Y-97247200D01*
X116516666Y-97247200D02*
X116564285Y-97199580D01*
X116564285Y-97199580D02*
X116611904Y-97104342D01*
X116611904Y-97104342D02*
X116611904Y-96866247D01*
X116611904Y-96866247D02*
X116564285Y-96771009D01*
X116564285Y-96771009D02*
X116516666Y-96723390D01*
X116516666Y-96723390D02*
X116421428Y-96675771D01*
X116421428Y-96675771D02*
X116230952Y-96675771D01*
X116230952Y-96675771D02*
X116135714Y-96723390D01*
X116135714Y-96723390D02*
X116088095Y-96771009D01*
X116088095Y-96771009D02*
X116040476Y-96866247D01*
X114611905Y-37294819D02*
X114611905Y-36294819D01*
X114611905Y-36294819D02*
X114850000Y-36294819D01*
X114850000Y-36294819D02*
X114992857Y-36342438D01*
X114992857Y-36342438D02*
X115088095Y-36437676D01*
X115088095Y-36437676D02*
X115135714Y-36532914D01*
X115135714Y-36532914D02*
X115183333Y-36723390D01*
X115183333Y-36723390D02*
X115183333Y-36866247D01*
X115183333Y-36866247D02*
X115135714Y-37056723D01*
X115135714Y-37056723D02*
X115088095Y-37151961D01*
X115088095Y-37151961D02*
X114992857Y-37247200D01*
X114992857Y-37247200D02*
X114850000Y-37294819D01*
X114850000Y-37294819D02*
X114611905Y-37294819D01*
X116135714Y-37294819D02*
X115564286Y-37294819D01*
X115850000Y-37294819D02*
X115850000Y-36294819D01*
X115850000Y-36294819D02*
X115754762Y-36437676D01*
X115754762Y-36437676D02*
X115659524Y-36532914D01*
X115659524Y-36532914D02*
X115564286Y-36580533D01*
X118254819Y-113304285D02*
X117254819Y-113304285D01*
X117254819Y-113304285D02*
X117254819Y-113066190D01*
X117254819Y-113066190D02*
X117302438Y-112923333D01*
X117302438Y-112923333D02*
X117397676Y-112828095D01*
X117397676Y-112828095D02*
X117492914Y-112780476D01*
X117492914Y-112780476D02*
X117683390Y-112732857D01*
X117683390Y-112732857D02*
X117826247Y-112732857D01*
X117826247Y-112732857D02*
X118016723Y-112780476D01*
X118016723Y-112780476D02*
X118111961Y-112828095D01*
X118111961Y-112828095D02*
X118207200Y-112923333D01*
X118207200Y-112923333D02*
X118254819Y-113066190D01*
X118254819Y-113066190D02*
X118254819Y-113304285D01*
X118254819Y-111780476D02*
X118254819Y-112351904D01*
X118254819Y-112066190D02*
X117254819Y-112066190D01*
X117254819Y-112066190D02*
X117397676Y-112161428D01*
X117397676Y-112161428D02*
X117492914Y-112256666D01*
X117492914Y-112256666D02*
X117540533Y-112351904D01*
X117254819Y-111447142D02*
X117254819Y-110828095D01*
X117254819Y-110828095D02*
X117635771Y-111161428D01*
X117635771Y-111161428D02*
X117635771Y-111018571D01*
X117635771Y-111018571D02*
X117683390Y-110923333D01*
X117683390Y-110923333D02*
X117731009Y-110875714D01*
X117731009Y-110875714D02*
X117826247Y-110828095D01*
X117826247Y-110828095D02*
X118064342Y-110828095D01*
X118064342Y-110828095D02*
X118159580Y-110875714D01*
X118159580Y-110875714D02*
X118207200Y-110923333D01*
X118207200Y-110923333D02*
X118254819Y-111018571D01*
X118254819Y-111018571D02*
X118254819Y-111304285D01*
X118254819Y-111304285D02*
X118207200Y-111399523D01*
X118207200Y-111399523D02*
X118159580Y-111447142D01*
X120204819Y-44178571D02*
X119204819Y-44178571D01*
X119204819Y-44178571D02*
X119204819Y-43940476D01*
X119204819Y-43940476D02*
X119252438Y-43797619D01*
X119252438Y-43797619D02*
X119347676Y-43702381D01*
X119347676Y-43702381D02*
X119442914Y-43654762D01*
X119442914Y-43654762D02*
X119633390Y-43607143D01*
X119633390Y-43607143D02*
X119776247Y-43607143D01*
X119776247Y-43607143D02*
X119966723Y-43654762D01*
X119966723Y-43654762D02*
X120061961Y-43702381D01*
X120061961Y-43702381D02*
X120157200Y-43797619D01*
X120157200Y-43797619D02*
X120204819Y-43940476D01*
X120204819Y-43940476D02*
X120204819Y-44178571D01*
X120157200Y-42797619D02*
X120204819Y-42892857D01*
X120204819Y-42892857D02*
X120204819Y-43083333D01*
X120204819Y-43083333D02*
X120157200Y-43178571D01*
X120157200Y-43178571D02*
X120061961Y-43226190D01*
X120061961Y-43226190D02*
X119681009Y-43226190D01*
X119681009Y-43226190D02*
X119585771Y-43178571D01*
X119585771Y-43178571D02*
X119538152Y-43083333D01*
X119538152Y-43083333D02*
X119538152Y-42892857D01*
X119538152Y-42892857D02*
X119585771Y-42797619D01*
X119585771Y-42797619D02*
X119681009Y-42750000D01*
X119681009Y-42750000D02*
X119776247Y-42750000D01*
X119776247Y-42750000D02*
X119871485Y-43226190D01*
X120157200Y-41892857D02*
X120204819Y-41988095D01*
X120204819Y-41988095D02*
X120204819Y-42178571D01*
X120204819Y-42178571D02*
X120157200Y-42273809D01*
X120157200Y-42273809D02*
X120109580Y-42321428D01*
X120109580Y-42321428D02*
X120014342Y-42369047D01*
X120014342Y-42369047D02*
X119728628Y-42369047D01*
X119728628Y-42369047D02*
X119633390Y-42321428D01*
X119633390Y-42321428D02*
X119585771Y-42273809D01*
X119585771Y-42273809D02*
X119538152Y-42178571D01*
X119538152Y-42178571D02*
X119538152Y-41988095D01*
X119538152Y-41988095D02*
X119585771Y-41892857D01*
X120204819Y-41035714D02*
X119681009Y-41035714D01*
X119681009Y-41035714D02*
X119585771Y-41083333D01*
X119585771Y-41083333D02*
X119538152Y-41178571D01*
X119538152Y-41178571D02*
X119538152Y-41369047D01*
X119538152Y-41369047D02*
X119585771Y-41464285D01*
X120157200Y-41035714D02*
X120204819Y-41130952D01*
X120204819Y-41130952D02*
X120204819Y-41369047D01*
X120204819Y-41369047D02*
X120157200Y-41464285D01*
X120157200Y-41464285D02*
X120061961Y-41511904D01*
X120061961Y-41511904D02*
X119966723Y-41511904D01*
X119966723Y-41511904D02*
X119871485Y-41464285D01*
X119871485Y-41464285D02*
X119823866Y-41369047D01*
X119823866Y-41369047D02*
X119823866Y-41130952D01*
X119823866Y-41130952D02*
X119776247Y-41035714D01*
X119538152Y-40654761D02*
X120204819Y-40416666D01*
X119538152Y-40178571D02*
X120204819Y-40416666D01*
X120204819Y-40416666D02*
X120442914Y-40511904D01*
X120442914Y-40511904D02*
X120490533Y-40559523D01*
X120490533Y-40559523D02*
X120538152Y-40654761D01*
X120204819Y-39273809D02*
X120204819Y-39845237D01*
X120204819Y-39559523D02*
X119204819Y-39559523D01*
X119204819Y-39559523D02*
X119347676Y-39654761D01*
X119347676Y-39654761D02*
X119442914Y-39749999D01*
X119442914Y-39749999D02*
X119490533Y-39845237D01*
X106597142Y-68854819D02*
X106263809Y-68378628D01*
X106025714Y-68854819D02*
X106025714Y-67854819D01*
X106025714Y-67854819D02*
X106406666Y-67854819D01*
X106406666Y-67854819D02*
X106501904Y-67902438D01*
X106501904Y-67902438D02*
X106549523Y-67950057D01*
X106549523Y-67950057D02*
X106597142Y-68045295D01*
X106597142Y-68045295D02*
X106597142Y-68188152D01*
X106597142Y-68188152D02*
X106549523Y-68283390D01*
X106549523Y-68283390D02*
X106501904Y-68331009D01*
X106501904Y-68331009D02*
X106406666Y-68378628D01*
X106406666Y-68378628D02*
X106025714Y-68378628D01*
X107549523Y-68854819D02*
X106978095Y-68854819D01*
X107263809Y-68854819D02*
X107263809Y-67854819D01*
X107263809Y-67854819D02*
X107168571Y-67997676D01*
X107168571Y-67997676D02*
X107073333Y-68092914D01*
X107073333Y-68092914D02*
X106978095Y-68140533D01*
X108454285Y-67854819D02*
X107978095Y-67854819D01*
X107978095Y-67854819D02*
X107930476Y-68331009D01*
X107930476Y-68331009D02*
X107978095Y-68283390D01*
X107978095Y-68283390D02*
X108073333Y-68235771D01*
X108073333Y-68235771D02*
X108311428Y-68235771D01*
X108311428Y-68235771D02*
X108406666Y-68283390D01*
X108406666Y-68283390D02*
X108454285Y-68331009D01*
X108454285Y-68331009D02*
X108501904Y-68426247D01*
X108501904Y-68426247D02*
X108501904Y-68664342D01*
X108501904Y-68664342D02*
X108454285Y-68759580D01*
X108454285Y-68759580D02*
X108406666Y-68807200D01*
X108406666Y-68807200D02*
X108311428Y-68854819D01*
X108311428Y-68854819D02*
X108073333Y-68854819D01*
X108073333Y-68854819D02*
X107978095Y-68807200D01*
X107978095Y-68807200D02*
X107930476Y-68759580D01*
X106647142Y-88854819D02*
X106313809Y-88378628D01*
X106075714Y-88854819D02*
X106075714Y-87854819D01*
X106075714Y-87854819D02*
X106456666Y-87854819D01*
X106456666Y-87854819D02*
X106551904Y-87902438D01*
X106551904Y-87902438D02*
X106599523Y-87950057D01*
X106599523Y-87950057D02*
X106647142Y-88045295D01*
X106647142Y-88045295D02*
X106647142Y-88188152D01*
X106647142Y-88188152D02*
X106599523Y-88283390D01*
X106599523Y-88283390D02*
X106551904Y-88331009D01*
X106551904Y-88331009D02*
X106456666Y-88378628D01*
X106456666Y-88378628D02*
X106075714Y-88378628D01*
X107028095Y-87950057D02*
X107075714Y-87902438D01*
X107075714Y-87902438D02*
X107170952Y-87854819D01*
X107170952Y-87854819D02*
X107409047Y-87854819D01*
X107409047Y-87854819D02*
X107504285Y-87902438D01*
X107504285Y-87902438D02*
X107551904Y-87950057D01*
X107551904Y-87950057D02*
X107599523Y-88045295D01*
X107599523Y-88045295D02*
X107599523Y-88140533D01*
X107599523Y-88140533D02*
X107551904Y-88283390D01*
X107551904Y-88283390D02*
X106980476Y-88854819D01*
X106980476Y-88854819D02*
X107599523Y-88854819D01*
X108170952Y-88283390D02*
X108075714Y-88235771D01*
X108075714Y-88235771D02*
X108028095Y-88188152D01*
X108028095Y-88188152D02*
X107980476Y-88092914D01*
X107980476Y-88092914D02*
X107980476Y-88045295D01*
X107980476Y-88045295D02*
X108028095Y-87950057D01*
X108028095Y-87950057D02*
X108075714Y-87902438D01*
X108075714Y-87902438D02*
X108170952Y-87854819D01*
X108170952Y-87854819D02*
X108361428Y-87854819D01*
X108361428Y-87854819D02*
X108456666Y-87902438D01*
X108456666Y-87902438D02*
X108504285Y-87950057D01*
X108504285Y-87950057D02*
X108551904Y-88045295D01*
X108551904Y-88045295D02*
X108551904Y-88092914D01*
X108551904Y-88092914D02*
X108504285Y-88188152D01*
X108504285Y-88188152D02*
X108456666Y-88235771D01*
X108456666Y-88235771D02*
X108361428Y-88283390D01*
X108361428Y-88283390D02*
X108170952Y-88283390D01*
X108170952Y-88283390D02*
X108075714Y-88331009D01*
X108075714Y-88331009D02*
X108028095Y-88378628D01*
X108028095Y-88378628D02*
X107980476Y-88473866D01*
X107980476Y-88473866D02*
X107980476Y-88664342D01*
X107980476Y-88664342D02*
X108028095Y-88759580D01*
X108028095Y-88759580D02*
X108075714Y-88807200D01*
X108075714Y-88807200D02*
X108170952Y-88854819D01*
X108170952Y-88854819D02*
X108361428Y-88854819D01*
X108361428Y-88854819D02*
X108456666Y-88807200D01*
X108456666Y-88807200D02*
X108504285Y-88759580D01*
X108504285Y-88759580D02*
X108551904Y-88664342D01*
X108551904Y-88664342D02*
X108551904Y-88473866D01*
X108551904Y-88473866D02*
X108504285Y-88378628D01*
X108504285Y-88378628D02*
X108456666Y-88331009D01*
X108456666Y-88331009D02*
X108361428Y-88283390D01*
X142560476Y-74354819D02*
X142560476Y-75069104D01*
X142560476Y-75069104D02*
X142512857Y-75211961D01*
X142512857Y-75211961D02*
X142417619Y-75307200D01*
X142417619Y-75307200D02*
X142274762Y-75354819D01*
X142274762Y-75354819D02*
X142179524Y-75354819D01*
X143560476Y-75354819D02*
X142989048Y-75354819D01*
X143274762Y-75354819D02*
X143274762Y-74354819D01*
X143274762Y-74354819D02*
X143179524Y-74497676D01*
X143179524Y-74497676D02*
X143084286Y-74592914D01*
X143084286Y-74592914D02*
X142989048Y-74640533D01*
X144417619Y-74688152D02*
X144417619Y-75354819D01*
X144179524Y-74307200D02*
X143941429Y-75021485D01*
X143941429Y-75021485D02*
X144560476Y-75021485D01*
X106561905Y-71554819D02*
X106561905Y-70554819D01*
X106561905Y-70554819D02*
X106800000Y-70554819D01*
X106800000Y-70554819D02*
X106942857Y-70602438D01*
X106942857Y-70602438D02*
X107038095Y-70697676D01*
X107038095Y-70697676D02*
X107085714Y-70792914D01*
X107085714Y-70792914D02*
X107133333Y-70983390D01*
X107133333Y-70983390D02*
X107133333Y-71126247D01*
X107133333Y-71126247D02*
X107085714Y-71316723D01*
X107085714Y-71316723D02*
X107038095Y-71411961D01*
X107038095Y-71411961D02*
X106942857Y-71507200D01*
X106942857Y-71507200D02*
X106800000Y-71554819D01*
X106800000Y-71554819D02*
X106561905Y-71554819D01*
X107609524Y-71554819D02*
X107800000Y-71554819D01*
X107800000Y-71554819D02*
X107895238Y-71507200D01*
X107895238Y-71507200D02*
X107942857Y-71459580D01*
X107942857Y-71459580D02*
X108038095Y-71316723D01*
X108038095Y-71316723D02*
X108085714Y-71126247D01*
X108085714Y-71126247D02*
X108085714Y-70745295D01*
X108085714Y-70745295D02*
X108038095Y-70650057D01*
X108038095Y-70650057D02*
X107990476Y-70602438D01*
X107990476Y-70602438D02*
X107895238Y-70554819D01*
X107895238Y-70554819D02*
X107704762Y-70554819D01*
X107704762Y-70554819D02*
X107609524Y-70602438D01*
X107609524Y-70602438D02*
X107561905Y-70650057D01*
X107561905Y-70650057D02*
X107514286Y-70745295D01*
X107514286Y-70745295D02*
X107514286Y-70983390D01*
X107514286Y-70983390D02*
X107561905Y-71078628D01*
X107561905Y-71078628D02*
X107609524Y-71126247D01*
X107609524Y-71126247D02*
X107704762Y-71173866D01*
X107704762Y-71173866D02*
X107895238Y-71173866D01*
X107895238Y-71173866D02*
X107990476Y-71126247D01*
X107990476Y-71126247D02*
X108038095Y-71078628D01*
X108038095Y-71078628D02*
X108085714Y-70983390D01*
X141254819Y-102042857D02*
X140778628Y-102376190D01*
X141254819Y-102614285D02*
X140254819Y-102614285D01*
X140254819Y-102614285D02*
X140254819Y-102233333D01*
X140254819Y-102233333D02*
X140302438Y-102138095D01*
X140302438Y-102138095D02*
X140350057Y-102090476D01*
X140350057Y-102090476D02*
X140445295Y-102042857D01*
X140445295Y-102042857D02*
X140588152Y-102042857D01*
X140588152Y-102042857D02*
X140683390Y-102090476D01*
X140683390Y-102090476D02*
X140731009Y-102138095D01*
X140731009Y-102138095D02*
X140778628Y-102233333D01*
X140778628Y-102233333D02*
X140778628Y-102614285D01*
X140254819Y-101138095D02*
X140254819Y-101614285D01*
X140254819Y-101614285D02*
X140731009Y-101661904D01*
X140731009Y-101661904D02*
X140683390Y-101614285D01*
X140683390Y-101614285D02*
X140635771Y-101519047D01*
X140635771Y-101519047D02*
X140635771Y-101280952D01*
X140635771Y-101280952D02*
X140683390Y-101185714D01*
X140683390Y-101185714D02*
X140731009Y-101138095D01*
X140731009Y-101138095D02*
X140826247Y-101090476D01*
X140826247Y-101090476D02*
X141064342Y-101090476D01*
X141064342Y-101090476D02*
X141159580Y-101138095D01*
X141159580Y-101138095D02*
X141207200Y-101185714D01*
X141207200Y-101185714D02*
X141254819Y-101280952D01*
X141254819Y-101280952D02*
X141254819Y-101519047D01*
X141254819Y-101519047D02*
X141207200Y-101614285D01*
X141207200Y-101614285D02*
X141159580Y-101661904D01*
X140683390Y-100519047D02*
X140635771Y-100614285D01*
X140635771Y-100614285D02*
X140588152Y-100661904D01*
X140588152Y-100661904D02*
X140492914Y-100709523D01*
X140492914Y-100709523D02*
X140445295Y-100709523D01*
X140445295Y-100709523D02*
X140350057Y-100661904D01*
X140350057Y-100661904D02*
X140302438Y-100614285D01*
X140302438Y-100614285D02*
X140254819Y-100519047D01*
X140254819Y-100519047D02*
X140254819Y-100328571D01*
X140254819Y-100328571D02*
X140302438Y-100233333D01*
X140302438Y-100233333D02*
X140350057Y-100185714D01*
X140350057Y-100185714D02*
X140445295Y-100138095D01*
X140445295Y-100138095D02*
X140492914Y-100138095D01*
X140492914Y-100138095D02*
X140588152Y-100185714D01*
X140588152Y-100185714D02*
X140635771Y-100233333D01*
X140635771Y-100233333D02*
X140683390Y-100328571D01*
X140683390Y-100328571D02*
X140683390Y-100519047D01*
X140683390Y-100519047D02*
X140731009Y-100614285D01*
X140731009Y-100614285D02*
X140778628Y-100661904D01*
X140778628Y-100661904D02*
X140873866Y-100709523D01*
X140873866Y-100709523D02*
X141064342Y-100709523D01*
X141064342Y-100709523D02*
X141159580Y-100661904D01*
X141159580Y-100661904D02*
X141207200Y-100614285D01*
X141207200Y-100614285D02*
X141254819Y-100519047D01*
X141254819Y-100519047D02*
X141254819Y-100328571D01*
X141254819Y-100328571D02*
X141207200Y-100233333D01*
X141207200Y-100233333D02*
X141159580Y-100185714D01*
X141159580Y-100185714D02*
X141064342Y-100138095D01*
X141064342Y-100138095D02*
X140873866Y-100138095D01*
X140873866Y-100138095D02*
X140778628Y-100185714D01*
X140778628Y-100185714D02*
X140731009Y-100233333D01*
X140731009Y-100233333D02*
X140683390Y-100328571D01*
X120204819Y-64178571D02*
X119204819Y-64178571D01*
X119204819Y-64178571D02*
X119204819Y-63940476D01*
X119204819Y-63940476D02*
X119252438Y-63797619D01*
X119252438Y-63797619D02*
X119347676Y-63702381D01*
X119347676Y-63702381D02*
X119442914Y-63654762D01*
X119442914Y-63654762D02*
X119633390Y-63607143D01*
X119633390Y-63607143D02*
X119776247Y-63607143D01*
X119776247Y-63607143D02*
X119966723Y-63654762D01*
X119966723Y-63654762D02*
X120061961Y-63702381D01*
X120061961Y-63702381D02*
X120157200Y-63797619D01*
X120157200Y-63797619D02*
X120204819Y-63940476D01*
X120204819Y-63940476D02*
X120204819Y-64178571D01*
X120157200Y-62797619D02*
X120204819Y-62892857D01*
X120204819Y-62892857D02*
X120204819Y-63083333D01*
X120204819Y-63083333D02*
X120157200Y-63178571D01*
X120157200Y-63178571D02*
X120061961Y-63226190D01*
X120061961Y-63226190D02*
X119681009Y-63226190D01*
X119681009Y-63226190D02*
X119585771Y-63178571D01*
X119585771Y-63178571D02*
X119538152Y-63083333D01*
X119538152Y-63083333D02*
X119538152Y-62892857D01*
X119538152Y-62892857D02*
X119585771Y-62797619D01*
X119585771Y-62797619D02*
X119681009Y-62750000D01*
X119681009Y-62750000D02*
X119776247Y-62750000D01*
X119776247Y-62750000D02*
X119871485Y-63226190D01*
X120157200Y-61892857D02*
X120204819Y-61988095D01*
X120204819Y-61988095D02*
X120204819Y-62178571D01*
X120204819Y-62178571D02*
X120157200Y-62273809D01*
X120157200Y-62273809D02*
X120109580Y-62321428D01*
X120109580Y-62321428D02*
X120014342Y-62369047D01*
X120014342Y-62369047D02*
X119728628Y-62369047D01*
X119728628Y-62369047D02*
X119633390Y-62321428D01*
X119633390Y-62321428D02*
X119585771Y-62273809D01*
X119585771Y-62273809D02*
X119538152Y-62178571D01*
X119538152Y-62178571D02*
X119538152Y-61988095D01*
X119538152Y-61988095D02*
X119585771Y-61892857D01*
X120204819Y-61035714D02*
X119681009Y-61035714D01*
X119681009Y-61035714D02*
X119585771Y-61083333D01*
X119585771Y-61083333D02*
X119538152Y-61178571D01*
X119538152Y-61178571D02*
X119538152Y-61369047D01*
X119538152Y-61369047D02*
X119585771Y-61464285D01*
X120157200Y-61035714D02*
X120204819Y-61130952D01*
X120204819Y-61130952D02*
X120204819Y-61369047D01*
X120204819Y-61369047D02*
X120157200Y-61464285D01*
X120157200Y-61464285D02*
X120061961Y-61511904D01*
X120061961Y-61511904D02*
X119966723Y-61511904D01*
X119966723Y-61511904D02*
X119871485Y-61464285D01*
X119871485Y-61464285D02*
X119823866Y-61369047D01*
X119823866Y-61369047D02*
X119823866Y-61130952D01*
X119823866Y-61130952D02*
X119776247Y-61035714D01*
X119538152Y-60654761D02*
X120204819Y-60416666D01*
X119538152Y-60178571D02*
X120204819Y-60416666D01*
X120204819Y-60416666D02*
X120442914Y-60511904D01*
X120442914Y-60511904D02*
X120490533Y-60559523D01*
X120490533Y-60559523D02*
X120538152Y-60654761D01*
X119300057Y-59845237D02*
X119252438Y-59797618D01*
X119252438Y-59797618D02*
X119204819Y-59702380D01*
X119204819Y-59702380D02*
X119204819Y-59464285D01*
X119204819Y-59464285D02*
X119252438Y-59369047D01*
X119252438Y-59369047D02*
X119300057Y-59321428D01*
X119300057Y-59321428D02*
X119395295Y-59273809D01*
X119395295Y-59273809D02*
X119490533Y-59273809D01*
X119490533Y-59273809D02*
X119633390Y-59321428D01*
X119633390Y-59321428D02*
X120204819Y-59892856D01*
X120204819Y-59892856D02*
X120204819Y-59273809D01*
X114611905Y-57294819D02*
X114611905Y-56294819D01*
X114611905Y-56294819D02*
X114850000Y-56294819D01*
X114850000Y-56294819D02*
X114992857Y-56342438D01*
X114992857Y-56342438D02*
X115088095Y-56437676D01*
X115088095Y-56437676D02*
X115135714Y-56532914D01*
X115135714Y-56532914D02*
X115183333Y-56723390D01*
X115183333Y-56723390D02*
X115183333Y-56866247D01*
X115183333Y-56866247D02*
X115135714Y-57056723D01*
X115135714Y-57056723D02*
X115088095Y-57151961D01*
X115088095Y-57151961D02*
X114992857Y-57247200D01*
X114992857Y-57247200D02*
X114850000Y-57294819D01*
X114850000Y-57294819D02*
X114611905Y-57294819D01*
X115754762Y-56723390D02*
X115659524Y-56675771D01*
X115659524Y-56675771D02*
X115611905Y-56628152D01*
X115611905Y-56628152D02*
X115564286Y-56532914D01*
X115564286Y-56532914D02*
X115564286Y-56485295D01*
X115564286Y-56485295D02*
X115611905Y-56390057D01*
X115611905Y-56390057D02*
X115659524Y-56342438D01*
X115659524Y-56342438D02*
X115754762Y-56294819D01*
X115754762Y-56294819D02*
X115945238Y-56294819D01*
X115945238Y-56294819D02*
X116040476Y-56342438D01*
X116040476Y-56342438D02*
X116088095Y-56390057D01*
X116088095Y-56390057D02*
X116135714Y-56485295D01*
X116135714Y-56485295D02*
X116135714Y-56532914D01*
X116135714Y-56532914D02*
X116088095Y-56628152D01*
X116088095Y-56628152D02*
X116040476Y-56675771D01*
X116040476Y-56675771D02*
X115945238Y-56723390D01*
X115945238Y-56723390D02*
X115754762Y-56723390D01*
X115754762Y-56723390D02*
X115659524Y-56771009D01*
X115659524Y-56771009D02*
X115611905Y-56818628D01*
X115611905Y-56818628D02*
X115564286Y-56913866D01*
X115564286Y-56913866D02*
X115564286Y-57104342D01*
X115564286Y-57104342D02*
X115611905Y-57199580D01*
X115611905Y-57199580D02*
X115659524Y-57247200D01*
X115659524Y-57247200D02*
X115754762Y-57294819D01*
X115754762Y-57294819D02*
X115945238Y-57294819D01*
X115945238Y-57294819D02*
X116040476Y-57247200D01*
X116040476Y-57247200D02*
X116088095Y-57199580D01*
X116088095Y-57199580D02*
X116135714Y-57104342D01*
X116135714Y-57104342D02*
X116135714Y-56913866D01*
X116135714Y-56913866D02*
X116088095Y-56818628D01*
X116088095Y-56818628D02*
X116040476Y-56771009D01*
X116040476Y-56771009D02*
X115945238Y-56723390D01*
X106617142Y-108854819D02*
X106283809Y-108378628D01*
X106045714Y-108854819D02*
X106045714Y-107854819D01*
X106045714Y-107854819D02*
X106426666Y-107854819D01*
X106426666Y-107854819D02*
X106521904Y-107902438D01*
X106521904Y-107902438D02*
X106569523Y-107950057D01*
X106569523Y-107950057D02*
X106617142Y-108045295D01*
X106617142Y-108045295D02*
X106617142Y-108188152D01*
X106617142Y-108188152D02*
X106569523Y-108283390D01*
X106569523Y-108283390D02*
X106521904Y-108331009D01*
X106521904Y-108331009D02*
X106426666Y-108378628D01*
X106426666Y-108378628D02*
X106045714Y-108378628D01*
X107474285Y-108188152D02*
X107474285Y-108854819D01*
X107236190Y-107807200D02*
X106998095Y-108521485D01*
X106998095Y-108521485D02*
X107617142Y-108521485D01*
X108426666Y-108188152D02*
X108426666Y-108854819D01*
X108188571Y-107807200D02*
X107950476Y-108521485D01*
X107950476Y-108521485D02*
X108569523Y-108521485D01*
X114611905Y-117294819D02*
X114611905Y-116294819D01*
X114611905Y-116294819D02*
X114850000Y-116294819D01*
X114850000Y-116294819D02*
X114992857Y-116342438D01*
X114992857Y-116342438D02*
X115088095Y-116437676D01*
X115088095Y-116437676D02*
X115135714Y-116532914D01*
X115135714Y-116532914D02*
X115183333Y-116723390D01*
X115183333Y-116723390D02*
X115183333Y-116866247D01*
X115183333Y-116866247D02*
X115135714Y-117056723D01*
X115135714Y-117056723D02*
X115088095Y-117151961D01*
X115088095Y-117151961D02*
X114992857Y-117247200D01*
X114992857Y-117247200D02*
X114850000Y-117294819D01*
X114850000Y-117294819D02*
X114611905Y-117294819D01*
X116040476Y-116628152D02*
X116040476Y-117294819D01*
X115802381Y-116247200D02*
X115564286Y-116961485D01*
X115564286Y-116961485D02*
X116183333Y-116961485D01*
X120204819Y-84178571D02*
X119204819Y-84178571D01*
X119204819Y-84178571D02*
X119204819Y-83940476D01*
X119204819Y-83940476D02*
X119252438Y-83797619D01*
X119252438Y-83797619D02*
X119347676Y-83702381D01*
X119347676Y-83702381D02*
X119442914Y-83654762D01*
X119442914Y-83654762D02*
X119633390Y-83607143D01*
X119633390Y-83607143D02*
X119776247Y-83607143D01*
X119776247Y-83607143D02*
X119966723Y-83654762D01*
X119966723Y-83654762D02*
X120061961Y-83702381D01*
X120061961Y-83702381D02*
X120157200Y-83797619D01*
X120157200Y-83797619D02*
X120204819Y-83940476D01*
X120204819Y-83940476D02*
X120204819Y-84178571D01*
X120157200Y-82797619D02*
X120204819Y-82892857D01*
X120204819Y-82892857D02*
X120204819Y-83083333D01*
X120204819Y-83083333D02*
X120157200Y-83178571D01*
X120157200Y-83178571D02*
X120061961Y-83226190D01*
X120061961Y-83226190D02*
X119681009Y-83226190D01*
X119681009Y-83226190D02*
X119585771Y-83178571D01*
X119585771Y-83178571D02*
X119538152Y-83083333D01*
X119538152Y-83083333D02*
X119538152Y-82892857D01*
X119538152Y-82892857D02*
X119585771Y-82797619D01*
X119585771Y-82797619D02*
X119681009Y-82750000D01*
X119681009Y-82750000D02*
X119776247Y-82750000D01*
X119776247Y-82750000D02*
X119871485Y-83226190D01*
X120157200Y-81892857D02*
X120204819Y-81988095D01*
X120204819Y-81988095D02*
X120204819Y-82178571D01*
X120204819Y-82178571D02*
X120157200Y-82273809D01*
X120157200Y-82273809D02*
X120109580Y-82321428D01*
X120109580Y-82321428D02*
X120014342Y-82369047D01*
X120014342Y-82369047D02*
X119728628Y-82369047D01*
X119728628Y-82369047D02*
X119633390Y-82321428D01*
X119633390Y-82321428D02*
X119585771Y-82273809D01*
X119585771Y-82273809D02*
X119538152Y-82178571D01*
X119538152Y-82178571D02*
X119538152Y-81988095D01*
X119538152Y-81988095D02*
X119585771Y-81892857D01*
X120204819Y-81035714D02*
X119681009Y-81035714D01*
X119681009Y-81035714D02*
X119585771Y-81083333D01*
X119585771Y-81083333D02*
X119538152Y-81178571D01*
X119538152Y-81178571D02*
X119538152Y-81369047D01*
X119538152Y-81369047D02*
X119585771Y-81464285D01*
X120157200Y-81035714D02*
X120204819Y-81130952D01*
X120204819Y-81130952D02*
X120204819Y-81369047D01*
X120204819Y-81369047D02*
X120157200Y-81464285D01*
X120157200Y-81464285D02*
X120061961Y-81511904D01*
X120061961Y-81511904D02*
X119966723Y-81511904D01*
X119966723Y-81511904D02*
X119871485Y-81464285D01*
X119871485Y-81464285D02*
X119823866Y-81369047D01*
X119823866Y-81369047D02*
X119823866Y-81130952D01*
X119823866Y-81130952D02*
X119776247Y-81035714D01*
X119538152Y-80654761D02*
X120204819Y-80416666D01*
X119538152Y-80178571D02*
X120204819Y-80416666D01*
X120204819Y-80416666D02*
X120442914Y-80511904D01*
X120442914Y-80511904D02*
X120490533Y-80559523D01*
X120490533Y-80559523D02*
X120538152Y-80654761D01*
X119204819Y-79892856D02*
X119204819Y-79273809D01*
X119204819Y-79273809D02*
X119585771Y-79607142D01*
X119585771Y-79607142D02*
X119585771Y-79464285D01*
X119585771Y-79464285D02*
X119633390Y-79369047D01*
X119633390Y-79369047D02*
X119681009Y-79321428D01*
X119681009Y-79321428D02*
X119776247Y-79273809D01*
X119776247Y-79273809D02*
X120014342Y-79273809D01*
X120014342Y-79273809D02*
X120109580Y-79321428D01*
X120109580Y-79321428D02*
X120157200Y-79369047D01*
X120157200Y-79369047D02*
X120204819Y-79464285D01*
X120204819Y-79464285D02*
X120204819Y-79749999D01*
X120204819Y-79749999D02*
X120157200Y-79845237D01*
X120157200Y-79845237D02*
X120109580Y-79892856D01*
X120204819Y-104178571D02*
X119204819Y-104178571D01*
X119204819Y-104178571D02*
X119204819Y-103940476D01*
X119204819Y-103940476D02*
X119252438Y-103797619D01*
X119252438Y-103797619D02*
X119347676Y-103702381D01*
X119347676Y-103702381D02*
X119442914Y-103654762D01*
X119442914Y-103654762D02*
X119633390Y-103607143D01*
X119633390Y-103607143D02*
X119776247Y-103607143D01*
X119776247Y-103607143D02*
X119966723Y-103654762D01*
X119966723Y-103654762D02*
X120061961Y-103702381D01*
X120061961Y-103702381D02*
X120157200Y-103797619D01*
X120157200Y-103797619D02*
X120204819Y-103940476D01*
X120204819Y-103940476D02*
X120204819Y-104178571D01*
X120157200Y-102797619D02*
X120204819Y-102892857D01*
X120204819Y-102892857D02*
X120204819Y-103083333D01*
X120204819Y-103083333D02*
X120157200Y-103178571D01*
X120157200Y-103178571D02*
X120061961Y-103226190D01*
X120061961Y-103226190D02*
X119681009Y-103226190D01*
X119681009Y-103226190D02*
X119585771Y-103178571D01*
X119585771Y-103178571D02*
X119538152Y-103083333D01*
X119538152Y-103083333D02*
X119538152Y-102892857D01*
X119538152Y-102892857D02*
X119585771Y-102797619D01*
X119585771Y-102797619D02*
X119681009Y-102750000D01*
X119681009Y-102750000D02*
X119776247Y-102750000D01*
X119776247Y-102750000D02*
X119871485Y-103226190D01*
X120157200Y-101892857D02*
X120204819Y-101988095D01*
X120204819Y-101988095D02*
X120204819Y-102178571D01*
X120204819Y-102178571D02*
X120157200Y-102273809D01*
X120157200Y-102273809D02*
X120109580Y-102321428D01*
X120109580Y-102321428D02*
X120014342Y-102369047D01*
X120014342Y-102369047D02*
X119728628Y-102369047D01*
X119728628Y-102369047D02*
X119633390Y-102321428D01*
X119633390Y-102321428D02*
X119585771Y-102273809D01*
X119585771Y-102273809D02*
X119538152Y-102178571D01*
X119538152Y-102178571D02*
X119538152Y-101988095D01*
X119538152Y-101988095D02*
X119585771Y-101892857D01*
X120204819Y-101035714D02*
X119681009Y-101035714D01*
X119681009Y-101035714D02*
X119585771Y-101083333D01*
X119585771Y-101083333D02*
X119538152Y-101178571D01*
X119538152Y-101178571D02*
X119538152Y-101369047D01*
X119538152Y-101369047D02*
X119585771Y-101464285D01*
X120157200Y-101035714D02*
X120204819Y-101130952D01*
X120204819Y-101130952D02*
X120204819Y-101369047D01*
X120204819Y-101369047D02*
X120157200Y-101464285D01*
X120157200Y-101464285D02*
X120061961Y-101511904D01*
X120061961Y-101511904D02*
X119966723Y-101511904D01*
X119966723Y-101511904D02*
X119871485Y-101464285D01*
X119871485Y-101464285D02*
X119823866Y-101369047D01*
X119823866Y-101369047D02*
X119823866Y-101130952D01*
X119823866Y-101130952D02*
X119776247Y-101035714D01*
X119538152Y-100654761D02*
X120204819Y-100416666D01*
X119538152Y-100178571D02*
X120204819Y-100416666D01*
X120204819Y-100416666D02*
X120442914Y-100511904D01*
X120442914Y-100511904D02*
X120490533Y-100559523D01*
X120490533Y-100559523D02*
X120538152Y-100654761D01*
X119538152Y-99369047D02*
X120204819Y-99369047D01*
X119157200Y-99607142D02*
X119871485Y-99845237D01*
X119871485Y-99845237D02*
X119871485Y-99226190D01*
X105895714Y-91554819D02*
X105895714Y-90554819D01*
X105895714Y-90554819D02*
X106133809Y-90554819D01*
X106133809Y-90554819D02*
X106276666Y-90602438D01*
X106276666Y-90602438D02*
X106371904Y-90697676D01*
X106371904Y-90697676D02*
X106419523Y-90792914D01*
X106419523Y-90792914D02*
X106467142Y-90983390D01*
X106467142Y-90983390D02*
X106467142Y-91126247D01*
X106467142Y-91126247D02*
X106419523Y-91316723D01*
X106419523Y-91316723D02*
X106371904Y-91411961D01*
X106371904Y-91411961D02*
X106276666Y-91507200D01*
X106276666Y-91507200D02*
X106133809Y-91554819D01*
X106133809Y-91554819D02*
X105895714Y-91554819D01*
X107419523Y-91554819D02*
X106848095Y-91554819D01*
X107133809Y-91554819D02*
X107133809Y-90554819D01*
X107133809Y-90554819D02*
X107038571Y-90697676D01*
X107038571Y-90697676D02*
X106943333Y-90792914D01*
X106943333Y-90792914D02*
X106848095Y-90840533D01*
X108276666Y-90888152D02*
X108276666Y-91554819D01*
X108038571Y-90507200D02*
X107800476Y-91221485D01*
X107800476Y-91221485D02*
X108419523Y-91221485D01*
X119954819Y-128738094D02*
X118954819Y-128738094D01*
X118954819Y-128738094D02*
X118954819Y-128499999D01*
X118954819Y-128499999D02*
X119002438Y-128357142D01*
X119002438Y-128357142D02*
X119097676Y-128261904D01*
X119097676Y-128261904D02*
X119192914Y-128214285D01*
X119192914Y-128214285D02*
X119383390Y-128166666D01*
X119383390Y-128166666D02*
X119526247Y-128166666D01*
X119526247Y-128166666D02*
X119716723Y-128214285D01*
X119716723Y-128214285D02*
X119811961Y-128261904D01*
X119811961Y-128261904D02*
X119907200Y-128357142D01*
X119907200Y-128357142D02*
X119954819Y-128499999D01*
X119954819Y-128499999D02*
X119954819Y-128738094D01*
X118954819Y-127261904D02*
X118954819Y-127738094D01*
X118954819Y-127738094D02*
X119431009Y-127785713D01*
X119431009Y-127785713D02*
X119383390Y-127738094D01*
X119383390Y-127738094D02*
X119335771Y-127642856D01*
X119335771Y-127642856D02*
X119335771Y-127404761D01*
X119335771Y-127404761D02*
X119383390Y-127309523D01*
X119383390Y-127309523D02*
X119431009Y-127261904D01*
X119431009Y-127261904D02*
X119526247Y-127214285D01*
X119526247Y-127214285D02*
X119764342Y-127214285D01*
X119764342Y-127214285D02*
X119859580Y-127261904D01*
X119859580Y-127261904D02*
X119907200Y-127309523D01*
X119907200Y-127309523D02*
X119954819Y-127404761D01*
X119954819Y-127404761D02*
X119954819Y-127642856D01*
X119954819Y-127642856D02*
X119907200Y-127738094D01*
X119907200Y-127738094D02*
X119859580Y-127785713D01*
X123642142Y-117459819D02*
X123308809Y-116983628D01*
X123070714Y-117459819D02*
X123070714Y-116459819D01*
X123070714Y-116459819D02*
X123451666Y-116459819D01*
X123451666Y-116459819D02*
X123546904Y-116507438D01*
X123546904Y-116507438D02*
X123594523Y-116555057D01*
X123594523Y-116555057D02*
X123642142Y-116650295D01*
X123642142Y-116650295D02*
X123642142Y-116793152D01*
X123642142Y-116793152D02*
X123594523Y-116888390D01*
X123594523Y-116888390D02*
X123546904Y-116936009D01*
X123546904Y-116936009D02*
X123451666Y-116983628D01*
X123451666Y-116983628D02*
X123070714Y-116983628D01*
X124499285Y-116459819D02*
X124308809Y-116459819D01*
X124308809Y-116459819D02*
X124213571Y-116507438D01*
X124213571Y-116507438D02*
X124165952Y-116555057D01*
X124165952Y-116555057D02*
X124070714Y-116697914D01*
X124070714Y-116697914D02*
X124023095Y-116888390D01*
X124023095Y-116888390D02*
X124023095Y-117269342D01*
X124023095Y-117269342D02*
X124070714Y-117364580D01*
X124070714Y-117364580D02*
X124118333Y-117412200D01*
X124118333Y-117412200D02*
X124213571Y-117459819D01*
X124213571Y-117459819D02*
X124404047Y-117459819D01*
X124404047Y-117459819D02*
X124499285Y-117412200D01*
X124499285Y-117412200D02*
X124546904Y-117364580D01*
X124546904Y-117364580D02*
X124594523Y-117269342D01*
X124594523Y-117269342D02*
X124594523Y-117031247D01*
X124594523Y-117031247D02*
X124546904Y-116936009D01*
X124546904Y-116936009D02*
X124499285Y-116888390D01*
X124499285Y-116888390D02*
X124404047Y-116840771D01*
X124404047Y-116840771D02*
X124213571Y-116840771D01*
X124213571Y-116840771D02*
X124118333Y-116888390D01*
X124118333Y-116888390D02*
X124070714Y-116936009D01*
X124070714Y-116936009D02*
X124023095Y-117031247D01*
X125451666Y-116793152D02*
X125451666Y-117459819D01*
X125213571Y-116412200D02*
X124975476Y-117126485D01*
X124975476Y-117126485D02*
X125594523Y-117126485D01*
X107083333Y-50254819D02*
X106750000Y-49778628D01*
X106511905Y-50254819D02*
X106511905Y-49254819D01*
X106511905Y-49254819D02*
X106892857Y-49254819D01*
X106892857Y-49254819D02*
X106988095Y-49302438D01*
X106988095Y-49302438D02*
X107035714Y-49350057D01*
X107035714Y-49350057D02*
X107083333Y-49445295D01*
X107083333Y-49445295D02*
X107083333Y-49588152D01*
X107083333Y-49588152D02*
X107035714Y-49683390D01*
X107035714Y-49683390D02*
X106988095Y-49731009D01*
X106988095Y-49731009D02*
X106892857Y-49778628D01*
X106892857Y-49778628D02*
X106511905Y-49778628D01*
X108035714Y-50254819D02*
X107464286Y-50254819D01*
X107750000Y-50254819D02*
X107750000Y-49254819D01*
X107750000Y-49254819D02*
X107654762Y-49397676D01*
X107654762Y-49397676D02*
X107559524Y-49492914D01*
X107559524Y-49492914D02*
X107464286Y-49540533D01*
X102560476Y-114354819D02*
X102560476Y-115069104D01*
X102560476Y-115069104D02*
X102512857Y-115211961D01*
X102512857Y-115211961D02*
X102417619Y-115307200D01*
X102417619Y-115307200D02*
X102274762Y-115354819D01*
X102274762Y-115354819D02*
X102179524Y-115354819D01*
X103560476Y-115354819D02*
X102989048Y-115354819D01*
X103274762Y-115354819D02*
X103274762Y-114354819D01*
X103274762Y-114354819D02*
X103179524Y-114497676D01*
X103179524Y-114497676D02*
X103084286Y-114592914D01*
X103084286Y-114592914D02*
X102989048Y-114640533D01*
X103893810Y-114354819D02*
X104512857Y-114354819D01*
X104512857Y-114354819D02*
X104179524Y-114735771D01*
X104179524Y-114735771D02*
X104322381Y-114735771D01*
X104322381Y-114735771D02*
X104417619Y-114783390D01*
X104417619Y-114783390D02*
X104465238Y-114831009D01*
X104465238Y-114831009D02*
X104512857Y-114926247D01*
X104512857Y-114926247D02*
X104512857Y-115164342D01*
X104512857Y-115164342D02*
X104465238Y-115259580D01*
X104465238Y-115259580D02*
X104417619Y-115307200D01*
X104417619Y-115307200D02*
X104322381Y-115354819D01*
X104322381Y-115354819D02*
X104036667Y-115354819D01*
X104036667Y-115354819D02*
X103941429Y-115307200D01*
X103941429Y-115307200D02*
X103893810Y-115259580D01*
X133522142Y-117459819D02*
X133188809Y-116983628D01*
X132950714Y-117459819D02*
X132950714Y-116459819D01*
X132950714Y-116459819D02*
X133331666Y-116459819D01*
X133331666Y-116459819D02*
X133426904Y-116507438D01*
X133426904Y-116507438D02*
X133474523Y-116555057D01*
X133474523Y-116555057D02*
X133522142Y-116650295D01*
X133522142Y-116650295D02*
X133522142Y-116793152D01*
X133522142Y-116793152D02*
X133474523Y-116888390D01*
X133474523Y-116888390D02*
X133426904Y-116936009D01*
X133426904Y-116936009D02*
X133331666Y-116983628D01*
X133331666Y-116983628D02*
X132950714Y-116983628D01*
X134379285Y-116793152D02*
X134379285Y-117459819D01*
X134141190Y-116412200D02*
X133903095Y-117126485D01*
X133903095Y-117126485D02*
X134522142Y-117126485D01*
X134807857Y-116459819D02*
X135474523Y-116459819D01*
X135474523Y-116459819D02*
X135045952Y-117459819D01*
X114611905Y-134294819D02*
X114611905Y-133294819D01*
X114611905Y-133294819D02*
X114850000Y-133294819D01*
X114850000Y-133294819D02*
X114992857Y-133342438D01*
X114992857Y-133342438D02*
X115088095Y-133437676D01*
X115088095Y-133437676D02*
X115135714Y-133532914D01*
X115135714Y-133532914D02*
X115183333Y-133723390D01*
X115183333Y-133723390D02*
X115183333Y-133866247D01*
X115183333Y-133866247D02*
X115135714Y-134056723D01*
X115135714Y-134056723D02*
X115088095Y-134151961D01*
X115088095Y-134151961D02*
X114992857Y-134247200D01*
X114992857Y-134247200D02*
X114850000Y-134294819D01*
X114850000Y-134294819D02*
X114611905Y-134294819D01*
X115516667Y-133294819D02*
X116135714Y-133294819D01*
X116135714Y-133294819D02*
X115802381Y-133675771D01*
X115802381Y-133675771D02*
X115945238Y-133675771D01*
X115945238Y-133675771D02*
X116040476Y-133723390D01*
X116040476Y-133723390D02*
X116088095Y-133771009D01*
X116088095Y-133771009D02*
X116135714Y-133866247D01*
X116135714Y-133866247D02*
X116135714Y-134104342D01*
X116135714Y-134104342D02*
X116088095Y-134199580D01*
X116088095Y-134199580D02*
X116040476Y-134247200D01*
X116040476Y-134247200D02*
X115945238Y-134294819D01*
X115945238Y-134294819D02*
X115659524Y-134294819D01*
X115659524Y-134294819D02*
X115564286Y-134247200D01*
X115564286Y-134247200D02*
X115516667Y-134199580D01*
X122754580Y-129147857D02*
X122802200Y-129195476D01*
X122802200Y-129195476D02*
X122849819Y-129338333D01*
X122849819Y-129338333D02*
X122849819Y-129433571D01*
X122849819Y-129433571D02*
X122802200Y-129576428D01*
X122802200Y-129576428D02*
X122706961Y-129671666D01*
X122706961Y-129671666D02*
X122611723Y-129719285D01*
X122611723Y-129719285D02*
X122421247Y-129766904D01*
X122421247Y-129766904D02*
X122278390Y-129766904D01*
X122278390Y-129766904D02*
X122087914Y-129719285D01*
X122087914Y-129719285D02*
X121992676Y-129671666D01*
X121992676Y-129671666D02*
X121897438Y-129576428D01*
X121897438Y-129576428D02*
X121849819Y-129433571D01*
X121849819Y-129433571D02*
X121849819Y-129338333D01*
X121849819Y-129338333D02*
X121897438Y-129195476D01*
X121897438Y-129195476D02*
X121945057Y-129147857D01*
X122849819Y-128195476D02*
X122849819Y-128766904D01*
X122849819Y-128481190D02*
X121849819Y-128481190D01*
X121849819Y-128481190D02*
X121992676Y-128576428D01*
X121992676Y-128576428D02*
X122087914Y-128671666D01*
X122087914Y-128671666D02*
X122135533Y-128766904D01*
X121849819Y-127862142D02*
X121849819Y-127243095D01*
X121849819Y-127243095D02*
X122230771Y-127576428D01*
X122230771Y-127576428D02*
X122230771Y-127433571D01*
X122230771Y-127433571D02*
X122278390Y-127338333D01*
X122278390Y-127338333D02*
X122326009Y-127290714D01*
X122326009Y-127290714D02*
X122421247Y-127243095D01*
X122421247Y-127243095D02*
X122659342Y-127243095D01*
X122659342Y-127243095D02*
X122754580Y-127290714D01*
X122754580Y-127290714D02*
X122802200Y-127338333D01*
X122802200Y-127338333D02*
X122849819Y-127433571D01*
X122849819Y-127433571D02*
X122849819Y-127719285D01*
X122849819Y-127719285D02*
X122802200Y-127814523D01*
X122802200Y-127814523D02*
X122754580Y-127862142D01*
X111096666Y-45174819D02*
X111096666Y-45889104D01*
X111096666Y-45889104D02*
X111049047Y-46031961D01*
X111049047Y-46031961D02*
X110953809Y-46127200D01*
X110953809Y-46127200D02*
X110810952Y-46174819D01*
X110810952Y-46174819D02*
X110715714Y-46174819D01*
X111715714Y-45603390D02*
X111620476Y-45555771D01*
X111620476Y-45555771D02*
X111572857Y-45508152D01*
X111572857Y-45508152D02*
X111525238Y-45412914D01*
X111525238Y-45412914D02*
X111525238Y-45365295D01*
X111525238Y-45365295D02*
X111572857Y-45270057D01*
X111572857Y-45270057D02*
X111620476Y-45222438D01*
X111620476Y-45222438D02*
X111715714Y-45174819D01*
X111715714Y-45174819D02*
X111906190Y-45174819D01*
X111906190Y-45174819D02*
X112001428Y-45222438D01*
X112001428Y-45222438D02*
X112049047Y-45270057D01*
X112049047Y-45270057D02*
X112096666Y-45365295D01*
X112096666Y-45365295D02*
X112096666Y-45412914D01*
X112096666Y-45412914D02*
X112049047Y-45508152D01*
X112049047Y-45508152D02*
X112001428Y-45555771D01*
X112001428Y-45555771D02*
X111906190Y-45603390D01*
X111906190Y-45603390D02*
X111715714Y-45603390D01*
X111715714Y-45603390D02*
X111620476Y-45651009D01*
X111620476Y-45651009D02*
X111572857Y-45698628D01*
X111572857Y-45698628D02*
X111525238Y-45793866D01*
X111525238Y-45793866D02*
X111525238Y-45984342D01*
X111525238Y-45984342D02*
X111572857Y-46079580D01*
X111572857Y-46079580D02*
X111620476Y-46127200D01*
X111620476Y-46127200D02*
X111715714Y-46174819D01*
X111715714Y-46174819D02*
X111906190Y-46174819D01*
X111906190Y-46174819D02*
X112001428Y-46127200D01*
X112001428Y-46127200D02*
X112049047Y-46079580D01*
X112049047Y-46079580D02*
X112096666Y-45984342D01*
X112096666Y-45984342D02*
X112096666Y-45793866D01*
X112096666Y-45793866D02*
X112049047Y-45698628D01*
X112049047Y-45698628D02*
X112001428Y-45651009D01*
X112001428Y-45651009D02*
X111906190Y-45603390D01*
X117354819Y-128738094D02*
X116354819Y-128738094D01*
X116354819Y-128738094D02*
X116354819Y-128499999D01*
X116354819Y-128499999D02*
X116402438Y-128357142D01*
X116402438Y-128357142D02*
X116497676Y-128261904D01*
X116497676Y-128261904D02*
X116592914Y-128214285D01*
X116592914Y-128214285D02*
X116783390Y-128166666D01*
X116783390Y-128166666D02*
X116926247Y-128166666D01*
X116926247Y-128166666D02*
X117116723Y-128214285D01*
X117116723Y-128214285D02*
X117211961Y-128261904D01*
X117211961Y-128261904D02*
X117307200Y-128357142D01*
X117307200Y-128357142D02*
X117354819Y-128499999D01*
X117354819Y-128499999D02*
X117354819Y-128738094D01*
X116354819Y-127309523D02*
X116354819Y-127499999D01*
X116354819Y-127499999D02*
X116402438Y-127595237D01*
X116402438Y-127595237D02*
X116450057Y-127642856D01*
X116450057Y-127642856D02*
X116592914Y-127738094D01*
X116592914Y-127738094D02*
X116783390Y-127785713D01*
X116783390Y-127785713D02*
X117164342Y-127785713D01*
X117164342Y-127785713D02*
X117259580Y-127738094D01*
X117259580Y-127738094D02*
X117307200Y-127690475D01*
X117307200Y-127690475D02*
X117354819Y-127595237D01*
X117354819Y-127595237D02*
X117354819Y-127404761D01*
X117354819Y-127404761D02*
X117307200Y-127309523D01*
X117307200Y-127309523D02*
X117259580Y-127261904D01*
X117259580Y-127261904D02*
X117164342Y-127214285D01*
X117164342Y-127214285D02*
X116926247Y-127214285D01*
X116926247Y-127214285D02*
X116831009Y-127261904D01*
X116831009Y-127261904D02*
X116783390Y-127309523D01*
X116783390Y-127309523D02*
X116735771Y-127404761D01*
X116735771Y-127404761D02*
X116735771Y-127595237D01*
X116735771Y-127595237D02*
X116783390Y-127690475D01*
X116783390Y-127690475D02*
X116831009Y-127738094D01*
X116831009Y-127738094D02*
X116926247Y-127785713D01*
X150066666Y-46254819D02*
X150066666Y-46969104D01*
X150066666Y-46969104D02*
X150019047Y-47111961D01*
X150019047Y-47111961D02*
X149923809Y-47207200D01*
X149923809Y-47207200D02*
X149780952Y-47254819D01*
X149780952Y-47254819D02*
X149685714Y-47254819D01*
X150971428Y-46254819D02*
X150780952Y-46254819D01*
X150780952Y-46254819D02*
X150685714Y-46302438D01*
X150685714Y-46302438D02*
X150638095Y-46350057D01*
X150638095Y-46350057D02*
X150542857Y-46492914D01*
X150542857Y-46492914D02*
X150495238Y-46683390D01*
X150495238Y-46683390D02*
X150495238Y-47064342D01*
X150495238Y-47064342D02*
X150542857Y-47159580D01*
X150542857Y-47159580D02*
X150590476Y-47207200D01*
X150590476Y-47207200D02*
X150685714Y-47254819D01*
X150685714Y-47254819D02*
X150876190Y-47254819D01*
X150876190Y-47254819D02*
X150971428Y-47207200D01*
X150971428Y-47207200D02*
X151019047Y-47159580D01*
X151019047Y-47159580D02*
X151066666Y-47064342D01*
X151066666Y-47064342D02*
X151066666Y-46826247D01*
X151066666Y-46826247D02*
X151019047Y-46731009D01*
X151019047Y-46731009D02*
X150971428Y-46683390D01*
X150971428Y-46683390D02*
X150876190Y-46635771D01*
X150876190Y-46635771D02*
X150685714Y-46635771D01*
X150685714Y-46635771D02*
X150590476Y-46683390D01*
X150590476Y-46683390D02*
X150542857Y-46731009D01*
X150542857Y-46731009D02*
X150495238Y-46826247D01*
X114454819Y-128176666D02*
X113978628Y-128509999D01*
X114454819Y-128748094D02*
X113454819Y-128748094D01*
X113454819Y-128748094D02*
X113454819Y-128367142D01*
X113454819Y-128367142D02*
X113502438Y-128271904D01*
X113502438Y-128271904D02*
X113550057Y-128224285D01*
X113550057Y-128224285D02*
X113645295Y-128176666D01*
X113645295Y-128176666D02*
X113788152Y-128176666D01*
X113788152Y-128176666D02*
X113883390Y-128224285D01*
X113883390Y-128224285D02*
X113931009Y-128271904D01*
X113931009Y-128271904D02*
X113978628Y-128367142D01*
X113978628Y-128367142D02*
X113978628Y-128748094D01*
X113454819Y-127843332D02*
X113454819Y-127176666D01*
X113454819Y-127176666D02*
X114454819Y-127605237D01*
X142560476Y-131354819D02*
X142560476Y-132069104D01*
X142560476Y-132069104D02*
X142512857Y-132211961D01*
X142512857Y-132211961D02*
X142417619Y-132307200D01*
X142417619Y-132307200D02*
X142274762Y-132354819D01*
X142274762Y-132354819D02*
X142179524Y-132354819D01*
X143560476Y-132354819D02*
X142989048Y-132354819D01*
X143274762Y-132354819D02*
X143274762Y-131354819D01*
X143274762Y-131354819D02*
X143179524Y-131497676D01*
X143179524Y-131497676D02*
X143084286Y-131592914D01*
X143084286Y-131592914D02*
X142989048Y-131640533D01*
X144465238Y-131354819D02*
X143989048Y-131354819D01*
X143989048Y-131354819D02*
X143941429Y-131831009D01*
X143941429Y-131831009D02*
X143989048Y-131783390D01*
X143989048Y-131783390D02*
X144084286Y-131735771D01*
X144084286Y-131735771D02*
X144322381Y-131735771D01*
X144322381Y-131735771D02*
X144417619Y-131783390D01*
X144417619Y-131783390D02*
X144465238Y-131831009D01*
X144465238Y-131831009D02*
X144512857Y-131926247D01*
X144512857Y-131926247D02*
X144512857Y-132164342D01*
X144512857Y-132164342D02*
X144465238Y-132259580D01*
X144465238Y-132259580D02*
X144417619Y-132307200D01*
X144417619Y-132307200D02*
X144322381Y-132354819D01*
X144322381Y-132354819D02*
X144084286Y-132354819D01*
X144084286Y-132354819D02*
X143989048Y-132307200D01*
X143989048Y-132307200D02*
X143941429Y-132259580D01*
X141254819Y-82042857D02*
X140778628Y-82376190D01*
X141254819Y-82614285D02*
X140254819Y-82614285D01*
X140254819Y-82614285D02*
X140254819Y-82233333D01*
X140254819Y-82233333D02*
X140302438Y-82138095D01*
X140302438Y-82138095D02*
X140350057Y-82090476D01*
X140350057Y-82090476D02*
X140445295Y-82042857D01*
X140445295Y-82042857D02*
X140588152Y-82042857D01*
X140588152Y-82042857D02*
X140683390Y-82090476D01*
X140683390Y-82090476D02*
X140731009Y-82138095D01*
X140731009Y-82138095D02*
X140778628Y-82233333D01*
X140778628Y-82233333D02*
X140778628Y-82614285D01*
X140254819Y-81185714D02*
X140254819Y-81376190D01*
X140254819Y-81376190D02*
X140302438Y-81471428D01*
X140302438Y-81471428D02*
X140350057Y-81519047D01*
X140350057Y-81519047D02*
X140492914Y-81614285D01*
X140492914Y-81614285D02*
X140683390Y-81661904D01*
X140683390Y-81661904D02*
X141064342Y-81661904D01*
X141064342Y-81661904D02*
X141159580Y-81614285D01*
X141159580Y-81614285D02*
X141207200Y-81566666D01*
X141207200Y-81566666D02*
X141254819Y-81471428D01*
X141254819Y-81471428D02*
X141254819Y-81280952D01*
X141254819Y-81280952D02*
X141207200Y-81185714D01*
X141207200Y-81185714D02*
X141159580Y-81138095D01*
X141159580Y-81138095D02*
X141064342Y-81090476D01*
X141064342Y-81090476D02*
X140826247Y-81090476D01*
X140826247Y-81090476D02*
X140731009Y-81138095D01*
X140731009Y-81138095D02*
X140683390Y-81185714D01*
X140683390Y-81185714D02*
X140635771Y-81280952D01*
X140635771Y-81280952D02*
X140635771Y-81471428D01*
X140635771Y-81471428D02*
X140683390Y-81566666D01*
X140683390Y-81566666D02*
X140731009Y-81614285D01*
X140731009Y-81614285D02*
X140826247Y-81661904D01*
X141254819Y-80138095D02*
X141254819Y-80709523D01*
X141254819Y-80423809D02*
X140254819Y-80423809D01*
X140254819Y-80423809D02*
X140397676Y-80519047D01*
X140397676Y-80519047D02*
X140492914Y-80614285D01*
X140492914Y-80614285D02*
X140540533Y-80709523D01*
X117638095Y-67954819D02*
X117638095Y-66954819D01*
X117638095Y-67431009D02*
X118209523Y-67431009D01*
X118209523Y-67954819D02*
X118209523Y-66954819D01*
X119209523Y-67954819D02*
X118638095Y-67954819D01*
X118923809Y-67954819D02*
X118923809Y-66954819D01*
X118923809Y-66954819D02*
X118828571Y-67097676D01*
X118828571Y-67097676D02*
X118733333Y-67192914D01*
X118733333Y-67192914D02*
X118638095Y-67240533D01*
X133512142Y-114359819D02*
X133178809Y-113883628D01*
X132940714Y-114359819D02*
X132940714Y-113359819D01*
X132940714Y-113359819D02*
X133321666Y-113359819D01*
X133321666Y-113359819D02*
X133416904Y-113407438D01*
X133416904Y-113407438D02*
X133464523Y-113455057D01*
X133464523Y-113455057D02*
X133512142Y-113550295D01*
X133512142Y-113550295D02*
X133512142Y-113693152D01*
X133512142Y-113693152D02*
X133464523Y-113788390D01*
X133464523Y-113788390D02*
X133416904Y-113836009D01*
X133416904Y-113836009D02*
X133321666Y-113883628D01*
X133321666Y-113883628D02*
X132940714Y-113883628D01*
X134369285Y-113693152D02*
X134369285Y-114359819D01*
X134131190Y-113312200D02*
X133893095Y-114026485D01*
X133893095Y-114026485D02*
X134512142Y-114026485D01*
X135369285Y-113359819D02*
X134893095Y-113359819D01*
X134893095Y-113359819D02*
X134845476Y-113836009D01*
X134845476Y-113836009D02*
X134893095Y-113788390D01*
X134893095Y-113788390D02*
X134988333Y-113740771D01*
X134988333Y-113740771D02*
X135226428Y-113740771D01*
X135226428Y-113740771D02*
X135321666Y-113788390D01*
X135321666Y-113788390D02*
X135369285Y-113836009D01*
X135369285Y-113836009D02*
X135416904Y-113931247D01*
X135416904Y-113931247D02*
X135416904Y-114169342D01*
X135416904Y-114169342D02*
X135369285Y-114264580D01*
X135369285Y-114264580D02*
X135321666Y-114312200D01*
X135321666Y-114312200D02*
X135226428Y-114359819D01*
X135226428Y-114359819D02*
X134988333Y-114359819D01*
X134988333Y-114359819D02*
X134893095Y-114312200D01*
X134893095Y-114312200D02*
X134845476Y-114264580D01*
X102560476Y-54354819D02*
X102560476Y-55069104D01*
X102560476Y-55069104D02*
X102512857Y-55211961D01*
X102512857Y-55211961D02*
X102417619Y-55307200D01*
X102417619Y-55307200D02*
X102274762Y-55354819D01*
X102274762Y-55354819D02*
X102179524Y-55354819D01*
X103560476Y-55354819D02*
X102989048Y-55354819D01*
X103274762Y-55354819D02*
X103274762Y-54354819D01*
X103274762Y-54354819D02*
X103179524Y-54497676D01*
X103179524Y-54497676D02*
X103084286Y-54592914D01*
X103084286Y-54592914D02*
X102989048Y-54640533D01*
X103941429Y-54450057D02*
X103989048Y-54402438D01*
X103989048Y-54402438D02*
X104084286Y-54354819D01*
X104084286Y-54354819D02*
X104322381Y-54354819D01*
X104322381Y-54354819D02*
X104417619Y-54402438D01*
X104417619Y-54402438D02*
X104465238Y-54450057D01*
X104465238Y-54450057D02*
X104512857Y-54545295D01*
X104512857Y-54545295D02*
X104512857Y-54640533D01*
X104512857Y-54640533D02*
X104465238Y-54783390D01*
X104465238Y-54783390D02*
X103893810Y-55354819D01*
X103893810Y-55354819D02*
X104512857Y-55354819D01*
X102560476Y-131354819D02*
X102560476Y-132069104D01*
X102560476Y-132069104D02*
X102512857Y-132211961D01*
X102512857Y-132211961D02*
X102417619Y-132307200D01*
X102417619Y-132307200D02*
X102274762Y-132354819D01*
X102274762Y-132354819D02*
X102179524Y-132354819D01*
X103560476Y-132354819D02*
X102989048Y-132354819D01*
X103274762Y-132354819D02*
X103274762Y-131354819D01*
X103274762Y-131354819D02*
X103179524Y-131497676D01*
X103179524Y-131497676D02*
X103084286Y-131592914D01*
X103084286Y-131592914D02*
X102989048Y-131640533D01*
X103893810Y-131354819D02*
X104560476Y-131354819D01*
X104560476Y-131354819D02*
X104131905Y-132354819D01*
X143090476Y-53254819D02*
X143090476Y-53969104D01*
X143090476Y-53969104D02*
X143042857Y-54111961D01*
X143042857Y-54111961D02*
X142947619Y-54207200D01*
X142947619Y-54207200D02*
X142804762Y-54254819D01*
X142804762Y-54254819D02*
X142709524Y-54254819D01*
X144090476Y-54254819D02*
X143519048Y-54254819D01*
X143804762Y-54254819D02*
X143804762Y-53254819D01*
X143804762Y-53254819D02*
X143709524Y-53397676D01*
X143709524Y-53397676D02*
X143614286Y-53492914D01*
X143614286Y-53492914D02*
X143519048Y-53540533D01*
X144709524Y-53254819D02*
X144804762Y-53254819D01*
X144804762Y-53254819D02*
X144900000Y-53302438D01*
X144900000Y-53302438D02*
X144947619Y-53350057D01*
X144947619Y-53350057D02*
X144995238Y-53445295D01*
X144995238Y-53445295D02*
X145042857Y-53635771D01*
X145042857Y-53635771D02*
X145042857Y-53873866D01*
X145042857Y-53873866D02*
X144995238Y-54064342D01*
X144995238Y-54064342D02*
X144947619Y-54159580D01*
X144947619Y-54159580D02*
X144900000Y-54207200D01*
X144900000Y-54207200D02*
X144804762Y-54254819D01*
X144804762Y-54254819D02*
X144709524Y-54254819D01*
X144709524Y-54254819D02*
X144614286Y-54207200D01*
X144614286Y-54207200D02*
X144566667Y-54159580D01*
X144566667Y-54159580D02*
X144519048Y-54064342D01*
X144519048Y-54064342D02*
X144471429Y-53873866D01*
X144471429Y-53873866D02*
X144471429Y-53635771D01*
X144471429Y-53635771D02*
X144519048Y-53445295D01*
X144519048Y-53445295D02*
X144566667Y-53350057D01*
X144566667Y-53350057D02*
X144614286Y-53302438D01*
X144614286Y-53302438D02*
X144709524Y-53254819D01*
X102560476Y-74354819D02*
X102560476Y-75069104D01*
X102560476Y-75069104D02*
X102512857Y-75211961D01*
X102512857Y-75211961D02*
X102417619Y-75307200D01*
X102417619Y-75307200D02*
X102274762Y-75354819D01*
X102274762Y-75354819D02*
X102179524Y-75354819D01*
X103560476Y-75354819D02*
X102989048Y-75354819D01*
X103274762Y-75354819D02*
X103274762Y-74354819D01*
X103274762Y-74354819D02*
X103179524Y-74497676D01*
X103179524Y-74497676D02*
X103084286Y-74592914D01*
X103084286Y-74592914D02*
X102989048Y-74640533D01*
X104417619Y-74354819D02*
X104227143Y-74354819D01*
X104227143Y-74354819D02*
X104131905Y-74402438D01*
X104131905Y-74402438D02*
X104084286Y-74450057D01*
X104084286Y-74450057D02*
X103989048Y-74592914D01*
X103989048Y-74592914D02*
X103941429Y-74783390D01*
X103941429Y-74783390D02*
X103941429Y-75164342D01*
X103941429Y-75164342D02*
X103989048Y-75259580D01*
X103989048Y-75259580D02*
X104036667Y-75307200D01*
X104036667Y-75307200D02*
X104131905Y-75354819D01*
X104131905Y-75354819D02*
X104322381Y-75354819D01*
X104322381Y-75354819D02*
X104417619Y-75307200D01*
X104417619Y-75307200D02*
X104465238Y-75259580D01*
X104465238Y-75259580D02*
X104512857Y-75164342D01*
X104512857Y-75164342D02*
X104512857Y-74926247D01*
X104512857Y-74926247D02*
X104465238Y-74831009D01*
X104465238Y-74831009D02*
X104417619Y-74783390D01*
X104417619Y-74783390D02*
X104322381Y-74735771D01*
X104322381Y-74735771D02*
X104131905Y-74735771D01*
X104131905Y-74735771D02*
X104036667Y-74783390D01*
X104036667Y-74783390D02*
X103989048Y-74831009D01*
X103989048Y-74831009D02*
X103941429Y-74926247D01*
X116361905Y-50654819D02*
X116361905Y-49654819D01*
X116361905Y-49654819D02*
X116600000Y-49654819D01*
X116600000Y-49654819D02*
X116742857Y-49702438D01*
X116742857Y-49702438D02*
X116838095Y-49797676D01*
X116838095Y-49797676D02*
X116885714Y-49892914D01*
X116885714Y-49892914D02*
X116933333Y-50083390D01*
X116933333Y-50083390D02*
X116933333Y-50226247D01*
X116933333Y-50226247D02*
X116885714Y-50416723D01*
X116885714Y-50416723D02*
X116838095Y-50511961D01*
X116838095Y-50511961D02*
X116742857Y-50607200D01*
X116742857Y-50607200D02*
X116600000Y-50654819D01*
X116600000Y-50654819D02*
X116361905Y-50654819D01*
X117314286Y-49750057D02*
X117361905Y-49702438D01*
X117361905Y-49702438D02*
X117457143Y-49654819D01*
X117457143Y-49654819D02*
X117695238Y-49654819D01*
X117695238Y-49654819D02*
X117790476Y-49702438D01*
X117790476Y-49702438D02*
X117838095Y-49750057D01*
X117838095Y-49750057D02*
X117885714Y-49845295D01*
X117885714Y-49845295D02*
X117885714Y-49940533D01*
X117885714Y-49940533D02*
X117838095Y-50083390D01*
X117838095Y-50083390D02*
X117266667Y-50654819D01*
X117266667Y-50654819D02*
X117885714Y-50654819D01*
X123632142Y-120559819D02*
X123298809Y-120083628D01*
X123060714Y-120559819D02*
X123060714Y-119559819D01*
X123060714Y-119559819D02*
X123441666Y-119559819D01*
X123441666Y-119559819D02*
X123536904Y-119607438D01*
X123536904Y-119607438D02*
X123584523Y-119655057D01*
X123584523Y-119655057D02*
X123632142Y-119750295D01*
X123632142Y-119750295D02*
X123632142Y-119893152D01*
X123632142Y-119893152D02*
X123584523Y-119988390D01*
X123584523Y-119988390D02*
X123536904Y-120036009D01*
X123536904Y-120036009D02*
X123441666Y-120083628D01*
X123441666Y-120083628D02*
X123060714Y-120083628D01*
X124489285Y-119559819D02*
X124298809Y-119559819D01*
X124298809Y-119559819D02*
X124203571Y-119607438D01*
X124203571Y-119607438D02*
X124155952Y-119655057D01*
X124155952Y-119655057D02*
X124060714Y-119797914D01*
X124060714Y-119797914D02*
X124013095Y-119988390D01*
X124013095Y-119988390D02*
X124013095Y-120369342D01*
X124013095Y-120369342D02*
X124060714Y-120464580D01*
X124060714Y-120464580D02*
X124108333Y-120512200D01*
X124108333Y-120512200D02*
X124203571Y-120559819D01*
X124203571Y-120559819D02*
X124394047Y-120559819D01*
X124394047Y-120559819D02*
X124489285Y-120512200D01*
X124489285Y-120512200D02*
X124536904Y-120464580D01*
X124536904Y-120464580D02*
X124584523Y-120369342D01*
X124584523Y-120369342D02*
X124584523Y-120131247D01*
X124584523Y-120131247D02*
X124536904Y-120036009D01*
X124536904Y-120036009D02*
X124489285Y-119988390D01*
X124489285Y-119988390D02*
X124394047Y-119940771D01*
X124394047Y-119940771D02*
X124203571Y-119940771D01*
X124203571Y-119940771D02*
X124108333Y-119988390D01*
X124108333Y-119988390D02*
X124060714Y-120036009D01*
X124060714Y-120036009D02*
X124013095Y-120131247D01*
X124917857Y-119559819D02*
X125536904Y-119559819D01*
X125536904Y-119559819D02*
X125203571Y-119940771D01*
X125203571Y-119940771D02*
X125346428Y-119940771D01*
X125346428Y-119940771D02*
X125441666Y-119988390D01*
X125441666Y-119988390D02*
X125489285Y-120036009D01*
X125489285Y-120036009D02*
X125536904Y-120131247D01*
X125536904Y-120131247D02*
X125536904Y-120369342D01*
X125536904Y-120369342D02*
X125489285Y-120464580D01*
X125489285Y-120464580D02*
X125441666Y-120512200D01*
X125441666Y-120512200D02*
X125346428Y-120559819D01*
X125346428Y-120559819D02*
X125060714Y-120559819D01*
X125060714Y-120559819D02*
X124965476Y-120512200D01*
X124965476Y-120512200D02*
X124917857Y-120464580D01*
X141254819Y-139052857D02*
X140778628Y-139386190D01*
X141254819Y-139624285D02*
X140254819Y-139624285D01*
X140254819Y-139624285D02*
X140254819Y-139243333D01*
X140254819Y-139243333D02*
X140302438Y-139148095D01*
X140302438Y-139148095D02*
X140350057Y-139100476D01*
X140350057Y-139100476D02*
X140445295Y-139052857D01*
X140445295Y-139052857D02*
X140588152Y-139052857D01*
X140588152Y-139052857D02*
X140683390Y-139100476D01*
X140683390Y-139100476D02*
X140731009Y-139148095D01*
X140731009Y-139148095D02*
X140778628Y-139243333D01*
X140778628Y-139243333D02*
X140778628Y-139624285D01*
X140254819Y-138195714D02*
X140254819Y-138386190D01*
X140254819Y-138386190D02*
X140302438Y-138481428D01*
X140302438Y-138481428D02*
X140350057Y-138529047D01*
X140350057Y-138529047D02*
X140492914Y-138624285D01*
X140492914Y-138624285D02*
X140683390Y-138671904D01*
X140683390Y-138671904D02*
X141064342Y-138671904D01*
X141064342Y-138671904D02*
X141159580Y-138624285D01*
X141159580Y-138624285D02*
X141207200Y-138576666D01*
X141207200Y-138576666D02*
X141254819Y-138481428D01*
X141254819Y-138481428D02*
X141254819Y-138290952D01*
X141254819Y-138290952D02*
X141207200Y-138195714D01*
X141207200Y-138195714D02*
X141159580Y-138148095D01*
X141159580Y-138148095D02*
X141064342Y-138100476D01*
X141064342Y-138100476D02*
X140826247Y-138100476D01*
X140826247Y-138100476D02*
X140731009Y-138148095D01*
X140731009Y-138148095D02*
X140683390Y-138195714D01*
X140683390Y-138195714D02*
X140635771Y-138290952D01*
X140635771Y-138290952D02*
X140635771Y-138481428D01*
X140635771Y-138481428D02*
X140683390Y-138576666D01*
X140683390Y-138576666D02*
X140731009Y-138624285D01*
X140731009Y-138624285D02*
X140826247Y-138671904D01*
X140350057Y-137719523D02*
X140302438Y-137671904D01*
X140302438Y-137671904D02*
X140254819Y-137576666D01*
X140254819Y-137576666D02*
X140254819Y-137338571D01*
X140254819Y-137338571D02*
X140302438Y-137243333D01*
X140302438Y-137243333D02*
X140350057Y-137195714D01*
X140350057Y-137195714D02*
X140445295Y-137148095D01*
X140445295Y-137148095D02*
X140540533Y-137148095D01*
X140540533Y-137148095D02*
X140683390Y-137195714D01*
X140683390Y-137195714D02*
X141254819Y-137767142D01*
X141254819Y-137767142D02*
X141254819Y-137148095D01*
X141254819Y-122032857D02*
X140778628Y-122366190D01*
X141254819Y-122604285D02*
X140254819Y-122604285D01*
X140254819Y-122604285D02*
X140254819Y-122223333D01*
X140254819Y-122223333D02*
X140302438Y-122128095D01*
X140302438Y-122128095D02*
X140350057Y-122080476D01*
X140350057Y-122080476D02*
X140445295Y-122032857D01*
X140445295Y-122032857D02*
X140588152Y-122032857D01*
X140588152Y-122032857D02*
X140683390Y-122080476D01*
X140683390Y-122080476D02*
X140731009Y-122128095D01*
X140731009Y-122128095D02*
X140778628Y-122223333D01*
X140778628Y-122223333D02*
X140778628Y-122604285D01*
X140254819Y-121175714D02*
X140254819Y-121366190D01*
X140254819Y-121366190D02*
X140302438Y-121461428D01*
X140302438Y-121461428D02*
X140350057Y-121509047D01*
X140350057Y-121509047D02*
X140492914Y-121604285D01*
X140492914Y-121604285D02*
X140683390Y-121651904D01*
X140683390Y-121651904D02*
X141064342Y-121651904D01*
X141064342Y-121651904D02*
X141159580Y-121604285D01*
X141159580Y-121604285D02*
X141207200Y-121556666D01*
X141207200Y-121556666D02*
X141254819Y-121461428D01*
X141254819Y-121461428D02*
X141254819Y-121270952D01*
X141254819Y-121270952D02*
X141207200Y-121175714D01*
X141207200Y-121175714D02*
X141159580Y-121128095D01*
X141159580Y-121128095D02*
X141064342Y-121080476D01*
X141064342Y-121080476D02*
X140826247Y-121080476D01*
X140826247Y-121080476D02*
X140731009Y-121128095D01*
X140731009Y-121128095D02*
X140683390Y-121175714D01*
X140683390Y-121175714D02*
X140635771Y-121270952D01*
X140635771Y-121270952D02*
X140635771Y-121461428D01*
X140635771Y-121461428D02*
X140683390Y-121556666D01*
X140683390Y-121556666D02*
X140731009Y-121604285D01*
X140731009Y-121604285D02*
X140826247Y-121651904D01*
X140254819Y-120461428D02*
X140254819Y-120366190D01*
X140254819Y-120366190D02*
X140302438Y-120270952D01*
X140302438Y-120270952D02*
X140350057Y-120223333D01*
X140350057Y-120223333D02*
X140445295Y-120175714D01*
X140445295Y-120175714D02*
X140635771Y-120128095D01*
X140635771Y-120128095D02*
X140873866Y-120128095D01*
X140873866Y-120128095D02*
X141064342Y-120175714D01*
X141064342Y-120175714D02*
X141159580Y-120223333D01*
X141159580Y-120223333D02*
X141207200Y-120270952D01*
X141207200Y-120270952D02*
X141254819Y-120366190D01*
X141254819Y-120366190D02*
X141254819Y-120461428D01*
X141254819Y-120461428D02*
X141207200Y-120556666D01*
X141207200Y-120556666D02*
X141159580Y-120604285D01*
X141159580Y-120604285D02*
X141064342Y-120651904D01*
X141064342Y-120651904D02*
X140873866Y-120699523D01*
X140873866Y-120699523D02*
X140635771Y-120699523D01*
X140635771Y-120699523D02*
X140445295Y-120651904D01*
X140445295Y-120651904D02*
X140350057Y-120604285D01*
X140350057Y-120604285D02*
X140302438Y-120556666D01*
X140302438Y-120556666D02*
X140254819Y-120461428D01*
X141254819Y-39842857D02*
X140778628Y-40176190D01*
X141254819Y-40414285D02*
X140254819Y-40414285D01*
X140254819Y-40414285D02*
X140254819Y-40033333D01*
X140254819Y-40033333D02*
X140302438Y-39938095D01*
X140302438Y-39938095D02*
X140350057Y-39890476D01*
X140350057Y-39890476D02*
X140445295Y-39842857D01*
X140445295Y-39842857D02*
X140588152Y-39842857D01*
X140588152Y-39842857D02*
X140683390Y-39890476D01*
X140683390Y-39890476D02*
X140731009Y-39938095D01*
X140731009Y-39938095D02*
X140778628Y-40033333D01*
X140778628Y-40033333D02*
X140778628Y-40414285D01*
X140254819Y-38938095D02*
X140254819Y-39414285D01*
X140254819Y-39414285D02*
X140731009Y-39461904D01*
X140731009Y-39461904D02*
X140683390Y-39414285D01*
X140683390Y-39414285D02*
X140635771Y-39319047D01*
X140635771Y-39319047D02*
X140635771Y-39080952D01*
X140635771Y-39080952D02*
X140683390Y-38985714D01*
X140683390Y-38985714D02*
X140731009Y-38938095D01*
X140731009Y-38938095D02*
X140826247Y-38890476D01*
X140826247Y-38890476D02*
X141064342Y-38890476D01*
X141064342Y-38890476D02*
X141159580Y-38938095D01*
X141159580Y-38938095D02*
X141207200Y-38985714D01*
X141207200Y-38985714D02*
X141254819Y-39080952D01*
X141254819Y-39080952D02*
X141254819Y-39319047D01*
X141254819Y-39319047D02*
X141207200Y-39414285D01*
X141207200Y-39414285D02*
X141159580Y-39461904D01*
X140254819Y-38557142D02*
X140254819Y-37890476D01*
X140254819Y-37890476D02*
X141254819Y-38319047D01*
X133522142Y-120559819D02*
X133188809Y-120083628D01*
X132950714Y-120559819D02*
X132950714Y-119559819D01*
X132950714Y-119559819D02*
X133331666Y-119559819D01*
X133331666Y-119559819D02*
X133426904Y-119607438D01*
X133426904Y-119607438D02*
X133474523Y-119655057D01*
X133474523Y-119655057D02*
X133522142Y-119750295D01*
X133522142Y-119750295D02*
X133522142Y-119893152D01*
X133522142Y-119893152D02*
X133474523Y-119988390D01*
X133474523Y-119988390D02*
X133426904Y-120036009D01*
X133426904Y-120036009D02*
X133331666Y-120083628D01*
X133331666Y-120083628D02*
X132950714Y-120083628D01*
X134426904Y-119559819D02*
X133950714Y-119559819D01*
X133950714Y-119559819D02*
X133903095Y-120036009D01*
X133903095Y-120036009D02*
X133950714Y-119988390D01*
X133950714Y-119988390D02*
X134045952Y-119940771D01*
X134045952Y-119940771D02*
X134284047Y-119940771D01*
X134284047Y-119940771D02*
X134379285Y-119988390D01*
X134379285Y-119988390D02*
X134426904Y-120036009D01*
X134426904Y-120036009D02*
X134474523Y-120131247D01*
X134474523Y-120131247D02*
X134474523Y-120369342D01*
X134474523Y-120369342D02*
X134426904Y-120464580D01*
X134426904Y-120464580D02*
X134379285Y-120512200D01*
X134379285Y-120512200D02*
X134284047Y-120559819D01*
X134284047Y-120559819D02*
X134045952Y-120559819D01*
X134045952Y-120559819D02*
X133950714Y-120512200D01*
X133950714Y-120512200D02*
X133903095Y-120464580D01*
X134807857Y-119559819D02*
X135426904Y-119559819D01*
X135426904Y-119559819D02*
X135093571Y-119940771D01*
X135093571Y-119940771D02*
X135236428Y-119940771D01*
X135236428Y-119940771D02*
X135331666Y-119988390D01*
X135331666Y-119988390D02*
X135379285Y-120036009D01*
X135379285Y-120036009D02*
X135426904Y-120131247D01*
X135426904Y-120131247D02*
X135426904Y-120369342D01*
X135426904Y-120369342D02*
X135379285Y-120464580D01*
X135379285Y-120464580D02*
X135331666Y-120512200D01*
X135331666Y-120512200D02*
X135236428Y-120559819D01*
X135236428Y-120559819D02*
X134950714Y-120559819D01*
X134950714Y-120559819D02*
X134855476Y-120512200D01*
X134855476Y-120512200D02*
X134807857Y-120464580D01*
D11*
X142900000Y-115800000D02*
X142900000Y-126300000D01*
X146340000Y-112820000D02*
X146340000Y-113620000D01*
X146340000Y-112820000D02*
X147200000Y-112820000D01*
X146900000Y-126300000D02*
X142900000Y-126300000D01*
X147050000Y-115800000D02*
X142900000Y-115800000D01*
X151900000Y-115800000D02*
X147750000Y-115800000D01*
X151900000Y-115800000D02*
X151900000Y-126300000D01*
X151900000Y-126300000D02*
X147900000Y-126300000D01*
X149200000Y-120300000D02*
G75*
G02*
X145600000Y-120300000I-1800000J0D01*
G01*
X145600000Y-120300000D02*
G75*
G02*
X149200000Y-120300000I1800000J0D01*
G01*
X113290000Y-78901000D02*
X113290000Y-79220000D01*
X113290000Y-81380000D02*
X113290000Y-81699000D01*
X113290000Y-78901251D02*
G75*
G02*
X117593557Y-79219931I2060000J-1398749D01*
G01*
X113666670Y-79220000D02*
G75*
G02*
X117033294Y-79219943I1683330J-1080000D01*
G01*
X117033294Y-81380057D02*
G75*
G02*
X113666670Y-81380000I-1683294J1080057D01*
G01*
X117593558Y-81380069D02*
G75*
G02*
X113290000Y-81698749I-2243558J1080069D01*
G01*
X142900000Y-95800000D02*
X142900000Y-106300000D01*
X146340000Y-92820000D02*
X146340000Y-93620000D01*
X146340000Y-92820000D02*
X147200000Y-92820000D01*
X146900000Y-106300000D02*
X142900000Y-106300000D01*
X147050000Y-95800000D02*
X142900000Y-95800000D01*
X151900000Y-95800000D02*
X147750000Y-95800000D01*
X151900000Y-95800000D02*
X151900000Y-106300000D01*
X151900000Y-106300000D02*
X147900000Y-106300000D01*
X149200000Y-100300000D02*
G75*
G02*
X145600000Y-100300000I-1800000J0D01*
G01*
X145600000Y-100300000D02*
G75*
G02*
X149200000Y-100300000I1800000J0D01*
G01*
X124165000Y-121990000D02*
X124165000Y-140010000D01*
X124165000Y-140010000D02*
X134445000Y-140010000D01*
X126655000Y-122050000D02*
X126655000Y-139950000D01*
X126655000Y-139950000D02*
X131955000Y-139950000D01*
X128305000Y-122050000D02*
X126655000Y-122050000D01*
X131955000Y-122050000D02*
X130305000Y-122050000D01*
X131955000Y-139950000D02*
X131955000Y-122050000D01*
X134445000Y-121990000D02*
X124165000Y-121990000D01*
X134445000Y-140010000D02*
X134445000Y-121990000D01*
X130305000Y-122050000D02*
G75*
G02*
X128305000Y-122050000I-1000000J0D01*
G01*
X139430000Y-58140000D02*
X139760000Y-58140000D01*
X139430000Y-64680000D02*
X139430000Y-58140000D01*
X139760000Y-64680000D02*
X139430000Y-64680000D01*
X141840000Y-64680000D02*
X142170000Y-64680000D01*
X142170000Y-58140000D02*
X141840000Y-58140000D01*
X142170000Y-64680000D02*
X142170000Y-58140000D01*
X104530000Y-111100000D02*
X105180000Y-111100000D01*
X105180000Y-109980000D02*
X105180000Y-112220000D01*
X105180000Y-112220000D02*
X109420000Y-112220000D01*
X108580000Y-112220000D02*
X108580000Y-109980000D01*
X108700000Y-112220000D02*
X108700000Y-109980000D01*
X108820000Y-112220000D02*
X108820000Y-109980000D01*
X109420000Y-109980000D02*
X105180000Y-109980000D01*
X109420000Y-112220000D02*
X109420000Y-109980000D01*
X110070000Y-111100000D02*
X109420000Y-111100000D01*
X114080000Y-140930000D02*
X120620000Y-140930000D01*
X114080000Y-141260000D02*
X114080000Y-140930000D01*
X114080000Y-143340000D02*
X114080000Y-143670000D01*
X114080000Y-143670000D02*
X120620000Y-143670000D01*
X120620000Y-140930000D02*
X120620000Y-141260000D01*
X120620000Y-143670000D02*
X120620000Y-143340000D01*
X134825000Y-124885000D02*
X134825000Y-132125000D01*
X137565000Y-124885000D02*
X134825000Y-124885000D01*
X137565000Y-124885000D02*
X137565000Y-132125000D01*
X137565000Y-132125000D02*
X134825000Y-132125000D01*
X121005000Y-112535000D02*
X127545000Y-112535000D01*
X121005000Y-112865000D02*
X121005000Y-112535000D01*
X121005000Y-114945000D02*
X121005000Y-115275000D01*
X121005000Y-115275000D02*
X127545000Y-115275000D01*
X127545000Y-112535000D02*
X127545000Y-112865000D01*
X127545000Y-115275000D02*
X127545000Y-114945000D01*
X102900000Y-95800000D02*
X102900000Y-106300000D01*
X106340000Y-92820000D02*
X106340000Y-93620000D01*
X106340000Y-92820000D02*
X107200000Y-92820000D01*
X106900000Y-106300000D02*
X102900000Y-106300000D01*
X107050000Y-95800000D02*
X102900000Y-95800000D01*
X111900000Y-95800000D02*
X107750000Y-95800000D01*
X111900000Y-95800000D02*
X111900000Y-106300000D01*
X111900000Y-106300000D02*
X107900000Y-106300000D01*
X109200000Y-100300000D02*
G75*
G02*
X105600000Y-100300000I-1800000J0D01*
G01*
X105600000Y-100300000D02*
G75*
G02*
X109200000Y-100300000I1800000J0D01*
G01*
X113290000Y-98901000D02*
X113290000Y-99220000D01*
X113290000Y-101380000D02*
X113290000Y-101699000D01*
X113290000Y-98901251D02*
G75*
G02*
X117593557Y-99219931I2060000J-1398749D01*
G01*
X113666670Y-99220000D02*
G75*
G02*
X117033294Y-99219943I1683330J-1080000D01*
G01*
X117033294Y-101380057D02*
G75*
G02*
X113666670Y-101380000I-1683294J1080057D01*
G01*
X117593558Y-101380069D02*
G75*
G02*
X113290000Y-101698749I-2243558J1080069D01*
G01*
X113290000Y-38901000D02*
X113290000Y-39220000D01*
X113290000Y-41380000D02*
X113290000Y-41699000D01*
X113290000Y-38901251D02*
G75*
G02*
X117593557Y-39219931I2060000J-1398749D01*
G01*
X113666670Y-39220000D02*
G75*
G02*
X117033294Y-39219943I1683330J-1080000D01*
G01*
X117033294Y-41380057D02*
G75*
G02*
X113666670Y-41380000I-1683294J1080057D01*
G01*
X117593558Y-41380069D02*
G75*
G02*
X113290000Y-41698749I-2243558J1080069D01*
G01*
X116680000Y-109870000D02*
X116680000Y-114110000D01*
X116680000Y-114110000D02*
X118920000Y-114110000D01*
X117800000Y-109220000D02*
X117800000Y-109870000D01*
X117800000Y-114760000D02*
X117800000Y-114110000D01*
X118920000Y-109870000D02*
X116680000Y-109870000D01*
X118920000Y-110470000D02*
X116680000Y-110470000D01*
X118920000Y-110590000D02*
X116680000Y-110590000D01*
X118920000Y-110710000D02*
X116680000Y-110710000D01*
X118920000Y-114110000D02*
X118920000Y-109870000D01*
X122430000Y-34680000D02*
X132370000Y-34680000D01*
X122430000Y-38545000D02*
X122430000Y-34680000D01*
X122430000Y-46920000D02*
X122430000Y-43055000D01*
X122430000Y-46920000D02*
X124029000Y-46920000D01*
X125771000Y-46920000D02*
X126530000Y-46920000D01*
X128271000Y-46920000D02*
X129030000Y-46920000D01*
X130770000Y-46920000D02*
X132370000Y-46920000D01*
X132370000Y-38545000D02*
X132370000Y-34680000D01*
X132370000Y-46920000D02*
X132370000Y-43055000D01*
X103970000Y-67030000D02*
X110510000Y-67030000D01*
X103970000Y-67360000D02*
X103970000Y-67030000D01*
X103970000Y-69440000D02*
X103970000Y-69770000D01*
X103970000Y-69770000D02*
X110510000Y-69770000D01*
X110510000Y-67030000D02*
X110510000Y-67360000D01*
X110510000Y-69770000D02*
X110510000Y-69440000D01*
X104020000Y-87030000D02*
X110560000Y-87030000D01*
X104020000Y-87360000D02*
X104020000Y-87030000D01*
X104020000Y-89440000D02*
X104020000Y-89770000D01*
X104020000Y-89770000D02*
X110560000Y-89770000D01*
X110560000Y-87030000D02*
X110560000Y-87360000D01*
X110560000Y-89770000D02*
X110560000Y-89440000D01*
X142900000Y-75800000D02*
X142900000Y-86300000D01*
X146340000Y-72820000D02*
X146340000Y-73620000D01*
X146340000Y-72820000D02*
X147200000Y-72820000D01*
X146900000Y-86300000D02*
X142900000Y-86300000D01*
X147050000Y-75800000D02*
X142900000Y-75800000D01*
X151900000Y-75800000D02*
X147750000Y-75800000D01*
X151900000Y-75800000D02*
X151900000Y-86300000D01*
X151900000Y-86300000D02*
X147900000Y-86300000D01*
X149200000Y-80300000D02*
G75*
G02*
X145600000Y-80300000I-1800000J0D01*
G01*
X145600000Y-80300000D02*
G75*
G02*
X149200000Y-80300000I1800000J0D01*
G01*
X104530000Y-71100000D02*
X105180000Y-71100000D01*
X105180000Y-69980000D02*
X105180000Y-72220000D01*
X105180000Y-72220000D02*
X109420000Y-72220000D01*
X108580000Y-72220000D02*
X108580000Y-69980000D01*
X108700000Y-72220000D02*
X108700000Y-69980000D01*
X108820000Y-72220000D02*
X108820000Y-69980000D01*
X109420000Y-69980000D02*
X105180000Y-69980000D01*
X109420000Y-72220000D02*
X109420000Y-69980000D01*
X110070000Y-71100000D02*
X109420000Y-71100000D01*
X139430000Y-98130000D02*
X139760000Y-98130000D01*
X139430000Y-104670000D02*
X139430000Y-98130000D01*
X139760000Y-104670000D02*
X139430000Y-104670000D01*
X141840000Y-104670000D02*
X142170000Y-104670000D01*
X142170000Y-98130000D02*
X141840000Y-98130000D01*
X142170000Y-104670000D02*
X142170000Y-98130000D01*
X122430000Y-54680000D02*
X132370000Y-54680000D01*
X122430000Y-58545000D02*
X122430000Y-54680000D01*
X122430000Y-66920000D02*
X122430000Y-63055000D01*
X122430000Y-66920000D02*
X124029000Y-66920000D01*
X125771000Y-66920000D02*
X126530000Y-66920000D01*
X128271000Y-66920000D02*
X129030000Y-66920000D01*
X130770000Y-66920000D02*
X132370000Y-66920000D01*
X132370000Y-58545000D02*
X132370000Y-54680000D01*
X132370000Y-66920000D02*
X132370000Y-63055000D01*
X113290000Y-58901000D02*
X113290000Y-59220000D01*
X113290000Y-61380000D02*
X113290000Y-61699000D01*
X113290000Y-58901251D02*
G75*
G02*
X117593557Y-59219931I2060000J-1398749D01*
G01*
X113666670Y-59220000D02*
G75*
G02*
X117033294Y-59219943I1683330J-1080000D01*
G01*
X117033294Y-61380057D02*
G75*
G02*
X113666670Y-61380000I-1683294J1080057D01*
G01*
X117593558Y-61380069D02*
G75*
G02*
X113290000Y-61698749I-2243558J1080069D01*
G01*
X103990000Y-107030000D02*
X110530000Y-107030000D01*
X103990000Y-107360000D02*
X103990000Y-107030000D01*
X103990000Y-109440000D02*
X103990000Y-109770000D01*
X103990000Y-109770000D02*
X110530000Y-109770000D01*
X110530000Y-107030000D02*
X110530000Y-107360000D01*
X110530000Y-109770000D02*
X110530000Y-109440000D01*
X113290000Y-118901000D02*
X113290000Y-119220000D01*
X113290000Y-121380000D02*
X113290000Y-121699000D01*
X113290000Y-118901251D02*
G75*
G02*
X117593557Y-119219931I2060000J-1398749D01*
G01*
X113666670Y-119220000D02*
G75*
G02*
X117033294Y-119219943I1683330J-1080000D01*
G01*
X117033294Y-121380057D02*
G75*
G02*
X113666670Y-121380000I-1683294J1080057D01*
G01*
X117593558Y-121380069D02*
G75*
G02*
X113290000Y-121698749I-2243558J1080069D01*
G01*
X122430000Y-74680000D02*
X132370000Y-74680000D01*
X122430000Y-78545000D02*
X122430000Y-74680000D01*
X122430000Y-86920000D02*
X122430000Y-83055000D01*
X122430000Y-86920000D02*
X124029000Y-86920000D01*
X125771000Y-86920000D02*
X126530000Y-86920000D01*
X128271000Y-86920000D02*
X129030000Y-86920000D01*
X130770000Y-86920000D02*
X132370000Y-86920000D01*
X132370000Y-78545000D02*
X132370000Y-74680000D01*
X132370000Y-86920000D02*
X132370000Y-83055000D01*
X122430000Y-94680000D02*
X132370000Y-94680000D01*
X122430000Y-98545000D02*
X122430000Y-94680000D01*
X122430000Y-106920000D02*
X122430000Y-103055000D01*
X122430000Y-106920000D02*
X124029000Y-106920000D01*
X125771000Y-106920000D02*
X126530000Y-106920000D01*
X128271000Y-106920000D02*
X129030000Y-106920000D01*
X130770000Y-106920000D02*
X132370000Y-106920000D01*
X132370000Y-98545000D02*
X132370000Y-94680000D01*
X132370000Y-106920000D02*
X132370000Y-103055000D01*
X104540000Y-91100000D02*
X105190000Y-91100000D01*
X105190000Y-89980000D02*
X105190000Y-92220000D01*
X105190000Y-92220000D02*
X109430000Y-92220000D01*
X108590000Y-92220000D02*
X108590000Y-89980000D01*
X108710000Y-92220000D02*
X108710000Y-89980000D01*
X108830000Y-92220000D02*
X108830000Y-89980000D01*
X109430000Y-89980000D02*
X105190000Y-89980000D01*
X109430000Y-92220000D02*
X109430000Y-89980000D01*
X110080000Y-91100000D02*
X109430000Y-91100000D01*
X118380000Y-125880000D02*
X118380000Y-130120000D01*
X118380000Y-130120000D02*
X120620000Y-130120000D01*
X119500000Y-125230000D02*
X119500000Y-125880000D01*
X119500000Y-130770000D02*
X119500000Y-130120000D01*
X120620000Y-125880000D02*
X118380000Y-125880000D01*
X120620000Y-126480000D02*
X118380000Y-126480000D01*
X120620000Y-126600000D02*
X118380000Y-126600000D01*
X120620000Y-126720000D02*
X118380000Y-126720000D01*
X120620000Y-130120000D02*
X120620000Y-125880000D01*
X121015000Y-115635000D02*
X121015000Y-115965000D01*
X121015000Y-118375000D02*
X121015000Y-118045000D01*
X127555000Y-115635000D02*
X121015000Y-115635000D01*
X127555000Y-115965000D02*
X127555000Y-115635000D01*
X127555000Y-118045000D02*
X127555000Y-118375000D01*
X127555000Y-118375000D02*
X121015000Y-118375000D01*
X103980000Y-48430000D02*
X110520000Y-48430000D01*
X103980000Y-48760000D02*
X103980000Y-48430000D01*
X103980000Y-50840000D02*
X103980000Y-51170000D01*
X103980000Y-51170000D02*
X110520000Y-51170000D01*
X110520000Y-48430000D02*
X110520000Y-48760000D01*
X110520000Y-51170000D02*
X110520000Y-50840000D01*
X102900000Y-115800000D02*
X102900000Y-126300000D01*
X106340000Y-112820000D02*
X106340000Y-113620000D01*
X106340000Y-112820000D02*
X107200000Y-112820000D01*
X106900000Y-126300000D02*
X102900000Y-126300000D01*
X107050000Y-115800000D02*
X102900000Y-115800000D01*
X111900000Y-115800000D02*
X107750000Y-115800000D01*
X111900000Y-115800000D02*
X111900000Y-126300000D01*
X111900000Y-126300000D02*
X107900000Y-126300000D01*
X109200000Y-120300000D02*
G75*
G02*
X105600000Y-120300000I-1800000J0D01*
G01*
X105600000Y-120300000D02*
G75*
G02*
X109200000Y-120300000I1800000J0D01*
G01*
X130895000Y-115635000D02*
X130895000Y-115965000D01*
X130895000Y-118375000D02*
X130895000Y-118045000D01*
X137435000Y-115635000D02*
X130895000Y-115635000D01*
X137435000Y-115965000D02*
X137435000Y-115635000D01*
X137435000Y-118045000D02*
X137435000Y-118375000D01*
X137435000Y-118375000D02*
X130895000Y-118375000D01*
X113290000Y-135901000D02*
X113290000Y-136220000D01*
X113290000Y-138380000D02*
X113290000Y-138699000D01*
X113290000Y-135901251D02*
G75*
G02*
X117593557Y-136219931I2060000J-1398749D01*
G01*
X113666670Y-136220000D02*
G75*
G02*
X117033294Y-136219943I1683330J-1080000D01*
G01*
X117033294Y-138380057D02*
G75*
G02*
X113666670Y-138380000I-1683294J1080057D01*
G01*
X117593558Y-138380069D02*
G75*
G02*
X113290000Y-138698749I-2243558J1080069D01*
G01*
X121025000Y-124885000D02*
X123765000Y-124885000D01*
X121025000Y-132125000D02*
X121025000Y-124885000D01*
X121025000Y-132125000D02*
X123765000Y-132125000D01*
X123765000Y-132125000D02*
X123765000Y-124885000D01*
X102900000Y-34320000D02*
X106900000Y-34320000D01*
X102900000Y-44820000D02*
X102900000Y-34320000D01*
X102900000Y-44820000D02*
X107050000Y-44820000D01*
X107750000Y-44820000D02*
X111900000Y-44820000D01*
X107900000Y-34320000D02*
X111900000Y-34320000D01*
X108460000Y-47800000D02*
X107600000Y-47800000D01*
X108460000Y-47800000D02*
X108460000Y-47000000D01*
X111900000Y-44820000D02*
X111900000Y-34320000D01*
X109200000Y-40320000D02*
G75*
G02*
X105600000Y-40320000I-1800000J0D01*
G01*
X105600000Y-40320000D02*
G75*
G02*
X109200000Y-40320000I1800000J0D01*
G01*
X115780000Y-125880000D02*
X115780000Y-130120000D01*
X115780000Y-130120000D02*
X118020000Y-130120000D01*
X116900000Y-125230000D02*
X116900000Y-125880000D01*
X116900000Y-130770000D02*
X116900000Y-130120000D01*
X118020000Y-125880000D02*
X115780000Y-125880000D01*
X118020000Y-126480000D02*
X115780000Y-126480000D01*
X118020000Y-126600000D02*
X115780000Y-126600000D01*
X118020000Y-126720000D02*
X115780000Y-126720000D01*
X118020000Y-130120000D02*
X118020000Y-125880000D01*
X142900000Y-34320000D02*
X146900000Y-34320000D01*
X142900000Y-44820000D02*
X142900000Y-34320000D01*
X142900000Y-44820000D02*
X147050000Y-44820000D01*
X147750000Y-44820000D02*
X151900000Y-44820000D01*
X147900000Y-34320000D02*
X151900000Y-34320000D01*
X148460000Y-47800000D02*
X147600000Y-47800000D01*
X148460000Y-47800000D02*
X148460000Y-47000000D01*
X151900000Y-44820000D02*
X151900000Y-34320000D01*
X149200000Y-40320000D02*
G75*
G02*
X145600000Y-40320000I-1800000J0D01*
G01*
X145600000Y-40320000D02*
G75*
G02*
X149200000Y-40320000I1800000J0D01*
G01*
X112630000Y-124740000D02*
X112960000Y-124740000D01*
X112630000Y-131280000D02*
X112630000Y-124740000D01*
X112960000Y-131280000D02*
X112630000Y-131280000D01*
X115040000Y-131280000D02*
X115370000Y-131280000D01*
X115370000Y-124740000D02*
X115040000Y-124740000D01*
X115370000Y-131280000D02*
X115370000Y-124740000D01*
X142900000Y-132800000D02*
X142900000Y-143300000D01*
X146340000Y-129820000D02*
X146340000Y-130620000D01*
X146340000Y-129820000D02*
X147200000Y-129820000D01*
X146900000Y-143300000D02*
X142900000Y-143300000D01*
X147050000Y-132800000D02*
X142900000Y-132800000D01*
X151900000Y-132800000D02*
X147750000Y-132800000D01*
X151900000Y-132800000D02*
X151900000Y-143300000D01*
X151900000Y-143300000D02*
X147900000Y-143300000D01*
X149200000Y-137300000D02*
G75*
G02*
X145600000Y-137300000I-1800000J0D01*
G01*
X145600000Y-137300000D02*
G75*
G02*
X149200000Y-137300000I1800000J0D01*
G01*
X139430000Y-78130000D02*
X139760000Y-78130000D01*
X139430000Y-84670000D02*
X139430000Y-78130000D01*
X139760000Y-84670000D02*
X139430000Y-84670000D01*
X141840000Y-84670000D02*
X142170000Y-84670000D01*
X142170000Y-78130000D02*
X141840000Y-78130000D01*
X142170000Y-84670000D02*
X142170000Y-78130000D01*
X130885000Y-112535000D02*
X137425000Y-112535000D01*
X130885000Y-112865000D02*
X130885000Y-112535000D01*
X130885000Y-114945000D02*
X130885000Y-115275000D01*
X130885000Y-115275000D02*
X137425000Y-115275000D01*
X137425000Y-112535000D02*
X137425000Y-112865000D01*
X137425000Y-115275000D02*
X137425000Y-114945000D01*
X102900000Y-55800000D02*
X102900000Y-66300000D01*
X106340000Y-52820000D02*
X106340000Y-53620000D01*
X106340000Y-52820000D02*
X107200000Y-52820000D01*
X106900000Y-66300000D02*
X102900000Y-66300000D01*
X107050000Y-55800000D02*
X102900000Y-55800000D01*
X111900000Y-55800000D02*
X107750000Y-55800000D01*
X111900000Y-55800000D02*
X111900000Y-66300000D01*
X111900000Y-66300000D02*
X107900000Y-66300000D01*
X109200000Y-60300000D02*
G75*
G02*
X105600000Y-60300000I-1800000J0D01*
G01*
X105600000Y-60300000D02*
G75*
G02*
X109200000Y-60300000I1800000J0D01*
G01*
X102900000Y-132800000D02*
X102900000Y-143300000D01*
X106340000Y-129820000D02*
X106340000Y-130620000D01*
X106340000Y-129820000D02*
X107200000Y-129820000D01*
X106900000Y-143300000D02*
X102900000Y-143300000D01*
X107050000Y-132800000D02*
X102900000Y-132800000D01*
X111900000Y-132800000D02*
X107750000Y-132800000D01*
X111900000Y-132800000D02*
X111900000Y-143300000D01*
X111900000Y-143300000D02*
X107900000Y-143300000D01*
X109200000Y-137300000D02*
G75*
G02*
X105600000Y-137300000I-1800000J0D01*
G01*
X105600000Y-137300000D02*
G75*
G02*
X109200000Y-137300000I1800000J0D01*
G01*
X142900000Y-55800000D02*
X142900000Y-66300000D01*
X146340000Y-52820000D02*
X146340000Y-53620000D01*
X146340000Y-52820000D02*
X147200000Y-52820000D01*
X146900000Y-66300000D02*
X142900000Y-66300000D01*
X147050000Y-55800000D02*
X142900000Y-55800000D01*
X151900000Y-55800000D02*
X147750000Y-55800000D01*
X151900000Y-55800000D02*
X151900000Y-66300000D01*
X151900000Y-66300000D02*
X147900000Y-66300000D01*
X149200000Y-60300000D02*
G75*
G02*
X145600000Y-60300000I-1800000J0D01*
G01*
X145600000Y-60300000D02*
G75*
G02*
X149200000Y-60300000I1800000J0D01*
G01*
X102900000Y-75800000D02*
X102900000Y-86300000D01*
X106340000Y-72820000D02*
X106340000Y-73620000D01*
X106340000Y-72820000D02*
X107200000Y-72820000D01*
X106900000Y-86300000D02*
X102900000Y-86300000D01*
X107050000Y-75800000D02*
X102900000Y-75800000D01*
X111900000Y-75800000D02*
X107750000Y-75800000D01*
X111900000Y-75800000D02*
X111900000Y-86300000D01*
X111900000Y-86300000D02*
X107900000Y-86300000D01*
X109200000Y-80300000D02*
G75*
G02*
X105600000Y-80300000I-1800000J0D01*
G01*
X105600000Y-80300000D02*
G75*
G02*
X109200000Y-80300000I1800000J0D01*
G01*
X114330000Y-50200000D02*
X114980000Y-50200000D01*
X114980000Y-49080000D02*
X114980000Y-51320000D01*
X114980000Y-51320000D02*
X119220000Y-51320000D01*
X118380000Y-51320000D02*
X118380000Y-49080000D01*
X118500000Y-51320000D02*
X118500000Y-49080000D01*
X118620000Y-51320000D02*
X118620000Y-49080000D01*
X119220000Y-49080000D02*
X114980000Y-49080000D01*
X119220000Y-51320000D02*
X119220000Y-49080000D01*
X119870000Y-50200000D02*
X119220000Y-50200000D01*
X121005000Y-118735000D02*
X127545000Y-118735000D01*
X121005000Y-119065000D02*
X121005000Y-118735000D01*
X121005000Y-121145000D02*
X121005000Y-121475000D01*
X121005000Y-121475000D02*
X127545000Y-121475000D01*
X127545000Y-118735000D02*
X127545000Y-119065000D01*
X127545000Y-121475000D02*
X127545000Y-121145000D01*
X139430000Y-135140000D02*
X139760000Y-135140000D01*
X139430000Y-141680000D02*
X139430000Y-135140000D01*
X139760000Y-141680000D02*
X139430000Y-141680000D01*
X141840000Y-141680000D02*
X142170000Y-141680000D01*
X142170000Y-135140000D02*
X141840000Y-135140000D01*
X142170000Y-141680000D02*
X142170000Y-135140000D01*
X139430000Y-118120000D02*
X139760000Y-118120000D01*
X139430000Y-124660000D02*
X139430000Y-118120000D01*
X139760000Y-124660000D02*
X139430000Y-124660000D01*
X141840000Y-124660000D02*
X142170000Y-124660000D01*
X142170000Y-118120000D02*
X141840000Y-118120000D01*
X142170000Y-124660000D02*
X142170000Y-118120000D01*
X139430000Y-35930000D02*
X139430000Y-42470000D01*
X139430000Y-42470000D02*
X139760000Y-42470000D01*
X139760000Y-35930000D02*
X139430000Y-35930000D01*
X141840000Y-35930000D02*
X142170000Y-35930000D01*
X142170000Y-35930000D02*
X142170000Y-42470000D01*
X142170000Y-42470000D02*
X141840000Y-42470000D01*
X130895000Y-118735000D02*
X137435000Y-118735000D01*
X130895000Y-119065000D02*
X130895000Y-118735000D01*
X130895000Y-121145000D02*
X130895000Y-121475000D01*
X130895000Y-121475000D02*
X137435000Y-121475000D01*
X137435000Y-118735000D02*
X137435000Y-119065000D01*
X137435000Y-121475000D02*
X137435000Y-121145000D01*
%LPC*%
D12*
X147400000Y-113820000D03*
D13*
X147400000Y-125220000D03*
X147400000Y-116920000D03*
D14*
X114080000Y-80300000D03*
D15*
X116620000Y-80300000D03*
D12*
X147400000Y-93820000D03*
D13*
X147400000Y-105220000D03*
X147400000Y-96920000D03*
D16*
X125495000Y-123380000D03*
D17*
X125495000Y-125920000D03*
X125495000Y-128460000D03*
X125495000Y-131000000D03*
X125495000Y-133540000D03*
X125495000Y-136080000D03*
X125495000Y-138620000D03*
X133115000Y-138620000D03*
X133115000Y-136080000D03*
X133115000Y-133540000D03*
X133115000Y-131000000D03*
X133115000Y-128460000D03*
X133115000Y-125920000D03*
X133115000Y-123380000D03*
D18*
X140800000Y-65220000D03*
D17*
X140800000Y-57600000D03*
D16*
X111110000Y-111100000D03*
D17*
X103490000Y-111100000D03*
D18*
X113540000Y-142300000D03*
D17*
X121160000Y-142300000D03*
D18*
X136195000Y-126005000D03*
X136195000Y-131005000D03*
X120465000Y-113905000D03*
D17*
X128085000Y-113905000D03*
D12*
X107400000Y-93820000D03*
D13*
X107400000Y-105220000D03*
X107400000Y-96920000D03*
D14*
X114080000Y-100300000D03*
D15*
X116620000Y-100300000D03*
D14*
X114080000Y-40300000D03*
D15*
X116620000Y-40300000D03*
D16*
X117800000Y-108180000D03*
D17*
X117800000Y-115800000D03*
D19*
X123000000Y-40800000D03*
X131800000Y-40800000D03*
D15*
X124900000Y-47800000D03*
X127400000Y-47800000D03*
X129900000Y-47800000D03*
D18*
X103430000Y-68400000D03*
D17*
X111050000Y-68400000D03*
D18*
X103480000Y-88400000D03*
D17*
X111100000Y-88400000D03*
D12*
X147400000Y-73820000D03*
D13*
X147400000Y-85220000D03*
X147400000Y-76920000D03*
D16*
X111110000Y-71100000D03*
D17*
X103490000Y-71100000D03*
D18*
X140800000Y-105210000D03*
D17*
X140800000Y-97590000D03*
D19*
X123000000Y-60800000D03*
X131800000Y-60800000D03*
D15*
X124900000Y-67800000D03*
X127400000Y-67800000D03*
X129900000Y-67800000D03*
D14*
X114080000Y-60300000D03*
D15*
X116620000Y-60300000D03*
D18*
X103450000Y-108400000D03*
D17*
X111070000Y-108400000D03*
D14*
X114080000Y-120300000D03*
D15*
X116620000Y-120300000D03*
D19*
X123000000Y-80800000D03*
X131800000Y-80800000D03*
D15*
X124900000Y-87800000D03*
X127400000Y-87800000D03*
X129900000Y-87800000D03*
D19*
X123000000Y-100800000D03*
X131800000Y-100800000D03*
D15*
X124900000Y-107800000D03*
X127400000Y-107800000D03*
X129900000Y-107800000D03*
D16*
X111120000Y-91100000D03*
D17*
X103500000Y-91100000D03*
D16*
X119500000Y-124190000D03*
D17*
X119500000Y-131810000D03*
D18*
X128095000Y-117005000D03*
D17*
X120475000Y-117005000D03*
D18*
X103440000Y-49800000D03*
D17*
X111060000Y-49800000D03*
D12*
X107400000Y-113820000D03*
D13*
X107400000Y-125220000D03*
X107400000Y-116920000D03*
D18*
X137975000Y-117005000D03*
D17*
X130355000Y-117005000D03*
D14*
X114080000Y-137300000D03*
D15*
X116620000Y-137300000D03*
D18*
X122395000Y-131005000D03*
X122395000Y-126005000D03*
D12*
X107400000Y-46800000D03*
D13*
X107400000Y-35400000D03*
X107400000Y-43700000D03*
D16*
X116900000Y-124190000D03*
D17*
X116900000Y-131810000D03*
D12*
X147400000Y-46800000D03*
D13*
X147400000Y-35400000D03*
X147400000Y-43700000D03*
D18*
X114000000Y-131820000D03*
D17*
X114000000Y-124200000D03*
D12*
X147400000Y-130820000D03*
D13*
X147400000Y-142220000D03*
X147400000Y-133920000D03*
D18*
X140800000Y-85210000D03*
D17*
X140800000Y-77590000D03*
D20*
X118400000Y-71700000D03*
D18*
X130345000Y-113905000D03*
D17*
X137965000Y-113905000D03*
D12*
X107400000Y-53820000D03*
D13*
X107400000Y-65220000D03*
X107400000Y-56920000D03*
D12*
X107400000Y-130820000D03*
D13*
X107400000Y-142220000D03*
X107400000Y-133920000D03*
D12*
X147400000Y-53820000D03*
D13*
X147400000Y-65220000D03*
X147400000Y-56920000D03*
D12*
X107400000Y-73820000D03*
D13*
X107400000Y-85220000D03*
X107400000Y-76920000D03*
D16*
X120910000Y-50200000D03*
D17*
X113290000Y-50200000D03*
D18*
X120465000Y-120105000D03*
D17*
X128085000Y-120105000D03*
D18*
X140800000Y-142220000D03*
D17*
X140800000Y-134600000D03*
D18*
X140800000Y-125200000D03*
D17*
X140800000Y-117580000D03*
D18*
X140800000Y-35390000D03*
D17*
X140800000Y-43010000D03*
D18*
X130355000Y-120105000D03*
D17*
X137975000Y-120105000D03*
D21*
X136900000Y-42100000D03*
D22*
X136900000Y-44640000D03*
X136900000Y-47180000D03*
X136900000Y-49720000D03*
X136900000Y-52260000D03*
X136900000Y-54800000D03*
X136900000Y-57340000D03*
X136900000Y-59880000D03*
X136900000Y-62420000D03*
X136900000Y-64960000D03*
X136900000Y-67500000D03*
X136900000Y-70040000D03*
D21*
X138300000Y-133300000D03*
D22*
X138300000Y-135840000D03*
X138300000Y-138380000D03*
X138300000Y-140920000D03*
D21*
X136900000Y-81800000D03*
D22*
X136900000Y-84340000D03*
X136900000Y-86880000D03*
X136900000Y-89420000D03*
X136900000Y-91960000D03*
X136900000Y-94500000D03*
X136900000Y-97040000D03*
X136900000Y-99580000D03*
X136900000Y-102120000D03*
X136900000Y-104660000D03*
X136900000Y-107200000D03*
X136900000Y-109740000D03*
%LPD*%
M02*
