%TF.GenerationSoftware,KiCad,Pcbnew,8.0.6-8.0.6-0~ubuntu22.04.1*%
%TF.CreationDate,2025-02-02T12:48:45+01:00*%
%TF.ProjectId,Drumbox,4472756d-626f-4782-9e6b-696361645f70,rev?*%
%TF.SameCoordinates,Original*%
%TF.FileFunction,Drillmap*%
%TF.FilePolarity,Positive*%
%FSLAX45Y45*%
G04 Gerber Fmt 4.5, Leading zero omitted, Abs format (unit mm)*
G04 Created by KiCad (PCBNEW 8.0.6-8.0.6-0~ubuntu22.04.1) date 2025-02-02 12:48:45*
%MOMM*%
%LPD*%
G01*
G04 APERTURE LIST*
%ADD10C,0.050000*%
%ADD11C,0.200000*%
%ADD12C,0.100000*%
%ADD13C,0.122000*%
%ADD14C,0.142000*%
%ADD15C,0.143000*%
G04 APERTURE END LIST*
D10*
X10240000Y-3380000D02*
X10240000Y-14380000D01*
X15240000Y-3380000D02*
X15240000Y-14380000D01*
X10240000Y-3380000D02*
X15240000Y-3380000D01*
X10240000Y-14380000D02*
X15240000Y-14380000D01*
D11*
D12*
X11100000Y-13900000D02*
X11140000Y-13940000D01*
X11140000Y-13900000D02*
X11100000Y-13940000D01*
X11100000Y-14000000D02*
X11140000Y-14040000D01*
X11140000Y-14000000D02*
X11100000Y-14040000D01*
X10383000Y-6840000D02*
G75*
G02*
X10303000Y-6840000I-40000J0D01*
G01*
X10303000Y-6840000D02*
G75*
G02*
X10383000Y-6840000I40000J0D01*
G01*
X10384000Y-4980000D02*
G75*
G02*
X10304000Y-4980000I-40000J0D01*
G01*
X10304000Y-4980000D02*
G75*
G02*
X10384000Y-4980000I40000J0D01*
G01*
X10385000Y-10840000D02*
G75*
G02*
X10305000Y-10840000I-40000J0D01*
G01*
X10305000Y-10840000D02*
G75*
G02*
X10385000Y-10840000I40000J0D01*
G01*
X10388000Y-8840000D02*
G75*
G02*
X10308000Y-8840000I-40000J0D01*
G01*
X10308000Y-8840000D02*
G75*
G02*
X10388000Y-8840000I40000J0D01*
G01*
X10389000Y-7110000D02*
G75*
G02*
X10309000Y-7110000I-40000J0D01*
G01*
X10309000Y-7110000D02*
G75*
G02*
X10389000Y-7110000I40000J0D01*
G01*
X10389000Y-11110000D02*
G75*
G02*
X10309000Y-11110000I-40000J0D01*
G01*
X10309000Y-11110000D02*
G75*
G02*
X10389000Y-11110000I40000J0D01*
G01*
X10390000Y-9110000D02*
G75*
G02*
X10310000Y-9110000I-40000J0D01*
G01*
X10310000Y-9110000D02*
G75*
G02*
X10390000Y-9110000I40000J0D01*
G01*
X11145000Y-6840000D02*
G75*
G02*
X11065000Y-6840000I-40000J0D01*
G01*
X11065000Y-6840000D02*
G75*
G02*
X11145000Y-6840000I40000J0D01*
G01*
X11146000Y-4980000D02*
G75*
G02*
X11066000Y-4980000I-40000J0D01*
G01*
X11066000Y-4980000D02*
G75*
G02*
X11146000Y-4980000I40000J0D01*
G01*
X11147000Y-10840000D02*
G75*
G02*
X11067000Y-10840000I-40000J0D01*
G01*
X11067000Y-10840000D02*
G75*
G02*
X11147000Y-10840000I40000J0D01*
G01*
X11150000Y-8840000D02*
G75*
G02*
X11070000Y-8840000I-40000J0D01*
G01*
X11070000Y-8840000D02*
G75*
G02*
X11150000Y-8840000I40000J0D01*
G01*
X11151000Y-7110000D02*
G75*
G02*
X11071000Y-7110000I-40000J0D01*
G01*
X11071000Y-7110000D02*
G75*
G02*
X11151000Y-7110000I40000J0D01*
G01*
X11151000Y-11110000D02*
G75*
G02*
X11071000Y-11110000I-40000J0D01*
G01*
X11071000Y-11110000D02*
G75*
G02*
X11151000Y-11110000I40000J0D01*
G01*
X11152000Y-9110000D02*
G75*
G02*
X11072000Y-9110000I-40000J0D01*
G01*
X11072000Y-9110000D02*
G75*
G02*
X11152000Y-9110000I40000J0D01*
G01*
X11369000Y-5020000D02*
G75*
G02*
X11289000Y-5020000I-40000J0D01*
G01*
X11289000Y-5020000D02*
G75*
G02*
X11369000Y-5020000I40000J0D01*
G01*
X11394000Y-14230000D02*
G75*
G02*
X11314000Y-14230000I-40000J0D01*
G01*
X11314000Y-14230000D02*
G75*
G02*
X11394000Y-14230000I40000J0D01*
G01*
X11440000Y-12420000D02*
G75*
G02*
X11360000Y-12420000I-40000J0D01*
G01*
X11360000Y-12420000D02*
G75*
G02*
X11440000Y-12420000I40000J0D01*
G01*
X11440000Y-13182000D02*
G75*
G02*
X11360000Y-13182000I-40000J0D01*
G01*
X11360000Y-13182000D02*
G75*
G02*
X11440000Y-13182000I40000J0D01*
G01*
X11730000Y-12419000D02*
G75*
G02*
X11650000Y-12419000I-40000J0D01*
G01*
X11650000Y-12419000D02*
G75*
G02*
X11730000Y-12419000I40000J0D01*
G01*
X11730000Y-13181000D02*
G75*
G02*
X11650000Y-13181000I-40000J0D01*
G01*
X11650000Y-13181000D02*
G75*
G02*
X11730000Y-13181000I40000J0D01*
G01*
X11820000Y-10818000D02*
G75*
G02*
X11740000Y-10818000I-40000J0D01*
G01*
X11740000Y-10818000D02*
G75*
G02*
X11820000Y-10818000I40000J0D01*
G01*
X11820000Y-11580000D02*
G75*
G02*
X11740000Y-11580000I-40000J0D01*
G01*
X11740000Y-11580000D02*
G75*
G02*
X11820000Y-11580000I40000J0D01*
G01*
X11990000Y-12419000D02*
G75*
G02*
X11910000Y-12419000I-40000J0D01*
G01*
X11910000Y-12419000D02*
G75*
G02*
X11990000Y-12419000I40000J0D01*
G01*
X11990000Y-13181000D02*
G75*
G02*
X11910000Y-13181000I-40000J0D01*
G01*
X11910000Y-13181000D02*
G75*
G02*
X11990000Y-13181000I40000J0D01*
G01*
X12086500Y-11390500D02*
G75*
G02*
X12006500Y-11390500I-40000J0D01*
G01*
X12006500Y-11390500D02*
G75*
G02*
X12086500Y-11390500I40000J0D01*
G01*
X12086500Y-12010500D02*
G75*
G02*
X12006500Y-12010500I-40000J0D01*
G01*
X12006500Y-12010500D02*
G75*
G02*
X12086500Y-12010500I40000J0D01*
G01*
X12087500Y-11700500D02*
G75*
G02*
X12007500Y-11700500I-40000J0D01*
G01*
X12007500Y-11700500D02*
G75*
G02*
X12087500Y-11700500I40000J0D01*
G01*
X12131000Y-5020000D02*
G75*
G02*
X12051000Y-5020000I-40000J0D01*
G01*
X12051000Y-5020000D02*
G75*
G02*
X12131000Y-5020000I40000J0D01*
G01*
X12156000Y-14230000D02*
G75*
G02*
X12076000Y-14230000I-40000J0D01*
G01*
X12076000Y-14230000D02*
G75*
G02*
X12156000Y-14230000I40000J0D01*
G01*
X12279500Y-12600500D02*
G75*
G02*
X12199500Y-12600500I-40000J0D01*
G01*
X12199500Y-12600500D02*
G75*
G02*
X12279500Y-12600500I40000J0D01*
G01*
X12279500Y-13100500D02*
G75*
G02*
X12199500Y-13100500I-40000J0D01*
G01*
X12199500Y-13100500D02*
G75*
G02*
X12279500Y-13100500I40000J0D01*
G01*
X12589500Y-12338000D02*
G75*
G02*
X12509500Y-12338000I-40000J0D01*
G01*
X12509500Y-12338000D02*
G75*
G02*
X12589500Y-12338000I40000J0D01*
G01*
X12589500Y-12592000D02*
G75*
G02*
X12509500Y-12592000I-40000J0D01*
G01*
X12509500Y-12592000D02*
G75*
G02*
X12589500Y-12592000I40000J0D01*
G01*
X12589500Y-12846000D02*
G75*
G02*
X12509500Y-12846000I-40000J0D01*
G01*
X12509500Y-12846000D02*
G75*
G02*
X12589500Y-12846000I40000J0D01*
G01*
X12589500Y-13100000D02*
G75*
G02*
X12509500Y-13100000I-40000J0D01*
G01*
X12509500Y-13100000D02*
G75*
G02*
X12589500Y-13100000I40000J0D01*
G01*
X12589500Y-13354000D02*
G75*
G02*
X12509500Y-13354000I-40000J0D01*
G01*
X12509500Y-13354000D02*
G75*
G02*
X12589500Y-13354000I40000J0D01*
G01*
X12589500Y-13608000D02*
G75*
G02*
X12509500Y-13608000I-40000J0D01*
G01*
X12509500Y-13608000D02*
G75*
G02*
X12589500Y-13608000I40000J0D01*
G01*
X12589500Y-13862000D02*
G75*
G02*
X12509500Y-13862000I-40000J0D01*
G01*
X12509500Y-13862000D02*
G75*
G02*
X12589500Y-13862000I40000J0D01*
G01*
X12848500Y-11390500D02*
G75*
G02*
X12768500Y-11390500I-40000J0D01*
G01*
X12768500Y-11390500D02*
G75*
G02*
X12848500Y-11390500I40000J0D01*
G01*
X12848500Y-12010500D02*
G75*
G02*
X12768500Y-12010500I-40000J0D01*
G01*
X12768500Y-12010500D02*
G75*
G02*
X12848500Y-12010500I40000J0D01*
G01*
X12849500Y-11700500D02*
G75*
G02*
X12769500Y-11700500I-40000J0D01*
G01*
X12769500Y-11700500D02*
G75*
G02*
X12849500Y-11700500I40000J0D01*
G01*
X13074500Y-11390500D02*
G75*
G02*
X12994500Y-11390500I-40000J0D01*
G01*
X12994500Y-11390500D02*
G75*
G02*
X13074500Y-11390500I40000J0D01*
G01*
X13075500Y-11700500D02*
G75*
G02*
X12995500Y-11700500I-40000J0D01*
G01*
X12995500Y-11700500D02*
G75*
G02*
X13075500Y-11700500I40000J0D01*
G01*
X13075500Y-12010500D02*
G75*
G02*
X12995500Y-12010500I-40000J0D01*
G01*
X12995500Y-12010500D02*
G75*
G02*
X13075500Y-12010500I40000J0D01*
G01*
X13351500Y-12338000D02*
G75*
G02*
X13271500Y-12338000I-40000J0D01*
G01*
X13271500Y-12338000D02*
G75*
G02*
X13351500Y-12338000I40000J0D01*
G01*
X13351500Y-12592000D02*
G75*
G02*
X13271500Y-12592000I-40000J0D01*
G01*
X13271500Y-12592000D02*
G75*
G02*
X13351500Y-12592000I40000J0D01*
G01*
X13351500Y-12846000D02*
G75*
G02*
X13271500Y-12846000I-40000J0D01*
G01*
X13271500Y-12846000D02*
G75*
G02*
X13351500Y-12846000I40000J0D01*
G01*
X13351500Y-13100000D02*
G75*
G02*
X13271500Y-13100000I-40000J0D01*
G01*
X13271500Y-13100000D02*
G75*
G02*
X13351500Y-13100000I40000J0D01*
G01*
X13351500Y-13354000D02*
G75*
G02*
X13271500Y-13354000I-40000J0D01*
G01*
X13271500Y-13354000D02*
G75*
G02*
X13351500Y-13354000I40000J0D01*
G01*
X13351500Y-13608000D02*
G75*
G02*
X13271500Y-13608000I-40000J0D01*
G01*
X13271500Y-13608000D02*
G75*
G02*
X13351500Y-13608000I40000J0D01*
G01*
X13351500Y-13862000D02*
G75*
G02*
X13271500Y-13862000I-40000J0D01*
G01*
X13271500Y-13862000D02*
G75*
G02*
X13351500Y-13862000I40000J0D01*
G01*
X13659500Y-12600500D02*
G75*
G02*
X13579500Y-12600500I-40000J0D01*
G01*
X13579500Y-12600500D02*
G75*
G02*
X13659500Y-12600500I40000J0D01*
G01*
X13659500Y-13100500D02*
G75*
G02*
X13579500Y-13100500I-40000J0D01*
G01*
X13579500Y-13100500D02*
G75*
G02*
X13659500Y-13100500I40000J0D01*
G01*
X13836500Y-11390500D02*
G75*
G02*
X13756500Y-11390500I-40000J0D01*
G01*
X13756500Y-11390500D02*
G75*
G02*
X13836500Y-11390500I40000J0D01*
G01*
X13837500Y-11700500D02*
G75*
G02*
X13757500Y-11700500I-40000J0D01*
G01*
X13757500Y-11700500D02*
G75*
G02*
X13837500Y-11700500I40000J0D01*
G01*
X13837500Y-12010500D02*
G75*
G02*
X13757500Y-12010500I-40000J0D01*
G01*
X13757500Y-12010500D02*
G75*
G02*
X13837500Y-12010500I40000J0D01*
G01*
X14120000Y-3539000D02*
G75*
G02*
X14040000Y-3539000I-40000J0D01*
G01*
X14040000Y-3539000D02*
G75*
G02*
X14120000Y-3539000I40000J0D01*
G01*
X14120000Y-4301000D02*
G75*
G02*
X14040000Y-4301000I-40000J0D01*
G01*
X14040000Y-4301000D02*
G75*
G02*
X14120000Y-4301000I40000J0D01*
G01*
X14120000Y-5760000D02*
G75*
G02*
X14040000Y-5760000I-40000J0D01*
G01*
X14040000Y-5760000D02*
G75*
G02*
X14120000Y-5760000I40000J0D01*
G01*
X14120000Y-6522000D02*
G75*
G02*
X14040000Y-6522000I-40000J0D01*
G01*
X14040000Y-6522000D02*
G75*
G02*
X14120000Y-6522000I40000J0D01*
G01*
X14120000Y-7759000D02*
G75*
G02*
X14040000Y-7759000I-40000J0D01*
G01*
X14040000Y-7759000D02*
G75*
G02*
X14120000Y-7759000I40000J0D01*
G01*
X14120000Y-8521000D02*
G75*
G02*
X14040000Y-8521000I-40000J0D01*
G01*
X14040000Y-8521000D02*
G75*
G02*
X14120000Y-8521000I40000J0D01*
G01*
X14120000Y-9759000D02*
G75*
G02*
X14040000Y-9759000I-40000J0D01*
G01*
X14040000Y-9759000D02*
G75*
G02*
X14120000Y-9759000I40000J0D01*
G01*
X14120000Y-10521000D02*
G75*
G02*
X14040000Y-10521000I-40000J0D01*
G01*
X14040000Y-10521000D02*
G75*
G02*
X14120000Y-10521000I40000J0D01*
G01*
X14120000Y-11758000D02*
G75*
G02*
X14040000Y-11758000I-40000J0D01*
G01*
X14040000Y-11758000D02*
G75*
G02*
X14120000Y-11758000I40000J0D01*
G01*
X14120000Y-12520000D02*
G75*
G02*
X14040000Y-12520000I-40000J0D01*
G01*
X14040000Y-12520000D02*
G75*
G02*
X14120000Y-12520000I40000J0D01*
G01*
X14120000Y-13460000D02*
G75*
G02*
X14040000Y-13460000I-40000J0D01*
G01*
X14040000Y-13460000D02*
G75*
G02*
X14120000Y-13460000I40000J0D01*
G01*
X14120000Y-14222000D02*
G75*
G02*
X14040000Y-14222000I-40000J0D01*
G01*
X14040000Y-14222000D02*
G75*
G02*
X14120000Y-14222000I40000J0D01*
G01*
X11408000Y-3985000D02*
X11408000Y-4075000D01*
X11363000Y-4030000D02*
X11453000Y-4030000D01*
X11408000Y-5985000D02*
X11408000Y-6075000D01*
X11363000Y-6030000D02*
X11453000Y-6030000D01*
X11408000Y-7985000D02*
X11408000Y-8075000D01*
X11363000Y-8030000D02*
X11453000Y-8030000D01*
X11408000Y-9985000D02*
X11408000Y-10075000D01*
X11363000Y-10030000D02*
X11453000Y-10030000D01*
X11408000Y-11985000D02*
X11408000Y-12075000D01*
X11363000Y-12030000D02*
X11453000Y-12030000D01*
X11408000Y-13685000D02*
X11408000Y-13775000D01*
X11363000Y-13730000D02*
X11453000Y-13730000D01*
X11662000Y-3985000D02*
X11662000Y-4075000D01*
X11617000Y-4030000D02*
X11707000Y-4030000D01*
X11662000Y-5985000D02*
X11662000Y-6075000D01*
X11617000Y-6030000D02*
X11707000Y-6030000D01*
X11662000Y-7985000D02*
X11662000Y-8075000D01*
X11617000Y-8030000D02*
X11707000Y-8030000D01*
X11662000Y-9985000D02*
X11662000Y-10075000D01*
X11617000Y-10030000D02*
X11707000Y-10030000D01*
X11662000Y-11985000D02*
X11662000Y-12075000D01*
X11617000Y-12030000D02*
X11707000Y-12030000D01*
X11662000Y-13685000D02*
X11662000Y-13775000D01*
X11617000Y-13730000D02*
X11707000Y-13730000D01*
X12525356Y-4815356D02*
X12525356Y-4744644D01*
X12454644Y-4744644D01*
X12454644Y-4815356D01*
X12525356Y-4815356D01*
X12525356Y-6815356D02*
X12525356Y-6744644D01*
X12454644Y-6744644D01*
X12454644Y-6815356D01*
X12525356Y-6815356D01*
X12525356Y-8815356D02*
X12525356Y-8744644D01*
X12454644Y-8744644D01*
X12454644Y-8815356D01*
X12525356Y-8815356D01*
X12525356Y-10815356D02*
X12525356Y-10744644D01*
X12454644Y-10744644D01*
X12454644Y-10815356D01*
X12525356Y-10815356D01*
X12775356Y-4815356D02*
X12775356Y-4744644D01*
X12704644Y-4744644D01*
X12704644Y-4815356D01*
X12775356Y-4815356D01*
X12775356Y-6815356D02*
X12775356Y-6744644D01*
X12704644Y-6744644D01*
X12704644Y-6815356D01*
X12775356Y-6815356D01*
X12775356Y-8815356D02*
X12775356Y-8744644D01*
X12704644Y-8744644D01*
X12704644Y-8815356D01*
X12775356Y-8815356D01*
X12775356Y-10815356D02*
X12775356Y-10744644D01*
X12704644Y-10744644D01*
X12704644Y-10815356D01*
X12775356Y-10815356D01*
X13025356Y-4815356D02*
X13025356Y-4744644D01*
X12954644Y-4744644D01*
X12954644Y-4815356D01*
X13025356Y-4815356D01*
X13025356Y-6815356D02*
X13025356Y-6744644D01*
X12954644Y-6744644D01*
X12954644Y-6815356D01*
X13025356Y-6815356D01*
X13025356Y-8815356D02*
X13025356Y-8744644D01*
X12954644Y-8744644D01*
X12954644Y-8815356D01*
X13025356Y-8815356D01*
X13025356Y-10815356D02*
X13025356Y-10744644D01*
X12954644Y-10744644D01*
X12954644Y-10815356D01*
X13025356Y-10815356D01*
X13725356Y-4245356D02*
X13725356Y-4174644D01*
X13654644Y-4174644D01*
X13654644Y-4245356D01*
X13725356Y-4245356D01*
X13725356Y-4499356D02*
X13725356Y-4428644D01*
X13654644Y-4428644D01*
X13654644Y-4499356D01*
X13725356Y-4499356D01*
X13725356Y-4753356D02*
X13725356Y-4682644D01*
X13654644Y-4682644D01*
X13654644Y-4753356D01*
X13725356Y-4753356D01*
X13725356Y-5007356D02*
X13725356Y-4936644D01*
X13654644Y-4936644D01*
X13654644Y-5007356D01*
X13725356Y-5007356D01*
X13725356Y-5261356D02*
X13725356Y-5190644D01*
X13654644Y-5190644D01*
X13654644Y-5261356D01*
X13725356Y-5261356D01*
X13725356Y-5515356D02*
X13725356Y-5444644D01*
X13654644Y-5444644D01*
X13654644Y-5515356D01*
X13725356Y-5515356D01*
X13725356Y-5769356D02*
X13725356Y-5698644D01*
X13654644Y-5698644D01*
X13654644Y-5769356D01*
X13725356Y-5769356D01*
X13725356Y-6023356D02*
X13725356Y-5952644D01*
X13654644Y-5952644D01*
X13654644Y-6023356D01*
X13725356Y-6023356D01*
X13725356Y-6277356D02*
X13725356Y-6206644D01*
X13654644Y-6206644D01*
X13654644Y-6277356D01*
X13725356Y-6277356D01*
X13725356Y-6531356D02*
X13725356Y-6460644D01*
X13654644Y-6460644D01*
X13654644Y-6531356D01*
X13725356Y-6531356D01*
X13725356Y-6785356D02*
X13725356Y-6714644D01*
X13654644Y-6714644D01*
X13654644Y-6785356D01*
X13725356Y-6785356D01*
X13725356Y-7039356D02*
X13725356Y-6968644D01*
X13654644Y-6968644D01*
X13654644Y-7039356D01*
X13725356Y-7039356D01*
X13725356Y-8215356D02*
X13725356Y-8144644D01*
X13654644Y-8144644D01*
X13654644Y-8215356D01*
X13725356Y-8215356D01*
X13725356Y-8469356D02*
X13725356Y-8398644D01*
X13654644Y-8398644D01*
X13654644Y-8469356D01*
X13725356Y-8469356D01*
X13725356Y-8723356D02*
X13725356Y-8652644D01*
X13654644Y-8652644D01*
X13654644Y-8723356D01*
X13725356Y-8723356D01*
X13725356Y-8977356D02*
X13725356Y-8906644D01*
X13654644Y-8906644D01*
X13654644Y-8977356D01*
X13725356Y-8977356D01*
X13725356Y-9231356D02*
X13725356Y-9160644D01*
X13654644Y-9160644D01*
X13654644Y-9231356D01*
X13725356Y-9231356D01*
X13725356Y-9485356D02*
X13725356Y-9414644D01*
X13654644Y-9414644D01*
X13654644Y-9485356D01*
X13725356Y-9485356D01*
X13725356Y-9739356D02*
X13725356Y-9668644D01*
X13654644Y-9668644D01*
X13654644Y-9739356D01*
X13725356Y-9739356D01*
X13725356Y-9993356D02*
X13725356Y-9922644D01*
X13654644Y-9922644D01*
X13654644Y-9993356D01*
X13725356Y-9993356D01*
X13725356Y-10247356D02*
X13725356Y-10176644D01*
X13654644Y-10176644D01*
X13654644Y-10247356D01*
X13725356Y-10247356D01*
X13725356Y-10501356D02*
X13725356Y-10430644D01*
X13654644Y-10430644D01*
X13654644Y-10501356D01*
X13725356Y-10501356D01*
X13725356Y-10755356D02*
X13725356Y-10684644D01*
X13654644Y-10684644D01*
X13654644Y-10755356D01*
X13725356Y-10755356D01*
X13725356Y-11009356D02*
X13725356Y-10938644D01*
X13654644Y-10938644D01*
X13654644Y-11009356D01*
X13725356Y-11009356D01*
X13865356Y-13365356D02*
X13865356Y-13294644D01*
X13794644Y-13294644D01*
X13794644Y-13365356D01*
X13865356Y-13365356D01*
X13865356Y-13619356D02*
X13865356Y-13548644D01*
X13794644Y-13548644D01*
X13794644Y-13619356D01*
X13865356Y-13619356D01*
X13865356Y-13873356D02*
X13865356Y-13802644D01*
X13794644Y-13802644D01*
X13794644Y-13873356D01*
X13865356Y-13873356D01*
X13865356Y-14127356D02*
X13865356Y-14056644D01*
X13794644Y-14056644D01*
X13794644Y-14127356D01*
X13865356Y-14127356D01*
D13*
X10740000Y-4741000D02*
X10801000Y-4680000D01*
X10740000Y-4619000D01*
X10679000Y-4680000D01*
X10740000Y-4741000D01*
X10740000Y-5443000D02*
X10801000Y-5382000D01*
X10740000Y-5321000D01*
X10679000Y-5382000D01*
X10740000Y-5443000D01*
X10740000Y-7443000D02*
X10801000Y-7382000D01*
X10740000Y-7321000D01*
X10679000Y-7382000D01*
X10740000Y-7443000D01*
X10740000Y-9443000D02*
X10801000Y-9382000D01*
X10740000Y-9321000D01*
X10679000Y-9382000D01*
X10740000Y-9443000D01*
X10740000Y-11443000D02*
X10801000Y-11382000D01*
X10740000Y-11321000D01*
X10679000Y-11382000D01*
X10740000Y-11443000D01*
X10740000Y-13143000D02*
X10801000Y-13082000D01*
X10740000Y-13021000D01*
X10679000Y-13082000D01*
X10740000Y-13143000D01*
X14740000Y-4741000D02*
X14801000Y-4680000D01*
X14740000Y-4619000D01*
X14679000Y-4680000D01*
X14740000Y-4741000D01*
X14740000Y-5443000D02*
X14801000Y-5382000D01*
X14740000Y-5321000D01*
X14679000Y-5382000D01*
X14740000Y-5443000D01*
X14740000Y-7443000D02*
X14801000Y-7382000D01*
X14740000Y-7321000D01*
X14679000Y-7382000D01*
X14740000Y-7443000D01*
X14740000Y-9443000D02*
X14801000Y-9382000D01*
X14740000Y-9321000D01*
X14679000Y-9382000D01*
X14740000Y-9443000D01*
X14740000Y-11443000D02*
X14801000Y-11382000D01*
X14740000Y-11321000D01*
X14679000Y-11382000D01*
X14740000Y-11443000D01*
X14740000Y-13143000D02*
X14801000Y-13082000D01*
X14740000Y-13021000D01*
X14679000Y-13082000D01*
X14740000Y-13143000D01*
D14*
X10669000Y-4299000D02*
X10811000Y-4441000D01*
X10811000Y-4299000D02*
X10669000Y-4441000D01*
X10811000Y-4370000D02*
G75*
G02*
X10669000Y-4370000I-71000J0D01*
G01*
X10669000Y-4370000D02*
G75*
G02*
X10811000Y-4370000I71000J0D01*
G01*
X10669000Y-5621000D02*
X10811000Y-5763000D01*
X10811000Y-5621000D02*
X10669000Y-5763000D01*
X10811000Y-5692000D02*
G75*
G02*
X10669000Y-5692000I-71000J0D01*
G01*
X10669000Y-5692000D02*
G75*
G02*
X10811000Y-5692000I71000J0D01*
G01*
X10669000Y-7621000D02*
X10811000Y-7763000D01*
X10811000Y-7621000D02*
X10669000Y-7763000D01*
X10811000Y-7692000D02*
G75*
G02*
X10669000Y-7692000I-71000J0D01*
G01*
X10669000Y-7692000D02*
G75*
G02*
X10811000Y-7692000I71000J0D01*
G01*
X10669000Y-9621000D02*
X10811000Y-9763000D01*
X10811000Y-9621000D02*
X10669000Y-9763000D01*
X10811000Y-9692000D02*
G75*
G02*
X10669000Y-9692000I-71000J0D01*
G01*
X10669000Y-9692000D02*
G75*
G02*
X10811000Y-9692000I71000J0D01*
G01*
X10669000Y-11621000D02*
X10811000Y-11763000D01*
X10811000Y-11621000D02*
X10669000Y-11763000D01*
X10811000Y-11692000D02*
G75*
G02*
X10669000Y-11692000I-71000J0D01*
G01*
X10669000Y-11692000D02*
G75*
G02*
X10811000Y-11692000I71000J0D01*
G01*
X10669000Y-13321000D02*
X10811000Y-13463000D01*
X10811000Y-13321000D02*
X10669000Y-13463000D01*
X10811000Y-13392000D02*
G75*
G02*
X10669000Y-13392000I-71000J0D01*
G01*
X10669000Y-13392000D02*
G75*
G02*
X10811000Y-13392000I71000J0D01*
G01*
X14669000Y-4299000D02*
X14811000Y-4441000D01*
X14811000Y-4299000D02*
X14669000Y-4441000D01*
X14811000Y-4370000D02*
G75*
G02*
X14669000Y-4370000I-71000J0D01*
G01*
X14669000Y-4370000D02*
G75*
G02*
X14811000Y-4370000I71000J0D01*
G01*
X14669000Y-5621000D02*
X14811000Y-5763000D01*
X14811000Y-5621000D02*
X14669000Y-5763000D01*
X14811000Y-5692000D02*
G75*
G02*
X14669000Y-5692000I-71000J0D01*
G01*
X14669000Y-5692000D02*
G75*
G02*
X14811000Y-5692000I71000J0D01*
G01*
X14669000Y-7621000D02*
X14811000Y-7763000D01*
X14811000Y-7621000D02*
X14669000Y-7763000D01*
X14811000Y-7692000D02*
G75*
G02*
X14669000Y-7692000I-71000J0D01*
G01*
X14669000Y-7692000D02*
G75*
G02*
X14811000Y-7692000I71000J0D01*
G01*
X14669000Y-9621000D02*
X14811000Y-9763000D01*
X14811000Y-9621000D02*
X14669000Y-9763000D01*
X14811000Y-9692000D02*
G75*
G02*
X14669000Y-9692000I-71000J0D01*
G01*
X14669000Y-9692000D02*
G75*
G02*
X14811000Y-9692000I71000J0D01*
G01*
X14669000Y-11621000D02*
X14811000Y-11763000D01*
X14811000Y-11621000D02*
X14669000Y-11763000D01*
X14811000Y-11692000D02*
G75*
G02*
X14669000Y-11692000I-71000J0D01*
G01*
X14669000Y-11692000D02*
G75*
G02*
X14811000Y-11692000I71000J0D01*
G01*
X14669000Y-13321000D02*
X14811000Y-13463000D01*
X14811000Y-13321000D02*
X14669000Y-13463000D01*
X14811000Y-13392000D02*
G75*
G02*
X14669000Y-13392000I-71000J0D01*
G01*
X14669000Y-13392000D02*
G75*
G02*
X14811000Y-13392000I71000J0D01*
G01*
D15*
X10668500Y-3468500D02*
X10811500Y-3611500D01*
X10811500Y-3468500D02*
X10668500Y-3611500D01*
X10740000Y-3468500D02*
X10740000Y-3611500D01*
X10668500Y-3540000D02*
X10811500Y-3540000D01*
X10668500Y-6450500D02*
X10811500Y-6593500D01*
X10811500Y-6450500D02*
X10668500Y-6593500D01*
X10740000Y-6450500D02*
X10740000Y-6593500D01*
X10668500Y-6522000D02*
X10811500Y-6522000D01*
X10668500Y-8450500D02*
X10811500Y-8593500D01*
X10811500Y-8450500D02*
X10668500Y-8593500D01*
X10740000Y-8450500D02*
X10740000Y-8593500D01*
X10668500Y-8522000D02*
X10811500Y-8522000D01*
X10668500Y-10450500D02*
X10811500Y-10593500D01*
X10811500Y-10450500D02*
X10668500Y-10593500D01*
X10740000Y-10450500D02*
X10740000Y-10593500D01*
X10668500Y-10522000D02*
X10811500Y-10522000D01*
X10668500Y-12450500D02*
X10811500Y-12593500D01*
X10811500Y-12450500D02*
X10668500Y-12593500D01*
X10740000Y-12450500D02*
X10740000Y-12593500D01*
X10668500Y-12522000D02*
X10811500Y-12522000D01*
X10668500Y-14150500D02*
X10811500Y-14293500D01*
X10811500Y-14150500D02*
X10668500Y-14293500D01*
X10740000Y-14150500D02*
X10740000Y-14293500D01*
X10668500Y-14222000D02*
X10811500Y-14222000D01*
X14668500Y-3468500D02*
X14811500Y-3611500D01*
X14811500Y-3468500D02*
X14668500Y-3611500D01*
X14740000Y-3468500D02*
X14740000Y-3611500D01*
X14668500Y-3540000D02*
X14811500Y-3540000D01*
X14668500Y-6450500D02*
X14811500Y-6593500D01*
X14811500Y-6450500D02*
X14668500Y-6593500D01*
X14740000Y-6450500D02*
X14740000Y-6593500D01*
X14668500Y-6522000D02*
X14811500Y-6522000D01*
X14668500Y-8450500D02*
X14811500Y-8593500D01*
X14811500Y-8450500D02*
X14668500Y-8593500D01*
X14740000Y-8450500D02*
X14740000Y-8593500D01*
X14668500Y-8522000D02*
X14811500Y-8522000D01*
X14668500Y-10450500D02*
X14811500Y-10593500D01*
X14811500Y-10450500D02*
X14668500Y-10593500D01*
X14740000Y-10450500D02*
X14740000Y-10593500D01*
X14668500Y-10522000D02*
X14811500Y-10522000D01*
X14668500Y-12450500D02*
X14811500Y-12593500D01*
X14811500Y-12450500D02*
X14668500Y-12593500D01*
X14740000Y-12450500D02*
X14740000Y-12593500D01*
X14668500Y-12522000D02*
X14811500Y-12522000D01*
X14668500Y-14150500D02*
X14811500Y-14293500D01*
X14811500Y-14150500D02*
X14668500Y-14293500D01*
X14740000Y-14150500D02*
X14740000Y-14293500D01*
X14668500Y-14222000D02*
X14811500Y-14222000D01*
D11*
X10498277Y-14693984D02*
X10498277Y-14493984D01*
X10498277Y-14493984D02*
X10545896Y-14493984D01*
X10545896Y-14493984D02*
X10574467Y-14503508D01*
X10574467Y-14503508D02*
X10593515Y-14522555D01*
X10593515Y-14522555D02*
X10603039Y-14541603D01*
X10603039Y-14541603D02*
X10612563Y-14579698D01*
X10612563Y-14579698D02*
X10612563Y-14608269D01*
X10612563Y-14608269D02*
X10603039Y-14646365D01*
X10603039Y-14646365D02*
X10593515Y-14665412D01*
X10593515Y-14665412D02*
X10574467Y-14684460D01*
X10574467Y-14684460D02*
X10545896Y-14693984D01*
X10545896Y-14693984D02*
X10498277Y-14693984D01*
X10698277Y-14693984D02*
X10698277Y-14560650D01*
X10698277Y-14598746D02*
X10707801Y-14579698D01*
X10707801Y-14579698D02*
X10717324Y-14570174D01*
X10717324Y-14570174D02*
X10736372Y-14560650D01*
X10736372Y-14560650D02*
X10755420Y-14560650D01*
X10822086Y-14693984D02*
X10822086Y-14560650D01*
X10822086Y-14493984D02*
X10812563Y-14503508D01*
X10812563Y-14503508D02*
X10822086Y-14513031D01*
X10822086Y-14513031D02*
X10831610Y-14503508D01*
X10831610Y-14503508D02*
X10822086Y-14493984D01*
X10822086Y-14493984D02*
X10822086Y-14513031D01*
X10945896Y-14693984D02*
X10926848Y-14684460D01*
X10926848Y-14684460D02*
X10917324Y-14665412D01*
X10917324Y-14665412D02*
X10917324Y-14493984D01*
X11050658Y-14693984D02*
X11031610Y-14684460D01*
X11031610Y-14684460D02*
X11022086Y-14665412D01*
X11022086Y-14665412D02*
X11022086Y-14493984D01*
X11279229Y-14693984D02*
X11279229Y-14493984D01*
X11279229Y-14493984D02*
X11345896Y-14636841D01*
X11345896Y-14636841D02*
X11412562Y-14493984D01*
X11412562Y-14493984D02*
X11412562Y-14693984D01*
X11593515Y-14693984D02*
X11593515Y-14589222D01*
X11593515Y-14589222D02*
X11583991Y-14570174D01*
X11583991Y-14570174D02*
X11564943Y-14560650D01*
X11564943Y-14560650D02*
X11526848Y-14560650D01*
X11526848Y-14560650D02*
X11507801Y-14570174D01*
X11593515Y-14684460D02*
X11574467Y-14693984D01*
X11574467Y-14693984D02*
X11526848Y-14693984D01*
X11526848Y-14693984D02*
X11507801Y-14684460D01*
X11507801Y-14684460D02*
X11498277Y-14665412D01*
X11498277Y-14665412D02*
X11498277Y-14646365D01*
X11498277Y-14646365D02*
X11507801Y-14627317D01*
X11507801Y-14627317D02*
X11526848Y-14617793D01*
X11526848Y-14617793D02*
X11574467Y-14617793D01*
X11574467Y-14617793D02*
X11593515Y-14608269D01*
X11688753Y-14560650D02*
X11688753Y-14760650D01*
X11688753Y-14570174D02*
X11707801Y-14560650D01*
X11707801Y-14560650D02*
X11745896Y-14560650D01*
X11745896Y-14560650D02*
X11764943Y-14570174D01*
X11764943Y-14570174D02*
X11774467Y-14579698D01*
X11774467Y-14579698D02*
X11783991Y-14598746D01*
X11783991Y-14598746D02*
X11783991Y-14655888D01*
X11783991Y-14655888D02*
X11774467Y-14674936D01*
X11774467Y-14674936D02*
X11764943Y-14684460D01*
X11764943Y-14684460D02*
X11745896Y-14693984D01*
X11745896Y-14693984D02*
X11707801Y-14693984D01*
X11707801Y-14693984D02*
X11688753Y-14684460D01*
X11869705Y-14674936D02*
X11879229Y-14684460D01*
X11879229Y-14684460D02*
X11869705Y-14693984D01*
X11869705Y-14693984D02*
X11860182Y-14684460D01*
X11860182Y-14684460D02*
X11869705Y-14674936D01*
X11869705Y-14674936D02*
X11869705Y-14693984D01*
X11869705Y-14570174D02*
X11879229Y-14579698D01*
X11879229Y-14579698D02*
X11869705Y-14589222D01*
X11869705Y-14589222D02*
X11860182Y-14579698D01*
X11860182Y-14579698D02*
X11869705Y-14570174D01*
X11869705Y-14570174D02*
X11869705Y-14589222D01*
D12*
X10197500Y-15002500D02*
X10237500Y-15042500D01*
X10237500Y-15002500D02*
X10197500Y-15042500D01*
D11*
X10536372Y-14913984D02*
X10555420Y-14913984D01*
X10555420Y-14913984D02*
X10574467Y-14923508D01*
X10574467Y-14923508D02*
X10583991Y-14933031D01*
X10583991Y-14933031D02*
X10593515Y-14952079D01*
X10593515Y-14952079D02*
X10603039Y-14990174D01*
X10603039Y-14990174D02*
X10603039Y-15037793D01*
X10603039Y-15037793D02*
X10593515Y-15075888D01*
X10593515Y-15075888D02*
X10583991Y-15094936D01*
X10583991Y-15094936D02*
X10574467Y-15104460D01*
X10574467Y-15104460D02*
X10555420Y-15113984D01*
X10555420Y-15113984D02*
X10536372Y-15113984D01*
X10536372Y-15113984D02*
X10517324Y-15104460D01*
X10517324Y-15104460D02*
X10507801Y-15094936D01*
X10507801Y-15094936D02*
X10498277Y-15075888D01*
X10498277Y-15075888D02*
X10488753Y-15037793D01*
X10488753Y-15037793D02*
X10488753Y-14990174D01*
X10488753Y-14990174D02*
X10498277Y-14952079D01*
X10498277Y-14952079D02*
X10507801Y-14933031D01*
X10507801Y-14933031D02*
X10517324Y-14923508D01*
X10517324Y-14923508D02*
X10536372Y-14913984D01*
X10688753Y-15094936D02*
X10698277Y-15104460D01*
X10698277Y-15104460D02*
X10688753Y-15113984D01*
X10688753Y-15113984D02*
X10679229Y-15104460D01*
X10679229Y-15104460D02*
X10688753Y-15094936D01*
X10688753Y-15094936D02*
X10688753Y-15113984D01*
X10869705Y-14980650D02*
X10869705Y-15113984D01*
X10822086Y-14904460D02*
X10774467Y-15047317D01*
X10774467Y-15047317D02*
X10898277Y-15047317D01*
X11012563Y-14913984D02*
X11031610Y-14913984D01*
X11031610Y-14913984D02*
X11050658Y-14923508D01*
X11050658Y-14923508D02*
X11060182Y-14933031D01*
X11060182Y-14933031D02*
X11069705Y-14952079D01*
X11069705Y-14952079D02*
X11079229Y-14990174D01*
X11079229Y-14990174D02*
X11079229Y-15037793D01*
X11079229Y-15037793D02*
X11069705Y-15075888D01*
X11069705Y-15075888D02*
X11060182Y-15094936D01*
X11060182Y-15094936D02*
X11050658Y-15104460D01*
X11050658Y-15104460D02*
X11031610Y-15113984D01*
X11031610Y-15113984D02*
X11012563Y-15113984D01*
X11012563Y-15113984D02*
X10993515Y-15104460D01*
X10993515Y-15104460D02*
X10983991Y-15094936D01*
X10983991Y-15094936D02*
X10974467Y-15075888D01*
X10974467Y-15075888D02*
X10964944Y-15037793D01*
X10964944Y-15037793D02*
X10964944Y-14990174D01*
X10964944Y-14990174D02*
X10974467Y-14952079D01*
X10974467Y-14952079D02*
X10983991Y-14933031D01*
X10983991Y-14933031D02*
X10993515Y-14923508D01*
X10993515Y-14923508D02*
X11012563Y-14913984D01*
X11203039Y-14913984D02*
X11222086Y-14913984D01*
X11222086Y-14913984D02*
X11241134Y-14923508D01*
X11241134Y-14923508D02*
X11250658Y-14933031D01*
X11250658Y-14933031D02*
X11260182Y-14952079D01*
X11260182Y-14952079D02*
X11269705Y-14990174D01*
X11269705Y-14990174D02*
X11269705Y-15037793D01*
X11269705Y-15037793D02*
X11260182Y-15075888D01*
X11260182Y-15075888D02*
X11250658Y-15094936D01*
X11250658Y-15094936D02*
X11241134Y-15104460D01*
X11241134Y-15104460D02*
X11222086Y-15113984D01*
X11222086Y-15113984D02*
X11203039Y-15113984D01*
X11203039Y-15113984D02*
X11183991Y-15104460D01*
X11183991Y-15104460D02*
X11174467Y-15094936D01*
X11174467Y-15094936D02*
X11164944Y-15075888D01*
X11164944Y-15075888D02*
X11155420Y-15037793D01*
X11155420Y-15037793D02*
X11155420Y-14990174D01*
X11155420Y-14990174D02*
X11164944Y-14952079D01*
X11164944Y-14952079D02*
X11174467Y-14933031D01*
X11174467Y-14933031D02*
X11183991Y-14923508D01*
X11183991Y-14923508D02*
X11203039Y-14913984D01*
X11355420Y-15113984D02*
X11355420Y-14980650D01*
X11355420Y-14999698D02*
X11364943Y-14990174D01*
X11364943Y-14990174D02*
X11383991Y-14980650D01*
X11383991Y-14980650D02*
X11412563Y-14980650D01*
X11412563Y-14980650D02*
X11431610Y-14990174D01*
X11431610Y-14990174D02*
X11441134Y-15009222D01*
X11441134Y-15009222D02*
X11441134Y-15113984D01*
X11441134Y-15009222D02*
X11450658Y-14990174D01*
X11450658Y-14990174D02*
X11469705Y-14980650D01*
X11469705Y-14980650D02*
X11498277Y-14980650D01*
X11498277Y-14980650D02*
X11517324Y-14990174D01*
X11517324Y-14990174D02*
X11526848Y-15009222D01*
X11526848Y-15009222D02*
X11526848Y-15113984D01*
X11622086Y-15113984D02*
X11622086Y-14980650D01*
X11622086Y-14999698D02*
X11631610Y-14990174D01*
X11631610Y-14990174D02*
X11650658Y-14980650D01*
X11650658Y-14980650D02*
X11679229Y-14980650D01*
X11679229Y-14980650D02*
X11698277Y-14990174D01*
X11698277Y-14990174D02*
X11707801Y-15009222D01*
X11707801Y-15009222D02*
X11707801Y-15113984D01*
X11707801Y-15009222D02*
X11717324Y-14990174D01*
X11717324Y-14990174D02*
X11736372Y-14980650D01*
X11736372Y-14980650D02*
X11764943Y-14980650D01*
X11764943Y-14980650D02*
X11783991Y-14990174D01*
X11783991Y-14990174D02*
X11793515Y-15009222D01*
X11793515Y-15009222D02*
X11793515Y-15113984D01*
X12183991Y-14904460D02*
X12012563Y-15161603D01*
X12441134Y-14913984D02*
X12460182Y-14913984D01*
X12460182Y-14913984D02*
X12479229Y-14923508D01*
X12479229Y-14923508D02*
X12488753Y-14933031D01*
X12488753Y-14933031D02*
X12498277Y-14952079D01*
X12498277Y-14952079D02*
X12507801Y-14990174D01*
X12507801Y-14990174D02*
X12507801Y-15037793D01*
X12507801Y-15037793D02*
X12498277Y-15075888D01*
X12498277Y-15075888D02*
X12488753Y-15094936D01*
X12488753Y-15094936D02*
X12479229Y-15104460D01*
X12479229Y-15104460D02*
X12460182Y-15113984D01*
X12460182Y-15113984D02*
X12441134Y-15113984D01*
X12441134Y-15113984D02*
X12422086Y-15104460D01*
X12422086Y-15104460D02*
X12412563Y-15094936D01*
X12412563Y-15094936D02*
X12403039Y-15075888D01*
X12403039Y-15075888D02*
X12393515Y-15037793D01*
X12393515Y-15037793D02*
X12393515Y-14990174D01*
X12393515Y-14990174D02*
X12403039Y-14952079D01*
X12403039Y-14952079D02*
X12412563Y-14933031D01*
X12412563Y-14933031D02*
X12422086Y-14923508D01*
X12422086Y-14923508D02*
X12441134Y-14913984D01*
X12593515Y-15094936D02*
X12603039Y-15104460D01*
X12603039Y-15104460D02*
X12593515Y-15113984D01*
X12593515Y-15113984D02*
X12583991Y-15104460D01*
X12583991Y-15104460D02*
X12593515Y-15094936D01*
X12593515Y-15094936D02*
X12593515Y-15113984D01*
X12726848Y-14913984D02*
X12745896Y-14913984D01*
X12745896Y-14913984D02*
X12764944Y-14923508D01*
X12764944Y-14923508D02*
X12774467Y-14933031D01*
X12774467Y-14933031D02*
X12783991Y-14952079D01*
X12783991Y-14952079D02*
X12793515Y-14990174D01*
X12793515Y-14990174D02*
X12793515Y-15037793D01*
X12793515Y-15037793D02*
X12783991Y-15075888D01*
X12783991Y-15075888D02*
X12774467Y-15094936D01*
X12774467Y-15094936D02*
X12764944Y-15104460D01*
X12764944Y-15104460D02*
X12745896Y-15113984D01*
X12745896Y-15113984D02*
X12726848Y-15113984D01*
X12726848Y-15113984D02*
X12707801Y-15104460D01*
X12707801Y-15104460D02*
X12698277Y-15094936D01*
X12698277Y-15094936D02*
X12688753Y-15075888D01*
X12688753Y-15075888D02*
X12679229Y-15037793D01*
X12679229Y-15037793D02*
X12679229Y-14990174D01*
X12679229Y-14990174D02*
X12688753Y-14952079D01*
X12688753Y-14952079D02*
X12698277Y-14933031D01*
X12698277Y-14933031D02*
X12707801Y-14923508D01*
X12707801Y-14923508D02*
X12726848Y-14913984D01*
X12983991Y-15113984D02*
X12869706Y-15113984D01*
X12926848Y-15113984D02*
X12926848Y-14913984D01*
X12926848Y-14913984D02*
X12907801Y-14942555D01*
X12907801Y-14942555D02*
X12888753Y-14961603D01*
X12888753Y-14961603D02*
X12869706Y-14971127D01*
X13164944Y-14913984D02*
X13069706Y-14913984D01*
X13069706Y-14913984D02*
X13060182Y-15009222D01*
X13060182Y-15009222D02*
X13069706Y-14999698D01*
X13069706Y-14999698D02*
X13088753Y-14990174D01*
X13088753Y-14990174D02*
X13136372Y-14990174D01*
X13136372Y-14990174D02*
X13155420Y-14999698D01*
X13155420Y-14999698D02*
X13164944Y-15009222D01*
X13164944Y-15009222D02*
X13174467Y-15028269D01*
X13174467Y-15028269D02*
X13174467Y-15075888D01*
X13174467Y-15075888D02*
X13164944Y-15094936D01*
X13164944Y-15094936D02*
X13155420Y-15104460D01*
X13155420Y-15104460D02*
X13136372Y-15113984D01*
X13136372Y-15113984D02*
X13088753Y-15113984D01*
X13088753Y-15113984D02*
X13069706Y-15104460D01*
X13069706Y-15104460D02*
X13060182Y-15094936D01*
X13241134Y-14913984D02*
X13374467Y-14913984D01*
X13374467Y-14913984D02*
X13288753Y-15113984D01*
X13441134Y-14913984D02*
X13441134Y-14952079D01*
X13517325Y-14913984D02*
X13517325Y-14952079D01*
X13812563Y-15190174D02*
X13803039Y-15180650D01*
X13803039Y-15180650D02*
X13783991Y-15152079D01*
X13783991Y-15152079D02*
X13774468Y-15133031D01*
X13774468Y-15133031D02*
X13764944Y-15104460D01*
X13764944Y-15104460D02*
X13755420Y-15056841D01*
X13755420Y-15056841D02*
X13755420Y-15018746D01*
X13755420Y-15018746D02*
X13764944Y-14971127D01*
X13764944Y-14971127D02*
X13774468Y-14942555D01*
X13774468Y-14942555D02*
X13783991Y-14923508D01*
X13783991Y-14923508D02*
X13803039Y-14894936D01*
X13803039Y-14894936D02*
X13812563Y-14885412D01*
X13879229Y-14933031D02*
X13888753Y-14923508D01*
X13888753Y-14923508D02*
X13907801Y-14913984D01*
X13907801Y-14913984D02*
X13955420Y-14913984D01*
X13955420Y-14913984D02*
X13974468Y-14923508D01*
X13974468Y-14923508D02*
X13983991Y-14933031D01*
X13983991Y-14933031D02*
X13993515Y-14952079D01*
X13993515Y-14952079D02*
X13993515Y-14971127D01*
X13993515Y-14971127D02*
X13983991Y-14999698D01*
X13983991Y-14999698D02*
X13869706Y-15113984D01*
X13869706Y-15113984D02*
X13993515Y-15113984D01*
X14231610Y-15113984D02*
X14231610Y-14913984D01*
X14317325Y-15113984D02*
X14317325Y-15009222D01*
X14317325Y-15009222D02*
X14307801Y-14990174D01*
X14307801Y-14990174D02*
X14288753Y-14980650D01*
X14288753Y-14980650D02*
X14260182Y-14980650D01*
X14260182Y-14980650D02*
X14241134Y-14990174D01*
X14241134Y-14990174D02*
X14231610Y-14999698D01*
X14441134Y-15113984D02*
X14422087Y-15104460D01*
X14422087Y-15104460D02*
X14412563Y-15094936D01*
X14412563Y-15094936D02*
X14403039Y-15075888D01*
X14403039Y-15075888D02*
X14403039Y-15018746D01*
X14403039Y-15018746D02*
X14412563Y-14999698D01*
X14412563Y-14999698D02*
X14422087Y-14990174D01*
X14422087Y-14990174D02*
X14441134Y-14980650D01*
X14441134Y-14980650D02*
X14469706Y-14980650D01*
X14469706Y-14980650D02*
X14488753Y-14990174D01*
X14488753Y-14990174D02*
X14498277Y-14999698D01*
X14498277Y-14999698D02*
X14507801Y-15018746D01*
X14507801Y-15018746D02*
X14507801Y-15075888D01*
X14507801Y-15075888D02*
X14498277Y-15094936D01*
X14498277Y-15094936D02*
X14488753Y-15104460D01*
X14488753Y-15104460D02*
X14469706Y-15113984D01*
X14469706Y-15113984D02*
X14441134Y-15113984D01*
X14622087Y-15113984D02*
X14603039Y-15104460D01*
X14603039Y-15104460D02*
X14593515Y-15085412D01*
X14593515Y-15085412D02*
X14593515Y-14913984D01*
X14774468Y-15104460D02*
X14755420Y-15113984D01*
X14755420Y-15113984D02*
X14717325Y-15113984D01*
X14717325Y-15113984D02*
X14698277Y-15104460D01*
X14698277Y-15104460D02*
X14688753Y-15085412D01*
X14688753Y-15085412D02*
X14688753Y-15009222D01*
X14688753Y-15009222D02*
X14698277Y-14990174D01*
X14698277Y-14990174D02*
X14717325Y-14980650D01*
X14717325Y-14980650D02*
X14755420Y-14980650D01*
X14755420Y-14980650D02*
X14774468Y-14990174D01*
X14774468Y-14990174D02*
X14783991Y-15009222D01*
X14783991Y-15009222D02*
X14783991Y-15028269D01*
X14783991Y-15028269D02*
X14688753Y-15047317D01*
X14860182Y-15104460D02*
X14879230Y-15113984D01*
X14879230Y-15113984D02*
X14917325Y-15113984D01*
X14917325Y-15113984D02*
X14936372Y-15104460D01*
X14936372Y-15104460D02*
X14945896Y-15085412D01*
X14945896Y-15085412D02*
X14945896Y-15075888D01*
X14945896Y-15075888D02*
X14936372Y-15056841D01*
X14936372Y-15056841D02*
X14917325Y-15047317D01*
X14917325Y-15047317D02*
X14888753Y-15047317D01*
X14888753Y-15047317D02*
X14869706Y-15037793D01*
X14869706Y-15037793D02*
X14860182Y-15018746D01*
X14860182Y-15018746D02*
X14860182Y-15009222D01*
X14860182Y-15009222D02*
X14869706Y-14990174D01*
X14869706Y-14990174D02*
X14888753Y-14980650D01*
X14888753Y-14980650D02*
X14917325Y-14980650D01*
X14917325Y-14980650D02*
X14936372Y-14990174D01*
X15012563Y-15190174D02*
X15022087Y-15180650D01*
X15022087Y-15180650D02*
X15041134Y-15152079D01*
X15041134Y-15152079D02*
X15050658Y-15133031D01*
X15050658Y-15133031D02*
X15060182Y-15104460D01*
X15060182Y-15104460D02*
X15069706Y-15056841D01*
X15069706Y-15056841D02*
X15069706Y-15018746D01*
X15069706Y-15018746D02*
X15060182Y-14971127D01*
X15060182Y-14971127D02*
X15050658Y-14942555D01*
X15050658Y-14942555D02*
X15041134Y-14923508D01*
X15041134Y-14923508D02*
X15022087Y-14894936D01*
X15022087Y-14894936D02*
X15012563Y-14885412D01*
D12*
X10237500Y-15286500D02*
G75*
G02*
X10157500Y-15286500I-40000J0D01*
G01*
X10157500Y-15286500D02*
G75*
G02*
X10237500Y-15286500I40000J0D01*
G01*
D11*
X10536372Y-15177984D02*
X10555420Y-15177984D01*
X10555420Y-15177984D02*
X10574467Y-15187508D01*
X10574467Y-15187508D02*
X10583991Y-15197031D01*
X10583991Y-15197031D02*
X10593515Y-15216079D01*
X10593515Y-15216079D02*
X10603039Y-15254174D01*
X10603039Y-15254174D02*
X10603039Y-15301793D01*
X10603039Y-15301793D02*
X10593515Y-15339888D01*
X10593515Y-15339888D02*
X10583991Y-15358936D01*
X10583991Y-15358936D02*
X10574467Y-15368460D01*
X10574467Y-15368460D02*
X10555420Y-15377984D01*
X10555420Y-15377984D02*
X10536372Y-15377984D01*
X10536372Y-15377984D02*
X10517324Y-15368460D01*
X10517324Y-15368460D02*
X10507801Y-15358936D01*
X10507801Y-15358936D02*
X10498277Y-15339888D01*
X10498277Y-15339888D02*
X10488753Y-15301793D01*
X10488753Y-15301793D02*
X10488753Y-15254174D01*
X10488753Y-15254174D02*
X10498277Y-15216079D01*
X10498277Y-15216079D02*
X10507801Y-15197031D01*
X10507801Y-15197031D02*
X10517324Y-15187508D01*
X10517324Y-15187508D02*
X10536372Y-15177984D01*
X10688753Y-15358936D02*
X10698277Y-15368460D01*
X10698277Y-15368460D02*
X10688753Y-15377984D01*
X10688753Y-15377984D02*
X10679229Y-15368460D01*
X10679229Y-15368460D02*
X10688753Y-15358936D01*
X10688753Y-15358936D02*
X10688753Y-15377984D01*
X10812563Y-15263698D02*
X10793515Y-15254174D01*
X10793515Y-15254174D02*
X10783991Y-15244650D01*
X10783991Y-15244650D02*
X10774467Y-15225603D01*
X10774467Y-15225603D02*
X10774467Y-15216079D01*
X10774467Y-15216079D02*
X10783991Y-15197031D01*
X10783991Y-15197031D02*
X10793515Y-15187508D01*
X10793515Y-15187508D02*
X10812563Y-15177984D01*
X10812563Y-15177984D02*
X10850658Y-15177984D01*
X10850658Y-15177984D02*
X10869705Y-15187508D01*
X10869705Y-15187508D02*
X10879229Y-15197031D01*
X10879229Y-15197031D02*
X10888753Y-15216079D01*
X10888753Y-15216079D02*
X10888753Y-15225603D01*
X10888753Y-15225603D02*
X10879229Y-15244650D01*
X10879229Y-15244650D02*
X10869705Y-15254174D01*
X10869705Y-15254174D02*
X10850658Y-15263698D01*
X10850658Y-15263698D02*
X10812563Y-15263698D01*
X10812563Y-15263698D02*
X10793515Y-15273222D01*
X10793515Y-15273222D02*
X10783991Y-15282746D01*
X10783991Y-15282746D02*
X10774467Y-15301793D01*
X10774467Y-15301793D02*
X10774467Y-15339888D01*
X10774467Y-15339888D02*
X10783991Y-15358936D01*
X10783991Y-15358936D02*
X10793515Y-15368460D01*
X10793515Y-15368460D02*
X10812563Y-15377984D01*
X10812563Y-15377984D02*
X10850658Y-15377984D01*
X10850658Y-15377984D02*
X10869705Y-15368460D01*
X10869705Y-15368460D02*
X10879229Y-15358936D01*
X10879229Y-15358936D02*
X10888753Y-15339888D01*
X10888753Y-15339888D02*
X10888753Y-15301793D01*
X10888753Y-15301793D02*
X10879229Y-15282746D01*
X10879229Y-15282746D02*
X10869705Y-15273222D01*
X10869705Y-15273222D02*
X10850658Y-15263698D01*
X11012563Y-15177984D02*
X11031610Y-15177984D01*
X11031610Y-15177984D02*
X11050658Y-15187508D01*
X11050658Y-15187508D02*
X11060182Y-15197031D01*
X11060182Y-15197031D02*
X11069705Y-15216079D01*
X11069705Y-15216079D02*
X11079229Y-15254174D01*
X11079229Y-15254174D02*
X11079229Y-15301793D01*
X11079229Y-15301793D02*
X11069705Y-15339888D01*
X11069705Y-15339888D02*
X11060182Y-15358936D01*
X11060182Y-15358936D02*
X11050658Y-15368460D01*
X11050658Y-15368460D02*
X11031610Y-15377984D01*
X11031610Y-15377984D02*
X11012563Y-15377984D01*
X11012563Y-15377984D02*
X10993515Y-15368460D01*
X10993515Y-15368460D02*
X10983991Y-15358936D01*
X10983991Y-15358936D02*
X10974467Y-15339888D01*
X10974467Y-15339888D02*
X10964944Y-15301793D01*
X10964944Y-15301793D02*
X10964944Y-15254174D01*
X10964944Y-15254174D02*
X10974467Y-15216079D01*
X10974467Y-15216079D02*
X10983991Y-15197031D01*
X10983991Y-15197031D02*
X10993515Y-15187508D01*
X10993515Y-15187508D02*
X11012563Y-15177984D01*
X11203039Y-15177984D02*
X11222086Y-15177984D01*
X11222086Y-15177984D02*
X11241134Y-15187508D01*
X11241134Y-15187508D02*
X11250658Y-15197031D01*
X11250658Y-15197031D02*
X11260182Y-15216079D01*
X11260182Y-15216079D02*
X11269705Y-15254174D01*
X11269705Y-15254174D02*
X11269705Y-15301793D01*
X11269705Y-15301793D02*
X11260182Y-15339888D01*
X11260182Y-15339888D02*
X11250658Y-15358936D01*
X11250658Y-15358936D02*
X11241134Y-15368460D01*
X11241134Y-15368460D02*
X11222086Y-15377984D01*
X11222086Y-15377984D02*
X11203039Y-15377984D01*
X11203039Y-15377984D02*
X11183991Y-15368460D01*
X11183991Y-15368460D02*
X11174467Y-15358936D01*
X11174467Y-15358936D02*
X11164944Y-15339888D01*
X11164944Y-15339888D02*
X11155420Y-15301793D01*
X11155420Y-15301793D02*
X11155420Y-15254174D01*
X11155420Y-15254174D02*
X11164944Y-15216079D01*
X11164944Y-15216079D02*
X11174467Y-15197031D01*
X11174467Y-15197031D02*
X11183991Y-15187508D01*
X11183991Y-15187508D02*
X11203039Y-15177984D01*
X11355420Y-15377984D02*
X11355420Y-15244650D01*
X11355420Y-15263698D02*
X11364943Y-15254174D01*
X11364943Y-15254174D02*
X11383991Y-15244650D01*
X11383991Y-15244650D02*
X11412563Y-15244650D01*
X11412563Y-15244650D02*
X11431610Y-15254174D01*
X11431610Y-15254174D02*
X11441134Y-15273222D01*
X11441134Y-15273222D02*
X11441134Y-15377984D01*
X11441134Y-15273222D02*
X11450658Y-15254174D01*
X11450658Y-15254174D02*
X11469705Y-15244650D01*
X11469705Y-15244650D02*
X11498277Y-15244650D01*
X11498277Y-15244650D02*
X11517324Y-15254174D01*
X11517324Y-15254174D02*
X11526848Y-15273222D01*
X11526848Y-15273222D02*
X11526848Y-15377984D01*
X11622086Y-15377984D02*
X11622086Y-15244650D01*
X11622086Y-15263698D02*
X11631610Y-15254174D01*
X11631610Y-15254174D02*
X11650658Y-15244650D01*
X11650658Y-15244650D02*
X11679229Y-15244650D01*
X11679229Y-15244650D02*
X11698277Y-15254174D01*
X11698277Y-15254174D02*
X11707801Y-15273222D01*
X11707801Y-15273222D02*
X11707801Y-15377984D01*
X11707801Y-15273222D02*
X11717324Y-15254174D01*
X11717324Y-15254174D02*
X11736372Y-15244650D01*
X11736372Y-15244650D02*
X11764943Y-15244650D01*
X11764943Y-15244650D02*
X11783991Y-15254174D01*
X11783991Y-15254174D02*
X11793515Y-15273222D01*
X11793515Y-15273222D02*
X11793515Y-15377984D01*
X12183991Y-15168460D02*
X12012563Y-15425603D01*
X12441134Y-15177984D02*
X12460182Y-15177984D01*
X12460182Y-15177984D02*
X12479229Y-15187508D01*
X12479229Y-15187508D02*
X12488753Y-15197031D01*
X12488753Y-15197031D02*
X12498277Y-15216079D01*
X12498277Y-15216079D02*
X12507801Y-15254174D01*
X12507801Y-15254174D02*
X12507801Y-15301793D01*
X12507801Y-15301793D02*
X12498277Y-15339888D01*
X12498277Y-15339888D02*
X12488753Y-15358936D01*
X12488753Y-15358936D02*
X12479229Y-15368460D01*
X12479229Y-15368460D02*
X12460182Y-15377984D01*
X12460182Y-15377984D02*
X12441134Y-15377984D01*
X12441134Y-15377984D02*
X12422086Y-15368460D01*
X12422086Y-15368460D02*
X12412563Y-15358936D01*
X12412563Y-15358936D02*
X12403039Y-15339888D01*
X12403039Y-15339888D02*
X12393515Y-15301793D01*
X12393515Y-15301793D02*
X12393515Y-15254174D01*
X12393515Y-15254174D02*
X12403039Y-15216079D01*
X12403039Y-15216079D02*
X12412563Y-15197031D01*
X12412563Y-15197031D02*
X12422086Y-15187508D01*
X12422086Y-15187508D02*
X12441134Y-15177984D01*
X12593515Y-15358936D02*
X12603039Y-15368460D01*
X12603039Y-15368460D02*
X12593515Y-15377984D01*
X12593515Y-15377984D02*
X12583991Y-15368460D01*
X12583991Y-15368460D02*
X12593515Y-15358936D01*
X12593515Y-15358936D02*
X12593515Y-15377984D01*
X12726848Y-15177984D02*
X12745896Y-15177984D01*
X12745896Y-15177984D02*
X12764944Y-15187508D01*
X12764944Y-15187508D02*
X12774467Y-15197031D01*
X12774467Y-15197031D02*
X12783991Y-15216079D01*
X12783991Y-15216079D02*
X12793515Y-15254174D01*
X12793515Y-15254174D02*
X12793515Y-15301793D01*
X12793515Y-15301793D02*
X12783991Y-15339888D01*
X12783991Y-15339888D02*
X12774467Y-15358936D01*
X12774467Y-15358936D02*
X12764944Y-15368460D01*
X12764944Y-15368460D02*
X12745896Y-15377984D01*
X12745896Y-15377984D02*
X12726848Y-15377984D01*
X12726848Y-15377984D02*
X12707801Y-15368460D01*
X12707801Y-15368460D02*
X12698277Y-15358936D01*
X12698277Y-15358936D02*
X12688753Y-15339888D01*
X12688753Y-15339888D02*
X12679229Y-15301793D01*
X12679229Y-15301793D02*
X12679229Y-15254174D01*
X12679229Y-15254174D02*
X12688753Y-15216079D01*
X12688753Y-15216079D02*
X12698277Y-15197031D01*
X12698277Y-15197031D02*
X12707801Y-15187508D01*
X12707801Y-15187508D02*
X12726848Y-15177984D01*
X12860182Y-15177984D02*
X12983991Y-15177984D01*
X12983991Y-15177984D02*
X12917325Y-15254174D01*
X12917325Y-15254174D02*
X12945896Y-15254174D01*
X12945896Y-15254174D02*
X12964944Y-15263698D01*
X12964944Y-15263698D02*
X12974467Y-15273222D01*
X12974467Y-15273222D02*
X12983991Y-15292269D01*
X12983991Y-15292269D02*
X12983991Y-15339888D01*
X12983991Y-15339888D02*
X12974467Y-15358936D01*
X12974467Y-15358936D02*
X12964944Y-15368460D01*
X12964944Y-15368460D02*
X12945896Y-15377984D01*
X12945896Y-15377984D02*
X12888753Y-15377984D01*
X12888753Y-15377984D02*
X12869706Y-15368460D01*
X12869706Y-15368460D02*
X12860182Y-15358936D01*
X13174467Y-15377984D02*
X13060182Y-15377984D01*
X13117325Y-15377984D02*
X13117325Y-15177984D01*
X13117325Y-15177984D02*
X13098277Y-15206555D01*
X13098277Y-15206555D02*
X13079229Y-15225603D01*
X13079229Y-15225603D02*
X13060182Y-15235127D01*
X13355420Y-15177984D02*
X13260182Y-15177984D01*
X13260182Y-15177984D02*
X13250658Y-15273222D01*
X13250658Y-15273222D02*
X13260182Y-15263698D01*
X13260182Y-15263698D02*
X13279229Y-15254174D01*
X13279229Y-15254174D02*
X13326848Y-15254174D01*
X13326848Y-15254174D02*
X13345896Y-15263698D01*
X13345896Y-15263698D02*
X13355420Y-15273222D01*
X13355420Y-15273222D02*
X13364944Y-15292269D01*
X13364944Y-15292269D02*
X13364944Y-15339888D01*
X13364944Y-15339888D02*
X13355420Y-15358936D01*
X13355420Y-15358936D02*
X13345896Y-15368460D01*
X13345896Y-15368460D02*
X13326848Y-15377984D01*
X13326848Y-15377984D02*
X13279229Y-15377984D01*
X13279229Y-15377984D02*
X13260182Y-15368460D01*
X13260182Y-15368460D02*
X13250658Y-15358936D01*
X13441134Y-15177984D02*
X13441134Y-15216079D01*
X13517325Y-15177984D02*
X13517325Y-15216079D01*
X13812563Y-15454174D02*
X13803039Y-15444650D01*
X13803039Y-15444650D02*
X13783991Y-15416079D01*
X13783991Y-15416079D02*
X13774468Y-15397031D01*
X13774468Y-15397031D02*
X13764944Y-15368460D01*
X13764944Y-15368460D02*
X13755420Y-15320841D01*
X13755420Y-15320841D02*
X13755420Y-15282746D01*
X13755420Y-15282746D02*
X13764944Y-15235127D01*
X13764944Y-15235127D02*
X13774468Y-15206555D01*
X13774468Y-15206555D02*
X13783991Y-15187508D01*
X13783991Y-15187508D02*
X13803039Y-15158936D01*
X13803039Y-15158936D02*
X13812563Y-15149412D01*
X13974468Y-15177984D02*
X13936372Y-15177984D01*
X13936372Y-15177984D02*
X13917325Y-15187508D01*
X13917325Y-15187508D02*
X13907801Y-15197031D01*
X13907801Y-15197031D02*
X13888753Y-15225603D01*
X13888753Y-15225603D02*
X13879229Y-15263698D01*
X13879229Y-15263698D02*
X13879229Y-15339888D01*
X13879229Y-15339888D02*
X13888753Y-15358936D01*
X13888753Y-15358936D02*
X13898277Y-15368460D01*
X13898277Y-15368460D02*
X13917325Y-15377984D01*
X13917325Y-15377984D02*
X13955420Y-15377984D01*
X13955420Y-15377984D02*
X13974468Y-15368460D01*
X13974468Y-15368460D02*
X13983991Y-15358936D01*
X13983991Y-15358936D02*
X13993515Y-15339888D01*
X13993515Y-15339888D02*
X13993515Y-15292269D01*
X13993515Y-15292269D02*
X13983991Y-15273222D01*
X13983991Y-15273222D02*
X13974468Y-15263698D01*
X13974468Y-15263698D02*
X13955420Y-15254174D01*
X13955420Y-15254174D02*
X13917325Y-15254174D01*
X13917325Y-15254174D02*
X13898277Y-15263698D01*
X13898277Y-15263698D02*
X13888753Y-15273222D01*
X13888753Y-15273222D02*
X13879229Y-15292269D01*
X14107801Y-15263698D02*
X14088753Y-15254174D01*
X14088753Y-15254174D02*
X14079229Y-15244650D01*
X14079229Y-15244650D02*
X14069706Y-15225603D01*
X14069706Y-15225603D02*
X14069706Y-15216079D01*
X14069706Y-15216079D02*
X14079229Y-15197031D01*
X14079229Y-15197031D02*
X14088753Y-15187508D01*
X14088753Y-15187508D02*
X14107801Y-15177984D01*
X14107801Y-15177984D02*
X14145896Y-15177984D01*
X14145896Y-15177984D02*
X14164944Y-15187508D01*
X14164944Y-15187508D02*
X14174468Y-15197031D01*
X14174468Y-15197031D02*
X14183991Y-15216079D01*
X14183991Y-15216079D02*
X14183991Y-15225603D01*
X14183991Y-15225603D02*
X14174468Y-15244650D01*
X14174468Y-15244650D02*
X14164944Y-15254174D01*
X14164944Y-15254174D02*
X14145896Y-15263698D01*
X14145896Y-15263698D02*
X14107801Y-15263698D01*
X14107801Y-15263698D02*
X14088753Y-15273222D01*
X14088753Y-15273222D02*
X14079229Y-15282746D01*
X14079229Y-15282746D02*
X14069706Y-15301793D01*
X14069706Y-15301793D02*
X14069706Y-15339888D01*
X14069706Y-15339888D02*
X14079229Y-15358936D01*
X14079229Y-15358936D02*
X14088753Y-15368460D01*
X14088753Y-15368460D02*
X14107801Y-15377984D01*
X14107801Y-15377984D02*
X14145896Y-15377984D01*
X14145896Y-15377984D02*
X14164944Y-15368460D01*
X14164944Y-15368460D02*
X14174468Y-15358936D01*
X14174468Y-15358936D02*
X14183991Y-15339888D01*
X14183991Y-15339888D02*
X14183991Y-15301793D01*
X14183991Y-15301793D02*
X14174468Y-15282746D01*
X14174468Y-15282746D02*
X14164944Y-15273222D01*
X14164944Y-15273222D02*
X14145896Y-15263698D01*
X14422087Y-15377984D02*
X14422087Y-15177984D01*
X14507801Y-15377984D02*
X14507801Y-15273222D01*
X14507801Y-15273222D02*
X14498277Y-15254174D01*
X14498277Y-15254174D02*
X14479230Y-15244650D01*
X14479230Y-15244650D02*
X14450658Y-15244650D01*
X14450658Y-15244650D02*
X14431610Y-15254174D01*
X14431610Y-15254174D02*
X14422087Y-15263698D01*
X14631610Y-15377984D02*
X14612563Y-15368460D01*
X14612563Y-15368460D02*
X14603039Y-15358936D01*
X14603039Y-15358936D02*
X14593515Y-15339888D01*
X14593515Y-15339888D02*
X14593515Y-15282746D01*
X14593515Y-15282746D02*
X14603039Y-15263698D01*
X14603039Y-15263698D02*
X14612563Y-15254174D01*
X14612563Y-15254174D02*
X14631610Y-15244650D01*
X14631610Y-15244650D02*
X14660182Y-15244650D01*
X14660182Y-15244650D02*
X14679230Y-15254174D01*
X14679230Y-15254174D02*
X14688753Y-15263698D01*
X14688753Y-15263698D02*
X14698277Y-15282746D01*
X14698277Y-15282746D02*
X14698277Y-15339888D01*
X14698277Y-15339888D02*
X14688753Y-15358936D01*
X14688753Y-15358936D02*
X14679230Y-15368460D01*
X14679230Y-15368460D02*
X14660182Y-15377984D01*
X14660182Y-15377984D02*
X14631610Y-15377984D01*
X14812563Y-15377984D02*
X14793515Y-15368460D01*
X14793515Y-15368460D02*
X14783991Y-15349412D01*
X14783991Y-15349412D02*
X14783991Y-15177984D01*
X14964944Y-15368460D02*
X14945896Y-15377984D01*
X14945896Y-15377984D02*
X14907801Y-15377984D01*
X14907801Y-15377984D02*
X14888753Y-15368460D01*
X14888753Y-15368460D02*
X14879230Y-15349412D01*
X14879230Y-15349412D02*
X14879230Y-15273222D01*
X14879230Y-15273222D02*
X14888753Y-15254174D01*
X14888753Y-15254174D02*
X14907801Y-15244650D01*
X14907801Y-15244650D02*
X14945896Y-15244650D01*
X14945896Y-15244650D02*
X14964944Y-15254174D01*
X14964944Y-15254174D02*
X14974468Y-15273222D01*
X14974468Y-15273222D02*
X14974468Y-15292269D01*
X14974468Y-15292269D02*
X14879230Y-15311317D01*
X15050658Y-15368460D02*
X15069706Y-15377984D01*
X15069706Y-15377984D02*
X15107801Y-15377984D01*
X15107801Y-15377984D02*
X15126849Y-15368460D01*
X15126849Y-15368460D02*
X15136372Y-15349412D01*
X15136372Y-15349412D02*
X15136372Y-15339888D01*
X15136372Y-15339888D02*
X15126849Y-15320841D01*
X15126849Y-15320841D02*
X15107801Y-15311317D01*
X15107801Y-15311317D02*
X15079230Y-15311317D01*
X15079230Y-15311317D02*
X15060182Y-15301793D01*
X15060182Y-15301793D02*
X15050658Y-15282746D01*
X15050658Y-15282746D02*
X15050658Y-15273222D01*
X15050658Y-15273222D02*
X15060182Y-15254174D01*
X15060182Y-15254174D02*
X15079230Y-15244650D01*
X15079230Y-15244650D02*
X15107801Y-15244650D01*
X15107801Y-15244650D02*
X15126849Y-15254174D01*
X15203039Y-15454174D02*
X15212563Y-15444650D01*
X15212563Y-15444650D02*
X15231611Y-15416079D01*
X15231611Y-15416079D02*
X15241134Y-15397031D01*
X15241134Y-15397031D02*
X15250658Y-15368460D01*
X15250658Y-15368460D02*
X15260182Y-15320841D01*
X15260182Y-15320841D02*
X15260182Y-15282746D01*
X15260182Y-15282746D02*
X15250658Y-15235127D01*
X15250658Y-15235127D02*
X15241134Y-15206555D01*
X15241134Y-15206555D02*
X15231611Y-15187508D01*
X15231611Y-15187508D02*
X15212563Y-15158936D01*
X15212563Y-15158936D02*
X15203039Y-15149412D01*
D12*
X10192500Y-15505500D02*
X10192500Y-15595500D01*
X10147500Y-15550500D02*
X10237500Y-15550500D01*
D11*
X10536372Y-15441984D02*
X10555420Y-15441984D01*
X10555420Y-15441984D02*
X10574467Y-15451508D01*
X10574467Y-15451508D02*
X10583991Y-15461031D01*
X10583991Y-15461031D02*
X10593515Y-15480079D01*
X10593515Y-15480079D02*
X10603039Y-15518174D01*
X10603039Y-15518174D02*
X10603039Y-15565793D01*
X10603039Y-15565793D02*
X10593515Y-15603888D01*
X10593515Y-15603888D02*
X10583991Y-15622936D01*
X10583991Y-15622936D02*
X10574467Y-15632460D01*
X10574467Y-15632460D02*
X10555420Y-15641984D01*
X10555420Y-15641984D02*
X10536372Y-15641984D01*
X10536372Y-15641984D02*
X10517324Y-15632460D01*
X10517324Y-15632460D02*
X10507801Y-15622936D01*
X10507801Y-15622936D02*
X10498277Y-15603888D01*
X10498277Y-15603888D02*
X10488753Y-15565793D01*
X10488753Y-15565793D02*
X10488753Y-15518174D01*
X10488753Y-15518174D02*
X10498277Y-15480079D01*
X10498277Y-15480079D02*
X10507801Y-15461031D01*
X10507801Y-15461031D02*
X10517324Y-15451508D01*
X10517324Y-15451508D02*
X10536372Y-15441984D01*
X10688753Y-15622936D02*
X10698277Y-15632460D01*
X10698277Y-15632460D02*
X10688753Y-15641984D01*
X10688753Y-15641984D02*
X10679229Y-15632460D01*
X10679229Y-15632460D02*
X10688753Y-15622936D01*
X10688753Y-15622936D02*
X10688753Y-15641984D01*
X10793515Y-15641984D02*
X10831610Y-15641984D01*
X10831610Y-15641984D02*
X10850658Y-15632460D01*
X10850658Y-15632460D02*
X10860182Y-15622936D01*
X10860182Y-15622936D02*
X10879229Y-15594365D01*
X10879229Y-15594365D02*
X10888753Y-15556269D01*
X10888753Y-15556269D02*
X10888753Y-15480079D01*
X10888753Y-15480079D02*
X10879229Y-15461031D01*
X10879229Y-15461031D02*
X10869705Y-15451508D01*
X10869705Y-15451508D02*
X10850658Y-15441984D01*
X10850658Y-15441984D02*
X10812563Y-15441984D01*
X10812563Y-15441984D02*
X10793515Y-15451508D01*
X10793515Y-15451508D02*
X10783991Y-15461031D01*
X10783991Y-15461031D02*
X10774467Y-15480079D01*
X10774467Y-15480079D02*
X10774467Y-15527698D01*
X10774467Y-15527698D02*
X10783991Y-15546746D01*
X10783991Y-15546746D02*
X10793515Y-15556269D01*
X10793515Y-15556269D02*
X10812563Y-15565793D01*
X10812563Y-15565793D02*
X10850658Y-15565793D01*
X10850658Y-15565793D02*
X10869705Y-15556269D01*
X10869705Y-15556269D02*
X10879229Y-15546746D01*
X10879229Y-15546746D02*
X10888753Y-15527698D01*
X11012563Y-15441984D02*
X11031610Y-15441984D01*
X11031610Y-15441984D02*
X11050658Y-15451508D01*
X11050658Y-15451508D02*
X11060182Y-15461031D01*
X11060182Y-15461031D02*
X11069705Y-15480079D01*
X11069705Y-15480079D02*
X11079229Y-15518174D01*
X11079229Y-15518174D02*
X11079229Y-15565793D01*
X11079229Y-15565793D02*
X11069705Y-15603888D01*
X11069705Y-15603888D02*
X11060182Y-15622936D01*
X11060182Y-15622936D02*
X11050658Y-15632460D01*
X11050658Y-15632460D02*
X11031610Y-15641984D01*
X11031610Y-15641984D02*
X11012563Y-15641984D01*
X11012563Y-15641984D02*
X10993515Y-15632460D01*
X10993515Y-15632460D02*
X10983991Y-15622936D01*
X10983991Y-15622936D02*
X10974467Y-15603888D01*
X10974467Y-15603888D02*
X10964944Y-15565793D01*
X10964944Y-15565793D02*
X10964944Y-15518174D01*
X10964944Y-15518174D02*
X10974467Y-15480079D01*
X10974467Y-15480079D02*
X10983991Y-15461031D01*
X10983991Y-15461031D02*
X10993515Y-15451508D01*
X10993515Y-15451508D02*
X11012563Y-15441984D01*
X11203039Y-15441984D02*
X11222086Y-15441984D01*
X11222086Y-15441984D02*
X11241134Y-15451508D01*
X11241134Y-15451508D02*
X11250658Y-15461031D01*
X11250658Y-15461031D02*
X11260182Y-15480079D01*
X11260182Y-15480079D02*
X11269705Y-15518174D01*
X11269705Y-15518174D02*
X11269705Y-15565793D01*
X11269705Y-15565793D02*
X11260182Y-15603888D01*
X11260182Y-15603888D02*
X11250658Y-15622936D01*
X11250658Y-15622936D02*
X11241134Y-15632460D01*
X11241134Y-15632460D02*
X11222086Y-15641984D01*
X11222086Y-15641984D02*
X11203039Y-15641984D01*
X11203039Y-15641984D02*
X11183991Y-15632460D01*
X11183991Y-15632460D02*
X11174467Y-15622936D01*
X11174467Y-15622936D02*
X11164944Y-15603888D01*
X11164944Y-15603888D02*
X11155420Y-15565793D01*
X11155420Y-15565793D02*
X11155420Y-15518174D01*
X11155420Y-15518174D02*
X11164944Y-15480079D01*
X11164944Y-15480079D02*
X11174467Y-15461031D01*
X11174467Y-15461031D02*
X11183991Y-15451508D01*
X11183991Y-15451508D02*
X11203039Y-15441984D01*
X11355420Y-15641984D02*
X11355420Y-15508650D01*
X11355420Y-15527698D02*
X11364943Y-15518174D01*
X11364943Y-15518174D02*
X11383991Y-15508650D01*
X11383991Y-15508650D02*
X11412563Y-15508650D01*
X11412563Y-15508650D02*
X11431610Y-15518174D01*
X11431610Y-15518174D02*
X11441134Y-15537222D01*
X11441134Y-15537222D02*
X11441134Y-15641984D01*
X11441134Y-15537222D02*
X11450658Y-15518174D01*
X11450658Y-15518174D02*
X11469705Y-15508650D01*
X11469705Y-15508650D02*
X11498277Y-15508650D01*
X11498277Y-15508650D02*
X11517324Y-15518174D01*
X11517324Y-15518174D02*
X11526848Y-15537222D01*
X11526848Y-15537222D02*
X11526848Y-15641984D01*
X11622086Y-15641984D02*
X11622086Y-15508650D01*
X11622086Y-15527698D02*
X11631610Y-15518174D01*
X11631610Y-15518174D02*
X11650658Y-15508650D01*
X11650658Y-15508650D02*
X11679229Y-15508650D01*
X11679229Y-15508650D02*
X11698277Y-15518174D01*
X11698277Y-15518174D02*
X11707801Y-15537222D01*
X11707801Y-15537222D02*
X11707801Y-15641984D01*
X11707801Y-15537222D02*
X11717324Y-15518174D01*
X11717324Y-15518174D02*
X11736372Y-15508650D01*
X11736372Y-15508650D02*
X11764943Y-15508650D01*
X11764943Y-15508650D02*
X11783991Y-15518174D01*
X11783991Y-15518174D02*
X11793515Y-15537222D01*
X11793515Y-15537222D02*
X11793515Y-15641984D01*
X12183991Y-15432460D02*
X12012563Y-15689603D01*
X12441134Y-15441984D02*
X12460182Y-15441984D01*
X12460182Y-15441984D02*
X12479229Y-15451508D01*
X12479229Y-15451508D02*
X12488753Y-15461031D01*
X12488753Y-15461031D02*
X12498277Y-15480079D01*
X12498277Y-15480079D02*
X12507801Y-15518174D01*
X12507801Y-15518174D02*
X12507801Y-15565793D01*
X12507801Y-15565793D02*
X12498277Y-15603888D01*
X12498277Y-15603888D02*
X12488753Y-15622936D01*
X12488753Y-15622936D02*
X12479229Y-15632460D01*
X12479229Y-15632460D02*
X12460182Y-15641984D01*
X12460182Y-15641984D02*
X12441134Y-15641984D01*
X12441134Y-15641984D02*
X12422086Y-15632460D01*
X12422086Y-15632460D02*
X12412563Y-15622936D01*
X12412563Y-15622936D02*
X12403039Y-15603888D01*
X12403039Y-15603888D02*
X12393515Y-15565793D01*
X12393515Y-15565793D02*
X12393515Y-15518174D01*
X12393515Y-15518174D02*
X12403039Y-15480079D01*
X12403039Y-15480079D02*
X12412563Y-15461031D01*
X12412563Y-15461031D02*
X12422086Y-15451508D01*
X12422086Y-15451508D02*
X12441134Y-15441984D01*
X12593515Y-15622936D02*
X12603039Y-15632460D01*
X12603039Y-15632460D02*
X12593515Y-15641984D01*
X12593515Y-15641984D02*
X12583991Y-15632460D01*
X12583991Y-15632460D02*
X12593515Y-15622936D01*
X12593515Y-15622936D02*
X12593515Y-15641984D01*
X12726848Y-15441984D02*
X12745896Y-15441984D01*
X12745896Y-15441984D02*
X12764944Y-15451508D01*
X12764944Y-15451508D02*
X12774467Y-15461031D01*
X12774467Y-15461031D02*
X12783991Y-15480079D01*
X12783991Y-15480079D02*
X12793515Y-15518174D01*
X12793515Y-15518174D02*
X12793515Y-15565793D01*
X12793515Y-15565793D02*
X12783991Y-15603888D01*
X12783991Y-15603888D02*
X12774467Y-15622936D01*
X12774467Y-15622936D02*
X12764944Y-15632460D01*
X12764944Y-15632460D02*
X12745896Y-15641984D01*
X12745896Y-15641984D02*
X12726848Y-15641984D01*
X12726848Y-15641984D02*
X12707801Y-15632460D01*
X12707801Y-15632460D02*
X12698277Y-15622936D01*
X12698277Y-15622936D02*
X12688753Y-15603888D01*
X12688753Y-15603888D02*
X12679229Y-15565793D01*
X12679229Y-15565793D02*
X12679229Y-15518174D01*
X12679229Y-15518174D02*
X12688753Y-15480079D01*
X12688753Y-15480079D02*
X12698277Y-15461031D01*
X12698277Y-15461031D02*
X12707801Y-15451508D01*
X12707801Y-15451508D02*
X12726848Y-15441984D01*
X12860182Y-15441984D02*
X12983991Y-15441984D01*
X12983991Y-15441984D02*
X12917325Y-15518174D01*
X12917325Y-15518174D02*
X12945896Y-15518174D01*
X12945896Y-15518174D02*
X12964944Y-15527698D01*
X12964944Y-15527698D02*
X12974467Y-15537222D01*
X12974467Y-15537222D02*
X12983991Y-15556269D01*
X12983991Y-15556269D02*
X12983991Y-15603888D01*
X12983991Y-15603888D02*
X12974467Y-15622936D01*
X12974467Y-15622936D02*
X12964944Y-15632460D01*
X12964944Y-15632460D02*
X12945896Y-15641984D01*
X12945896Y-15641984D02*
X12888753Y-15641984D01*
X12888753Y-15641984D02*
X12869706Y-15632460D01*
X12869706Y-15632460D02*
X12860182Y-15622936D01*
X13164944Y-15441984D02*
X13069706Y-15441984D01*
X13069706Y-15441984D02*
X13060182Y-15537222D01*
X13060182Y-15537222D02*
X13069706Y-15527698D01*
X13069706Y-15527698D02*
X13088753Y-15518174D01*
X13088753Y-15518174D02*
X13136372Y-15518174D01*
X13136372Y-15518174D02*
X13155420Y-15527698D01*
X13155420Y-15527698D02*
X13164944Y-15537222D01*
X13164944Y-15537222D02*
X13174467Y-15556269D01*
X13174467Y-15556269D02*
X13174467Y-15603888D01*
X13174467Y-15603888D02*
X13164944Y-15622936D01*
X13164944Y-15622936D02*
X13155420Y-15632460D01*
X13155420Y-15632460D02*
X13136372Y-15641984D01*
X13136372Y-15641984D02*
X13088753Y-15641984D01*
X13088753Y-15641984D02*
X13069706Y-15632460D01*
X13069706Y-15632460D02*
X13060182Y-15622936D01*
X13345896Y-15508650D02*
X13345896Y-15641984D01*
X13298277Y-15432460D02*
X13250658Y-15575317D01*
X13250658Y-15575317D02*
X13374467Y-15575317D01*
X13441134Y-15441984D02*
X13441134Y-15480079D01*
X13517325Y-15441984D02*
X13517325Y-15480079D01*
X13812563Y-15718174D02*
X13803039Y-15708650D01*
X13803039Y-15708650D02*
X13783991Y-15680079D01*
X13783991Y-15680079D02*
X13774468Y-15661031D01*
X13774468Y-15661031D02*
X13764944Y-15632460D01*
X13764944Y-15632460D02*
X13755420Y-15584841D01*
X13755420Y-15584841D02*
X13755420Y-15546746D01*
X13755420Y-15546746D02*
X13764944Y-15499127D01*
X13764944Y-15499127D02*
X13774468Y-15470555D01*
X13774468Y-15470555D02*
X13783991Y-15451508D01*
X13783991Y-15451508D02*
X13803039Y-15422936D01*
X13803039Y-15422936D02*
X13812563Y-15413412D01*
X13993515Y-15641984D02*
X13879229Y-15641984D01*
X13936372Y-15641984D02*
X13936372Y-15441984D01*
X13936372Y-15441984D02*
X13917325Y-15470555D01*
X13917325Y-15470555D02*
X13898277Y-15489603D01*
X13898277Y-15489603D02*
X13879229Y-15499127D01*
X14069706Y-15461031D02*
X14079229Y-15451508D01*
X14079229Y-15451508D02*
X14098277Y-15441984D01*
X14098277Y-15441984D02*
X14145896Y-15441984D01*
X14145896Y-15441984D02*
X14164944Y-15451508D01*
X14164944Y-15451508D02*
X14174468Y-15461031D01*
X14174468Y-15461031D02*
X14183991Y-15480079D01*
X14183991Y-15480079D02*
X14183991Y-15499127D01*
X14183991Y-15499127D02*
X14174468Y-15527698D01*
X14174468Y-15527698D02*
X14060182Y-15641984D01*
X14060182Y-15641984D02*
X14183991Y-15641984D01*
X14422087Y-15641984D02*
X14422087Y-15441984D01*
X14507801Y-15641984D02*
X14507801Y-15537222D01*
X14507801Y-15537222D02*
X14498277Y-15518174D01*
X14498277Y-15518174D02*
X14479230Y-15508650D01*
X14479230Y-15508650D02*
X14450658Y-15508650D01*
X14450658Y-15508650D02*
X14431610Y-15518174D01*
X14431610Y-15518174D02*
X14422087Y-15527698D01*
X14631610Y-15641984D02*
X14612563Y-15632460D01*
X14612563Y-15632460D02*
X14603039Y-15622936D01*
X14603039Y-15622936D02*
X14593515Y-15603888D01*
X14593515Y-15603888D02*
X14593515Y-15546746D01*
X14593515Y-15546746D02*
X14603039Y-15527698D01*
X14603039Y-15527698D02*
X14612563Y-15518174D01*
X14612563Y-15518174D02*
X14631610Y-15508650D01*
X14631610Y-15508650D02*
X14660182Y-15508650D01*
X14660182Y-15508650D02*
X14679230Y-15518174D01*
X14679230Y-15518174D02*
X14688753Y-15527698D01*
X14688753Y-15527698D02*
X14698277Y-15546746D01*
X14698277Y-15546746D02*
X14698277Y-15603888D01*
X14698277Y-15603888D02*
X14688753Y-15622936D01*
X14688753Y-15622936D02*
X14679230Y-15632460D01*
X14679230Y-15632460D02*
X14660182Y-15641984D01*
X14660182Y-15641984D02*
X14631610Y-15641984D01*
X14812563Y-15641984D02*
X14793515Y-15632460D01*
X14793515Y-15632460D02*
X14783991Y-15613412D01*
X14783991Y-15613412D02*
X14783991Y-15441984D01*
X14964944Y-15632460D02*
X14945896Y-15641984D01*
X14945896Y-15641984D02*
X14907801Y-15641984D01*
X14907801Y-15641984D02*
X14888753Y-15632460D01*
X14888753Y-15632460D02*
X14879230Y-15613412D01*
X14879230Y-15613412D02*
X14879230Y-15537222D01*
X14879230Y-15537222D02*
X14888753Y-15518174D01*
X14888753Y-15518174D02*
X14907801Y-15508650D01*
X14907801Y-15508650D02*
X14945896Y-15508650D01*
X14945896Y-15508650D02*
X14964944Y-15518174D01*
X14964944Y-15518174D02*
X14974468Y-15537222D01*
X14974468Y-15537222D02*
X14974468Y-15556269D01*
X14974468Y-15556269D02*
X14879230Y-15575317D01*
X15050658Y-15632460D02*
X15069706Y-15641984D01*
X15069706Y-15641984D02*
X15107801Y-15641984D01*
X15107801Y-15641984D02*
X15126849Y-15632460D01*
X15126849Y-15632460D02*
X15136372Y-15613412D01*
X15136372Y-15613412D02*
X15136372Y-15603888D01*
X15136372Y-15603888D02*
X15126849Y-15584841D01*
X15126849Y-15584841D02*
X15107801Y-15575317D01*
X15107801Y-15575317D02*
X15079230Y-15575317D01*
X15079230Y-15575317D02*
X15060182Y-15565793D01*
X15060182Y-15565793D02*
X15050658Y-15546746D01*
X15050658Y-15546746D02*
X15050658Y-15537222D01*
X15050658Y-15537222D02*
X15060182Y-15518174D01*
X15060182Y-15518174D02*
X15079230Y-15508650D01*
X15079230Y-15508650D02*
X15107801Y-15508650D01*
X15107801Y-15508650D02*
X15126849Y-15518174D01*
X15203039Y-15718174D02*
X15212563Y-15708650D01*
X15212563Y-15708650D02*
X15231611Y-15680079D01*
X15231611Y-15680079D02*
X15241134Y-15661031D01*
X15241134Y-15661031D02*
X15250658Y-15632460D01*
X15250658Y-15632460D02*
X15260182Y-15584841D01*
X15260182Y-15584841D02*
X15260182Y-15546746D01*
X15260182Y-15546746D02*
X15250658Y-15499127D01*
X15250658Y-15499127D02*
X15241134Y-15470555D01*
X15241134Y-15470555D02*
X15231611Y-15451508D01*
X15231611Y-15451508D02*
X15212563Y-15422936D01*
X15212563Y-15422936D02*
X15203039Y-15413412D01*
D12*
X10222856Y-15849856D02*
X10222856Y-15779144D01*
X10152144Y-15779144D01*
X10152144Y-15849856D01*
X10222856Y-15849856D01*
D11*
X10603039Y-15905984D02*
X10488753Y-15905984D01*
X10545896Y-15905984D02*
X10545896Y-15705984D01*
X10545896Y-15705984D02*
X10526848Y-15734555D01*
X10526848Y-15734555D02*
X10507801Y-15753603D01*
X10507801Y-15753603D02*
X10488753Y-15763127D01*
X10688753Y-15886936D02*
X10698277Y-15896460D01*
X10698277Y-15896460D02*
X10688753Y-15905984D01*
X10688753Y-15905984D02*
X10679229Y-15896460D01*
X10679229Y-15896460D02*
X10688753Y-15886936D01*
X10688753Y-15886936D02*
X10688753Y-15905984D01*
X10822086Y-15705984D02*
X10841134Y-15705984D01*
X10841134Y-15705984D02*
X10860182Y-15715508D01*
X10860182Y-15715508D02*
X10869705Y-15725031D01*
X10869705Y-15725031D02*
X10879229Y-15744079D01*
X10879229Y-15744079D02*
X10888753Y-15782174D01*
X10888753Y-15782174D02*
X10888753Y-15829793D01*
X10888753Y-15829793D02*
X10879229Y-15867888D01*
X10879229Y-15867888D02*
X10869705Y-15886936D01*
X10869705Y-15886936D02*
X10860182Y-15896460D01*
X10860182Y-15896460D02*
X10841134Y-15905984D01*
X10841134Y-15905984D02*
X10822086Y-15905984D01*
X10822086Y-15905984D02*
X10803039Y-15896460D01*
X10803039Y-15896460D02*
X10793515Y-15886936D01*
X10793515Y-15886936D02*
X10783991Y-15867888D01*
X10783991Y-15867888D02*
X10774467Y-15829793D01*
X10774467Y-15829793D02*
X10774467Y-15782174D01*
X10774467Y-15782174D02*
X10783991Y-15744079D01*
X10783991Y-15744079D02*
X10793515Y-15725031D01*
X10793515Y-15725031D02*
X10803039Y-15715508D01*
X10803039Y-15715508D02*
X10822086Y-15705984D01*
X11012563Y-15705984D02*
X11031610Y-15705984D01*
X11031610Y-15705984D02*
X11050658Y-15715508D01*
X11050658Y-15715508D02*
X11060182Y-15725031D01*
X11060182Y-15725031D02*
X11069705Y-15744079D01*
X11069705Y-15744079D02*
X11079229Y-15782174D01*
X11079229Y-15782174D02*
X11079229Y-15829793D01*
X11079229Y-15829793D02*
X11069705Y-15867888D01*
X11069705Y-15867888D02*
X11060182Y-15886936D01*
X11060182Y-15886936D02*
X11050658Y-15896460D01*
X11050658Y-15896460D02*
X11031610Y-15905984D01*
X11031610Y-15905984D02*
X11012563Y-15905984D01*
X11012563Y-15905984D02*
X10993515Y-15896460D01*
X10993515Y-15896460D02*
X10983991Y-15886936D01*
X10983991Y-15886936D02*
X10974467Y-15867888D01*
X10974467Y-15867888D02*
X10964944Y-15829793D01*
X10964944Y-15829793D02*
X10964944Y-15782174D01*
X10964944Y-15782174D02*
X10974467Y-15744079D01*
X10974467Y-15744079D02*
X10983991Y-15725031D01*
X10983991Y-15725031D02*
X10993515Y-15715508D01*
X10993515Y-15715508D02*
X11012563Y-15705984D01*
X11203039Y-15705984D02*
X11222086Y-15705984D01*
X11222086Y-15705984D02*
X11241134Y-15715508D01*
X11241134Y-15715508D02*
X11250658Y-15725031D01*
X11250658Y-15725031D02*
X11260182Y-15744079D01*
X11260182Y-15744079D02*
X11269705Y-15782174D01*
X11269705Y-15782174D02*
X11269705Y-15829793D01*
X11269705Y-15829793D02*
X11260182Y-15867888D01*
X11260182Y-15867888D02*
X11250658Y-15886936D01*
X11250658Y-15886936D02*
X11241134Y-15896460D01*
X11241134Y-15896460D02*
X11222086Y-15905984D01*
X11222086Y-15905984D02*
X11203039Y-15905984D01*
X11203039Y-15905984D02*
X11183991Y-15896460D01*
X11183991Y-15896460D02*
X11174467Y-15886936D01*
X11174467Y-15886936D02*
X11164944Y-15867888D01*
X11164944Y-15867888D02*
X11155420Y-15829793D01*
X11155420Y-15829793D02*
X11155420Y-15782174D01*
X11155420Y-15782174D02*
X11164944Y-15744079D01*
X11164944Y-15744079D02*
X11174467Y-15725031D01*
X11174467Y-15725031D02*
X11183991Y-15715508D01*
X11183991Y-15715508D02*
X11203039Y-15705984D01*
X11355420Y-15905984D02*
X11355420Y-15772650D01*
X11355420Y-15791698D02*
X11364943Y-15782174D01*
X11364943Y-15782174D02*
X11383991Y-15772650D01*
X11383991Y-15772650D02*
X11412563Y-15772650D01*
X11412563Y-15772650D02*
X11431610Y-15782174D01*
X11431610Y-15782174D02*
X11441134Y-15801222D01*
X11441134Y-15801222D02*
X11441134Y-15905984D01*
X11441134Y-15801222D02*
X11450658Y-15782174D01*
X11450658Y-15782174D02*
X11469705Y-15772650D01*
X11469705Y-15772650D02*
X11498277Y-15772650D01*
X11498277Y-15772650D02*
X11517324Y-15782174D01*
X11517324Y-15782174D02*
X11526848Y-15801222D01*
X11526848Y-15801222D02*
X11526848Y-15905984D01*
X11622086Y-15905984D02*
X11622086Y-15772650D01*
X11622086Y-15791698D02*
X11631610Y-15782174D01*
X11631610Y-15782174D02*
X11650658Y-15772650D01*
X11650658Y-15772650D02*
X11679229Y-15772650D01*
X11679229Y-15772650D02*
X11698277Y-15782174D01*
X11698277Y-15782174D02*
X11707801Y-15801222D01*
X11707801Y-15801222D02*
X11707801Y-15905984D01*
X11707801Y-15801222D02*
X11717324Y-15782174D01*
X11717324Y-15782174D02*
X11736372Y-15772650D01*
X11736372Y-15772650D02*
X11764943Y-15772650D01*
X11764943Y-15772650D02*
X11783991Y-15782174D01*
X11783991Y-15782174D02*
X11793515Y-15801222D01*
X11793515Y-15801222D02*
X11793515Y-15905984D01*
X12183991Y-15696460D02*
X12012563Y-15953603D01*
X12441134Y-15705984D02*
X12460182Y-15705984D01*
X12460182Y-15705984D02*
X12479229Y-15715508D01*
X12479229Y-15715508D02*
X12488753Y-15725031D01*
X12488753Y-15725031D02*
X12498277Y-15744079D01*
X12498277Y-15744079D02*
X12507801Y-15782174D01*
X12507801Y-15782174D02*
X12507801Y-15829793D01*
X12507801Y-15829793D02*
X12498277Y-15867888D01*
X12498277Y-15867888D02*
X12488753Y-15886936D01*
X12488753Y-15886936D02*
X12479229Y-15896460D01*
X12479229Y-15896460D02*
X12460182Y-15905984D01*
X12460182Y-15905984D02*
X12441134Y-15905984D01*
X12441134Y-15905984D02*
X12422086Y-15896460D01*
X12422086Y-15896460D02*
X12412563Y-15886936D01*
X12412563Y-15886936D02*
X12403039Y-15867888D01*
X12403039Y-15867888D02*
X12393515Y-15829793D01*
X12393515Y-15829793D02*
X12393515Y-15782174D01*
X12393515Y-15782174D02*
X12403039Y-15744079D01*
X12403039Y-15744079D02*
X12412563Y-15725031D01*
X12412563Y-15725031D02*
X12422086Y-15715508D01*
X12422086Y-15715508D02*
X12441134Y-15705984D01*
X12593515Y-15886936D02*
X12603039Y-15896460D01*
X12603039Y-15896460D02*
X12593515Y-15905984D01*
X12593515Y-15905984D02*
X12583991Y-15896460D01*
X12583991Y-15896460D02*
X12593515Y-15886936D01*
X12593515Y-15886936D02*
X12593515Y-15905984D01*
X12726848Y-15705984D02*
X12745896Y-15705984D01*
X12745896Y-15705984D02*
X12764944Y-15715508D01*
X12764944Y-15715508D02*
X12774467Y-15725031D01*
X12774467Y-15725031D02*
X12783991Y-15744079D01*
X12783991Y-15744079D02*
X12793515Y-15782174D01*
X12793515Y-15782174D02*
X12793515Y-15829793D01*
X12793515Y-15829793D02*
X12783991Y-15867888D01*
X12783991Y-15867888D02*
X12774467Y-15886936D01*
X12774467Y-15886936D02*
X12764944Y-15896460D01*
X12764944Y-15896460D02*
X12745896Y-15905984D01*
X12745896Y-15905984D02*
X12726848Y-15905984D01*
X12726848Y-15905984D02*
X12707801Y-15896460D01*
X12707801Y-15896460D02*
X12698277Y-15886936D01*
X12698277Y-15886936D02*
X12688753Y-15867888D01*
X12688753Y-15867888D02*
X12679229Y-15829793D01*
X12679229Y-15829793D02*
X12679229Y-15782174D01*
X12679229Y-15782174D02*
X12688753Y-15744079D01*
X12688753Y-15744079D02*
X12698277Y-15725031D01*
X12698277Y-15725031D02*
X12707801Y-15715508D01*
X12707801Y-15715508D02*
X12726848Y-15705984D01*
X12860182Y-15705984D02*
X12983991Y-15705984D01*
X12983991Y-15705984D02*
X12917325Y-15782174D01*
X12917325Y-15782174D02*
X12945896Y-15782174D01*
X12945896Y-15782174D02*
X12964944Y-15791698D01*
X12964944Y-15791698D02*
X12974467Y-15801222D01*
X12974467Y-15801222D02*
X12983991Y-15820269D01*
X12983991Y-15820269D02*
X12983991Y-15867888D01*
X12983991Y-15867888D02*
X12974467Y-15886936D01*
X12974467Y-15886936D02*
X12964944Y-15896460D01*
X12964944Y-15896460D02*
X12945896Y-15905984D01*
X12945896Y-15905984D02*
X12888753Y-15905984D01*
X12888753Y-15905984D02*
X12869706Y-15896460D01*
X12869706Y-15896460D02*
X12860182Y-15886936D01*
X13079229Y-15905984D02*
X13117325Y-15905984D01*
X13117325Y-15905984D02*
X13136372Y-15896460D01*
X13136372Y-15896460D02*
X13145896Y-15886936D01*
X13145896Y-15886936D02*
X13164944Y-15858365D01*
X13164944Y-15858365D02*
X13174467Y-15820269D01*
X13174467Y-15820269D02*
X13174467Y-15744079D01*
X13174467Y-15744079D02*
X13164944Y-15725031D01*
X13164944Y-15725031D02*
X13155420Y-15715508D01*
X13155420Y-15715508D02*
X13136372Y-15705984D01*
X13136372Y-15705984D02*
X13098277Y-15705984D01*
X13098277Y-15705984D02*
X13079229Y-15715508D01*
X13079229Y-15715508D02*
X13069706Y-15725031D01*
X13069706Y-15725031D02*
X13060182Y-15744079D01*
X13060182Y-15744079D02*
X13060182Y-15791698D01*
X13060182Y-15791698D02*
X13069706Y-15810746D01*
X13069706Y-15810746D02*
X13079229Y-15820269D01*
X13079229Y-15820269D02*
X13098277Y-15829793D01*
X13098277Y-15829793D02*
X13136372Y-15829793D01*
X13136372Y-15829793D02*
X13155420Y-15820269D01*
X13155420Y-15820269D02*
X13164944Y-15810746D01*
X13164944Y-15810746D02*
X13174467Y-15791698D01*
X13345896Y-15772650D02*
X13345896Y-15905984D01*
X13298277Y-15696460D02*
X13250658Y-15839317D01*
X13250658Y-15839317D02*
X13374467Y-15839317D01*
X13441134Y-15705984D02*
X13441134Y-15744079D01*
X13517325Y-15705984D02*
X13517325Y-15744079D01*
X13812563Y-15982174D02*
X13803039Y-15972650D01*
X13803039Y-15972650D02*
X13783991Y-15944079D01*
X13783991Y-15944079D02*
X13774468Y-15925031D01*
X13774468Y-15925031D02*
X13764944Y-15896460D01*
X13764944Y-15896460D02*
X13755420Y-15848841D01*
X13755420Y-15848841D02*
X13755420Y-15810746D01*
X13755420Y-15810746D02*
X13764944Y-15763127D01*
X13764944Y-15763127D02*
X13774468Y-15734555D01*
X13774468Y-15734555D02*
X13783991Y-15715508D01*
X13783991Y-15715508D02*
X13803039Y-15686936D01*
X13803039Y-15686936D02*
X13812563Y-15677412D01*
X13974468Y-15772650D02*
X13974468Y-15905984D01*
X13926848Y-15696460D02*
X13879229Y-15839317D01*
X13879229Y-15839317D02*
X14003039Y-15839317D01*
X14117325Y-15705984D02*
X14136372Y-15705984D01*
X14136372Y-15705984D02*
X14155420Y-15715508D01*
X14155420Y-15715508D02*
X14164944Y-15725031D01*
X14164944Y-15725031D02*
X14174468Y-15744079D01*
X14174468Y-15744079D02*
X14183991Y-15782174D01*
X14183991Y-15782174D02*
X14183991Y-15829793D01*
X14183991Y-15829793D02*
X14174468Y-15867888D01*
X14174468Y-15867888D02*
X14164944Y-15886936D01*
X14164944Y-15886936D02*
X14155420Y-15896460D01*
X14155420Y-15896460D02*
X14136372Y-15905984D01*
X14136372Y-15905984D02*
X14117325Y-15905984D01*
X14117325Y-15905984D02*
X14098277Y-15896460D01*
X14098277Y-15896460D02*
X14088753Y-15886936D01*
X14088753Y-15886936D02*
X14079229Y-15867888D01*
X14079229Y-15867888D02*
X14069706Y-15829793D01*
X14069706Y-15829793D02*
X14069706Y-15782174D01*
X14069706Y-15782174D02*
X14079229Y-15744079D01*
X14079229Y-15744079D02*
X14088753Y-15725031D01*
X14088753Y-15725031D02*
X14098277Y-15715508D01*
X14098277Y-15715508D02*
X14117325Y-15705984D01*
X14422087Y-15905984D02*
X14422087Y-15705984D01*
X14507801Y-15905984D02*
X14507801Y-15801222D01*
X14507801Y-15801222D02*
X14498277Y-15782174D01*
X14498277Y-15782174D02*
X14479230Y-15772650D01*
X14479230Y-15772650D02*
X14450658Y-15772650D01*
X14450658Y-15772650D02*
X14431610Y-15782174D01*
X14431610Y-15782174D02*
X14422087Y-15791698D01*
X14631610Y-15905984D02*
X14612563Y-15896460D01*
X14612563Y-15896460D02*
X14603039Y-15886936D01*
X14603039Y-15886936D02*
X14593515Y-15867888D01*
X14593515Y-15867888D02*
X14593515Y-15810746D01*
X14593515Y-15810746D02*
X14603039Y-15791698D01*
X14603039Y-15791698D02*
X14612563Y-15782174D01*
X14612563Y-15782174D02*
X14631610Y-15772650D01*
X14631610Y-15772650D02*
X14660182Y-15772650D01*
X14660182Y-15772650D02*
X14679230Y-15782174D01*
X14679230Y-15782174D02*
X14688753Y-15791698D01*
X14688753Y-15791698D02*
X14698277Y-15810746D01*
X14698277Y-15810746D02*
X14698277Y-15867888D01*
X14698277Y-15867888D02*
X14688753Y-15886936D01*
X14688753Y-15886936D02*
X14679230Y-15896460D01*
X14679230Y-15896460D02*
X14660182Y-15905984D01*
X14660182Y-15905984D02*
X14631610Y-15905984D01*
X14812563Y-15905984D02*
X14793515Y-15896460D01*
X14793515Y-15896460D02*
X14783991Y-15877412D01*
X14783991Y-15877412D02*
X14783991Y-15705984D01*
X14964944Y-15896460D02*
X14945896Y-15905984D01*
X14945896Y-15905984D02*
X14907801Y-15905984D01*
X14907801Y-15905984D02*
X14888753Y-15896460D01*
X14888753Y-15896460D02*
X14879230Y-15877412D01*
X14879230Y-15877412D02*
X14879230Y-15801222D01*
X14879230Y-15801222D02*
X14888753Y-15782174D01*
X14888753Y-15782174D02*
X14907801Y-15772650D01*
X14907801Y-15772650D02*
X14945896Y-15772650D01*
X14945896Y-15772650D02*
X14964944Y-15782174D01*
X14964944Y-15782174D02*
X14974468Y-15801222D01*
X14974468Y-15801222D02*
X14974468Y-15820269D01*
X14974468Y-15820269D02*
X14879230Y-15839317D01*
X15050658Y-15896460D02*
X15069706Y-15905984D01*
X15069706Y-15905984D02*
X15107801Y-15905984D01*
X15107801Y-15905984D02*
X15126849Y-15896460D01*
X15126849Y-15896460D02*
X15136372Y-15877412D01*
X15136372Y-15877412D02*
X15136372Y-15867888D01*
X15136372Y-15867888D02*
X15126849Y-15848841D01*
X15126849Y-15848841D02*
X15107801Y-15839317D01*
X15107801Y-15839317D02*
X15079230Y-15839317D01*
X15079230Y-15839317D02*
X15060182Y-15829793D01*
X15060182Y-15829793D02*
X15050658Y-15810746D01*
X15050658Y-15810746D02*
X15050658Y-15801222D01*
X15050658Y-15801222D02*
X15060182Y-15782174D01*
X15060182Y-15782174D02*
X15079230Y-15772650D01*
X15079230Y-15772650D02*
X15107801Y-15772650D01*
X15107801Y-15772650D02*
X15126849Y-15782174D01*
X15203039Y-15982174D02*
X15212563Y-15972650D01*
X15212563Y-15972650D02*
X15231611Y-15944079D01*
X15231611Y-15944079D02*
X15241134Y-15925031D01*
X15241134Y-15925031D02*
X15250658Y-15896460D01*
X15250658Y-15896460D02*
X15260182Y-15848841D01*
X15260182Y-15848841D02*
X15260182Y-15810746D01*
X15260182Y-15810746D02*
X15250658Y-15763127D01*
X15250658Y-15763127D02*
X15241134Y-15734555D01*
X15241134Y-15734555D02*
X15231611Y-15715508D01*
X15231611Y-15715508D02*
X15212563Y-15686936D01*
X15212563Y-15686936D02*
X15203039Y-15677412D01*
D13*
X10176500Y-16139500D02*
X10237500Y-16078500D01*
X10176500Y-16017500D01*
X10115500Y-16078500D01*
X10176500Y-16139500D01*
D11*
X10603039Y-16169984D02*
X10488753Y-16169984D01*
X10545896Y-16169984D02*
X10545896Y-15969984D01*
X10545896Y-15969984D02*
X10526848Y-15998555D01*
X10526848Y-15998555D02*
X10507801Y-16017603D01*
X10507801Y-16017603D02*
X10488753Y-16027127D01*
X10688753Y-16150936D02*
X10698277Y-16160460D01*
X10698277Y-16160460D02*
X10688753Y-16169984D01*
X10688753Y-16169984D02*
X10679229Y-16160460D01*
X10679229Y-16160460D02*
X10688753Y-16150936D01*
X10688753Y-16150936D02*
X10688753Y-16169984D01*
X10774467Y-15989031D02*
X10783991Y-15979508D01*
X10783991Y-15979508D02*
X10803039Y-15969984D01*
X10803039Y-15969984D02*
X10850658Y-15969984D01*
X10850658Y-15969984D02*
X10869705Y-15979508D01*
X10869705Y-15979508D02*
X10879229Y-15989031D01*
X10879229Y-15989031D02*
X10888753Y-16008079D01*
X10888753Y-16008079D02*
X10888753Y-16027127D01*
X10888753Y-16027127D02*
X10879229Y-16055698D01*
X10879229Y-16055698D02*
X10764944Y-16169984D01*
X10764944Y-16169984D02*
X10888753Y-16169984D01*
X10964944Y-15989031D02*
X10974467Y-15979508D01*
X10974467Y-15979508D02*
X10993515Y-15969984D01*
X10993515Y-15969984D02*
X11041134Y-15969984D01*
X11041134Y-15969984D02*
X11060182Y-15979508D01*
X11060182Y-15979508D02*
X11069705Y-15989031D01*
X11069705Y-15989031D02*
X11079229Y-16008079D01*
X11079229Y-16008079D02*
X11079229Y-16027127D01*
X11079229Y-16027127D02*
X11069705Y-16055698D01*
X11069705Y-16055698D02*
X10955420Y-16169984D01*
X10955420Y-16169984D02*
X11079229Y-16169984D01*
X11203039Y-15969984D02*
X11222086Y-15969984D01*
X11222086Y-15969984D02*
X11241134Y-15979508D01*
X11241134Y-15979508D02*
X11250658Y-15989031D01*
X11250658Y-15989031D02*
X11260182Y-16008079D01*
X11260182Y-16008079D02*
X11269705Y-16046174D01*
X11269705Y-16046174D02*
X11269705Y-16093793D01*
X11269705Y-16093793D02*
X11260182Y-16131888D01*
X11260182Y-16131888D02*
X11250658Y-16150936D01*
X11250658Y-16150936D02*
X11241134Y-16160460D01*
X11241134Y-16160460D02*
X11222086Y-16169984D01*
X11222086Y-16169984D02*
X11203039Y-16169984D01*
X11203039Y-16169984D02*
X11183991Y-16160460D01*
X11183991Y-16160460D02*
X11174467Y-16150936D01*
X11174467Y-16150936D02*
X11164944Y-16131888D01*
X11164944Y-16131888D02*
X11155420Y-16093793D01*
X11155420Y-16093793D02*
X11155420Y-16046174D01*
X11155420Y-16046174D02*
X11164944Y-16008079D01*
X11164944Y-16008079D02*
X11174467Y-15989031D01*
X11174467Y-15989031D02*
X11183991Y-15979508D01*
X11183991Y-15979508D02*
X11203039Y-15969984D01*
X11355420Y-16169984D02*
X11355420Y-16036650D01*
X11355420Y-16055698D02*
X11364943Y-16046174D01*
X11364943Y-16046174D02*
X11383991Y-16036650D01*
X11383991Y-16036650D02*
X11412563Y-16036650D01*
X11412563Y-16036650D02*
X11431610Y-16046174D01*
X11431610Y-16046174D02*
X11441134Y-16065222D01*
X11441134Y-16065222D02*
X11441134Y-16169984D01*
X11441134Y-16065222D02*
X11450658Y-16046174D01*
X11450658Y-16046174D02*
X11469705Y-16036650D01*
X11469705Y-16036650D02*
X11498277Y-16036650D01*
X11498277Y-16036650D02*
X11517324Y-16046174D01*
X11517324Y-16046174D02*
X11526848Y-16065222D01*
X11526848Y-16065222D02*
X11526848Y-16169984D01*
X11622086Y-16169984D02*
X11622086Y-16036650D01*
X11622086Y-16055698D02*
X11631610Y-16046174D01*
X11631610Y-16046174D02*
X11650658Y-16036650D01*
X11650658Y-16036650D02*
X11679229Y-16036650D01*
X11679229Y-16036650D02*
X11698277Y-16046174D01*
X11698277Y-16046174D02*
X11707801Y-16065222D01*
X11707801Y-16065222D02*
X11707801Y-16169984D01*
X11707801Y-16065222D02*
X11717324Y-16046174D01*
X11717324Y-16046174D02*
X11736372Y-16036650D01*
X11736372Y-16036650D02*
X11764943Y-16036650D01*
X11764943Y-16036650D02*
X11783991Y-16046174D01*
X11783991Y-16046174D02*
X11793515Y-16065222D01*
X11793515Y-16065222D02*
X11793515Y-16169984D01*
X12183991Y-15960460D02*
X12012563Y-16217603D01*
X12441134Y-15969984D02*
X12460182Y-15969984D01*
X12460182Y-15969984D02*
X12479229Y-15979508D01*
X12479229Y-15979508D02*
X12488753Y-15989031D01*
X12488753Y-15989031D02*
X12498277Y-16008079D01*
X12498277Y-16008079D02*
X12507801Y-16046174D01*
X12507801Y-16046174D02*
X12507801Y-16093793D01*
X12507801Y-16093793D02*
X12498277Y-16131888D01*
X12498277Y-16131888D02*
X12488753Y-16150936D01*
X12488753Y-16150936D02*
X12479229Y-16160460D01*
X12479229Y-16160460D02*
X12460182Y-16169984D01*
X12460182Y-16169984D02*
X12441134Y-16169984D01*
X12441134Y-16169984D02*
X12422086Y-16160460D01*
X12422086Y-16160460D02*
X12412563Y-16150936D01*
X12412563Y-16150936D02*
X12403039Y-16131888D01*
X12403039Y-16131888D02*
X12393515Y-16093793D01*
X12393515Y-16093793D02*
X12393515Y-16046174D01*
X12393515Y-16046174D02*
X12403039Y-16008079D01*
X12403039Y-16008079D02*
X12412563Y-15989031D01*
X12412563Y-15989031D02*
X12422086Y-15979508D01*
X12422086Y-15979508D02*
X12441134Y-15969984D01*
X12593515Y-16150936D02*
X12603039Y-16160460D01*
X12603039Y-16160460D02*
X12593515Y-16169984D01*
X12593515Y-16169984D02*
X12583991Y-16160460D01*
X12583991Y-16160460D02*
X12593515Y-16150936D01*
X12593515Y-16150936D02*
X12593515Y-16169984D01*
X12726848Y-15969984D02*
X12745896Y-15969984D01*
X12745896Y-15969984D02*
X12764944Y-15979508D01*
X12764944Y-15979508D02*
X12774467Y-15989031D01*
X12774467Y-15989031D02*
X12783991Y-16008079D01*
X12783991Y-16008079D02*
X12793515Y-16046174D01*
X12793515Y-16046174D02*
X12793515Y-16093793D01*
X12793515Y-16093793D02*
X12783991Y-16131888D01*
X12783991Y-16131888D02*
X12774467Y-16150936D01*
X12774467Y-16150936D02*
X12764944Y-16160460D01*
X12764944Y-16160460D02*
X12745896Y-16169984D01*
X12745896Y-16169984D02*
X12726848Y-16169984D01*
X12726848Y-16169984D02*
X12707801Y-16160460D01*
X12707801Y-16160460D02*
X12698277Y-16150936D01*
X12698277Y-16150936D02*
X12688753Y-16131888D01*
X12688753Y-16131888D02*
X12679229Y-16093793D01*
X12679229Y-16093793D02*
X12679229Y-16046174D01*
X12679229Y-16046174D02*
X12688753Y-16008079D01*
X12688753Y-16008079D02*
X12698277Y-15989031D01*
X12698277Y-15989031D02*
X12707801Y-15979508D01*
X12707801Y-15979508D02*
X12726848Y-15969984D01*
X12964944Y-16036650D02*
X12964944Y-16169984D01*
X12917325Y-15960460D02*
X12869706Y-16103317D01*
X12869706Y-16103317D02*
X12993515Y-16103317D01*
X13098277Y-16055698D02*
X13079229Y-16046174D01*
X13079229Y-16046174D02*
X13069706Y-16036650D01*
X13069706Y-16036650D02*
X13060182Y-16017603D01*
X13060182Y-16017603D02*
X13060182Y-16008079D01*
X13060182Y-16008079D02*
X13069706Y-15989031D01*
X13069706Y-15989031D02*
X13079229Y-15979508D01*
X13079229Y-15979508D02*
X13098277Y-15969984D01*
X13098277Y-15969984D02*
X13136372Y-15969984D01*
X13136372Y-15969984D02*
X13155420Y-15979508D01*
X13155420Y-15979508D02*
X13164944Y-15989031D01*
X13164944Y-15989031D02*
X13174467Y-16008079D01*
X13174467Y-16008079D02*
X13174467Y-16017603D01*
X13174467Y-16017603D02*
X13164944Y-16036650D01*
X13164944Y-16036650D02*
X13155420Y-16046174D01*
X13155420Y-16046174D02*
X13136372Y-16055698D01*
X13136372Y-16055698D02*
X13098277Y-16055698D01*
X13098277Y-16055698D02*
X13079229Y-16065222D01*
X13079229Y-16065222D02*
X13069706Y-16074746D01*
X13069706Y-16074746D02*
X13060182Y-16093793D01*
X13060182Y-16093793D02*
X13060182Y-16131888D01*
X13060182Y-16131888D02*
X13069706Y-16150936D01*
X13069706Y-16150936D02*
X13079229Y-16160460D01*
X13079229Y-16160460D02*
X13098277Y-16169984D01*
X13098277Y-16169984D02*
X13136372Y-16169984D01*
X13136372Y-16169984D02*
X13155420Y-16160460D01*
X13155420Y-16160460D02*
X13164944Y-16150936D01*
X13164944Y-16150936D02*
X13174467Y-16131888D01*
X13174467Y-16131888D02*
X13174467Y-16093793D01*
X13174467Y-16093793D02*
X13164944Y-16074746D01*
X13164944Y-16074746D02*
X13155420Y-16065222D01*
X13155420Y-16065222D02*
X13136372Y-16055698D01*
X13298277Y-15969984D02*
X13317325Y-15969984D01*
X13317325Y-15969984D02*
X13336372Y-15979508D01*
X13336372Y-15979508D02*
X13345896Y-15989031D01*
X13345896Y-15989031D02*
X13355420Y-16008079D01*
X13355420Y-16008079D02*
X13364944Y-16046174D01*
X13364944Y-16046174D02*
X13364944Y-16093793D01*
X13364944Y-16093793D02*
X13355420Y-16131888D01*
X13355420Y-16131888D02*
X13345896Y-16150936D01*
X13345896Y-16150936D02*
X13336372Y-16160460D01*
X13336372Y-16160460D02*
X13317325Y-16169984D01*
X13317325Y-16169984D02*
X13298277Y-16169984D01*
X13298277Y-16169984D02*
X13279229Y-16160460D01*
X13279229Y-16160460D02*
X13269706Y-16150936D01*
X13269706Y-16150936D02*
X13260182Y-16131888D01*
X13260182Y-16131888D02*
X13250658Y-16093793D01*
X13250658Y-16093793D02*
X13250658Y-16046174D01*
X13250658Y-16046174D02*
X13260182Y-16008079D01*
X13260182Y-16008079D02*
X13269706Y-15989031D01*
X13269706Y-15989031D02*
X13279229Y-15979508D01*
X13279229Y-15979508D02*
X13298277Y-15969984D01*
X13441134Y-15969984D02*
X13441134Y-16008079D01*
X13517325Y-15969984D02*
X13517325Y-16008079D01*
X13812563Y-16246174D02*
X13803039Y-16236650D01*
X13803039Y-16236650D02*
X13783991Y-16208079D01*
X13783991Y-16208079D02*
X13774468Y-16189031D01*
X13774468Y-16189031D02*
X13764944Y-16160460D01*
X13764944Y-16160460D02*
X13755420Y-16112841D01*
X13755420Y-16112841D02*
X13755420Y-16074746D01*
X13755420Y-16074746D02*
X13764944Y-16027127D01*
X13764944Y-16027127D02*
X13774468Y-15998555D01*
X13774468Y-15998555D02*
X13783991Y-15979508D01*
X13783991Y-15979508D02*
X13803039Y-15950936D01*
X13803039Y-15950936D02*
X13812563Y-15941412D01*
X13993515Y-16169984D02*
X13879229Y-16169984D01*
X13936372Y-16169984D02*
X13936372Y-15969984D01*
X13936372Y-15969984D02*
X13917325Y-15998555D01*
X13917325Y-15998555D02*
X13898277Y-16017603D01*
X13898277Y-16017603D02*
X13879229Y-16027127D01*
X14069706Y-15989031D02*
X14079229Y-15979508D01*
X14079229Y-15979508D02*
X14098277Y-15969984D01*
X14098277Y-15969984D02*
X14145896Y-15969984D01*
X14145896Y-15969984D02*
X14164944Y-15979508D01*
X14164944Y-15979508D02*
X14174468Y-15989031D01*
X14174468Y-15989031D02*
X14183991Y-16008079D01*
X14183991Y-16008079D02*
X14183991Y-16027127D01*
X14183991Y-16027127D02*
X14174468Y-16055698D01*
X14174468Y-16055698D02*
X14060182Y-16169984D01*
X14060182Y-16169984D02*
X14183991Y-16169984D01*
X14422087Y-16169984D02*
X14422087Y-15969984D01*
X14507801Y-16169984D02*
X14507801Y-16065222D01*
X14507801Y-16065222D02*
X14498277Y-16046174D01*
X14498277Y-16046174D02*
X14479230Y-16036650D01*
X14479230Y-16036650D02*
X14450658Y-16036650D01*
X14450658Y-16036650D02*
X14431610Y-16046174D01*
X14431610Y-16046174D02*
X14422087Y-16055698D01*
X14631610Y-16169984D02*
X14612563Y-16160460D01*
X14612563Y-16160460D02*
X14603039Y-16150936D01*
X14603039Y-16150936D02*
X14593515Y-16131888D01*
X14593515Y-16131888D02*
X14593515Y-16074746D01*
X14593515Y-16074746D02*
X14603039Y-16055698D01*
X14603039Y-16055698D02*
X14612563Y-16046174D01*
X14612563Y-16046174D02*
X14631610Y-16036650D01*
X14631610Y-16036650D02*
X14660182Y-16036650D01*
X14660182Y-16036650D02*
X14679230Y-16046174D01*
X14679230Y-16046174D02*
X14688753Y-16055698D01*
X14688753Y-16055698D02*
X14698277Y-16074746D01*
X14698277Y-16074746D02*
X14698277Y-16131888D01*
X14698277Y-16131888D02*
X14688753Y-16150936D01*
X14688753Y-16150936D02*
X14679230Y-16160460D01*
X14679230Y-16160460D02*
X14660182Y-16169984D01*
X14660182Y-16169984D02*
X14631610Y-16169984D01*
X14812563Y-16169984D02*
X14793515Y-16160460D01*
X14793515Y-16160460D02*
X14783991Y-16141412D01*
X14783991Y-16141412D02*
X14783991Y-15969984D01*
X14964944Y-16160460D02*
X14945896Y-16169984D01*
X14945896Y-16169984D02*
X14907801Y-16169984D01*
X14907801Y-16169984D02*
X14888753Y-16160460D01*
X14888753Y-16160460D02*
X14879230Y-16141412D01*
X14879230Y-16141412D02*
X14879230Y-16065222D01*
X14879230Y-16065222D02*
X14888753Y-16046174D01*
X14888753Y-16046174D02*
X14907801Y-16036650D01*
X14907801Y-16036650D02*
X14945896Y-16036650D01*
X14945896Y-16036650D02*
X14964944Y-16046174D01*
X14964944Y-16046174D02*
X14974468Y-16065222D01*
X14974468Y-16065222D02*
X14974468Y-16084269D01*
X14974468Y-16084269D02*
X14879230Y-16103317D01*
X15050658Y-16160460D02*
X15069706Y-16169984D01*
X15069706Y-16169984D02*
X15107801Y-16169984D01*
X15107801Y-16169984D02*
X15126849Y-16160460D01*
X15126849Y-16160460D02*
X15136372Y-16141412D01*
X15136372Y-16141412D02*
X15136372Y-16131888D01*
X15136372Y-16131888D02*
X15126849Y-16112841D01*
X15126849Y-16112841D02*
X15107801Y-16103317D01*
X15107801Y-16103317D02*
X15079230Y-16103317D01*
X15079230Y-16103317D02*
X15060182Y-16093793D01*
X15060182Y-16093793D02*
X15050658Y-16074746D01*
X15050658Y-16074746D02*
X15050658Y-16065222D01*
X15050658Y-16065222D02*
X15060182Y-16046174D01*
X15060182Y-16046174D02*
X15079230Y-16036650D01*
X15079230Y-16036650D02*
X15107801Y-16036650D01*
X15107801Y-16036650D02*
X15126849Y-16046174D01*
X15203039Y-16246174D02*
X15212563Y-16236650D01*
X15212563Y-16236650D02*
X15231611Y-16208079D01*
X15231611Y-16208079D02*
X15241134Y-16189031D01*
X15241134Y-16189031D02*
X15250658Y-16160460D01*
X15250658Y-16160460D02*
X15260182Y-16112841D01*
X15260182Y-16112841D02*
X15260182Y-16074746D01*
X15260182Y-16074746D02*
X15250658Y-16027127D01*
X15250658Y-16027127D02*
X15241134Y-15998555D01*
X15241134Y-15998555D02*
X15231611Y-15979508D01*
X15231611Y-15979508D02*
X15212563Y-15950936D01*
X15212563Y-15950936D02*
X15203039Y-15941412D01*
D14*
X10095500Y-16271500D02*
X10237500Y-16413500D01*
X10237500Y-16271500D02*
X10095500Y-16413500D01*
X10237500Y-16342500D02*
G75*
G02*
X10095500Y-16342500I-71000J0D01*
G01*
X10095500Y-16342500D02*
G75*
G02*
X10237500Y-16342500I71000J0D01*
G01*
D11*
X10603039Y-16433984D02*
X10488753Y-16433984D01*
X10545896Y-16433984D02*
X10545896Y-16233984D01*
X10545896Y-16233984D02*
X10526848Y-16262555D01*
X10526848Y-16262555D02*
X10507801Y-16281603D01*
X10507801Y-16281603D02*
X10488753Y-16291127D01*
X10688753Y-16414936D02*
X10698277Y-16424460D01*
X10698277Y-16424460D02*
X10688753Y-16433984D01*
X10688753Y-16433984D02*
X10679229Y-16424460D01*
X10679229Y-16424460D02*
X10688753Y-16414936D01*
X10688753Y-16414936D02*
X10688753Y-16433984D01*
X10869705Y-16300650D02*
X10869705Y-16433984D01*
X10822086Y-16224460D02*
X10774467Y-16367317D01*
X10774467Y-16367317D02*
X10898277Y-16367317D01*
X10964944Y-16253031D02*
X10974467Y-16243508D01*
X10974467Y-16243508D02*
X10993515Y-16233984D01*
X10993515Y-16233984D02*
X11041134Y-16233984D01*
X11041134Y-16233984D02*
X11060182Y-16243508D01*
X11060182Y-16243508D02*
X11069705Y-16253031D01*
X11069705Y-16253031D02*
X11079229Y-16272079D01*
X11079229Y-16272079D02*
X11079229Y-16291127D01*
X11079229Y-16291127D02*
X11069705Y-16319698D01*
X11069705Y-16319698D02*
X10955420Y-16433984D01*
X10955420Y-16433984D02*
X11079229Y-16433984D01*
X11203039Y-16233984D02*
X11222086Y-16233984D01*
X11222086Y-16233984D02*
X11241134Y-16243508D01*
X11241134Y-16243508D02*
X11250658Y-16253031D01*
X11250658Y-16253031D02*
X11260182Y-16272079D01*
X11260182Y-16272079D02*
X11269705Y-16310174D01*
X11269705Y-16310174D02*
X11269705Y-16357793D01*
X11269705Y-16357793D02*
X11260182Y-16395888D01*
X11260182Y-16395888D02*
X11250658Y-16414936D01*
X11250658Y-16414936D02*
X11241134Y-16424460D01*
X11241134Y-16424460D02*
X11222086Y-16433984D01*
X11222086Y-16433984D02*
X11203039Y-16433984D01*
X11203039Y-16433984D02*
X11183991Y-16424460D01*
X11183991Y-16424460D02*
X11174467Y-16414936D01*
X11174467Y-16414936D02*
X11164944Y-16395888D01*
X11164944Y-16395888D02*
X11155420Y-16357793D01*
X11155420Y-16357793D02*
X11155420Y-16310174D01*
X11155420Y-16310174D02*
X11164944Y-16272079D01*
X11164944Y-16272079D02*
X11174467Y-16253031D01*
X11174467Y-16253031D02*
X11183991Y-16243508D01*
X11183991Y-16243508D02*
X11203039Y-16233984D01*
X11355420Y-16433984D02*
X11355420Y-16300650D01*
X11355420Y-16319698D02*
X11364943Y-16310174D01*
X11364943Y-16310174D02*
X11383991Y-16300650D01*
X11383991Y-16300650D02*
X11412563Y-16300650D01*
X11412563Y-16300650D02*
X11431610Y-16310174D01*
X11431610Y-16310174D02*
X11441134Y-16329222D01*
X11441134Y-16329222D02*
X11441134Y-16433984D01*
X11441134Y-16329222D02*
X11450658Y-16310174D01*
X11450658Y-16310174D02*
X11469705Y-16300650D01*
X11469705Y-16300650D02*
X11498277Y-16300650D01*
X11498277Y-16300650D02*
X11517324Y-16310174D01*
X11517324Y-16310174D02*
X11526848Y-16329222D01*
X11526848Y-16329222D02*
X11526848Y-16433984D01*
X11622086Y-16433984D02*
X11622086Y-16300650D01*
X11622086Y-16319698D02*
X11631610Y-16310174D01*
X11631610Y-16310174D02*
X11650658Y-16300650D01*
X11650658Y-16300650D02*
X11679229Y-16300650D01*
X11679229Y-16300650D02*
X11698277Y-16310174D01*
X11698277Y-16310174D02*
X11707801Y-16329222D01*
X11707801Y-16329222D02*
X11707801Y-16433984D01*
X11707801Y-16329222D02*
X11717324Y-16310174D01*
X11717324Y-16310174D02*
X11736372Y-16300650D01*
X11736372Y-16300650D02*
X11764943Y-16300650D01*
X11764943Y-16300650D02*
X11783991Y-16310174D01*
X11783991Y-16310174D02*
X11793515Y-16329222D01*
X11793515Y-16329222D02*
X11793515Y-16433984D01*
X12183991Y-16224460D02*
X12012563Y-16481603D01*
X12441134Y-16233984D02*
X12460182Y-16233984D01*
X12460182Y-16233984D02*
X12479229Y-16243508D01*
X12479229Y-16243508D02*
X12488753Y-16253031D01*
X12488753Y-16253031D02*
X12498277Y-16272079D01*
X12498277Y-16272079D02*
X12507801Y-16310174D01*
X12507801Y-16310174D02*
X12507801Y-16357793D01*
X12507801Y-16357793D02*
X12498277Y-16395888D01*
X12498277Y-16395888D02*
X12488753Y-16414936D01*
X12488753Y-16414936D02*
X12479229Y-16424460D01*
X12479229Y-16424460D02*
X12460182Y-16433984D01*
X12460182Y-16433984D02*
X12441134Y-16433984D01*
X12441134Y-16433984D02*
X12422086Y-16424460D01*
X12422086Y-16424460D02*
X12412563Y-16414936D01*
X12412563Y-16414936D02*
X12403039Y-16395888D01*
X12403039Y-16395888D02*
X12393515Y-16357793D01*
X12393515Y-16357793D02*
X12393515Y-16310174D01*
X12393515Y-16310174D02*
X12403039Y-16272079D01*
X12403039Y-16272079D02*
X12412563Y-16253031D01*
X12412563Y-16253031D02*
X12422086Y-16243508D01*
X12422086Y-16243508D02*
X12441134Y-16233984D01*
X12593515Y-16414936D02*
X12603039Y-16424460D01*
X12603039Y-16424460D02*
X12593515Y-16433984D01*
X12593515Y-16433984D02*
X12583991Y-16424460D01*
X12583991Y-16424460D02*
X12593515Y-16414936D01*
X12593515Y-16414936D02*
X12593515Y-16433984D01*
X12726848Y-16233984D02*
X12745896Y-16233984D01*
X12745896Y-16233984D02*
X12764944Y-16243508D01*
X12764944Y-16243508D02*
X12774467Y-16253031D01*
X12774467Y-16253031D02*
X12783991Y-16272079D01*
X12783991Y-16272079D02*
X12793515Y-16310174D01*
X12793515Y-16310174D02*
X12793515Y-16357793D01*
X12793515Y-16357793D02*
X12783991Y-16395888D01*
X12783991Y-16395888D02*
X12774467Y-16414936D01*
X12774467Y-16414936D02*
X12764944Y-16424460D01*
X12764944Y-16424460D02*
X12745896Y-16433984D01*
X12745896Y-16433984D02*
X12726848Y-16433984D01*
X12726848Y-16433984D02*
X12707801Y-16424460D01*
X12707801Y-16424460D02*
X12698277Y-16414936D01*
X12698277Y-16414936D02*
X12688753Y-16395888D01*
X12688753Y-16395888D02*
X12679229Y-16357793D01*
X12679229Y-16357793D02*
X12679229Y-16310174D01*
X12679229Y-16310174D02*
X12688753Y-16272079D01*
X12688753Y-16272079D02*
X12698277Y-16253031D01*
X12698277Y-16253031D02*
X12707801Y-16243508D01*
X12707801Y-16243508D02*
X12726848Y-16233984D01*
X12974467Y-16233984D02*
X12879229Y-16233984D01*
X12879229Y-16233984D02*
X12869706Y-16329222D01*
X12869706Y-16329222D02*
X12879229Y-16319698D01*
X12879229Y-16319698D02*
X12898277Y-16310174D01*
X12898277Y-16310174D02*
X12945896Y-16310174D01*
X12945896Y-16310174D02*
X12964944Y-16319698D01*
X12964944Y-16319698D02*
X12974467Y-16329222D01*
X12974467Y-16329222D02*
X12983991Y-16348269D01*
X12983991Y-16348269D02*
X12983991Y-16395888D01*
X12983991Y-16395888D02*
X12974467Y-16414936D01*
X12974467Y-16414936D02*
X12964944Y-16424460D01*
X12964944Y-16424460D02*
X12945896Y-16433984D01*
X12945896Y-16433984D02*
X12898277Y-16433984D01*
X12898277Y-16433984D02*
X12879229Y-16424460D01*
X12879229Y-16424460D02*
X12869706Y-16414936D01*
X13164944Y-16233984D02*
X13069706Y-16233984D01*
X13069706Y-16233984D02*
X13060182Y-16329222D01*
X13060182Y-16329222D02*
X13069706Y-16319698D01*
X13069706Y-16319698D02*
X13088753Y-16310174D01*
X13088753Y-16310174D02*
X13136372Y-16310174D01*
X13136372Y-16310174D02*
X13155420Y-16319698D01*
X13155420Y-16319698D02*
X13164944Y-16329222D01*
X13164944Y-16329222D02*
X13174467Y-16348269D01*
X13174467Y-16348269D02*
X13174467Y-16395888D01*
X13174467Y-16395888D02*
X13164944Y-16414936D01*
X13164944Y-16414936D02*
X13155420Y-16424460D01*
X13155420Y-16424460D02*
X13136372Y-16433984D01*
X13136372Y-16433984D02*
X13088753Y-16433984D01*
X13088753Y-16433984D02*
X13069706Y-16424460D01*
X13069706Y-16424460D02*
X13060182Y-16414936D01*
X13269706Y-16433984D02*
X13307801Y-16433984D01*
X13307801Y-16433984D02*
X13326848Y-16424460D01*
X13326848Y-16424460D02*
X13336372Y-16414936D01*
X13336372Y-16414936D02*
X13355420Y-16386365D01*
X13355420Y-16386365D02*
X13364944Y-16348269D01*
X13364944Y-16348269D02*
X13364944Y-16272079D01*
X13364944Y-16272079D02*
X13355420Y-16253031D01*
X13355420Y-16253031D02*
X13345896Y-16243508D01*
X13345896Y-16243508D02*
X13326848Y-16233984D01*
X13326848Y-16233984D02*
X13288753Y-16233984D01*
X13288753Y-16233984D02*
X13269706Y-16243508D01*
X13269706Y-16243508D02*
X13260182Y-16253031D01*
X13260182Y-16253031D02*
X13250658Y-16272079D01*
X13250658Y-16272079D02*
X13250658Y-16319698D01*
X13250658Y-16319698D02*
X13260182Y-16338746D01*
X13260182Y-16338746D02*
X13269706Y-16348269D01*
X13269706Y-16348269D02*
X13288753Y-16357793D01*
X13288753Y-16357793D02*
X13326848Y-16357793D01*
X13326848Y-16357793D02*
X13345896Y-16348269D01*
X13345896Y-16348269D02*
X13355420Y-16338746D01*
X13355420Y-16338746D02*
X13364944Y-16319698D01*
X13441134Y-16233984D02*
X13441134Y-16272079D01*
X13517325Y-16233984D02*
X13517325Y-16272079D01*
X13812563Y-16510174D02*
X13803039Y-16500650D01*
X13803039Y-16500650D02*
X13783991Y-16472079D01*
X13783991Y-16472079D02*
X13774468Y-16453031D01*
X13774468Y-16453031D02*
X13764944Y-16424460D01*
X13764944Y-16424460D02*
X13755420Y-16376841D01*
X13755420Y-16376841D02*
X13755420Y-16338746D01*
X13755420Y-16338746D02*
X13764944Y-16291127D01*
X13764944Y-16291127D02*
X13774468Y-16262555D01*
X13774468Y-16262555D02*
X13783991Y-16243508D01*
X13783991Y-16243508D02*
X13803039Y-16214936D01*
X13803039Y-16214936D02*
X13812563Y-16205412D01*
X13993515Y-16433984D02*
X13879229Y-16433984D01*
X13936372Y-16433984D02*
X13936372Y-16233984D01*
X13936372Y-16233984D02*
X13917325Y-16262555D01*
X13917325Y-16262555D02*
X13898277Y-16281603D01*
X13898277Y-16281603D02*
X13879229Y-16291127D01*
X14069706Y-16253031D02*
X14079229Y-16243508D01*
X14079229Y-16243508D02*
X14098277Y-16233984D01*
X14098277Y-16233984D02*
X14145896Y-16233984D01*
X14145896Y-16233984D02*
X14164944Y-16243508D01*
X14164944Y-16243508D02*
X14174468Y-16253031D01*
X14174468Y-16253031D02*
X14183991Y-16272079D01*
X14183991Y-16272079D02*
X14183991Y-16291127D01*
X14183991Y-16291127D02*
X14174468Y-16319698D01*
X14174468Y-16319698D02*
X14060182Y-16433984D01*
X14060182Y-16433984D02*
X14183991Y-16433984D01*
X14422087Y-16433984D02*
X14422087Y-16233984D01*
X14507801Y-16433984D02*
X14507801Y-16329222D01*
X14507801Y-16329222D02*
X14498277Y-16310174D01*
X14498277Y-16310174D02*
X14479230Y-16300650D01*
X14479230Y-16300650D02*
X14450658Y-16300650D01*
X14450658Y-16300650D02*
X14431610Y-16310174D01*
X14431610Y-16310174D02*
X14422087Y-16319698D01*
X14631610Y-16433984D02*
X14612563Y-16424460D01*
X14612563Y-16424460D02*
X14603039Y-16414936D01*
X14603039Y-16414936D02*
X14593515Y-16395888D01*
X14593515Y-16395888D02*
X14593515Y-16338746D01*
X14593515Y-16338746D02*
X14603039Y-16319698D01*
X14603039Y-16319698D02*
X14612563Y-16310174D01*
X14612563Y-16310174D02*
X14631610Y-16300650D01*
X14631610Y-16300650D02*
X14660182Y-16300650D01*
X14660182Y-16300650D02*
X14679230Y-16310174D01*
X14679230Y-16310174D02*
X14688753Y-16319698D01*
X14688753Y-16319698D02*
X14698277Y-16338746D01*
X14698277Y-16338746D02*
X14698277Y-16395888D01*
X14698277Y-16395888D02*
X14688753Y-16414936D01*
X14688753Y-16414936D02*
X14679230Y-16424460D01*
X14679230Y-16424460D02*
X14660182Y-16433984D01*
X14660182Y-16433984D02*
X14631610Y-16433984D01*
X14812563Y-16433984D02*
X14793515Y-16424460D01*
X14793515Y-16424460D02*
X14783991Y-16405412D01*
X14783991Y-16405412D02*
X14783991Y-16233984D01*
X14964944Y-16424460D02*
X14945896Y-16433984D01*
X14945896Y-16433984D02*
X14907801Y-16433984D01*
X14907801Y-16433984D02*
X14888753Y-16424460D01*
X14888753Y-16424460D02*
X14879230Y-16405412D01*
X14879230Y-16405412D02*
X14879230Y-16329222D01*
X14879230Y-16329222D02*
X14888753Y-16310174D01*
X14888753Y-16310174D02*
X14907801Y-16300650D01*
X14907801Y-16300650D02*
X14945896Y-16300650D01*
X14945896Y-16300650D02*
X14964944Y-16310174D01*
X14964944Y-16310174D02*
X14974468Y-16329222D01*
X14974468Y-16329222D02*
X14974468Y-16348269D01*
X14974468Y-16348269D02*
X14879230Y-16367317D01*
X15050658Y-16424460D02*
X15069706Y-16433984D01*
X15069706Y-16433984D02*
X15107801Y-16433984D01*
X15107801Y-16433984D02*
X15126849Y-16424460D01*
X15126849Y-16424460D02*
X15136372Y-16405412D01*
X15136372Y-16405412D02*
X15136372Y-16395888D01*
X15136372Y-16395888D02*
X15126849Y-16376841D01*
X15126849Y-16376841D02*
X15107801Y-16367317D01*
X15107801Y-16367317D02*
X15079230Y-16367317D01*
X15079230Y-16367317D02*
X15060182Y-16357793D01*
X15060182Y-16357793D02*
X15050658Y-16338746D01*
X15050658Y-16338746D02*
X15050658Y-16329222D01*
X15050658Y-16329222D02*
X15060182Y-16310174D01*
X15060182Y-16310174D02*
X15079230Y-16300650D01*
X15079230Y-16300650D02*
X15107801Y-16300650D01*
X15107801Y-16300650D02*
X15126849Y-16310174D01*
X15203039Y-16510174D02*
X15212563Y-16500650D01*
X15212563Y-16500650D02*
X15231611Y-16472079D01*
X15231611Y-16472079D02*
X15241134Y-16453031D01*
X15241134Y-16453031D02*
X15250658Y-16424460D01*
X15250658Y-16424460D02*
X15260182Y-16376841D01*
X15260182Y-16376841D02*
X15260182Y-16338746D01*
X15260182Y-16338746D02*
X15250658Y-16291127D01*
X15250658Y-16291127D02*
X15241134Y-16262555D01*
X15241134Y-16262555D02*
X15231611Y-16243508D01*
X15231611Y-16243508D02*
X15212563Y-16214936D01*
X15212563Y-16214936D02*
X15203039Y-16205412D01*
D15*
X10094500Y-16535000D02*
X10237500Y-16678000D01*
X10237500Y-16535000D02*
X10094500Y-16678000D01*
X10166000Y-16535000D02*
X10166000Y-16678000D01*
X10094500Y-16606500D02*
X10237500Y-16606500D01*
D11*
X10603039Y-16697984D02*
X10488753Y-16697984D01*
X10545896Y-16697984D02*
X10545896Y-16497984D01*
X10545896Y-16497984D02*
X10526848Y-16526555D01*
X10526848Y-16526555D02*
X10507801Y-16545603D01*
X10507801Y-16545603D02*
X10488753Y-16555127D01*
X10688753Y-16678936D02*
X10698277Y-16688460D01*
X10698277Y-16688460D02*
X10688753Y-16697984D01*
X10688753Y-16697984D02*
X10679229Y-16688460D01*
X10679229Y-16688460D02*
X10688753Y-16678936D01*
X10688753Y-16678936D02*
X10688753Y-16697984D01*
X10869705Y-16564650D02*
X10869705Y-16697984D01*
X10822086Y-16488460D02*
X10774467Y-16631317D01*
X10774467Y-16631317D02*
X10898277Y-16631317D01*
X10955420Y-16497984D02*
X11079229Y-16497984D01*
X11079229Y-16497984D02*
X11012563Y-16574174D01*
X11012563Y-16574174D02*
X11041134Y-16574174D01*
X11041134Y-16574174D02*
X11060182Y-16583698D01*
X11060182Y-16583698D02*
X11069705Y-16593222D01*
X11069705Y-16593222D02*
X11079229Y-16612269D01*
X11079229Y-16612269D02*
X11079229Y-16659888D01*
X11079229Y-16659888D02*
X11069705Y-16678936D01*
X11069705Y-16678936D02*
X11060182Y-16688460D01*
X11060182Y-16688460D02*
X11041134Y-16697984D01*
X11041134Y-16697984D02*
X10983991Y-16697984D01*
X10983991Y-16697984D02*
X10964944Y-16688460D01*
X10964944Y-16688460D02*
X10955420Y-16678936D01*
X11203039Y-16497984D02*
X11222086Y-16497984D01*
X11222086Y-16497984D02*
X11241134Y-16507508D01*
X11241134Y-16507508D02*
X11250658Y-16517031D01*
X11250658Y-16517031D02*
X11260182Y-16536079D01*
X11260182Y-16536079D02*
X11269705Y-16574174D01*
X11269705Y-16574174D02*
X11269705Y-16621793D01*
X11269705Y-16621793D02*
X11260182Y-16659888D01*
X11260182Y-16659888D02*
X11250658Y-16678936D01*
X11250658Y-16678936D02*
X11241134Y-16688460D01*
X11241134Y-16688460D02*
X11222086Y-16697984D01*
X11222086Y-16697984D02*
X11203039Y-16697984D01*
X11203039Y-16697984D02*
X11183991Y-16688460D01*
X11183991Y-16688460D02*
X11174467Y-16678936D01*
X11174467Y-16678936D02*
X11164944Y-16659888D01*
X11164944Y-16659888D02*
X11155420Y-16621793D01*
X11155420Y-16621793D02*
X11155420Y-16574174D01*
X11155420Y-16574174D02*
X11164944Y-16536079D01*
X11164944Y-16536079D02*
X11174467Y-16517031D01*
X11174467Y-16517031D02*
X11183991Y-16507508D01*
X11183991Y-16507508D02*
X11203039Y-16497984D01*
X11355420Y-16697984D02*
X11355420Y-16564650D01*
X11355420Y-16583698D02*
X11364943Y-16574174D01*
X11364943Y-16574174D02*
X11383991Y-16564650D01*
X11383991Y-16564650D02*
X11412563Y-16564650D01*
X11412563Y-16564650D02*
X11431610Y-16574174D01*
X11431610Y-16574174D02*
X11441134Y-16593222D01*
X11441134Y-16593222D02*
X11441134Y-16697984D01*
X11441134Y-16593222D02*
X11450658Y-16574174D01*
X11450658Y-16574174D02*
X11469705Y-16564650D01*
X11469705Y-16564650D02*
X11498277Y-16564650D01*
X11498277Y-16564650D02*
X11517324Y-16574174D01*
X11517324Y-16574174D02*
X11526848Y-16593222D01*
X11526848Y-16593222D02*
X11526848Y-16697984D01*
X11622086Y-16697984D02*
X11622086Y-16564650D01*
X11622086Y-16583698D02*
X11631610Y-16574174D01*
X11631610Y-16574174D02*
X11650658Y-16564650D01*
X11650658Y-16564650D02*
X11679229Y-16564650D01*
X11679229Y-16564650D02*
X11698277Y-16574174D01*
X11698277Y-16574174D02*
X11707801Y-16593222D01*
X11707801Y-16593222D02*
X11707801Y-16697984D01*
X11707801Y-16593222D02*
X11717324Y-16574174D01*
X11717324Y-16574174D02*
X11736372Y-16564650D01*
X11736372Y-16564650D02*
X11764943Y-16564650D01*
X11764943Y-16564650D02*
X11783991Y-16574174D01*
X11783991Y-16574174D02*
X11793515Y-16593222D01*
X11793515Y-16593222D02*
X11793515Y-16697984D01*
X12183991Y-16488460D02*
X12012563Y-16745603D01*
X12441134Y-16497984D02*
X12460182Y-16497984D01*
X12460182Y-16497984D02*
X12479229Y-16507508D01*
X12479229Y-16507508D02*
X12488753Y-16517031D01*
X12488753Y-16517031D02*
X12498277Y-16536079D01*
X12498277Y-16536079D02*
X12507801Y-16574174D01*
X12507801Y-16574174D02*
X12507801Y-16621793D01*
X12507801Y-16621793D02*
X12498277Y-16659888D01*
X12498277Y-16659888D02*
X12488753Y-16678936D01*
X12488753Y-16678936D02*
X12479229Y-16688460D01*
X12479229Y-16688460D02*
X12460182Y-16697984D01*
X12460182Y-16697984D02*
X12441134Y-16697984D01*
X12441134Y-16697984D02*
X12422086Y-16688460D01*
X12422086Y-16688460D02*
X12412563Y-16678936D01*
X12412563Y-16678936D02*
X12403039Y-16659888D01*
X12403039Y-16659888D02*
X12393515Y-16621793D01*
X12393515Y-16621793D02*
X12393515Y-16574174D01*
X12393515Y-16574174D02*
X12403039Y-16536079D01*
X12403039Y-16536079D02*
X12412563Y-16517031D01*
X12412563Y-16517031D02*
X12422086Y-16507508D01*
X12422086Y-16507508D02*
X12441134Y-16497984D01*
X12593515Y-16678936D02*
X12603039Y-16688460D01*
X12603039Y-16688460D02*
X12593515Y-16697984D01*
X12593515Y-16697984D02*
X12583991Y-16688460D01*
X12583991Y-16688460D02*
X12593515Y-16678936D01*
X12593515Y-16678936D02*
X12593515Y-16697984D01*
X12726848Y-16497984D02*
X12745896Y-16497984D01*
X12745896Y-16497984D02*
X12764944Y-16507508D01*
X12764944Y-16507508D02*
X12774467Y-16517031D01*
X12774467Y-16517031D02*
X12783991Y-16536079D01*
X12783991Y-16536079D02*
X12793515Y-16574174D01*
X12793515Y-16574174D02*
X12793515Y-16621793D01*
X12793515Y-16621793D02*
X12783991Y-16659888D01*
X12783991Y-16659888D02*
X12774467Y-16678936D01*
X12774467Y-16678936D02*
X12764944Y-16688460D01*
X12764944Y-16688460D02*
X12745896Y-16697984D01*
X12745896Y-16697984D02*
X12726848Y-16697984D01*
X12726848Y-16697984D02*
X12707801Y-16688460D01*
X12707801Y-16688460D02*
X12698277Y-16678936D01*
X12698277Y-16678936D02*
X12688753Y-16659888D01*
X12688753Y-16659888D02*
X12679229Y-16621793D01*
X12679229Y-16621793D02*
X12679229Y-16574174D01*
X12679229Y-16574174D02*
X12688753Y-16536079D01*
X12688753Y-16536079D02*
X12698277Y-16517031D01*
X12698277Y-16517031D02*
X12707801Y-16507508D01*
X12707801Y-16507508D02*
X12726848Y-16497984D01*
X12974467Y-16497984D02*
X12879229Y-16497984D01*
X12879229Y-16497984D02*
X12869706Y-16593222D01*
X12869706Y-16593222D02*
X12879229Y-16583698D01*
X12879229Y-16583698D02*
X12898277Y-16574174D01*
X12898277Y-16574174D02*
X12945896Y-16574174D01*
X12945896Y-16574174D02*
X12964944Y-16583698D01*
X12964944Y-16583698D02*
X12974467Y-16593222D01*
X12974467Y-16593222D02*
X12983991Y-16612269D01*
X12983991Y-16612269D02*
X12983991Y-16659888D01*
X12983991Y-16659888D02*
X12974467Y-16678936D01*
X12974467Y-16678936D02*
X12964944Y-16688460D01*
X12964944Y-16688460D02*
X12945896Y-16697984D01*
X12945896Y-16697984D02*
X12898277Y-16697984D01*
X12898277Y-16697984D02*
X12879229Y-16688460D01*
X12879229Y-16688460D02*
X12869706Y-16678936D01*
X13155420Y-16497984D02*
X13117325Y-16497984D01*
X13117325Y-16497984D02*
X13098277Y-16507508D01*
X13098277Y-16507508D02*
X13088753Y-16517031D01*
X13088753Y-16517031D02*
X13069706Y-16545603D01*
X13069706Y-16545603D02*
X13060182Y-16583698D01*
X13060182Y-16583698D02*
X13060182Y-16659888D01*
X13060182Y-16659888D02*
X13069706Y-16678936D01*
X13069706Y-16678936D02*
X13079229Y-16688460D01*
X13079229Y-16688460D02*
X13098277Y-16697984D01*
X13098277Y-16697984D02*
X13136372Y-16697984D01*
X13136372Y-16697984D02*
X13155420Y-16688460D01*
X13155420Y-16688460D02*
X13164944Y-16678936D01*
X13164944Y-16678936D02*
X13174467Y-16659888D01*
X13174467Y-16659888D02*
X13174467Y-16612269D01*
X13174467Y-16612269D02*
X13164944Y-16593222D01*
X13164944Y-16593222D02*
X13155420Y-16583698D01*
X13155420Y-16583698D02*
X13136372Y-16574174D01*
X13136372Y-16574174D02*
X13098277Y-16574174D01*
X13098277Y-16574174D02*
X13079229Y-16583698D01*
X13079229Y-16583698D02*
X13069706Y-16593222D01*
X13069706Y-16593222D02*
X13060182Y-16612269D01*
X13241134Y-16497984D02*
X13364944Y-16497984D01*
X13364944Y-16497984D02*
X13298277Y-16574174D01*
X13298277Y-16574174D02*
X13326848Y-16574174D01*
X13326848Y-16574174D02*
X13345896Y-16583698D01*
X13345896Y-16583698D02*
X13355420Y-16593222D01*
X13355420Y-16593222D02*
X13364944Y-16612269D01*
X13364944Y-16612269D02*
X13364944Y-16659888D01*
X13364944Y-16659888D02*
X13355420Y-16678936D01*
X13355420Y-16678936D02*
X13345896Y-16688460D01*
X13345896Y-16688460D02*
X13326848Y-16697984D01*
X13326848Y-16697984D02*
X13269706Y-16697984D01*
X13269706Y-16697984D02*
X13250658Y-16688460D01*
X13250658Y-16688460D02*
X13241134Y-16678936D01*
X13441134Y-16497984D02*
X13441134Y-16536079D01*
X13517325Y-16497984D02*
X13517325Y-16536079D01*
X13812563Y-16774174D02*
X13803039Y-16764650D01*
X13803039Y-16764650D02*
X13783991Y-16736079D01*
X13783991Y-16736079D02*
X13774468Y-16717031D01*
X13774468Y-16717031D02*
X13764944Y-16688460D01*
X13764944Y-16688460D02*
X13755420Y-16640841D01*
X13755420Y-16640841D02*
X13755420Y-16602746D01*
X13755420Y-16602746D02*
X13764944Y-16555127D01*
X13764944Y-16555127D02*
X13774468Y-16526555D01*
X13774468Y-16526555D02*
X13783991Y-16507508D01*
X13783991Y-16507508D02*
X13803039Y-16478936D01*
X13803039Y-16478936D02*
X13812563Y-16469412D01*
X13993515Y-16697984D02*
X13879229Y-16697984D01*
X13936372Y-16697984D02*
X13936372Y-16497984D01*
X13936372Y-16497984D02*
X13917325Y-16526555D01*
X13917325Y-16526555D02*
X13898277Y-16545603D01*
X13898277Y-16545603D02*
X13879229Y-16555127D01*
X14069706Y-16517031D02*
X14079229Y-16507508D01*
X14079229Y-16507508D02*
X14098277Y-16497984D01*
X14098277Y-16497984D02*
X14145896Y-16497984D01*
X14145896Y-16497984D02*
X14164944Y-16507508D01*
X14164944Y-16507508D02*
X14174468Y-16517031D01*
X14174468Y-16517031D02*
X14183991Y-16536079D01*
X14183991Y-16536079D02*
X14183991Y-16555127D01*
X14183991Y-16555127D02*
X14174468Y-16583698D01*
X14174468Y-16583698D02*
X14060182Y-16697984D01*
X14060182Y-16697984D02*
X14183991Y-16697984D01*
X14422087Y-16697984D02*
X14422087Y-16497984D01*
X14507801Y-16697984D02*
X14507801Y-16593222D01*
X14507801Y-16593222D02*
X14498277Y-16574174D01*
X14498277Y-16574174D02*
X14479230Y-16564650D01*
X14479230Y-16564650D02*
X14450658Y-16564650D01*
X14450658Y-16564650D02*
X14431610Y-16574174D01*
X14431610Y-16574174D02*
X14422087Y-16583698D01*
X14631610Y-16697984D02*
X14612563Y-16688460D01*
X14612563Y-16688460D02*
X14603039Y-16678936D01*
X14603039Y-16678936D02*
X14593515Y-16659888D01*
X14593515Y-16659888D02*
X14593515Y-16602746D01*
X14593515Y-16602746D02*
X14603039Y-16583698D01*
X14603039Y-16583698D02*
X14612563Y-16574174D01*
X14612563Y-16574174D02*
X14631610Y-16564650D01*
X14631610Y-16564650D02*
X14660182Y-16564650D01*
X14660182Y-16564650D02*
X14679230Y-16574174D01*
X14679230Y-16574174D02*
X14688753Y-16583698D01*
X14688753Y-16583698D02*
X14698277Y-16602746D01*
X14698277Y-16602746D02*
X14698277Y-16659888D01*
X14698277Y-16659888D02*
X14688753Y-16678936D01*
X14688753Y-16678936D02*
X14679230Y-16688460D01*
X14679230Y-16688460D02*
X14660182Y-16697984D01*
X14660182Y-16697984D02*
X14631610Y-16697984D01*
X14812563Y-16697984D02*
X14793515Y-16688460D01*
X14793515Y-16688460D02*
X14783991Y-16669412D01*
X14783991Y-16669412D02*
X14783991Y-16497984D01*
X14964944Y-16688460D02*
X14945896Y-16697984D01*
X14945896Y-16697984D02*
X14907801Y-16697984D01*
X14907801Y-16697984D02*
X14888753Y-16688460D01*
X14888753Y-16688460D02*
X14879230Y-16669412D01*
X14879230Y-16669412D02*
X14879230Y-16593222D01*
X14879230Y-16593222D02*
X14888753Y-16574174D01*
X14888753Y-16574174D02*
X14907801Y-16564650D01*
X14907801Y-16564650D02*
X14945896Y-16564650D01*
X14945896Y-16564650D02*
X14964944Y-16574174D01*
X14964944Y-16574174D02*
X14974468Y-16593222D01*
X14974468Y-16593222D02*
X14974468Y-16612269D01*
X14974468Y-16612269D02*
X14879230Y-16631317D01*
X15050658Y-16688460D02*
X15069706Y-16697984D01*
X15069706Y-16697984D02*
X15107801Y-16697984D01*
X15107801Y-16697984D02*
X15126849Y-16688460D01*
X15126849Y-16688460D02*
X15136372Y-16669412D01*
X15136372Y-16669412D02*
X15136372Y-16659888D01*
X15136372Y-16659888D02*
X15126849Y-16640841D01*
X15126849Y-16640841D02*
X15107801Y-16631317D01*
X15107801Y-16631317D02*
X15079230Y-16631317D01*
X15079230Y-16631317D02*
X15060182Y-16621793D01*
X15060182Y-16621793D02*
X15050658Y-16602746D01*
X15050658Y-16602746D02*
X15050658Y-16593222D01*
X15050658Y-16593222D02*
X15060182Y-16574174D01*
X15060182Y-16574174D02*
X15079230Y-16564650D01*
X15079230Y-16564650D02*
X15107801Y-16564650D01*
X15107801Y-16564650D02*
X15126849Y-16574174D01*
X15203039Y-16774174D02*
X15212563Y-16764650D01*
X15212563Y-16764650D02*
X15231611Y-16736079D01*
X15231611Y-16736079D02*
X15241134Y-16717031D01*
X15241134Y-16717031D02*
X15250658Y-16688460D01*
X15250658Y-16688460D02*
X15260182Y-16640841D01*
X15260182Y-16640841D02*
X15260182Y-16602746D01*
X15260182Y-16602746D02*
X15250658Y-16555127D01*
X15250658Y-16555127D02*
X15241134Y-16526555D01*
X15241134Y-16526555D02*
X15231611Y-16507508D01*
X15231611Y-16507508D02*
X15212563Y-16478936D01*
X15212563Y-16478936D02*
X15203039Y-16469412D01*
M02*
