G04 #@! TF.GenerationSoftware,KiCad,Pcbnew,8.0.6-8.0.6-0~ubuntu22.04.1*
G04 #@! TF.CreationDate,2025-02-02T12:48:30+01:00*
G04 #@! TF.ProjectId,Drumbox,4472756d-626f-4782-9e6b-696361645f70,rev?*
G04 #@! TF.SameCoordinates,Original*
G04 #@! TF.FileFunction,Legend,Top*
G04 #@! TF.FilePolarity,Positive*
%FSLAX46Y46*%
G04 Gerber Fmt 4.6, Leading zero omitted, Abs format (unit mm)*
G04 Created by KiCad (PCBNEW 8.0.6-8.0.6-0~ubuntu22.04.1) date 2025-02-02 12:48:30*
%MOMM*%
%LPD*%
G01*
G04 APERTURE LIST*
%ADD10C,0.120000*%
%ADD11C,0.400000*%
%ADD12C,0.150000*%
%ADD13C,0.100000*%
%ADD14O,6.700000X4.200000*%
G04 APERTURE END LIST*
D10*
X181500000Y-73400000D02*
X181700000Y-73400000D01*
X180200000Y-74200000D02*
X181100000Y-74200000D01*
X184550000Y-94200000D02*
X185250000Y-94200000D01*
D11*
X181650000Y-103050000D02*
G75*
G02*
X181150000Y-102550000I0J500000D01*
G01*
D10*
X183900000Y-32475000D02*
X184000000Y-32575000D01*
X182000000Y-72600000D02*
X182000000Y-74200000D01*
X181300000Y-33500000D02*
X182200000Y-32600000D01*
D11*
X181650000Y-83050000D02*
G75*
G02*
X181150000Y-82550000I0J500000D01*
G01*
D10*
X183850000Y-112400000D02*
X183550000Y-114100000D01*
X196600000Y-26600000D02*
X195900000Y-28300000D01*
D11*
X181650000Y-97550000D02*
X186050000Y-97550000D01*
D10*
X185500000Y-52600000D02*
X185600000Y-52700000D01*
X182925000Y-129500000D02*
X181875000Y-131200000D01*
D11*
X181150000Y-78050000D02*
G75*
G02*
X181650000Y-77550000I500000J0D01*
G01*
D10*
X197400000Y-28250000D02*
X197650000Y-26650000D01*
D11*
X181650000Y-63050000D02*
G75*
G02*
X181150000Y-62550000I0J500000D01*
G01*
D10*
X181300000Y-129500000D02*
X181300000Y-131200000D01*
X192900000Y-27300000D02*
X193500000Y-27800000D01*
D11*
X186550000Y-62550000D02*
G75*
G02*
X186050000Y-63050000I-500000J0D01*
G01*
D10*
X188500001Y-148950000D02*
X188500001Y-150750000D01*
D11*
X186550000Y-78050000D02*
X186550000Y-82550000D01*
D10*
X184800000Y-72600000D02*
X184300000Y-74200000D01*
X194300000Y-26600000D02*
X194000000Y-28300000D01*
X194500001Y-148950000D02*
X194500001Y-150750000D01*
X184600000Y-130000000D02*
X185000000Y-130000000D01*
D11*
X186550000Y-135050000D02*
X186550000Y-139550000D01*
D10*
X181450000Y-94200000D02*
X182350000Y-94200000D01*
X184800000Y-52600000D02*
X184700000Y-52600000D01*
X181900000Y-129500000D02*
X181300000Y-131200000D01*
X183225000Y-52600000D02*
X184025000Y-52600000D01*
X182800000Y-73000000D02*
X182000000Y-72600000D01*
D11*
X186550000Y-139550000D02*
G75*
G02*
X186050000Y-140050000I-500000J0D01*
G01*
D10*
X180850000Y-114100000D02*
X181050000Y-114100000D01*
X182900000Y-32500000D02*
X183000000Y-32700000D01*
X180800000Y-131200000D02*
X180700000Y-131200000D01*
X183450000Y-112400000D02*
X182650000Y-114100000D01*
X184400000Y-131200000D02*
X184700000Y-129500000D01*
X201700001Y-149550000D02*
X202100001Y-150350000D01*
X193700000Y-27000000D02*
X192900000Y-27300000D01*
D11*
X186500000Y-42550000D02*
G75*
G02*
X186000000Y-43050000I-500000J0D01*
G01*
X186550000Y-122550000D02*
G75*
G02*
X186050000Y-123050000I-500000J0D01*
G01*
D10*
X182000000Y-54200000D02*
X182800000Y-53700000D01*
D11*
X186550000Y-102550000D02*
G75*
G02*
X186050000Y-103050000I-500000J0D01*
G01*
D12*
X203000000Y-40300000D02*
G75*
G02*
X187800000Y-40300000I-7600000J0D01*
G01*
X187800000Y-40300000D02*
G75*
G02*
X203000000Y-40300000I7600000J0D01*
G01*
D10*
X196300000Y-27300000D02*
X197300000Y-26900000D01*
D11*
X181650000Y-57550000D02*
X186050000Y-57550000D01*
D10*
X184800000Y-52600000D02*
X184300000Y-54200000D01*
X199500001Y-149550000D02*
X199100001Y-150750000D01*
D11*
X181150000Y-98050000D02*
G75*
G02*
X181650000Y-97550000I500000J0D01*
G01*
D10*
X198800000Y-26700000D02*
X199100000Y-28300000D01*
X196000000Y-26600000D02*
X195600000Y-28300000D01*
X183700000Y-113250000D02*
X184250000Y-113400000D01*
X184750000Y-93400000D02*
X185050000Y-93400000D01*
X194300001Y-150550000D02*
X194500001Y-150750000D01*
D11*
X181600000Y-43050000D02*
G75*
G02*
X181100000Y-42550000I0J500000D01*
G01*
D10*
X201300001Y-149550000D02*
X201100001Y-149550000D01*
D11*
X186050000Y-57550000D02*
G75*
G02*
X186550000Y-58050000I0J-500000D01*
G01*
D10*
X199500001Y-149550000D02*
X199300001Y-149550000D01*
X180300000Y-53400000D02*
X181100000Y-53400000D01*
X213950000Y-145250000D02*
X213450000Y-143550000D01*
D11*
X186050000Y-97550000D02*
G75*
G02*
X186550000Y-98050000I0J-500000D01*
G01*
D10*
X183900000Y-34200000D02*
X184700000Y-32500000D01*
X181800000Y-33800000D02*
X181800000Y-34200000D01*
X185550000Y-53600000D02*
X185650000Y-53700000D01*
X196900001Y-149750000D02*
X197700001Y-150350000D01*
X184600000Y-92600000D02*
X184500000Y-92600000D01*
X181300000Y-92500000D02*
X181400000Y-92600000D01*
X191300001Y-148950000D02*
G75*
G02*
X191700001Y-148550001I399999J0D01*
G01*
X186400000Y-53400000D02*
X186100000Y-53400000D01*
X197900001Y-149550000D02*
X196900001Y-149750000D01*
X183900000Y-92600000D02*
X183800000Y-94200000D01*
X185500000Y-72600000D02*
X185600000Y-72700000D01*
X183900000Y-92600000D02*
X183800000Y-92600000D01*
X186500000Y-72600000D02*
X185700000Y-74200000D01*
X214650000Y-143550000D02*
X214350000Y-145250000D01*
D11*
X186550000Y-118050000D02*
X186550000Y-122550000D01*
D10*
X184400000Y-129500000D02*
X183400000Y-130100000D01*
X214350000Y-145250000D02*
X215350000Y-143550000D01*
X181650000Y-113500000D02*
X180850000Y-114100000D01*
X184750000Y-112400000D02*
X185550000Y-112400000D01*
X185500000Y-72600000D02*
X184800000Y-73500000D01*
X182100000Y-34200000D02*
X182900000Y-32500000D01*
X185350000Y-94200000D02*
X185150000Y-94400000D01*
X186500000Y-72600000D02*
X186400000Y-74200000D01*
X184800000Y-72600000D02*
X184700000Y-72600000D01*
X184250000Y-113400000D02*
X184250000Y-114100000D01*
X181750000Y-112400000D02*
X181750000Y-112600000D01*
X182350000Y-112400000D02*
X182350000Y-114100000D01*
X182800000Y-53700000D02*
X182000000Y-53400000D01*
X184300000Y-130600000D02*
X183500000Y-131200000D01*
X182000000Y-73400000D02*
X182800000Y-73000000D01*
X192500001Y-150750000D02*
X192300001Y-150550000D01*
X183300000Y-129500000D02*
X183100000Y-129600000D01*
X184350000Y-112900000D02*
X183700000Y-113250000D01*
X182350000Y-112400000D02*
X181850000Y-114100000D01*
X190100001Y-150750000D02*
X190700001Y-150750000D01*
X184650000Y-112900000D02*
X185050000Y-112900000D01*
X199900001Y-150750000D02*
X200100001Y-150750000D01*
X181750000Y-112400000D02*
X180750000Y-113000000D01*
X189500001Y-150150000D02*
X188500001Y-149750000D01*
X184400000Y-131200000D02*
X185300000Y-131200000D01*
X199450000Y-26700000D02*
X198400000Y-28300000D01*
X182950000Y-112400000D02*
X182350000Y-114100000D01*
X183400000Y-130100000D02*
X184300000Y-130600000D01*
X191300001Y-149550000D02*
X191700001Y-149550000D01*
X183450000Y-112400000D02*
X183350000Y-114100000D01*
D11*
X181150000Y-58050000D02*
X181150000Y-62550000D01*
X186050000Y-134550000D02*
G75*
G02*
X186550000Y-135050000I0J-500000D01*
G01*
X181150000Y-98050000D02*
X181150000Y-102550000D01*
D10*
X192600000Y-27800000D02*
X192000000Y-26600000D01*
X186400000Y-73400000D02*
X186100000Y-73400000D01*
X190100001Y-149350000D02*
X189900001Y-149550000D01*
X199100001Y-149550000D02*
X198300001Y-149550000D01*
X184450000Y-114100000D02*
X185350000Y-114100000D01*
X181875000Y-131200000D02*
X182125000Y-129500000D01*
X184700000Y-129500000D02*
X185500000Y-129500000D01*
X182150000Y-92600000D02*
X181450000Y-94200000D01*
X191300001Y-150750000D02*
X192500001Y-150750000D01*
X198300001Y-149550000D02*
X198300001Y-150750000D01*
D11*
X181650000Y-123050000D02*
G75*
G02*
X181150000Y-122550000I0J500000D01*
G01*
D10*
X193100001Y-150750000D02*
X193900001Y-150750000D01*
X181850000Y-114100000D02*
X181750000Y-114100000D01*
X192500001Y-150750000D02*
X192300001Y-150950000D01*
X195900001Y-149350000D02*
X194500001Y-149750000D01*
D11*
X181650000Y-117550000D02*
X186050000Y-117550000D01*
D10*
X185500000Y-52600000D02*
X184800000Y-53500000D01*
X184800000Y-53500000D02*
X185300000Y-54200000D01*
X210200000Y-137300000D02*
X187800000Y-137300000D01*
X182000000Y-52600000D02*
X182000000Y-54200000D01*
X184025000Y-72600000D02*
X182975000Y-74200000D01*
X199100001Y-150750000D02*
X200300001Y-149550000D01*
X180900000Y-52600000D02*
X180000000Y-54200000D01*
X183450000Y-93400000D02*
X183150000Y-93400000D01*
X213450000Y-143550000D02*
X214350000Y-143550000D01*
D11*
X181150000Y-135050000D02*
X181150000Y-139550000D01*
D10*
X182125000Y-129500000D02*
X182925000Y-129500000D01*
X196900001Y-150750000D02*
X196900001Y-150550000D01*
X200700001Y-149550000D02*
X199900001Y-150750000D01*
D11*
X181150000Y-78050000D02*
X181150000Y-82550000D01*
D10*
X198300001Y-150750000D02*
X199100001Y-149550000D01*
X194000000Y-28300000D02*
X195000000Y-26600000D01*
X193100001Y-149550000D02*
X193100001Y-150750000D01*
X195500000Y-27350000D02*
X195300000Y-26600000D01*
X189500001Y-149350000D02*
X188500001Y-148950000D01*
X182900000Y-32500000D02*
X182700000Y-32600000D01*
X180450000Y-93450000D02*
X180950000Y-94200000D01*
D11*
X181150000Y-58050000D02*
G75*
G02*
X181650000Y-57550000I500000J0D01*
G01*
D10*
X183550000Y-34175000D02*
X183650000Y-34075000D01*
X181300000Y-92500000D02*
X180450000Y-93450000D01*
D11*
X186500000Y-38050000D02*
X186500000Y-42550000D01*
D10*
X183225000Y-72600000D02*
X184025000Y-72600000D01*
X183500000Y-131200000D02*
X183700000Y-131200000D01*
D11*
X186050000Y-83050000D02*
X181650000Y-83050000D01*
D10*
X191700001Y-148550000D02*
X192500001Y-148550000D01*
X193100001Y-149550000D02*
X193900001Y-149550000D01*
X183800000Y-54200000D02*
X183700000Y-54200000D01*
X184800000Y-73500000D02*
X185300000Y-74200000D01*
X184400000Y-129500000D02*
X184200000Y-129500000D01*
X181750000Y-112400000D02*
X181550000Y-112300000D01*
X184400000Y-129500000D02*
X184400000Y-129700000D01*
X200700001Y-149550000D02*
X200500001Y-150750000D01*
X197650000Y-26650000D02*
X198450000Y-26650000D01*
X184300000Y-52600000D02*
X184300000Y-54200000D01*
D11*
X181100000Y-38050000D02*
G75*
G02*
X181600000Y-37550000I500000J0D01*
G01*
X186050000Y-77550000D02*
G75*
G02*
X186550000Y-78050000I0J-500000D01*
G01*
D10*
X194500001Y-148950000D02*
X195900001Y-149350000D01*
X184300000Y-72600000D02*
X183800000Y-74200000D01*
X185550000Y-73600000D02*
X185650000Y-73700000D01*
X185150000Y-92600000D02*
X185550000Y-92600000D01*
X182500000Y-131200000D02*
X183300000Y-129500000D01*
D11*
X186050000Y-117550000D02*
G75*
G02*
X186550000Y-118050000I0J-500000D01*
G01*
D10*
X198450000Y-26650000D02*
X197400000Y-28250000D01*
X185300000Y-54200000D02*
X185650000Y-53700000D01*
X182800000Y-53000000D02*
X182000000Y-52600000D01*
D12*
X203000000Y-100300000D02*
G75*
G02*
X187800000Y-100300000I-7600000J0D01*
G01*
X187800000Y-100300000D02*
G75*
G02*
X203000000Y-100300000I7600000J0D01*
G01*
D10*
X185300000Y-74200000D02*
X185650000Y-73700000D01*
X184800000Y-33800000D02*
X184800000Y-34200000D01*
X194500001Y-150750000D02*
X194500001Y-150550000D01*
X184300000Y-33500000D02*
X185200000Y-32600000D01*
D12*
X202999999Y-60300000D02*
G75*
G02*
X187799999Y-60300000I-7600000J0D01*
G01*
X187799999Y-60300000D02*
G75*
G02*
X202999999Y-60300000I7600000J0D01*
G01*
D10*
X184450000Y-114100000D02*
X184750000Y-112400000D01*
X193000000Y-26600000D02*
X193700000Y-27000000D01*
X200300001Y-149550000D02*
X200100001Y-149550000D01*
D11*
X186050000Y-63050000D02*
X181650000Y-63050000D01*
D10*
X183850000Y-112400000D02*
X184350000Y-112900000D01*
X183500000Y-131200000D02*
X183500000Y-131000000D01*
X193000000Y-26600000D02*
X192700000Y-28300000D01*
X210150000Y-100300000D02*
X203650000Y-100300000D01*
X193500000Y-27800000D02*
X193400000Y-28300000D01*
X196000000Y-26600000D02*
X195500000Y-27350000D01*
D11*
X186000000Y-43050000D02*
X181600000Y-43050000D01*
D10*
X182975000Y-54200000D02*
X183225000Y-52600000D01*
X191600000Y-28300000D02*
X192600000Y-27800000D01*
X182000000Y-74200000D02*
X182800000Y-73700000D01*
X209900000Y-132300000D02*
X219900000Y-132300000D01*
X219900000Y-142300000D01*
X209900000Y-142300000D01*
X209900000Y-132300000D01*
G36*
X209900000Y-132300000D02*
G01*
X219900000Y-132300000D01*
X219900000Y-142300000D01*
X209900000Y-142300000D01*
X209900000Y-132300000D01*
G37*
D11*
X181100000Y-38050000D02*
X181100000Y-42550000D01*
D10*
X182800000Y-73700000D02*
X182000000Y-73400000D01*
D11*
X181150000Y-118050000D02*
G75*
G02*
X181650000Y-117550000I500000J0D01*
G01*
X181150000Y-135050000D02*
G75*
G02*
X181650000Y-134550000I500000J0D01*
G01*
D10*
X180900000Y-72600000D02*
X180200000Y-74200000D01*
X183800000Y-74200000D02*
X183700000Y-74200000D01*
D11*
X186050000Y-123050000D02*
X181650000Y-123050000D01*
D10*
X184300000Y-72600000D02*
X184300000Y-74200000D01*
D11*
X181650000Y-140050000D02*
G75*
G02*
X181150000Y-139550000I0J500000D01*
G01*
D10*
X210150000Y-40300000D02*
X203650000Y-40300000D01*
D11*
X186550000Y-82550000D02*
G75*
G02*
X186050000Y-83050000I-500000J0D01*
G01*
D10*
X183050000Y-33425000D02*
X183550000Y-34175000D01*
D11*
X186000000Y-37550000D02*
G75*
G02*
X186500000Y-38050000I0J-500000D01*
G01*
D10*
X180750000Y-113000000D02*
X181650000Y-113500000D01*
X184750000Y-93000000D02*
G75*
G02*
X185150000Y-92600000I400000J0D01*
G01*
X184025000Y-52600000D02*
X182975000Y-54200000D01*
X184300000Y-52600000D02*
X183800000Y-54200000D01*
X183300000Y-129500000D02*
X183400000Y-129700000D01*
X210450000Y-120300000D02*
X187800000Y-120300000D01*
X194500001Y-150750000D02*
X194700001Y-150550000D01*
D11*
X186550000Y-98050000D02*
X186550000Y-102550000D01*
D10*
X184600000Y-92600000D02*
X183800000Y-94200000D01*
X183350000Y-113300000D02*
X183050000Y-113300000D01*
X190100001Y-149350000D02*
X190300001Y-149550000D01*
D12*
X202949999Y-80300000D02*
G75*
G02*
X187749999Y-80300000I-7600000J0D01*
G01*
X187749999Y-80300000D02*
G75*
G02*
X202949999Y-80300000I7600000J0D01*
G01*
D11*
X186050000Y-103050000D02*
X181650000Y-103050000D01*
D10*
X180900000Y-34200000D02*
X181700000Y-32500000D01*
X181900000Y-129500000D02*
X181800000Y-129500000D01*
X182950000Y-112400000D02*
X182850000Y-112400000D01*
X180850000Y-114100000D02*
X180850000Y-113900000D01*
D11*
X181600000Y-37550000D02*
X186000000Y-37550000D01*
D10*
X185350000Y-94200000D02*
X185150000Y-94000000D01*
X188500001Y-150750000D02*
X189500001Y-150150000D01*
D11*
X181150000Y-118050000D02*
X181150000Y-122550000D01*
D10*
X186500000Y-52600000D02*
X186400000Y-54200000D01*
X184300000Y-33500000D02*
X184800000Y-33800000D01*
X215950000Y-143550000D02*
X214950000Y-145250000D01*
X214350000Y-143550000D02*
X213950000Y-145250000D01*
X197700001Y-150350000D02*
X196900001Y-150750000D01*
X197300000Y-26900000D02*
X196600000Y-26600000D01*
X183550000Y-92600000D02*
X183450000Y-94200000D01*
X180900000Y-72600000D02*
X180800000Y-72600000D01*
X182150000Y-92600000D02*
X182050000Y-92600000D01*
X182000000Y-53400000D02*
X182800000Y-53000000D01*
D11*
X181650000Y-134550000D02*
X186050000Y-134550000D01*
D10*
X184750000Y-93000000D02*
X184550000Y-94200000D01*
X193100001Y-150150000D02*
X193300001Y-150150000D01*
X180950000Y-94200000D02*
X181050000Y-94100000D01*
X215550000Y-143550000D02*
X216250000Y-143550000D01*
X195900000Y-28300000D02*
X197100000Y-27700000D01*
X210149999Y-60300000D02*
X203649999Y-60300000D01*
X181500000Y-53400000D02*
X181700000Y-53400000D01*
X181300000Y-33500000D02*
X181800000Y-33800000D01*
D11*
X186050000Y-140050000D02*
X181650000Y-140050000D01*
D10*
X192000000Y-26600000D02*
X191600000Y-28300000D01*
X188500001Y-149750000D02*
X189500001Y-149350000D01*
X183550000Y-92600000D02*
X182750000Y-94200000D01*
X186500000Y-52600000D02*
X185700000Y-54200000D01*
X195300000Y-26600000D02*
X194800000Y-28300000D01*
X197100000Y-27700000D02*
X196300000Y-27300000D01*
X181400000Y-52600000D02*
X180500000Y-54200000D01*
X190100001Y-149350000D02*
X190100001Y-150750000D01*
D11*
X186550000Y-58050000D02*
X186550000Y-62550000D01*
D10*
X181300000Y-129500000D02*
X180800000Y-131200000D01*
X201700001Y-149550000D02*
X201100001Y-150750000D01*
D11*
X181650000Y-77550000D02*
X186050000Y-77550000D01*
D10*
X197900001Y-149550000D02*
X197900001Y-149750000D01*
X183900000Y-32475000D02*
X183050000Y-33425000D01*
X200500001Y-150750000D02*
X201300001Y-149550000D01*
X201100001Y-150750000D02*
X202100001Y-150350000D01*
X182975000Y-74200000D02*
X183225000Y-72600000D01*
X191300001Y-148950000D02*
X191300001Y-150750000D01*
X210099999Y-80300000D02*
X203599999Y-80300000D01*
%LPC*%
D13*
X186150000Y-139600000D02*
X181550000Y-139600000D01*
X181550000Y-135000000D01*
X186150000Y-135000000D01*
X186150000Y-139600000D01*
G36*
X186150000Y-139600000D02*
G01*
X181550000Y-139600000D01*
X181550000Y-135000000D01*
X186150000Y-135000000D01*
X186150000Y-139600000D01*
G37*
X186100000Y-42600000D02*
X181500000Y-42600000D01*
X181500000Y-38000000D01*
X186100000Y-38000000D01*
X186100000Y-42600000D01*
G36*
X186100000Y-42600000D02*
G01*
X181500000Y-42600000D01*
X181500000Y-38000000D01*
X186100000Y-38000000D01*
X186100000Y-42600000D01*
G37*
X186150000Y-82600000D02*
X181550000Y-82600000D01*
X181550000Y-78000000D01*
X186150000Y-78000000D01*
X186150000Y-82600000D01*
G36*
X186150000Y-82600000D02*
G01*
X181550000Y-82600000D01*
X181550000Y-78000000D01*
X186150000Y-78000000D01*
X186150000Y-82600000D01*
G37*
X186150000Y-122600000D02*
X181550000Y-122600000D01*
X181550000Y-118000000D01*
X186150000Y-118000000D01*
X186150000Y-122600000D01*
G36*
X186150000Y-122600000D02*
G01*
X181550000Y-122600000D01*
X181550000Y-118000000D01*
X186150000Y-118000000D01*
X186150000Y-122600000D01*
G37*
X186150000Y-102600000D02*
X181550000Y-102600000D01*
X181550000Y-98000000D01*
X186150000Y-98000000D01*
X186150000Y-102600000D01*
G36*
X186150000Y-102600000D02*
G01*
X181550000Y-102600000D01*
X181550000Y-98000000D01*
X186150000Y-98000000D01*
X186150000Y-102600000D01*
G37*
X186150000Y-62600000D02*
X181550000Y-62600000D01*
X181550000Y-58000000D01*
X186150000Y-58000000D01*
X186150000Y-62600000D01*
G36*
X186150000Y-62600000D02*
G01*
X181550000Y-62600000D01*
X181550000Y-58000000D01*
X186150000Y-58000000D01*
X186150000Y-62600000D01*
G37*
D14*
X177400000Y-27800000D03*
X213400000Y-27800000D03*
X177400000Y-150300000D03*
X213400000Y-150300000D03*
%LPD*%
M02*
