G04 #@! TF.GenerationSoftware,KiCad,Pcbnew,8.0.6-8.0.6-0~ubuntu22.04.1*
G04 #@! TF.CreationDate,2025-02-02T12:48:29+01:00*
G04 #@! TF.ProjectId,Drumbox,4472756d-626f-4782-9e6b-696361645f70,rev?*
G04 #@! TF.SameCoordinates,Original*
G04 #@! TF.FileFunction,Copper,L2,Bot*
G04 #@! TF.FilePolarity,Positive*
%FSLAX46Y46*%
G04 Gerber Fmt 4.6, Leading zero omitted, Abs format (unit mm)*
G04 Created by KiCad (PCBNEW 8.0.6-8.0.6-0~ubuntu22.04.1) date 2025-02-02 12:48:29*
%MOMM*%
%LPD*%
G01*
G04 APERTURE LIST*
G04 #@! TA.AperFunction,ComponentPad*
%ADD10O,6.700000X4.200000*%
G04 #@! TD*
G04 #@! TA.AperFunction,ViaPad*
%ADD11C,8.000000*%
G04 #@! TD*
G04 APERTURE END LIST*
D10*
X177400000Y-27800000D03*
X213400000Y-27800000D03*
X177400000Y-150300000D03*
X213400000Y-150300000D03*
D11*
X175899999Y-137300000D03*
X214900001Y-100300000D03*
X175899999Y-60300000D03*
X214900001Y-120250000D03*
X175900000Y-120250000D03*
X175900000Y-40300000D03*
X195399999Y-60300000D03*
X214850000Y-80300000D03*
X214900001Y-40300000D03*
X175900000Y-100300000D03*
X214900000Y-60300000D03*
X195349999Y-80300000D03*
X214900001Y-137300000D03*
X195400000Y-40300000D03*
X175849999Y-80300000D03*
X195400000Y-100300000D03*
G04 #@! TA.AperFunction,Conductor*
G36*
X220317540Y-24845185D02*
G01*
X220363295Y-24897989D01*
X220374501Y-24949500D01*
X220374501Y-153150500D01*
X220354816Y-153217539D01*
X220302012Y-153263294D01*
X220250501Y-153274500D01*
X170549500Y-153274500D01*
X170482461Y-153254815D01*
X170436706Y-153202011D01*
X170425500Y-153150500D01*
X170425500Y-150050000D01*
X173561716Y-150050000D01*
X174670898Y-150050000D01*
X174650000Y-150181947D01*
X174650000Y-150418053D01*
X174670898Y-150550000D01*
X173561716Y-150550000D01*
X173582694Y-150736189D01*
X173582696Y-150736201D01*
X173647678Y-151020910D01*
X173647681Y-151020918D01*
X173744129Y-151296548D01*
X173870831Y-151559648D01*
X174026199Y-151806914D01*
X174208274Y-152035230D01*
X174414769Y-152241725D01*
X174643085Y-152423800D01*
X174890351Y-152579168D01*
X175153451Y-152705870D01*
X175429081Y-152802318D01*
X175429089Y-152802321D01*
X175713798Y-152867303D01*
X175713812Y-152867306D01*
X176003980Y-152899999D01*
X176003984Y-152900000D01*
X177150000Y-152900000D01*
X177150000Y-151800000D01*
X177650000Y-151800000D01*
X177650000Y-152900000D01*
X178796016Y-152900000D01*
X178796019Y-152899999D01*
X179086187Y-152867306D01*
X179086201Y-152867303D01*
X179370910Y-152802321D01*
X179370918Y-152802318D01*
X179646548Y-152705870D01*
X179909648Y-152579168D01*
X180156914Y-152423800D01*
X180385230Y-152241725D01*
X180591725Y-152035230D01*
X180773800Y-151806914D01*
X180929168Y-151559648D01*
X181055870Y-151296548D01*
X181152318Y-151020918D01*
X181152321Y-151020910D01*
X181217303Y-150736201D01*
X181217305Y-150736189D01*
X181238284Y-150550000D01*
X180129102Y-150550000D01*
X180150000Y-150418053D01*
X180150000Y-150181947D01*
X180129102Y-150050000D01*
X181238284Y-150050000D01*
X209561716Y-150050000D01*
X210670898Y-150050000D01*
X210650000Y-150181947D01*
X210650000Y-150418053D01*
X210670898Y-150550000D01*
X209561716Y-150550000D01*
X209582694Y-150736189D01*
X209582696Y-150736201D01*
X209647678Y-151020910D01*
X209647681Y-151020918D01*
X209744129Y-151296548D01*
X209870831Y-151559648D01*
X210026199Y-151806914D01*
X210208274Y-152035230D01*
X210414769Y-152241725D01*
X210643085Y-152423800D01*
X210890351Y-152579168D01*
X211153451Y-152705870D01*
X211429081Y-152802318D01*
X211429089Y-152802321D01*
X211713798Y-152867303D01*
X211713812Y-152867306D01*
X212003980Y-152899999D01*
X212003984Y-152900000D01*
X213150000Y-152900000D01*
X213150000Y-151800000D01*
X213650000Y-151800000D01*
X213650000Y-152900000D01*
X214796016Y-152900000D01*
X214796019Y-152899999D01*
X215086187Y-152867306D01*
X215086201Y-152867303D01*
X215370910Y-152802321D01*
X215370918Y-152802318D01*
X215646548Y-152705870D01*
X215909648Y-152579168D01*
X216156914Y-152423800D01*
X216385230Y-152241725D01*
X216591725Y-152035230D01*
X216773800Y-151806914D01*
X216929168Y-151559648D01*
X217055870Y-151296548D01*
X217152318Y-151020918D01*
X217152321Y-151020910D01*
X217217303Y-150736201D01*
X217217305Y-150736189D01*
X217238284Y-150550000D01*
X216129102Y-150550000D01*
X216150000Y-150418053D01*
X216150000Y-150181947D01*
X216129102Y-150050000D01*
X217238284Y-150050000D01*
X217217305Y-149863810D01*
X217217303Y-149863798D01*
X217152321Y-149579089D01*
X217152318Y-149579081D01*
X217055870Y-149303451D01*
X216929168Y-149040351D01*
X216773800Y-148793085D01*
X216591725Y-148564769D01*
X216385230Y-148358274D01*
X216156914Y-148176199D01*
X215909648Y-148020831D01*
X215646548Y-147894129D01*
X215370918Y-147797681D01*
X215370910Y-147797678D01*
X215086201Y-147732696D01*
X215086187Y-147732693D01*
X214796019Y-147700000D01*
X213650000Y-147700000D01*
X213650000Y-148800000D01*
X213150000Y-148800000D01*
X213150000Y-147700000D01*
X212003980Y-147700000D01*
X211713812Y-147732693D01*
X211713798Y-147732696D01*
X211429089Y-147797678D01*
X211429081Y-147797681D01*
X211153451Y-147894129D01*
X210890351Y-148020831D01*
X210643085Y-148176199D01*
X210414769Y-148358274D01*
X210208274Y-148564769D01*
X210026199Y-148793085D01*
X209870831Y-149040351D01*
X209744129Y-149303451D01*
X209647681Y-149579081D01*
X209647678Y-149579089D01*
X209582696Y-149863798D01*
X209582694Y-149863810D01*
X209561716Y-150050000D01*
X181238284Y-150050000D01*
X181217305Y-149863810D01*
X181217303Y-149863798D01*
X181152321Y-149579089D01*
X181152318Y-149579081D01*
X181055870Y-149303451D01*
X180929168Y-149040351D01*
X180773800Y-148793085D01*
X180591725Y-148564769D01*
X180385230Y-148358274D01*
X180156914Y-148176199D01*
X179909648Y-148020831D01*
X179646548Y-147894129D01*
X179370918Y-147797681D01*
X179370910Y-147797678D01*
X179086201Y-147732696D01*
X179086187Y-147732693D01*
X178796019Y-147700000D01*
X177650000Y-147700000D01*
X177650000Y-148800000D01*
X177150000Y-148800000D01*
X177150000Y-147700000D01*
X176003980Y-147700000D01*
X175713812Y-147732693D01*
X175713798Y-147732696D01*
X175429089Y-147797678D01*
X175429081Y-147797681D01*
X175153451Y-147894129D01*
X174890351Y-148020831D01*
X174643085Y-148176199D01*
X174414769Y-148358274D01*
X174208274Y-148564769D01*
X174026199Y-148793085D01*
X173870831Y-149040351D01*
X173744129Y-149303451D01*
X173647681Y-149579081D01*
X173647678Y-149579089D01*
X173582696Y-149863798D01*
X173582694Y-149863810D01*
X173561716Y-150050000D01*
X170425500Y-150050000D01*
X170425500Y-139600000D01*
X181550000Y-139600000D01*
X186150000Y-139600000D01*
X186150000Y-135000000D01*
X181550000Y-135000000D01*
X181550000Y-139600000D01*
X170425500Y-139600000D01*
X170425501Y-122600000D01*
X181550000Y-122600000D01*
X186150000Y-122600000D01*
X186150000Y-118000000D01*
X181550000Y-118000000D01*
X181550000Y-122600000D01*
X170425501Y-122600000D01*
X170425501Y-102600000D01*
X181550000Y-102600000D01*
X186150000Y-102600000D01*
X186150000Y-98000000D01*
X181550000Y-98000000D01*
X181550000Y-102600000D01*
X170425501Y-102600000D01*
X170425501Y-82600000D01*
X181550000Y-82600000D01*
X186150000Y-82600000D01*
X186150000Y-78000000D01*
X181550000Y-78000000D01*
X181550000Y-82600000D01*
X170425501Y-82600000D01*
X170425501Y-62600000D01*
X181550000Y-62600000D01*
X186150000Y-62600000D01*
X186150000Y-58000000D01*
X181550000Y-58000000D01*
X181550000Y-62600000D01*
X170425501Y-62600000D01*
X170425501Y-42600000D01*
X181500000Y-42600000D01*
X186100000Y-42600000D01*
X186100000Y-38000000D01*
X181500000Y-38000000D01*
X181500000Y-42600000D01*
X170425501Y-42600000D01*
X170425501Y-27550000D01*
X173561716Y-27550000D01*
X174670898Y-27550000D01*
X174650000Y-27681947D01*
X174650000Y-27918053D01*
X174670898Y-28050000D01*
X173561716Y-28050000D01*
X173582694Y-28236189D01*
X173582696Y-28236201D01*
X173647678Y-28520910D01*
X173647681Y-28520918D01*
X173744129Y-28796548D01*
X173870831Y-29059648D01*
X174026199Y-29306914D01*
X174208274Y-29535230D01*
X174414769Y-29741725D01*
X174643085Y-29923800D01*
X174890351Y-30079168D01*
X175153451Y-30205870D01*
X175429081Y-30302318D01*
X175429089Y-30302321D01*
X175713798Y-30367303D01*
X175713812Y-30367306D01*
X176003980Y-30399999D01*
X176003984Y-30400000D01*
X177150000Y-30400000D01*
X177150000Y-29300000D01*
X177650000Y-29300000D01*
X177650000Y-30400000D01*
X178796016Y-30400000D01*
X178796019Y-30399999D01*
X179086187Y-30367306D01*
X179086201Y-30367303D01*
X179370910Y-30302321D01*
X179370918Y-30302318D01*
X179646548Y-30205870D01*
X179909648Y-30079168D01*
X180156914Y-29923800D01*
X180385230Y-29741725D01*
X180591725Y-29535230D01*
X180773800Y-29306914D01*
X180929168Y-29059648D01*
X181055870Y-28796548D01*
X181152318Y-28520918D01*
X181152321Y-28520910D01*
X181217303Y-28236201D01*
X181217305Y-28236189D01*
X181238284Y-28050000D01*
X180129102Y-28050000D01*
X180150000Y-27918053D01*
X180150000Y-27681947D01*
X180129102Y-27550000D01*
X181238284Y-27550000D01*
X209561716Y-27550000D01*
X210670898Y-27550000D01*
X210650000Y-27681947D01*
X210650000Y-27918053D01*
X210670898Y-28050000D01*
X209561716Y-28050000D01*
X209582694Y-28236189D01*
X209582696Y-28236201D01*
X209647678Y-28520910D01*
X209647681Y-28520918D01*
X209744129Y-28796548D01*
X209870831Y-29059648D01*
X210026199Y-29306914D01*
X210208274Y-29535230D01*
X210414769Y-29741725D01*
X210643085Y-29923800D01*
X210890351Y-30079168D01*
X211153451Y-30205870D01*
X211429081Y-30302318D01*
X211429089Y-30302321D01*
X211713798Y-30367303D01*
X211713812Y-30367306D01*
X212003980Y-30399999D01*
X212003984Y-30400000D01*
X213150000Y-30400000D01*
X213150000Y-29300000D01*
X213650000Y-29300000D01*
X213650000Y-30400000D01*
X214796016Y-30400000D01*
X214796019Y-30399999D01*
X215086187Y-30367306D01*
X215086201Y-30367303D01*
X215370910Y-30302321D01*
X215370918Y-30302318D01*
X215646548Y-30205870D01*
X215909648Y-30079168D01*
X216156914Y-29923800D01*
X216385230Y-29741725D01*
X216591725Y-29535230D01*
X216773800Y-29306914D01*
X216929168Y-29059648D01*
X217055870Y-28796548D01*
X217152318Y-28520918D01*
X217152321Y-28520910D01*
X217217303Y-28236201D01*
X217217305Y-28236189D01*
X217238284Y-28050000D01*
X216129102Y-28050000D01*
X216150000Y-27918053D01*
X216150000Y-27681947D01*
X216129102Y-27550000D01*
X217238284Y-27550000D01*
X217217305Y-27363810D01*
X217217303Y-27363798D01*
X217152321Y-27079089D01*
X217152318Y-27079081D01*
X217055870Y-26803451D01*
X216929168Y-26540351D01*
X216773800Y-26293085D01*
X216591725Y-26064769D01*
X216385230Y-25858274D01*
X216156914Y-25676199D01*
X215909648Y-25520831D01*
X215646548Y-25394129D01*
X215370918Y-25297681D01*
X215370910Y-25297678D01*
X215086201Y-25232696D01*
X215086187Y-25232693D01*
X214796019Y-25200000D01*
X213650000Y-25200000D01*
X213650000Y-26300000D01*
X213150000Y-26300000D01*
X213150000Y-25200000D01*
X212003980Y-25200000D01*
X211713812Y-25232693D01*
X211713798Y-25232696D01*
X211429089Y-25297678D01*
X211429081Y-25297681D01*
X211153451Y-25394129D01*
X210890351Y-25520831D01*
X210643085Y-25676199D01*
X210414769Y-25858274D01*
X210208274Y-26064769D01*
X210026199Y-26293085D01*
X209870831Y-26540351D01*
X209744129Y-26803451D01*
X209647681Y-27079081D01*
X209647678Y-27079089D01*
X209582696Y-27363798D01*
X209582694Y-27363810D01*
X209561716Y-27550000D01*
X181238284Y-27550000D01*
X181217305Y-27363810D01*
X181217303Y-27363798D01*
X181152321Y-27079089D01*
X181152318Y-27079081D01*
X181055870Y-26803451D01*
X180929168Y-26540351D01*
X180773800Y-26293085D01*
X180591725Y-26064769D01*
X180385230Y-25858274D01*
X180156914Y-25676199D01*
X179909648Y-25520831D01*
X179646548Y-25394129D01*
X179370918Y-25297681D01*
X179370910Y-25297678D01*
X179086201Y-25232696D01*
X179086187Y-25232693D01*
X178796019Y-25200000D01*
X177650000Y-25200000D01*
X177650000Y-26300000D01*
X177150000Y-26300000D01*
X177150000Y-25200000D01*
X176003980Y-25200000D01*
X175713812Y-25232693D01*
X175713798Y-25232696D01*
X175429089Y-25297678D01*
X175429081Y-25297681D01*
X175153451Y-25394129D01*
X174890351Y-25520831D01*
X174643085Y-25676199D01*
X174414769Y-25858274D01*
X174208274Y-26064769D01*
X174026199Y-26293085D01*
X173870831Y-26540351D01*
X173744129Y-26803451D01*
X173647681Y-27079081D01*
X173647678Y-27079089D01*
X173582696Y-27363798D01*
X173582694Y-27363810D01*
X173561716Y-27550000D01*
X170425501Y-27550000D01*
X170425501Y-24949500D01*
X170445186Y-24882461D01*
X170497990Y-24836706D01*
X170549501Y-24825500D01*
X220250501Y-24825500D01*
X220317540Y-24845185D01*
G37*
G04 #@! TD.AperFunction*
M02*
