%TF.GenerationSoftware,KiCad,Pcbnew,8.0.6-8.0.6-0~ubuntu22.04.1*%
%TF.CreationDate,2025-02-02T12:48:30+01:00*%
%TF.ProjectId,Drumbox,4472756d-626f-4782-9e6b-696361645f70,rev?*%
%TF.SameCoordinates,Original*%
%TF.FileFunction,Drillmap*%
%TF.FilePolarity,Positive*%
%FSLAX45Y45*%
G04 Gerber Fmt 4.5, Leading zero omitted, Abs format (unit mm)*
G04 Created by KiCad (PCBNEW 8.0.6-8.0.6-0~ubuntu22.04.1) date 2025-02-02 12:48:30*
%MOMM*%
%LPD*%
G01*
G04 APERTURE LIST*
%ADD10C,0.050000*%
%ADD11C,0.200000*%
%ADD12C,0.300000*%
%ADD13C,0.100000*%
%ADD14C,0.620000*%
%ADD15C,0.700000*%
G04 APERTURE END LIST*
D10*
X22040000Y-15330000D02*
X17040000Y-15330000D01*
X17040000Y-2480000D02*
X17040000Y-15330000D01*
X22040000Y-2480000D02*
X22040000Y-15330000D01*
X17040000Y-2480000D02*
X22040000Y-2480000D01*
D11*
D12*
X17590000Y-2630000D02*
X17890000Y-2930000D01*
X17890000Y-2630000D02*
X17590000Y-2930000D01*
D13*
X17615000Y-2930000D02*
X17865000Y-2930000D01*
X17865000Y-2630000D02*
G75*
G02*
X17865000Y-2930000I0J-150000D01*
G01*
X17865000Y-2630000D02*
X17615000Y-2630000D01*
X17615000Y-2630000D02*
G75*
G03*
X17615000Y-2930000I0J-150000D01*
G01*
D12*
X17590000Y-14880000D02*
X17890000Y-15180000D01*
X17890000Y-14880000D02*
X17590000Y-15180000D01*
D13*
X17615000Y-15180000D02*
X17865000Y-15180000D01*
X17865000Y-14880000D02*
G75*
G02*
X17865000Y-15180000I0J-150000D01*
G01*
X17865000Y-14880000D02*
X17615000Y-14880000D01*
X17615000Y-14880000D02*
G75*
G03*
X17615000Y-15180000I0J-150000D01*
G01*
D12*
X21190000Y-2630000D02*
X21490000Y-2930000D01*
X21490000Y-2630000D02*
X21190000Y-2930000D01*
D13*
X21215000Y-2930000D02*
X21465000Y-2930000D01*
X21465000Y-2630000D02*
G75*
G02*
X21465000Y-2930000I0J-150000D01*
G01*
X21465000Y-2630000D02*
X21215000Y-2630000D01*
X21215000Y-2630000D02*
G75*
G03*
X21215000Y-2930000I0J-150000D01*
G01*
D12*
X21190000Y-14880000D02*
X21490000Y-15180000D01*
X21490000Y-14880000D02*
X21190000Y-15180000D01*
D13*
X21215000Y-15180000D02*
X21465000Y-15180000D01*
X21465000Y-14880000D02*
G75*
G02*
X21465000Y-15180000I0J-150000D01*
G01*
X21465000Y-14880000D02*
X21215000Y-14880000D01*
X21215000Y-14880000D02*
G75*
G03*
X21215000Y-15180000I0J-150000D01*
G01*
D14*
X17895000Y-8030000D02*
G75*
G02*
X17275000Y-8030000I-310000J0D01*
G01*
X17275000Y-8030000D02*
G75*
G02*
X17895000Y-8030000I310000J0D01*
G01*
X17900000Y-6030000D02*
G75*
G02*
X17280000Y-6030000I-310000J0D01*
G01*
X17280000Y-6030000D02*
G75*
G02*
X17900000Y-6030000I310000J0D01*
G01*
X17900000Y-13730000D02*
G75*
G02*
X17280000Y-13730000I-310000J0D01*
G01*
X17280000Y-13730000D02*
G75*
G02*
X17900000Y-13730000I310000J0D01*
G01*
X17900000Y-4030000D02*
G75*
G02*
X17280000Y-4030000I-310000J0D01*
G01*
X17280000Y-4030000D02*
G75*
G02*
X17900000Y-4030000I310000J0D01*
G01*
X17900000Y-10030000D02*
G75*
G02*
X17280000Y-10030000I-310000J0D01*
G01*
X17280000Y-10030000D02*
G75*
G02*
X17900000Y-10030000I310000J0D01*
G01*
X17900000Y-12025000D02*
G75*
G02*
X17280000Y-12025000I-310000J0D01*
G01*
X17280000Y-12025000D02*
G75*
G02*
X17900000Y-12025000I310000J0D01*
G01*
X21795000Y-8030000D02*
G75*
G02*
X21175000Y-8030000I-310000J0D01*
G01*
X21175000Y-8030000D02*
G75*
G02*
X21795000Y-8030000I310000J0D01*
G01*
X21800000Y-6030000D02*
G75*
G02*
X21180000Y-6030000I-310000J0D01*
G01*
X21180000Y-6030000D02*
G75*
G02*
X21800000Y-6030000I310000J0D01*
G01*
X21800000Y-4030000D02*
G75*
G02*
X21180000Y-4030000I-310000J0D01*
G01*
X21180000Y-4030000D02*
G75*
G02*
X21800000Y-4030000I310000J0D01*
G01*
X21800000Y-10030000D02*
G75*
G02*
X21180000Y-10030000I-310000J0D01*
G01*
X21180000Y-10030000D02*
G75*
G02*
X21800000Y-10030000I310000J0D01*
G01*
X21800000Y-12025000D02*
G75*
G02*
X21180000Y-12025000I-310000J0D01*
G01*
X21180000Y-12025000D02*
G75*
G02*
X21800000Y-12025000I310000J0D01*
G01*
X21800000Y-13730000D02*
G75*
G02*
X21180000Y-13730000I-310000J0D01*
G01*
X21180000Y-13730000D02*
G75*
G02*
X21800000Y-13730000I310000J0D01*
G01*
D15*
X19535000Y-7680000D02*
X19535000Y-8380000D01*
X19185000Y-8030000D02*
X19885000Y-8030000D01*
X19540000Y-5680000D02*
X19540000Y-6380000D01*
X19190000Y-6030000D02*
X19890000Y-6030000D01*
X19540000Y-3680000D02*
X19540000Y-4380000D01*
X19190000Y-4030000D02*
X19890000Y-4030000D01*
X19540000Y-9680000D02*
X19540000Y-10380000D01*
X19190000Y-10030000D02*
X19890000Y-10030000D01*
D11*
X17298277Y-15643984D02*
X17298277Y-15443984D01*
X17298277Y-15443984D02*
X17345896Y-15443984D01*
X17345896Y-15443984D02*
X17374467Y-15453508D01*
X17374467Y-15453508D02*
X17393515Y-15472555D01*
X17393515Y-15472555D02*
X17403039Y-15491603D01*
X17403039Y-15491603D02*
X17412563Y-15529698D01*
X17412563Y-15529698D02*
X17412563Y-15558269D01*
X17412563Y-15558269D02*
X17403039Y-15596365D01*
X17403039Y-15596365D02*
X17393515Y-15615412D01*
X17393515Y-15615412D02*
X17374467Y-15634460D01*
X17374467Y-15634460D02*
X17345896Y-15643984D01*
X17345896Y-15643984D02*
X17298277Y-15643984D01*
X17498277Y-15643984D02*
X17498277Y-15510650D01*
X17498277Y-15548746D02*
X17507801Y-15529698D01*
X17507801Y-15529698D02*
X17517324Y-15520174D01*
X17517324Y-15520174D02*
X17536372Y-15510650D01*
X17536372Y-15510650D02*
X17555420Y-15510650D01*
X17622086Y-15643984D02*
X17622086Y-15510650D01*
X17622086Y-15443984D02*
X17612563Y-15453508D01*
X17612563Y-15453508D02*
X17622086Y-15463031D01*
X17622086Y-15463031D02*
X17631610Y-15453508D01*
X17631610Y-15453508D02*
X17622086Y-15443984D01*
X17622086Y-15443984D02*
X17622086Y-15463031D01*
X17745896Y-15643984D02*
X17726848Y-15634460D01*
X17726848Y-15634460D02*
X17717324Y-15615412D01*
X17717324Y-15615412D02*
X17717324Y-15443984D01*
X17850658Y-15643984D02*
X17831610Y-15634460D01*
X17831610Y-15634460D02*
X17822086Y-15615412D01*
X17822086Y-15615412D02*
X17822086Y-15443984D01*
X18079229Y-15643984D02*
X18079229Y-15443984D01*
X18079229Y-15443984D02*
X18145896Y-15586841D01*
X18145896Y-15586841D02*
X18212563Y-15443984D01*
X18212563Y-15443984D02*
X18212563Y-15643984D01*
X18393515Y-15643984D02*
X18393515Y-15539222D01*
X18393515Y-15539222D02*
X18383991Y-15520174D01*
X18383991Y-15520174D02*
X18364944Y-15510650D01*
X18364944Y-15510650D02*
X18326848Y-15510650D01*
X18326848Y-15510650D02*
X18307801Y-15520174D01*
X18393515Y-15634460D02*
X18374467Y-15643984D01*
X18374467Y-15643984D02*
X18326848Y-15643984D01*
X18326848Y-15643984D02*
X18307801Y-15634460D01*
X18307801Y-15634460D02*
X18298277Y-15615412D01*
X18298277Y-15615412D02*
X18298277Y-15596365D01*
X18298277Y-15596365D02*
X18307801Y-15577317D01*
X18307801Y-15577317D02*
X18326848Y-15567793D01*
X18326848Y-15567793D02*
X18374467Y-15567793D01*
X18374467Y-15567793D02*
X18393515Y-15558269D01*
X18488753Y-15510650D02*
X18488753Y-15710650D01*
X18488753Y-15520174D02*
X18507801Y-15510650D01*
X18507801Y-15510650D02*
X18545896Y-15510650D01*
X18545896Y-15510650D02*
X18564944Y-15520174D01*
X18564944Y-15520174D02*
X18574467Y-15529698D01*
X18574467Y-15529698D02*
X18583991Y-15548746D01*
X18583991Y-15548746D02*
X18583991Y-15605888D01*
X18583991Y-15605888D02*
X18574467Y-15624936D01*
X18574467Y-15624936D02*
X18564944Y-15634460D01*
X18564944Y-15634460D02*
X18545896Y-15643984D01*
X18545896Y-15643984D02*
X18507801Y-15643984D01*
X18507801Y-15643984D02*
X18488753Y-15634460D01*
X18669705Y-15624936D02*
X18679229Y-15634460D01*
X18679229Y-15634460D02*
X18669705Y-15643984D01*
X18669705Y-15643984D02*
X18660182Y-15634460D01*
X18660182Y-15634460D02*
X18669705Y-15624936D01*
X18669705Y-15624936D02*
X18669705Y-15643984D01*
X18669705Y-15520174D02*
X18679229Y-15529698D01*
X18679229Y-15529698D02*
X18669705Y-15539222D01*
X18669705Y-15539222D02*
X18660182Y-15529698D01*
X18660182Y-15529698D02*
X18669705Y-15520174D01*
X18669705Y-15520174D02*
X18669705Y-15539222D01*
X16837500Y-15872500D02*
X17037500Y-16072500D01*
X17037500Y-15872500D02*
X16837500Y-16072500D01*
X17279229Y-15863984D02*
X17403039Y-15863984D01*
X17403039Y-15863984D02*
X17336372Y-15940174D01*
X17336372Y-15940174D02*
X17364944Y-15940174D01*
X17364944Y-15940174D02*
X17383991Y-15949698D01*
X17383991Y-15949698D02*
X17393515Y-15959222D01*
X17393515Y-15959222D02*
X17403039Y-15978269D01*
X17403039Y-15978269D02*
X17403039Y-16025888D01*
X17403039Y-16025888D02*
X17393515Y-16044936D01*
X17393515Y-16044936D02*
X17383991Y-16054460D01*
X17383991Y-16054460D02*
X17364944Y-16063984D01*
X17364944Y-16063984D02*
X17307801Y-16063984D01*
X17307801Y-16063984D02*
X17288753Y-16054460D01*
X17288753Y-16054460D02*
X17279229Y-16044936D01*
X17488753Y-16044936D02*
X17498277Y-16054460D01*
X17498277Y-16054460D02*
X17488753Y-16063984D01*
X17488753Y-16063984D02*
X17479229Y-16054460D01*
X17479229Y-16054460D02*
X17488753Y-16044936D01*
X17488753Y-16044936D02*
X17488753Y-16063984D01*
X17622086Y-15863984D02*
X17641134Y-15863984D01*
X17641134Y-15863984D02*
X17660182Y-15873508D01*
X17660182Y-15873508D02*
X17669705Y-15883031D01*
X17669705Y-15883031D02*
X17679229Y-15902079D01*
X17679229Y-15902079D02*
X17688753Y-15940174D01*
X17688753Y-15940174D02*
X17688753Y-15987793D01*
X17688753Y-15987793D02*
X17679229Y-16025888D01*
X17679229Y-16025888D02*
X17669705Y-16044936D01*
X17669705Y-16044936D02*
X17660182Y-16054460D01*
X17660182Y-16054460D02*
X17641134Y-16063984D01*
X17641134Y-16063984D02*
X17622086Y-16063984D01*
X17622086Y-16063984D02*
X17603039Y-16054460D01*
X17603039Y-16054460D02*
X17593515Y-16044936D01*
X17593515Y-16044936D02*
X17583991Y-16025888D01*
X17583991Y-16025888D02*
X17574467Y-15987793D01*
X17574467Y-15987793D02*
X17574467Y-15940174D01*
X17574467Y-15940174D02*
X17583991Y-15902079D01*
X17583991Y-15902079D02*
X17593515Y-15883031D01*
X17593515Y-15883031D02*
X17603039Y-15873508D01*
X17603039Y-15873508D02*
X17622086Y-15863984D01*
X17812563Y-15863984D02*
X17831610Y-15863984D01*
X17831610Y-15863984D02*
X17850658Y-15873508D01*
X17850658Y-15873508D02*
X17860182Y-15883031D01*
X17860182Y-15883031D02*
X17869705Y-15902079D01*
X17869705Y-15902079D02*
X17879229Y-15940174D01*
X17879229Y-15940174D02*
X17879229Y-15987793D01*
X17879229Y-15987793D02*
X17869705Y-16025888D01*
X17869705Y-16025888D02*
X17860182Y-16044936D01*
X17860182Y-16044936D02*
X17850658Y-16054460D01*
X17850658Y-16054460D02*
X17831610Y-16063984D01*
X17831610Y-16063984D02*
X17812563Y-16063984D01*
X17812563Y-16063984D02*
X17793515Y-16054460D01*
X17793515Y-16054460D02*
X17783991Y-16044936D01*
X17783991Y-16044936D02*
X17774467Y-16025888D01*
X17774467Y-16025888D02*
X17764944Y-15987793D01*
X17764944Y-15987793D02*
X17764944Y-15940174D01*
X17764944Y-15940174D02*
X17774467Y-15902079D01*
X17774467Y-15902079D02*
X17783991Y-15883031D01*
X17783991Y-15883031D02*
X17793515Y-15873508D01*
X17793515Y-15873508D02*
X17812563Y-15863984D01*
X18003039Y-15863984D02*
X18022086Y-15863984D01*
X18022086Y-15863984D02*
X18041134Y-15873508D01*
X18041134Y-15873508D02*
X18050658Y-15883031D01*
X18050658Y-15883031D02*
X18060182Y-15902079D01*
X18060182Y-15902079D02*
X18069705Y-15940174D01*
X18069705Y-15940174D02*
X18069705Y-15987793D01*
X18069705Y-15987793D02*
X18060182Y-16025888D01*
X18060182Y-16025888D02*
X18050658Y-16044936D01*
X18050658Y-16044936D02*
X18041134Y-16054460D01*
X18041134Y-16054460D02*
X18022086Y-16063984D01*
X18022086Y-16063984D02*
X18003039Y-16063984D01*
X18003039Y-16063984D02*
X17983991Y-16054460D01*
X17983991Y-16054460D02*
X17974467Y-16044936D01*
X17974467Y-16044936D02*
X17964944Y-16025888D01*
X17964944Y-16025888D02*
X17955420Y-15987793D01*
X17955420Y-15987793D02*
X17955420Y-15940174D01*
X17955420Y-15940174D02*
X17964944Y-15902079D01*
X17964944Y-15902079D02*
X17974467Y-15883031D01*
X17974467Y-15883031D02*
X17983991Y-15873508D01*
X17983991Y-15873508D02*
X18003039Y-15863984D01*
X18155420Y-16063984D02*
X18155420Y-15930650D01*
X18155420Y-15949698D02*
X18164944Y-15940174D01*
X18164944Y-15940174D02*
X18183991Y-15930650D01*
X18183991Y-15930650D02*
X18212563Y-15930650D01*
X18212563Y-15930650D02*
X18231610Y-15940174D01*
X18231610Y-15940174D02*
X18241134Y-15959222D01*
X18241134Y-15959222D02*
X18241134Y-16063984D01*
X18241134Y-15959222D02*
X18250658Y-15940174D01*
X18250658Y-15940174D02*
X18269705Y-15930650D01*
X18269705Y-15930650D02*
X18298277Y-15930650D01*
X18298277Y-15930650D02*
X18317325Y-15940174D01*
X18317325Y-15940174D02*
X18326848Y-15959222D01*
X18326848Y-15959222D02*
X18326848Y-16063984D01*
X18422086Y-16063984D02*
X18422086Y-15930650D01*
X18422086Y-15949698D02*
X18431610Y-15940174D01*
X18431610Y-15940174D02*
X18450658Y-15930650D01*
X18450658Y-15930650D02*
X18479229Y-15930650D01*
X18479229Y-15930650D02*
X18498277Y-15940174D01*
X18498277Y-15940174D02*
X18507801Y-15959222D01*
X18507801Y-15959222D02*
X18507801Y-16063984D01*
X18507801Y-15959222D02*
X18517325Y-15940174D01*
X18517325Y-15940174D02*
X18536372Y-15930650D01*
X18536372Y-15930650D02*
X18564944Y-15930650D01*
X18564944Y-15930650D02*
X18583991Y-15940174D01*
X18583991Y-15940174D02*
X18593515Y-15959222D01*
X18593515Y-15959222D02*
X18593515Y-16063984D01*
X18983991Y-15854460D02*
X18812563Y-16111603D01*
X19241134Y-15863984D02*
X19260182Y-15863984D01*
X19260182Y-15863984D02*
X19279229Y-15873508D01*
X19279229Y-15873508D02*
X19288753Y-15883031D01*
X19288753Y-15883031D02*
X19298277Y-15902079D01*
X19298277Y-15902079D02*
X19307801Y-15940174D01*
X19307801Y-15940174D02*
X19307801Y-15987793D01*
X19307801Y-15987793D02*
X19298277Y-16025888D01*
X19298277Y-16025888D02*
X19288753Y-16044936D01*
X19288753Y-16044936D02*
X19279229Y-16054460D01*
X19279229Y-16054460D02*
X19260182Y-16063984D01*
X19260182Y-16063984D02*
X19241134Y-16063984D01*
X19241134Y-16063984D02*
X19222087Y-16054460D01*
X19222087Y-16054460D02*
X19212563Y-16044936D01*
X19212563Y-16044936D02*
X19203039Y-16025888D01*
X19203039Y-16025888D02*
X19193515Y-15987793D01*
X19193515Y-15987793D02*
X19193515Y-15940174D01*
X19193515Y-15940174D02*
X19203039Y-15902079D01*
X19203039Y-15902079D02*
X19212563Y-15883031D01*
X19212563Y-15883031D02*
X19222087Y-15873508D01*
X19222087Y-15873508D02*
X19241134Y-15863984D01*
X19393515Y-16044936D02*
X19403039Y-16054460D01*
X19403039Y-16054460D02*
X19393515Y-16063984D01*
X19393515Y-16063984D02*
X19383991Y-16054460D01*
X19383991Y-16054460D02*
X19393515Y-16044936D01*
X19393515Y-16044936D02*
X19393515Y-16063984D01*
X19593515Y-16063984D02*
X19479229Y-16063984D01*
X19536372Y-16063984D02*
X19536372Y-15863984D01*
X19536372Y-15863984D02*
X19517325Y-15892555D01*
X19517325Y-15892555D02*
X19498277Y-15911603D01*
X19498277Y-15911603D02*
X19479229Y-15921127D01*
X19783991Y-16063984D02*
X19669706Y-16063984D01*
X19726848Y-16063984D02*
X19726848Y-15863984D01*
X19726848Y-15863984D02*
X19707801Y-15892555D01*
X19707801Y-15892555D02*
X19688753Y-15911603D01*
X19688753Y-15911603D02*
X19669706Y-15921127D01*
X19898277Y-15949698D02*
X19879229Y-15940174D01*
X19879229Y-15940174D02*
X19869706Y-15930650D01*
X19869706Y-15930650D02*
X19860182Y-15911603D01*
X19860182Y-15911603D02*
X19860182Y-15902079D01*
X19860182Y-15902079D02*
X19869706Y-15883031D01*
X19869706Y-15883031D02*
X19879229Y-15873508D01*
X19879229Y-15873508D02*
X19898277Y-15863984D01*
X19898277Y-15863984D02*
X19936372Y-15863984D01*
X19936372Y-15863984D02*
X19955420Y-15873508D01*
X19955420Y-15873508D02*
X19964944Y-15883031D01*
X19964944Y-15883031D02*
X19974468Y-15902079D01*
X19974468Y-15902079D02*
X19974468Y-15911603D01*
X19974468Y-15911603D02*
X19964944Y-15930650D01*
X19964944Y-15930650D02*
X19955420Y-15940174D01*
X19955420Y-15940174D02*
X19936372Y-15949698D01*
X19936372Y-15949698D02*
X19898277Y-15949698D01*
X19898277Y-15949698D02*
X19879229Y-15959222D01*
X19879229Y-15959222D02*
X19869706Y-15968746D01*
X19869706Y-15968746D02*
X19860182Y-15987793D01*
X19860182Y-15987793D02*
X19860182Y-16025888D01*
X19860182Y-16025888D02*
X19869706Y-16044936D01*
X19869706Y-16044936D02*
X19879229Y-16054460D01*
X19879229Y-16054460D02*
X19898277Y-16063984D01*
X19898277Y-16063984D02*
X19936372Y-16063984D01*
X19936372Y-16063984D02*
X19955420Y-16054460D01*
X19955420Y-16054460D02*
X19964944Y-16044936D01*
X19964944Y-16044936D02*
X19974468Y-16025888D01*
X19974468Y-16025888D02*
X19974468Y-15987793D01*
X19974468Y-15987793D02*
X19964944Y-15968746D01*
X19964944Y-15968746D02*
X19955420Y-15959222D01*
X19955420Y-15959222D02*
X19936372Y-15949698D01*
X20164944Y-16063984D02*
X20050658Y-16063984D01*
X20107801Y-16063984D02*
X20107801Y-15863984D01*
X20107801Y-15863984D02*
X20088753Y-15892555D01*
X20088753Y-15892555D02*
X20069706Y-15911603D01*
X20069706Y-15911603D02*
X20050658Y-15921127D01*
X20241134Y-15863984D02*
X20241134Y-15902079D01*
X20317325Y-15863984D02*
X20317325Y-15902079D01*
X20612563Y-16140174D02*
X20603039Y-16130650D01*
X20603039Y-16130650D02*
X20583991Y-16102079D01*
X20583991Y-16102079D02*
X20574468Y-16083031D01*
X20574468Y-16083031D02*
X20564944Y-16054460D01*
X20564944Y-16054460D02*
X20555420Y-16006841D01*
X20555420Y-16006841D02*
X20555420Y-15968746D01*
X20555420Y-15968746D02*
X20564944Y-15921127D01*
X20564944Y-15921127D02*
X20574468Y-15892555D01*
X20574468Y-15892555D02*
X20583991Y-15873508D01*
X20583991Y-15873508D02*
X20603039Y-15844936D01*
X20603039Y-15844936D02*
X20612563Y-15835412D01*
X20726849Y-15863984D02*
X20745896Y-15863984D01*
X20745896Y-15863984D02*
X20764944Y-15873508D01*
X20764944Y-15873508D02*
X20774468Y-15883031D01*
X20774468Y-15883031D02*
X20783991Y-15902079D01*
X20783991Y-15902079D02*
X20793515Y-15940174D01*
X20793515Y-15940174D02*
X20793515Y-15987793D01*
X20793515Y-15987793D02*
X20783991Y-16025888D01*
X20783991Y-16025888D02*
X20774468Y-16044936D01*
X20774468Y-16044936D02*
X20764944Y-16054460D01*
X20764944Y-16054460D02*
X20745896Y-16063984D01*
X20745896Y-16063984D02*
X20726849Y-16063984D01*
X20726849Y-16063984D02*
X20707801Y-16054460D01*
X20707801Y-16054460D02*
X20698277Y-16044936D01*
X20698277Y-16044936D02*
X20688753Y-16025888D01*
X20688753Y-16025888D02*
X20679230Y-15987793D01*
X20679230Y-15987793D02*
X20679230Y-15940174D01*
X20679230Y-15940174D02*
X20688753Y-15902079D01*
X20688753Y-15902079D02*
X20698277Y-15883031D01*
X20698277Y-15883031D02*
X20707801Y-15873508D01*
X20707801Y-15873508D02*
X20726849Y-15863984D01*
X21031611Y-16063984D02*
X21031611Y-15863984D01*
X21117325Y-16063984D02*
X21117325Y-15959222D01*
X21117325Y-15959222D02*
X21107801Y-15940174D01*
X21107801Y-15940174D02*
X21088753Y-15930650D01*
X21088753Y-15930650D02*
X21060182Y-15930650D01*
X21060182Y-15930650D02*
X21041134Y-15940174D01*
X21041134Y-15940174D02*
X21031611Y-15949698D01*
X21241134Y-16063984D02*
X21222087Y-16054460D01*
X21222087Y-16054460D02*
X21212563Y-16044936D01*
X21212563Y-16044936D02*
X21203039Y-16025888D01*
X21203039Y-16025888D02*
X21203039Y-15968746D01*
X21203039Y-15968746D02*
X21212563Y-15949698D01*
X21212563Y-15949698D02*
X21222087Y-15940174D01*
X21222087Y-15940174D02*
X21241134Y-15930650D01*
X21241134Y-15930650D02*
X21269706Y-15930650D01*
X21269706Y-15930650D02*
X21288753Y-15940174D01*
X21288753Y-15940174D02*
X21298277Y-15949698D01*
X21298277Y-15949698D02*
X21307801Y-15968746D01*
X21307801Y-15968746D02*
X21307801Y-16025888D01*
X21307801Y-16025888D02*
X21298277Y-16044936D01*
X21298277Y-16044936D02*
X21288753Y-16054460D01*
X21288753Y-16054460D02*
X21269706Y-16063984D01*
X21269706Y-16063984D02*
X21241134Y-16063984D01*
X21422087Y-16063984D02*
X21403039Y-16054460D01*
X21403039Y-16054460D02*
X21393515Y-16035412D01*
X21393515Y-16035412D02*
X21393515Y-15863984D01*
X21574468Y-16054460D02*
X21555420Y-16063984D01*
X21555420Y-16063984D02*
X21517325Y-16063984D01*
X21517325Y-16063984D02*
X21498277Y-16054460D01*
X21498277Y-16054460D02*
X21488753Y-16035412D01*
X21488753Y-16035412D02*
X21488753Y-15959222D01*
X21488753Y-15959222D02*
X21498277Y-15940174D01*
X21498277Y-15940174D02*
X21517325Y-15930650D01*
X21517325Y-15930650D02*
X21555420Y-15930650D01*
X21555420Y-15930650D02*
X21574468Y-15940174D01*
X21574468Y-15940174D02*
X21583992Y-15959222D01*
X21583992Y-15959222D02*
X21583992Y-15978269D01*
X21583992Y-15978269D02*
X21488753Y-15997317D01*
X21660182Y-16054460D02*
X21679230Y-16063984D01*
X21679230Y-16063984D02*
X21717325Y-16063984D01*
X21717325Y-16063984D02*
X21736373Y-16054460D01*
X21736373Y-16054460D02*
X21745896Y-16035412D01*
X21745896Y-16035412D02*
X21745896Y-16025888D01*
X21745896Y-16025888D02*
X21736373Y-16006841D01*
X21736373Y-16006841D02*
X21717325Y-15997317D01*
X21717325Y-15997317D02*
X21688753Y-15997317D01*
X21688753Y-15997317D02*
X21669706Y-15987793D01*
X21669706Y-15987793D02*
X21660182Y-15968746D01*
X21660182Y-15968746D02*
X21660182Y-15959222D01*
X21660182Y-15959222D02*
X21669706Y-15940174D01*
X21669706Y-15940174D02*
X21688753Y-15930650D01*
X21688753Y-15930650D02*
X21717325Y-15930650D01*
X21717325Y-15930650D02*
X21736373Y-15940174D01*
X21983992Y-15987793D02*
X22136373Y-15987793D01*
X22060182Y-16063984D02*
X22060182Y-15911603D01*
X22469706Y-15930650D02*
X22469706Y-16063984D01*
X22422087Y-15854460D02*
X22374468Y-15997317D01*
X22374468Y-15997317D02*
X22498277Y-15997317D01*
X22717325Y-16054460D02*
X22736373Y-16063984D01*
X22736373Y-16063984D02*
X22774468Y-16063984D01*
X22774468Y-16063984D02*
X22793515Y-16054460D01*
X22793515Y-16054460D02*
X22803039Y-16035412D01*
X22803039Y-16035412D02*
X22803039Y-16025888D01*
X22803039Y-16025888D02*
X22793515Y-16006841D01*
X22793515Y-16006841D02*
X22774468Y-15997317D01*
X22774468Y-15997317D02*
X22745896Y-15997317D01*
X22745896Y-15997317D02*
X22726849Y-15987793D01*
X22726849Y-15987793D02*
X22717325Y-15968746D01*
X22717325Y-15968746D02*
X22717325Y-15959222D01*
X22717325Y-15959222D02*
X22726849Y-15940174D01*
X22726849Y-15940174D02*
X22745896Y-15930650D01*
X22745896Y-15930650D02*
X22774468Y-15930650D01*
X22774468Y-15930650D02*
X22793515Y-15940174D01*
X22917325Y-16063984D02*
X22898277Y-16054460D01*
X22898277Y-16054460D02*
X22888754Y-16035412D01*
X22888754Y-16035412D02*
X22888754Y-15863984D01*
X23022087Y-16063984D02*
X23003039Y-16054460D01*
X23003039Y-16054460D02*
X22993515Y-16044936D01*
X22993515Y-16044936D02*
X22983992Y-16025888D01*
X22983992Y-16025888D02*
X22983992Y-15968746D01*
X22983992Y-15968746D02*
X22993515Y-15949698D01*
X22993515Y-15949698D02*
X23003039Y-15940174D01*
X23003039Y-15940174D02*
X23022087Y-15930650D01*
X23022087Y-15930650D02*
X23050658Y-15930650D01*
X23050658Y-15930650D02*
X23069706Y-15940174D01*
X23069706Y-15940174D02*
X23079230Y-15949698D01*
X23079230Y-15949698D02*
X23088754Y-15968746D01*
X23088754Y-15968746D02*
X23088754Y-16025888D01*
X23088754Y-16025888D02*
X23079230Y-16044936D01*
X23079230Y-16044936D02*
X23069706Y-16054460D01*
X23069706Y-16054460D02*
X23050658Y-16063984D01*
X23050658Y-16063984D02*
X23022087Y-16063984D01*
X23145896Y-15930650D02*
X23222087Y-15930650D01*
X23174468Y-15863984D02*
X23174468Y-16035412D01*
X23174468Y-16035412D02*
X23183992Y-16054460D01*
X23183992Y-16054460D02*
X23203039Y-16063984D01*
X23203039Y-16063984D02*
X23222087Y-16063984D01*
X23279230Y-16054460D02*
X23298277Y-16063984D01*
X23298277Y-16063984D02*
X23336373Y-16063984D01*
X23336373Y-16063984D02*
X23355420Y-16054460D01*
X23355420Y-16054460D02*
X23364944Y-16035412D01*
X23364944Y-16035412D02*
X23364944Y-16025888D01*
X23364944Y-16025888D02*
X23355420Y-16006841D01*
X23355420Y-16006841D02*
X23336373Y-15997317D01*
X23336373Y-15997317D02*
X23307801Y-15997317D01*
X23307801Y-15997317D02*
X23288754Y-15987793D01*
X23288754Y-15987793D02*
X23279230Y-15968746D01*
X23279230Y-15968746D02*
X23279230Y-15959222D01*
X23279230Y-15959222D02*
X23288754Y-15940174D01*
X23288754Y-15940174D02*
X23307801Y-15930650D01*
X23307801Y-15930650D02*
X23336373Y-15930650D01*
X23336373Y-15930650D02*
X23355420Y-15940174D01*
X23431611Y-16140174D02*
X23441135Y-16130650D01*
X23441135Y-16130650D02*
X23460182Y-16102079D01*
X23460182Y-16102079D02*
X23469706Y-16083031D01*
X23469706Y-16083031D02*
X23479230Y-16054460D01*
X23479230Y-16054460D02*
X23488754Y-16006841D01*
X23488754Y-16006841D02*
X23488754Y-15968746D01*
X23488754Y-15968746D02*
X23479230Y-15921127D01*
X23479230Y-15921127D02*
X23469706Y-15892555D01*
X23469706Y-15892555D02*
X23460182Y-15873508D01*
X23460182Y-15873508D02*
X23441135Y-15844936D01*
X23441135Y-15844936D02*
X23431611Y-15835412D01*
X17037500Y-16292500D02*
G75*
G02*
X16837500Y-16292500I-100000J0D01*
G01*
X16837500Y-16292500D02*
G75*
G02*
X17037500Y-16292500I100000J0D01*
G01*
X17383991Y-16183984D02*
X17345896Y-16183984D01*
X17345896Y-16183984D02*
X17326848Y-16193508D01*
X17326848Y-16193508D02*
X17317324Y-16203031D01*
X17317324Y-16203031D02*
X17298277Y-16231603D01*
X17298277Y-16231603D02*
X17288753Y-16269698D01*
X17288753Y-16269698D02*
X17288753Y-16345888D01*
X17288753Y-16345888D02*
X17298277Y-16364936D01*
X17298277Y-16364936D02*
X17307801Y-16374460D01*
X17307801Y-16374460D02*
X17326848Y-16383984D01*
X17326848Y-16383984D02*
X17364944Y-16383984D01*
X17364944Y-16383984D02*
X17383991Y-16374460D01*
X17383991Y-16374460D02*
X17393515Y-16364936D01*
X17393515Y-16364936D02*
X17403039Y-16345888D01*
X17403039Y-16345888D02*
X17403039Y-16298269D01*
X17403039Y-16298269D02*
X17393515Y-16279222D01*
X17393515Y-16279222D02*
X17383991Y-16269698D01*
X17383991Y-16269698D02*
X17364944Y-16260174D01*
X17364944Y-16260174D02*
X17326848Y-16260174D01*
X17326848Y-16260174D02*
X17307801Y-16269698D01*
X17307801Y-16269698D02*
X17298277Y-16279222D01*
X17298277Y-16279222D02*
X17288753Y-16298269D01*
X17488753Y-16364936D02*
X17498277Y-16374460D01*
X17498277Y-16374460D02*
X17488753Y-16383984D01*
X17488753Y-16383984D02*
X17479229Y-16374460D01*
X17479229Y-16374460D02*
X17488753Y-16364936D01*
X17488753Y-16364936D02*
X17488753Y-16383984D01*
X17574467Y-16203031D02*
X17583991Y-16193508D01*
X17583991Y-16193508D02*
X17603039Y-16183984D01*
X17603039Y-16183984D02*
X17650658Y-16183984D01*
X17650658Y-16183984D02*
X17669705Y-16193508D01*
X17669705Y-16193508D02*
X17679229Y-16203031D01*
X17679229Y-16203031D02*
X17688753Y-16222079D01*
X17688753Y-16222079D02*
X17688753Y-16241127D01*
X17688753Y-16241127D02*
X17679229Y-16269698D01*
X17679229Y-16269698D02*
X17564944Y-16383984D01*
X17564944Y-16383984D02*
X17688753Y-16383984D01*
X17812563Y-16183984D02*
X17831610Y-16183984D01*
X17831610Y-16183984D02*
X17850658Y-16193508D01*
X17850658Y-16193508D02*
X17860182Y-16203031D01*
X17860182Y-16203031D02*
X17869705Y-16222079D01*
X17869705Y-16222079D02*
X17879229Y-16260174D01*
X17879229Y-16260174D02*
X17879229Y-16307793D01*
X17879229Y-16307793D02*
X17869705Y-16345888D01*
X17869705Y-16345888D02*
X17860182Y-16364936D01*
X17860182Y-16364936D02*
X17850658Y-16374460D01*
X17850658Y-16374460D02*
X17831610Y-16383984D01*
X17831610Y-16383984D02*
X17812563Y-16383984D01*
X17812563Y-16383984D02*
X17793515Y-16374460D01*
X17793515Y-16374460D02*
X17783991Y-16364936D01*
X17783991Y-16364936D02*
X17774467Y-16345888D01*
X17774467Y-16345888D02*
X17764944Y-16307793D01*
X17764944Y-16307793D02*
X17764944Y-16260174D01*
X17764944Y-16260174D02*
X17774467Y-16222079D01*
X17774467Y-16222079D02*
X17783991Y-16203031D01*
X17783991Y-16203031D02*
X17793515Y-16193508D01*
X17793515Y-16193508D02*
X17812563Y-16183984D01*
X18003039Y-16183984D02*
X18022086Y-16183984D01*
X18022086Y-16183984D02*
X18041134Y-16193508D01*
X18041134Y-16193508D02*
X18050658Y-16203031D01*
X18050658Y-16203031D02*
X18060182Y-16222079D01*
X18060182Y-16222079D02*
X18069705Y-16260174D01*
X18069705Y-16260174D02*
X18069705Y-16307793D01*
X18069705Y-16307793D02*
X18060182Y-16345888D01*
X18060182Y-16345888D02*
X18050658Y-16364936D01*
X18050658Y-16364936D02*
X18041134Y-16374460D01*
X18041134Y-16374460D02*
X18022086Y-16383984D01*
X18022086Y-16383984D02*
X18003039Y-16383984D01*
X18003039Y-16383984D02*
X17983991Y-16374460D01*
X17983991Y-16374460D02*
X17974467Y-16364936D01*
X17974467Y-16364936D02*
X17964944Y-16345888D01*
X17964944Y-16345888D02*
X17955420Y-16307793D01*
X17955420Y-16307793D02*
X17955420Y-16260174D01*
X17955420Y-16260174D02*
X17964944Y-16222079D01*
X17964944Y-16222079D02*
X17974467Y-16203031D01*
X17974467Y-16203031D02*
X17983991Y-16193508D01*
X17983991Y-16193508D02*
X18003039Y-16183984D01*
X18155420Y-16383984D02*
X18155420Y-16250650D01*
X18155420Y-16269698D02*
X18164944Y-16260174D01*
X18164944Y-16260174D02*
X18183991Y-16250650D01*
X18183991Y-16250650D02*
X18212563Y-16250650D01*
X18212563Y-16250650D02*
X18231610Y-16260174D01*
X18231610Y-16260174D02*
X18241134Y-16279222D01*
X18241134Y-16279222D02*
X18241134Y-16383984D01*
X18241134Y-16279222D02*
X18250658Y-16260174D01*
X18250658Y-16260174D02*
X18269705Y-16250650D01*
X18269705Y-16250650D02*
X18298277Y-16250650D01*
X18298277Y-16250650D02*
X18317325Y-16260174D01*
X18317325Y-16260174D02*
X18326848Y-16279222D01*
X18326848Y-16279222D02*
X18326848Y-16383984D01*
X18422086Y-16383984D02*
X18422086Y-16250650D01*
X18422086Y-16269698D02*
X18431610Y-16260174D01*
X18431610Y-16260174D02*
X18450658Y-16250650D01*
X18450658Y-16250650D02*
X18479229Y-16250650D01*
X18479229Y-16250650D02*
X18498277Y-16260174D01*
X18498277Y-16260174D02*
X18507801Y-16279222D01*
X18507801Y-16279222D02*
X18507801Y-16383984D01*
X18507801Y-16279222D02*
X18517325Y-16260174D01*
X18517325Y-16260174D02*
X18536372Y-16250650D01*
X18536372Y-16250650D02*
X18564944Y-16250650D01*
X18564944Y-16250650D02*
X18583991Y-16260174D01*
X18583991Y-16260174D02*
X18593515Y-16279222D01*
X18593515Y-16279222D02*
X18593515Y-16383984D01*
X18983991Y-16174460D02*
X18812563Y-16431603D01*
X19241134Y-16183984D02*
X19260182Y-16183984D01*
X19260182Y-16183984D02*
X19279229Y-16193508D01*
X19279229Y-16193508D02*
X19288753Y-16203031D01*
X19288753Y-16203031D02*
X19298277Y-16222079D01*
X19298277Y-16222079D02*
X19307801Y-16260174D01*
X19307801Y-16260174D02*
X19307801Y-16307793D01*
X19307801Y-16307793D02*
X19298277Y-16345888D01*
X19298277Y-16345888D02*
X19288753Y-16364936D01*
X19288753Y-16364936D02*
X19279229Y-16374460D01*
X19279229Y-16374460D02*
X19260182Y-16383984D01*
X19260182Y-16383984D02*
X19241134Y-16383984D01*
X19241134Y-16383984D02*
X19222087Y-16374460D01*
X19222087Y-16374460D02*
X19212563Y-16364936D01*
X19212563Y-16364936D02*
X19203039Y-16345888D01*
X19203039Y-16345888D02*
X19193515Y-16307793D01*
X19193515Y-16307793D02*
X19193515Y-16260174D01*
X19193515Y-16260174D02*
X19203039Y-16222079D01*
X19203039Y-16222079D02*
X19212563Y-16203031D01*
X19212563Y-16203031D02*
X19222087Y-16193508D01*
X19222087Y-16193508D02*
X19241134Y-16183984D01*
X19393515Y-16364936D02*
X19403039Y-16374460D01*
X19403039Y-16374460D02*
X19393515Y-16383984D01*
X19393515Y-16383984D02*
X19383991Y-16374460D01*
X19383991Y-16374460D02*
X19393515Y-16364936D01*
X19393515Y-16364936D02*
X19393515Y-16383984D01*
X19479229Y-16203031D02*
X19488753Y-16193508D01*
X19488753Y-16193508D02*
X19507801Y-16183984D01*
X19507801Y-16183984D02*
X19555420Y-16183984D01*
X19555420Y-16183984D02*
X19574468Y-16193508D01*
X19574468Y-16193508D02*
X19583991Y-16203031D01*
X19583991Y-16203031D02*
X19593515Y-16222079D01*
X19593515Y-16222079D02*
X19593515Y-16241127D01*
X19593515Y-16241127D02*
X19583991Y-16269698D01*
X19583991Y-16269698D02*
X19469706Y-16383984D01*
X19469706Y-16383984D02*
X19593515Y-16383984D01*
X19764944Y-16250650D02*
X19764944Y-16383984D01*
X19717325Y-16174460D02*
X19669706Y-16317317D01*
X19669706Y-16317317D02*
X19793515Y-16317317D01*
X19955420Y-16250650D02*
X19955420Y-16383984D01*
X19907801Y-16174460D02*
X19860182Y-16317317D01*
X19860182Y-16317317D02*
X19983991Y-16317317D01*
X20164944Y-16383984D02*
X20050658Y-16383984D01*
X20107801Y-16383984D02*
X20107801Y-16183984D01*
X20107801Y-16183984D02*
X20088753Y-16212555D01*
X20088753Y-16212555D02*
X20069706Y-16231603D01*
X20069706Y-16231603D02*
X20050658Y-16241127D01*
X20241134Y-16183984D02*
X20241134Y-16222079D01*
X20317325Y-16183984D02*
X20317325Y-16222079D01*
X20612563Y-16460174D02*
X20603039Y-16450650D01*
X20603039Y-16450650D02*
X20583991Y-16422079D01*
X20583991Y-16422079D02*
X20574468Y-16403031D01*
X20574468Y-16403031D02*
X20564944Y-16374460D01*
X20564944Y-16374460D02*
X20555420Y-16326841D01*
X20555420Y-16326841D02*
X20555420Y-16288746D01*
X20555420Y-16288746D02*
X20564944Y-16241127D01*
X20564944Y-16241127D02*
X20574468Y-16212555D01*
X20574468Y-16212555D02*
X20583991Y-16193508D01*
X20583991Y-16193508D02*
X20603039Y-16164936D01*
X20603039Y-16164936D02*
X20612563Y-16155412D01*
X20793515Y-16383984D02*
X20679230Y-16383984D01*
X20736372Y-16383984D02*
X20736372Y-16183984D01*
X20736372Y-16183984D02*
X20717325Y-16212555D01*
X20717325Y-16212555D02*
X20698277Y-16231603D01*
X20698277Y-16231603D02*
X20679230Y-16241127D01*
X20869706Y-16203031D02*
X20879230Y-16193508D01*
X20879230Y-16193508D02*
X20898277Y-16183984D01*
X20898277Y-16183984D02*
X20945896Y-16183984D01*
X20945896Y-16183984D02*
X20964944Y-16193508D01*
X20964944Y-16193508D02*
X20974468Y-16203031D01*
X20974468Y-16203031D02*
X20983991Y-16222079D01*
X20983991Y-16222079D02*
X20983991Y-16241127D01*
X20983991Y-16241127D02*
X20974468Y-16269698D01*
X20974468Y-16269698D02*
X20860182Y-16383984D01*
X20860182Y-16383984D02*
X20983991Y-16383984D01*
X21222087Y-16383984D02*
X21222087Y-16183984D01*
X21307801Y-16383984D02*
X21307801Y-16279222D01*
X21307801Y-16279222D02*
X21298277Y-16260174D01*
X21298277Y-16260174D02*
X21279230Y-16250650D01*
X21279230Y-16250650D02*
X21250658Y-16250650D01*
X21250658Y-16250650D02*
X21231611Y-16260174D01*
X21231611Y-16260174D02*
X21222087Y-16269698D01*
X21431611Y-16383984D02*
X21412563Y-16374460D01*
X21412563Y-16374460D02*
X21403039Y-16364936D01*
X21403039Y-16364936D02*
X21393515Y-16345888D01*
X21393515Y-16345888D02*
X21393515Y-16288746D01*
X21393515Y-16288746D02*
X21403039Y-16269698D01*
X21403039Y-16269698D02*
X21412563Y-16260174D01*
X21412563Y-16260174D02*
X21431611Y-16250650D01*
X21431611Y-16250650D02*
X21460182Y-16250650D01*
X21460182Y-16250650D02*
X21479230Y-16260174D01*
X21479230Y-16260174D02*
X21488753Y-16269698D01*
X21488753Y-16269698D02*
X21498277Y-16288746D01*
X21498277Y-16288746D02*
X21498277Y-16345888D01*
X21498277Y-16345888D02*
X21488753Y-16364936D01*
X21488753Y-16364936D02*
X21479230Y-16374460D01*
X21479230Y-16374460D02*
X21460182Y-16383984D01*
X21460182Y-16383984D02*
X21431611Y-16383984D01*
X21612563Y-16383984D02*
X21593515Y-16374460D01*
X21593515Y-16374460D02*
X21583992Y-16355412D01*
X21583992Y-16355412D02*
X21583992Y-16183984D01*
X21764944Y-16374460D02*
X21745896Y-16383984D01*
X21745896Y-16383984D02*
X21707801Y-16383984D01*
X21707801Y-16383984D02*
X21688753Y-16374460D01*
X21688753Y-16374460D02*
X21679230Y-16355412D01*
X21679230Y-16355412D02*
X21679230Y-16279222D01*
X21679230Y-16279222D02*
X21688753Y-16260174D01*
X21688753Y-16260174D02*
X21707801Y-16250650D01*
X21707801Y-16250650D02*
X21745896Y-16250650D01*
X21745896Y-16250650D02*
X21764944Y-16260174D01*
X21764944Y-16260174D02*
X21774468Y-16279222D01*
X21774468Y-16279222D02*
X21774468Y-16298269D01*
X21774468Y-16298269D02*
X21679230Y-16317317D01*
X21850658Y-16374460D02*
X21869706Y-16383984D01*
X21869706Y-16383984D02*
X21907801Y-16383984D01*
X21907801Y-16383984D02*
X21926849Y-16374460D01*
X21926849Y-16374460D02*
X21936373Y-16355412D01*
X21936373Y-16355412D02*
X21936373Y-16345888D01*
X21936373Y-16345888D02*
X21926849Y-16326841D01*
X21926849Y-16326841D02*
X21907801Y-16317317D01*
X21907801Y-16317317D02*
X21879230Y-16317317D01*
X21879230Y-16317317D02*
X21860182Y-16307793D01*
X21860182Y-16307793D02*
X21850658Y-16288746D01*
X21850658Y-16288746D02*
X21850658Y-16279222D01*
X21850658Y-16279222D02*
X21860182Y-16260174D01*
X21860182Y-16260174D02*
X21879230Y-16250650D01*
X21879230Y-16250650D02*
X21907801Y-16250650D01*
X21907801Y-16250650D02*
X21926849Y-16260174D01*
X22003039Y-16460174D02*
X22012563Y-16450650D01*
X22012563Y-16450650D02*
X22031611Y-16422079D01*
X22031611Y-16422079D02*
X22041134Y-16403031D01*
X22041134Y-16403031D02*
X22050658Y-16374460D01*
X22050658Y-16374460D02*
X22060182Y-16326841D01*
X22060182Y-16326841D02*
X22060182Y-16288746D01*
X22060182Y-16288746D02*
X22050658Y-16241127D01*
X22050658Y-16241127D02*
X22041134Y-16212555D01*
X22041134Y-16212555D02*
X22031611Y-16193508D01*
X22031611Y-16193508D02*
X22012563Y-16164936D01*
X22012563Y-16164936D02*
X22003039Y-16155412D01*
X16937500Y-16512500D02*
X16937500Y-16712500D01*
X16837500Y-16612500D02*
X17037500Y-16612500D01*
X17279229Y-16503984D02*
X17412563Y-16503984D01*
X17412563Y-16503984D02*
X17326848Y-16703984D01*
X17488753Y-16684936D02*
X17498277Y-16694460D01*
X17498277Y-16694460D02*
X17488753Y-16703984D01*
X17488753Y-16703984D02*
X17479229Y-16694460D01*
X17479229Y-16694460D02*
X17488753Y-16684936D01*
X17488753Y-16684936D02*
X17488753Y-16703984D01*
X17622086Y-16503984D02*
X17641134Y-16503984D01*
X17641134Y-16503984D02*
X17660182Y-16513508D01*
X17660182Y-16513508D02*
X17669705Y-16523031D01*
X17669705Y-16523031D02*
X17679229Y-16542079D01*
X17679229Y-16542079D02*
X17688753Y-16580174D01*
X17688753Y-16580174D02*
X17688753Y-16627793D01*
X17688753Y-16627793D02*
X17679229Y-16665888D01*
X17679229Y-16665888D02*
X17669705Y-16684936D01*
X17669705Y-16684936D02*
X17660182Y-16694460D01*
X17660182Y-16694460D02*
X17641134Y-16703984D01*
X17641134Y-16703984D02*
X17622086Y-16703984D01*
X17622086Y-16703984D02*
X17603039Y-16694460D01*
X17603039Y-16694460D02*
X17593515Y-16684936D01*
X17593515Y-16684936D02*
X17583991Y-16665888D01*
X17583991Y-16665888D02*
X17574467Y-16627793D01*
X17574467Y-16627793D02*
X17574467Y-16580174D01*
X17574467Y-16580174D02*
X17583991Y-16542079D01*
X17583991Y-16542079D02*
X17593515Y-16523031D01*
X17593515Y-16523031D02*
X17603039Y-16513508D01*
X17603039Y-16513508D02*
X17622086Y-16503984D01*
X17812563Y-16503984D02*
X17831610Y-16503984D01*
X17831610Y-16503984D02*
X17850658Y-16513508D01*
X17850658Y-16513508D02*
X17860182Y-16523031D01*
X17860182Y-16523031D02*
X17869705Y-16542079D01*
X17869705Y-16542079D02*
X17879229Y-16580174D01*
X17879229Y-16580174D02*
X17879229Y-16627793D01*
X17879229Y-16627793D02*
X17869705Y-16665888D01*
X17869705Y-16665888D02*
X17860182Y-16684936D01*
X17860182Y-16684936D02*
X17850658Y-16694460D01*
X17850658Y-16694460D02*
X17831610Y-16703984D01*
X17831610Y-16703984D02*
X17812563Y-16703984D01*
X17812563Y-16703984D02*
X17793515Y-16694460D01*
X17793515Y-16694460D02*
X17783991Y-16684936D01*
X17783991Y-16684936D02*
X17774467Y-16665888D01*
X17774467Y-16665888D02*
X17764944Y-16627793D01*
X17764944Y-16627793D02*
X17764944Y-16580174D01*
X17764944Y-16580174D02*
X17774467Y-16542079D01*
X17774467Y-16542079D02*
X17783991Y-16523031D01*
X17783991Y-16523031D02*
X17793515Y-16513508D01*
X17793515Y-16513508D02*
X17812563Y-16503984D01*
X18003039Y-16503984D02*
X18022086Y-16503984D01*
X18022086Y-16503984D02*
X18041134Y-16513508D01*
X18041134Y-16513508D02*
X18050658Y-16523031D01*
X18050658Y-16523031D02*
X18060182Y-16542079D01*
X18060182Y-16542079D02*
X18069705Y-16580174D01*
X18069705Y-16580174D02*
X18069705Y-16627793D01*
X18069705Y-16627793D02*
X18060182Y-16665888D01*
X18060182Y-16665888D02*
X18050658Y-16684936D01*
X18050658Y-16684936D02*
X18041134Y-16694460D01*
X18041134Y-16694460D02*
X18022086Y-16703984D01*
X18022086Y-16703984D02*
X18003039Y-16703984D01*
X18003039Y-16703984D02*
X17983991Y-16694460D01*
X17983991Y-16694460D02*
X17974467Y-16684936D01*
X17974467Y-16684936D02*
X17964944Y-16665888D01*
X17964944Y-16665888D02*
X17955420Y-16627793D01*
X17955420Y-16627793D02*
X17955420Y-16580174D01*
X17955420Y-16580174D02*
X17964944Y-16542079D01*
X17964944Y-16542079D02*
X17974467Y-16523031D01*
X17974467Y-16523031D02*
X17983991Y-16513508D01*
X17983991Y-16513508D02*
X18003039Y-16503984D01*
X18155420Y-16703984D02*
X18155420Y-16570650D01*
X18155420Y-16589698D02*
X18164944Y-16580174D01*
X18164944Y-16580174D02*
X18183991Y-16570650D01*
X18183991Y-16570650D02*
X18212563Y-16570650D01*
X18212563Y-16570650D02*
X18231610Y-16580174D01*
X18231610Y-16580174D02*
X18241134Y-16599222D01*
X18241134Y-16599222D02*
X18241134Y-16703984D01*
X18241134Y-16599222D02*
X18250658Y-16580174D01*
X18250658Y-16580174D02*
X18269705Y-16570650D01*
X18269705Y-16570650D02*
X18298277Y-16570650D01*
X18298277Y-16570650D02*
X18317325Y-16580174D01*
X18317325Y-16580174D02*
X18326848Y-16599222D01*
X18326848Y-16599222D02*
X18326848Y-16703984D01*
X18422086Y-16703984D02*
X18422086Y-16570650D01*
X18422086Y-16589698D02*
X18431610Y-16580174D01*
X18431610Y-16580174D02*
X18450658Y-16570650D01*
X18450658Y-16570650D02*
X18479229Y-16570650D01*
X18479229Y-16570650D02*
X18498277Y-16580174D01*
X18498277Y-16580174D02*
X18507801Y-16599222D01*
X18507801Y-16599222D02*
X18507801Y-16703984D01*
X18507801Y-16599222D02*
X18517325Y-16580174D01*
X18517325Y-16580174D02*
X18536372Y-16570650D01*
X18536372Y-16570650D02*
X18564944Y-16570650D01*
X18564944Y-16570650D02*
X18583991Y-16580174D01*
X18583991Y-16580174D02*
X18593515Y-16599222D01*
X18593515Y-16599222D02*
X18593515Y-16703984D01*
X18983991Y-16494460D02*
X18812563Y-16751603D01*
X19241134Y-16503984D02*
X19260182Y-16503984D01*
X19260182Y-16503984D02*
X19279229Y-16513508D01*
X19279229Y-16513508D02*
X19288753Y-16523031D01*
X19288753Y-16523031D02*
X19298277Y-16542079D01*
X19298277Y-16542079D02*
X19307801Y-16580174D01*
X19307801Y-16580174D02*
X19307801Y-16627793D01*
X19307801Y-16627793D02*
X19298277Y-16665888D01*
X19298277Y-16665888D02*
X19288753Y-16684936D01*
X19288753Y-16684936D02*
X19279229Y-16694460D01*
X19279229Y-16694460D02*
X19260182Y-16703984D01*
X19260182Y-16703984D02*
X19241134Y-16703984D01*
X19241134Y-16703984D02*
X19222087Y-16694460D01*
X19222087Y-16694460D02*
X19212563Y-16684936D01*
X19212563Y-16684936D02*
X19203039Y-16665888D01*
X19203039Y-16665888D02*
X19193515Y-16627793D01*
X19193515Y-16627793D02*
X19193515Y-16580174D01*
X19193515Y-16580174D02*
X19203039Y-16542079D01*
X19203039Y-16542079D02*
X19212563Y-16523031D01*
X19212563Y-16523031D02*
X19222087Y-16513508D01*
X19222087Y-16513508D02*
X19241134Y-16503984D01*
X19393515Y-16684936D02*
X19403039Y-16694460D01*
X19403039Y-16694460D02*
X19393515Y-16703984D01*
X19393515Y-16703984D02*
X19383991Y-16694460D01*
X19383991Y-16694460D02*
X19393515Y-16684936D01*
X19393515Y-16684936D02*
X19393515Y-16703984D01*
X19479229Y-16523031D02*
X19488753Y-16513508D01*
X19488753Y-16513508D02*
X19507801Y-16503984D01*
X19507801Y-16503984D02*
X19555420Y-16503984D01*
X19555420Y-16503984D02*
X19574468Y-16513508D01*
X19574468Y-16513508D02*
X19583991Y-16523031D01*
X19583991Y-16523031D02*
X19593515Y-16542079D01*
X19593515Y-16542079D02*
X19593515Y-16561127D01*
X19593515Y-16561127D02*
X19583991Y-16589698D01*
X19583991Y-16589698D02*
X19469706Y-16703984D01*
X19469706Y-16703984D02*
X19593515Y-16703984D01*
X19660182Y-16503984D02*
X19793515Y-16503984D01*
X19793515Y-16503984D02*
X19707801Y-16703984D01*
X19964944Y-16503984D02*
X19869706Y-16503984D01*
X19869706Y-16503984D02*
X19860182Y-16599222D01*
X19860182Y-16599222D02*
X19869706Y-16589698D01*
X19869706Y-16589698D02*
X19888753Y-16580174D01*
X19888753Y-16580174D02*
X19936372Y-16580174D01*
X19936372Y-16580174D02*
X19955420Y-16589698D01*
X19955420Y-16589698D02*
X19964944Y-16599222D01*
X19964944Y-16599222D02*
X19974468Y-16618269D01*
X19974468Y-16618269D02*
X19974468Y-16665888D01*
X19974468Y-16665888D02*
X19964944Y-16684936D01*
X19964944Y-16684936D02*
X19955420Y-16694460D01*
X19955420Y-16694460D02*
X19936372Y-16703984D01*
X19936372Y-16703984D02*
X19888753Y-16703984D01*
X19888753Y-16703984D02*
X19869706Y-16694460D01*
X19869706Y-16694460D02*
X19860182Y-16684936D01*
X20145896Y-16503984D02*
X20107801Y-16503984D01*
X20107801Y-16503984D02*
X20088753Y-16513508D01*
X20088753Y-16513508D02*
X20079229Y-16523031D01*
X20079229Y-16523031D02*
X20060182Y-16551603D01*
X20060182Y-16551603D02*
X20050658Y-16589698D01*
X20050658Y-16589698D02*
X20050658Y-16665888D01*
X20050658Y-16665888D02*
X20060182Y-16684936D01*
X20060182Y-16684936D02*
X20069706Y-16694460D01*
X20069706Y-16694460D02*
X20088753Y-16703984D01*
X20088753Y-16703984D02*
X20126849Y-16703984D01*
X20126849Y-16703984D02*
X20145896Y-16694460D01*
X20145896Y-16694460D02*
X20155420Y-16684936D01*
X20155420Y-16684936D02*
X20164944Y-16665888D01*
X20164944Y-16665888D02*
X20164944Y-16618269D01*
X20164944Y-16618269D02*
X20155420Y-16599222D01*
X20155420Y-16599222D02*
X20145896Y-16589698D01*
X20145896Y-16589698D02*
X20126849Y-16580174D01*
X20126849Y-16580174D02*
X20088753Y-16580174D01*
X20088753Y-16580174D02*
X20069706Y-16589698D01*
X20069706Y-16589698D02*
X20060182Y-16599222D01*
X20060182Y-16599222D02*
X20050658Y-16618269D01*
X20241134Y-16503984D02*
X20241134Y-16542079D01*
X20317325Y-16503984D02*
X20317325Y-16542079D01*
X20612563Y-16780174D02*
X20603039Y-16770650D01*
X20603039Y-16770650D02*
X20583991Y-16742079D01*
X20583991Y-16742079D02*
X20574468Y-16723031D01*
X20574468Y-16723031D02*
X20564944Y-16694460D01*
X20564944Y-16694460D02*
X20555420Y-16646841D01*
X20555420Y-16646841D02*
X20555420Y-16608746D01*
X20555420Y-16608746D02*
X20564944Y-16561127D01*
X20564944Y-16561127D02*
X20574468Y-16532555D01*
X20574468Y-16532555D02*
X20583991Y-16513508D01*
X20583991Y-16513508D02*
X20603039Y-16484936D01*
X20603039Y-16484936D02*
X20612563Y-16475412D01*
X20774468Y-16570650D02*
X20774468Y-16703984D01*
X20726849Y-16494460D02*
X20679230Y-16637317D01*
X20679230Y-16637317D02*
X20803039Y-16637317D01*
X21031611Y-16703984D02*
X21031611Y-16503984D01*
X21117325Y-16703984D02*
X21117325Y-16599222D01*
X21117325Y-16599222D02*
X21107801Y-16580174D01*
X21107801Y-16580174D02*
X21088753Y-16570650D01*
X21088753Y-16570650D02*
X21060182Y-16570650D01*
X21060182Y-16570650D02*
X21041134Y-16580174D01*
X21041134Y-16580174D02*
X21031611Y-16589698D01*
X21241134Y-16703984D02*
X21222087Y-16694460D01*
X21222087Y-16694460D02*
X21212563Y-16684936D01*
X21212563Y-16684936D02*
X21203039Y-16665888D01*
X21203039Y-16665888D02*
X21203039Y-16608746D01*
X21203039Y-16608746D02*
X21212563Y-16589698D01*
X21212563Y-16589698D02*
X21222087Y-16580174D01*
X21222087Y-16580174D02*
X21241134Y-16570650D01*
X21241134Y-16570650D02*
X21269706Y-16570650D01*
X21269706Y-16570650D02*
X21288753Y-16580174D01*
X21288753Y-16580174D02*
X21298277Y-16589698D01*
X21298277Y-16589698D02*
X21307801Y-16608746D01*
X21307801Y-16608746D02*
X21307801Y-16665888D01*
X21307801Y-16665888D02*
X21298277Y-16684936D01*
X21298277Y-16684936D02*
X21288753Y-16694460D01*
X21288753Y-16694460D02*
X21269706Y-16703984D01*
X21269706Y-16703984D02*
X21241134Y-16703984D01*
X21422087Y-16703984D02*
X21403039Y-16694460D01*
X21403039Y-16694460D02*
X21393515Y-16675412D01*
X21393515Y-16675412D02*
X21393515Y-16503984D01*
X21574468Y-16694460D02*
X21555420Y-16703984D01*
X21555420Y-16703984D02*
X21517325Y-16703984D01*
X21517325Y-16703984D02*
X21498277Y-16694460D01*
X21498277Y-16694460D02*
X21488753Y-16675412D01*
X21488753Y-16675412D02*
X21488753Y-16599222D01*
X21488753Y-16599222D02*
X21498277Y-16580174D01*
X21498277Y-16580174D02*
X21517325Y-16570650D01*
X21517325Y-16570650D02*
X21555420Y-16570650D01*
X21555420Y-16570650D02*
X21574468Y-16580174D01*
X21574468Y-16580174D02*
X21583992Y-16599222D01*
X21583992Y-16599222D02*
X21583992Y-16618269D01*
X21583992Y-16618269D02*
X21488753Y-16637317D01*
X21660182Y-16694460D02*
X21679230Y-16703984D01*
X21679230Y-16703984D02*
X21717325Y-16703984D01*
X21717325Y-16703984D02*
X21736373Y-16694460D01*
X21736373Y-16694460D02*
X21745896Y-16675412D01*
X21745896Y-16675412D02*
X21745896Y-16665888D01*
X21745896Y-16665888D02*
X21736373Y-16646841D01*
X21736373Y-16646841D02*
X21717325Y-16637317D01*
X21717325Y-16637317D02*
X21688753Y-16637317D01*
X21688753Y-16637317D02*
X21669706Y-16627793D01*
X21669706Y-16627793D02*
X21660182Y-16608746D01*
X21660182Y-16608746D02*
X21660182Y-16599222D01*
X21660182Y-16599222D02*
X21669706Y-16580174D01*
X21669706Y-16580174D02*
X21688753Y-16570650D01*
X21688753Y-16570650D02*
X21717325Y-16570650D01*
X21717325Y-16570650D02*
X21736373Y-16580174D01*
X21812563Y-16780174D02*
X21822087Y-16770650D01*
X21822087Y-16770650D02*
X21841134Y-16742079D01*
X21841134Y-16742079D02*
X21850658Y-16723031D01*
X21850658Y-16723031D02*
X21860182Y-16694460D01*
X21860182Y-16694460D02*
X21869706Y-16646841D01*
X21869706Y-16646841D02*
X21869706Y-16608746D01*
X21869706Y-16608746D02*
X21860182Y-16561127D01*
X21860182Y-16561127D02*
X21850658Y-16532555D01*
X21850658Y-16532555D02*
X21841134Y-16513508D01*
X21841134Y-16513508D02*
X21822087Y-16484936D01*
X21822087Y-16484936D02*
X21812563Y-16475412D01*
M02*
