G04 #@! TF.GenerationSoftware,KiCad,Pcbnew,8.0.6-8.0.6-0~ubuntu22.04.1*
G04 #@! TF.CreationDate,2025-02-02T18:21:29+01:00*
G04 #@! TF.ProjectId,Drumbox,4472756d-626f-4782-9e6b-696361645f70,rev?*
G04 #@! TF.SameCoordinates,Original*
G04 #@! TF.FileFunction,Legend,Bot*
G04 #@! TF.FilePolarity,Positive*
%FSLAX46Y46*%
G04 Gerber Fmt 4.6, Leading zero omitted, Abs format (unit mm)*
G04 Created by KiCad (PCBNEW 8.0.6-8.0.6-0~ubuntu22.04.1) date 2025-02-02 18:21:29*
%MOMM*%
%LPD*%
G01*
G04 APERTURE LIST*
%ADD10C,0.300000*%
%ADD11C,0.150000*%
%ADD12C,0.100000*%
%ADD13O,6.700000X4.200000*%
G04 APERTURE END LIST*
D10*
X218478328Y-103171428D02*
X219549757Y-103171428D01*
X219549757Y-103171428D02*
X219764042Y-103099999D01*
X219764042Y-103099999D02*
X219906900Y-102957142D01*
X219906900Y-102957142D02*
X219978328Y-102742856D01*
X219978328Y-102742856D02*
X219978328Y-102599999D01*
X219978328Y-104599999D02*
X219978328Y-103885713D01*
X219978328Y-103885713D02*
X218478328Y-103885713D01*
X219835471Y-105957142D02*
X219906900Y-105885714D01*
X219906900Y-105885714D02*
X219978328Y-105671428D01*
X219978328Y-105671428D02*
X219978328Y-105528571D01*
X219978328Y-105528571D02*
X219906900Y-105314285D01*
X219906900Y-105314285D02*
X219764042Y-105171428D01*
X219764042Y-105171428D02*
X219621185Y-105099999D01*
X219621185Y-105099999D02*
X219335471Y-105028571D01*
X219335471Y-105028571D02*
X219121185Y-105028571D01*
X219121185Y-105028571D02*
X218835471Y-105099999D01*
X218835471Y-105099999D02*
X218692614Y-105171428D01*
X218692614Y-105171428D02*
X218549757Y-105314285D01*
X218549757Y-105314285D02*
X218478328Y-105528571D01*
X218478328Y-105528571D02*
X218478328Y-105671428D01*
X218478328Y-105671428D02*
X218549757Y-105885714D01*
X218549757Y-105885714D02*
X218621185Y-105957142D01*
X218478328Y-107028571D02*
X219549757Y-107028571D01*
X219549757Y-107028571D02*
X219764042Y-106957142D01*
X219764042Y-106957142D02*
X219906900Y-106814285D01*
X219906900Y-106814285D02*
X219978328Y-106599999D01*
X219978328Y-106599999D02*
X219978328Y-106457142D01*
X219978328Y-108457142D02*
X219978328Y-107742856D01*
X219978328Y-107742856D02*
X218478328Y-107742856D01*
X219835471Y-109814285D02*
X219906900Y-109742857D01*
X219906900Y-109742857D02*
X219978328Y-109528571D01*
X219978328Y-109528571D02*
X219978328Y-109385714D01*
X219978328Y-109385714D02*
X219906900Y-109171428D01*
X219906900Y-109171428D02*
X219764042Y-109028571D01*
X219764042Y-109028571D02*
X219621185Y-108957142D01*
X219621185Y-108957142D02*
X219335471Y-108885714D01*
X219335471Y-108885714D02*
X219121185Y-108885714D01*
X219121185Y-108885714D02*
X218835471Y-108957142D01*
X218835471Y-108957142D02*
X218692614Y-109028571D01*
X218692614Y-109028571D02*
X218549757Y-109171428D01*
X218549757Y-109171428D02*
X218478328Y-109385714D01*
X218478328Y-109385714D02*
X218478328Y-109528571D01*
X218478328Y-109528571D02*
X218549757Y-109742857D01*
X218549757Y-109742857D02*
X218621185Y-109814285D01*
X218478328Y-110885714D02*
X219549757Y-110885714D01*
X219549757Y-110885714D02*
X219764042Y-110814285D01*
X219764042Y-110814285D02*
X219906900Y-110671428D01*
X219906900Y-110671428D02*
X219978328Y-110457142D01*
X219978328Y-110457142D02*
X219978328Y-110314285D01*
X219978328Y-112314285D02*
X219978328Y-111599999D01*
X219978328Y-111599999D02*
X218478328Y-111599999D01*
X219835471Y-113671428D02*
X219906900Y-113600000D01*
X219906900Y-113600000D02*
X219978328Y-113385714D01*
X219978328Y-113385714D02*
X219978328Y-113242857D01*
X219978328Y-113242857D02*
X219906900Y-113028571D01*
X219906900Y-113028571D02*
X219764042Y-112885714D01*
X219764042Y-112885714D02*
X219621185Y-112814285D01*
X219621185Y-112814285D02*
X219335471Y-112742857D01*
X219335471Y-112742857D02*
X219121185Y-112742857D01*
X219121185Y-112742857D02*
X218835471Y-112814285D01*
X218835471Y-112814285D02*
X218692614Y-112885714D01*
X218692614Y-112885714D02*
X218549757Y-113028571D01*
X218549757Y-113028571D02*
X218478328Y-113242857D01*
X218478328Y-113242857D02*
X218478328Y-113385714D01*
X218478328Y-113385714D02*
X218549757Y-113600000D01*
X218549757Y-113600000D02*
X218621185Y-113671428D01*
X218478328Y-114742857D02*
X219549757Y-114742857D01*
X219549757Y-114742857D02*
X219764042Y-114671428D01*
X219764042Y-114671428D02*
X219906900Y-114528571D01*
X219906900Y-114528571D02*
X219978328Y-114314285D01*
X219978328Y-114314285D02*
X219978328Y-114171428D01*
X219978328Y-116171428D02*
X219978328Y-115457142D01*
X219978328Y-115457142D02*
X218478328Y-115457142D01*
X219835471Y-117528571D02*
X219906900Y-117457143D01*
X219906900Y-117457143D02*
X219978328Y-117242857D01*
X219978328Y-117242857D02*
X219978328Y-117100000D01*
X219978328Y-117100000D02*
X219906900Y-116885714D01*
X219906900Y-116885714D02*
X219764042Y-116742857D01*
X219764042Y-116742857D02*
X219621185Y-116671428D01*
X219621185Y-116671428D02*
X219335471Y-116600000D01*
X219335471Y-116600000D02*
X219121185Y-116600000D01*
X219121185Y-116600000D02*
X218835471Y-116671428D01*
X218835471Y-116671428D02*
X218692614Y-116742857D01*
X218692614Y-116742857D02*
X218549757Y-116885714D01*
X218549757Y-116885714D02*
X218478328Y-117100000D01*
X218478328Y-117100000D02*
X218478328Y-117242857D01*
X218478328Y-117242857D02*
X218549757Y-117457143D01*
X218549757Y-117457143D02*
X218621185Y-117528571D01*
D11*
X199971428Y-140249847D02*
X199971428Y-139249847D01*
X199971428Y-139249847D02*
X199733333Y-139249847D01*
X199733333Y-139249847D02*
X199590476Y-139297466D01*
X199590476Y-139297466D02*
X199495238Y-139392704D01*
X199495238Y-139392704D02*
X199447619Y-139487942D01*
X199447619Y-139487942D02*
X199400000Y-139678418D01*
X199400000Y-139678418D02*
X199400000Y-139821275D01*
X199400000Y-139821275D02*
X199447619Y-140011751D01*
X199447619Y-140011751D02*
X199495238Y-140106989D01*
X199495238Y-140106989D02*
X199590476Y-140202228D01*
X199590476Y-140202228D02*
X199733333Y-140249847D01*
X199733333Y-140249847D02*
X199971428Y-140249847D01*
X198971428Y-140249847D02*
X198971428Y-139583180D01*
X198971428Y-139773656D02*
X198923809Y-139678418D01*
X198923809Y-139678418D02*
X198876190Y-139630799D01*
X198876190Y-139630799D02*
X198780952Y-139583180D01*
X198780952Y-139583180D02*
X198685714Y-139583180D01*
X197923809Y-139583180D02*
X197923809Y-140249847D01*
X198352380Y-139583180D02*
X198352380Y-140106989D01*
X198352380Y-140106989D02*
X198304761Y-140202228D01*
X198304761Y-140202228D02*
X198209523Y-140249847D01*
X198209523Y-140249847D02*
X198066666Y-140249847D01*
X198066666Y-140249847D02*
X197971428Y-140202228D01*
X197971428Y-140202228D02*
X197923809Y-140154608D01*
X197447618Y-140249847D02*
X197447618Y-139583180D01*
X197447618Y-139678418D02*
X197399999Y-139630799D01*
X197399999Y-139630799D02*
X197304761Y-139583180D01*
X197304761Y-139583180D02*
X197161904Y-139583180D01*
X197161904Y-139583180D02*
X197066666Y-139630799D01*
X197066666Y-139630799D02*
X197019047Y-139726037D01*
X197019047Y-139726037D02*
X197019047Y-140249847D01*
X197019047Y-139726037D02*
X196971428Y-139630799D01*
X196971428Y-139630799D02*
X196876190Y-139583180D01*
X196876190Y-139583180D02*
X196733333Y-139583180D01*
X196733333Y-139583180D02*
X196638094Y-139630799D01*
X196638094Y-139630799D02*
X196590475Y-139726037D01*
X196590475Y-139726037D02*
X196590475Y-140249847D01*
X196114285Y-140249847D02*
X196114285Y-139249847D01*
X196114285Y-139630799D02*
X196019047Y-139583180D01*
X196019047Y-139583180D02*
X195828571Y-139583180D01*
X195828571Y-139583180D02*
X195733333Y-139630799D01*
X195733333Y-139630799D02*
X195685714Y-139678418D01*
X195685714Y-139678418D02*
X195638095Y-139773656D01*
X195638095Y-139773656D02*
X195638095Y-140059370D01*
X195638095Y-140059370D02*
X195685714Y-140154608D01*
X195685714Y-140154608D02*
X195733333Y-140202228D01*
X195733333Y-140202228D02*
X195828571Y-140249847D01*
X195828571Y-140249847D02*
X196019047Y-140249847D01*
X196019047Y-140249847D02*
X196114285Y-140202228D01*
X195066666Y-140249847D02*
X195161904Y-140202228D01*
X195161904Y-140202228D02*
X195209523Y-140154608D01*
X195209523Y-140154608D02*
X195257142Y-140059370D01*
X195257142Y-140059370D02*
X195257142Y-139773656D01*
X195257142Y-139773656D02*
X195209523Y-139678418D01*
X195209523Y-139678418D02*
X195161904Y-139630799D01*
X195161904Y-139630799D02*
X195066666Y-139583180D01*
X195066666Y-139583180D02*
X194923809Y-139583180D01*
X194923809Y-139583180D02*
X194828571Y-139630799D01*
X194828571Y-139630799D02*
X194780952Y-139678418D01*
X194780952Y-139678418D02*
X194733333Y-139773656D01*
X194733333Y-139773656D02*
X194733333Y-140059370D01*
X194733333Y-140059370D02*
X194780952Y-140154608D01*
X194780952Y-140154608D02*
X194828571Y-140202228D01*
X194828571Y-140202228D02*
X194923809Y-140249847D01*
X194923809Y-140249847D02*
X195066666Y-140249847D01*
X194399999Y-140249847D02*
X193876190Y-139583180D01*
X194399999Y-139583180D02*
X193876190Y-140249847D01*
X192209523Y-140249847D02*
X192780951Y-140249847D01*
X192495237Y-140249847D02*
X192495237Y-139249847D01*
X192495237Y-139249847D02*
X192590475Y-139392704D01*
X192590475Y-139392704D02*
X192685713Y-139487942D01*
X192685713Y-139487942D02*
X192780951Y-139535561D01*
X191780951Y-140154608D02*
X191733332Y-140202228D01*
X191733332Y-140202228D02*
X191780951Y-140249847D01*
X191780951Y-140249847D02*
X191828570Y-140202228D01*
X191828570Y-140202228D02*
X191780951Y-140154608D01*
X191780951Y-140154608D02*
X191780951Y-140249847D01*
X191114285Y-139249847D02*
X191019047Y-139249847D01*
X191019047Y-139249847D02*
X190923809Y-139297466D01*
X190923809Y-139297466D02*
X190876190Y-139345085D01*
X190876190Y-139345085D02*
X190828571Y-139440323D01*
X190828571Y-139440323D02*
X190780952Y-139630799D01*
X190780952Y-139630799D02*
X190780952Y-139868894D01*
X190780952Y-139868894D02*
X190828571Y-140059370D01*
X190828571Y-140059370D02*
X190876190Y-140154608D01*
X190876190Y-140154608D02*
X190923809Y-140202228D01*
X190923809Y-140202228D02*
X191019047Y-140249847D01*
X191019047Y-140249847D02*
X191114285Y-140249847D01*
X191114285Y-140249847D02*
X191209523Y-140202228D01*
X191209523Y-140202228D02*
X191257142Y-140154608D01*
X191257142Y-140154608D02*
X191304761Y-140059370D01*
X191304761Y-140059370D02*
X191352380Y-139868894D01*
X191352380Y-139868894D02*
X191352380Y-139630799D01*
X191352380Y-139630799D02*
X191304761Y-139440323D01*
X191304761Y-139440323D02*
X191257142Y-139345085D01*
X191257142Y-139345085D02*
X191209523Y-139297466D01*
X191209523Y-139297466D02*
X191114285Y-139249847D01*
X201852381Y-141335981D02*
X201709524Y-141383600D01*
X201709524Y-141383600D02*
X201661905Y-141431219D01*
X201661905Y-141431219D02*
X201614286Y-141526457D01*
X201614286Y-141526457D02*
X201614286Y-141669314D01*
X201614286Y-141669314D02*
X201661905Y-141764552D01*
X201661905Y-141764552D02*
X201709524Y-141812172D01*
X201709524Y-141812172D02*
X201804762Y-141859791D01*
X201804762Y-141859791D02*
X202185714Y-141859791D01*
X202185714Y-141859791D02*
X202185714Y-140859791D01*
X202185714Y-140859791D02*
X201852381Y-140859791D01*
X201852381Y-140859791D02*
X201757143Y-140907410D01*
X201757143Y-140907410D02*
X201709524Y-140955029D01*
X201709524Y-140955029D02*
X201661905Y-141050267D01*
X201661905Y-141050267D02*
X201661905Y-141145505D01*
X201661905Y-141145505D02*
X201709524Y-141240743D01*
X201709524Y-141240743D02*
X201757143Y-141288362D01*
X201757143Y-141288362D02*
X201852381Y-141335981D01*
X201852381Y-141335981D02*
X202185714Y-141335981D01*
X201042857Y-141859791D02*
X201138095Y-141812172D01*
X201138095Y-141812172D02*
X201185714Y-141716933D01*
X201185714Y-141716933D02*
X201185714Y-140859791D01*
X200280952Y-141812172D02*
X200376190Y-141859791D01*
X200376190Y-141859791D02*
X200566666Y-141859791D01*
X200566666Y-141859791D02*
X200661904Y-141812172D01*
X200661904Y-141812172D02*
X200709523Y-141716933D01*
X200709523Y-141716933D02*
X200709523Y-141335981D01*
X200709523Y-141335981D02*
X200661904Y-141240743D01*
X200661904Y-141240743D02*
X200566666Y-141193124D01*
X200566666Y-141193124D02*
X200376190Y-141193124D01*
X200376190Y-141193124D02*
X200280952Y-141240743D01*
X200280952Y-141240743D02*
X200233333Y-141335981D01*
X200233333Y-141335981D02*
X200233333Y-141431219D01*
X200233333Y-141431219D02*
X200709523Y-141526457D01*
X199423809Y-141812172D02*
X199519047Y-141859791D01*
X199519047Y-141859791D02*
X199709523Y-141859791D01*
X199709523Y-141859791D02*
X199804761Y-141812172D01*
X199804761Y-141812172D02*
X199852380Y-141716933D01*
X199852380Y-141716933D02*
X199852380Y-141335981D01*
X199852380Y-141335981D02*
X199804761Y-141240743D01*
X199804761Y-141240743D02*
X199709523Y-141193124D01*
X199709523Y-141193124D02*
X199519047Y-141193124D01*
X199519047Y-141193124D02*
X199423809Y-141240743D01*
X199423809Y-141240743D02*
X199376190Y-141335981D01*
X199376190Y-141335981D02*
X199376190Y-141431219D01*
X199376190Y-141431219D02*
X199852380Y-141526457D01*
X198947618Y-141193124D02*
X198947618Y-142193124D01*
X198947618Y-141240743D02*
X198852380Y-141193124D01*
X198852380Y-141193124D02*
X198661904Y-141193124D01*
X198661904Y-141193124D02*
X198566666Y-141240743D01*
X198566666Y-141240743D02*
X198519047Y-141288362D01*
X198519047Y-141288362D02*
X198471428Y-141383600D01*
X198471428Y-141383600D02*
X198471428Y-141669314D01*
X198471428Y-141669314D02*
X198519047Y-141764552D01*
X198519047Y-141764552D02*
X198566666Y-141812172D01*
X198566666Y-141812172D02*
X198661904Y-141859791D01*
X198661904Y-141859791D02*
X198852380Y-141859791D01*
X198852380Y-141859791D02*
X198947618Y-141812172D01*
X197328570Y-141812172D02*
X197185713Y-141859791D01*
X197185713Y-141859791D02*
X196947618Y-141859791D01*
X196947618Y-141859791D02*
X196852380Y-141812172D01*
X196852380Y-141812172D02*
X196804761Y-141764552D01*
X196804761Y-141764552D02*
X196757142Y-141669314D01*
X196757142Y-141669314D02*
X196757142Y-141574076D01*
X196757142Y-141574076D02*
X196804761Y-141478838D01*
X196804761Y-141478838D02*
X196852380Y-141431219D01*
X196852380Y-141431219D02*
X196947618Y-141383600D01*
X196947618Y-141383600D02*
X197138094Y-141335981D01*
X197138094Y-141335981D02*
X197233332Y-141288362D01*
X197233332Y-141288362D02*
X197280951Y-141240743D01*
X197280951Y-141240743D02*
X197328570Y-141145505D01*
X197328570Y-141145505D02*
X197328570Y-141050267D01*
X197328570Y-141050267D02*
X197280951Y-140955029D01*
X197280951Y-140955029D02*
X197233332Y-140907410D01*
X197233332Y-140907410D02*
X197138094Y-140859791D01*
X197138094Y-140859791D02*
X196899999Y-140859791D01*
X196899999Y-140859791D02*
X196757142Y-140907410D01*
X196185713Y-141859791D02*
X196280951Y-141812172D01*
X196280951Y-141812172D02*
X196328570Y-141764552D01*
X196328570Y-141764552D02*
X196376189Y-141669314D01*
X196376189Y-141669314D02*
X196376189Y-141383600D01*
X196376189Y-141383600D02*
X196328570Y-141288362D01*
X196328570Y-141288362D02*
X196280951Y-141240743D01*
X196280951Y-141240743D02*
X196185713Y-141193124D01*
X196185713Y-141193124D02*
X196042856Y-141193124D01*
X196042856Y-141193124D02*
X195947618Y-141240743D01*
X195947618Y-141240743D02*
X195899999Y-141288362D01*
X195899999Y-141288362D02*
X195852380Y-141383600D01*
X195852380Y-141383600D02*
X195852380Y-141669314D01*
X195852380Y-141669314D02*
X195899999Y-141764552D01*
X195899999Y-141764552D02*
X195947618Y-141812172D01*
X195947618Y-141812172D02*
X196042856Y-141859791D01*
X196042856Y-141859791D02*
X196185713Y-141859791D01*
X194995237Y-141193124D02*
X194995237Y-141859791D01*
X195423808Y-141193124D02*
X195423808Y-141716933D01*
X195423808Y-141716933D02*
X195376189Y-141812172D01*
X195376189Y-141812172D02*
X195280951Y-141859791D01*
X195280951Y-141859791D02*
X195138094Y-141859791D01*
X195138094Y-141859791D02*
X195042856Y-141812172D01*
X195042856Y-141812172D02*
X194995237Y-141764552D01*
X194519046Y-141193124D02*
X194519046Y-141859791D01*
X194519046Y-141288362D02*
X194471427Y-141240743D01*
X194471427Y-141240743D02*
X194376189Y-141193124D01*
X194376189Y-141193124D02*
X194233332Y-141193124D01*
X194233332Y-141193124D02*
X194138094Y-141240743D01*
X194138094Y-141240743D02*
X194090475Y-141335981D01*
X194090475Y-141335981D02*
X194090475Y-141859791D01*
X193185713Y-141859791D02*
X193185713Y-140859791D01*
X193185713Y-141812172D02*
X193280951Y-141859791D01*
X193280951Y-141859791D02*
X193471427Y-141859791D01*
X193471427Y-141859791D02*
X193566665Y-141812172D01*
X193566665Y-141812172D02*
X193614284Y-141764552D01*
X193614284Y-141764552D02*
X193661903Y-141669314D01*
X193661903Y-141669314D02*
X193661903Y-141383600D01*
X193661903Y-141383600D02*
X193614284Y-141288362D01*
X193614284Y-141288362D02*
X193566665Y-141240743D01*
X193566665Y-141240743D02*
X193471427Y-141193124D01*
X193471427Y-141193124D02*
X193280951Y-141193124D01*
X193280951Y-141193124D02*
X193185713Y-141240743D01*
X191995236Y-140955029D02*
X191947617Y-140907410D01*
X191947617Y-140907410D02*
X191852379Y-140859791D01*
X191852379Y-140859791D02*
X191614284Y-140859791D01*
X191614284Y-140859791D02*
X191519046Y-140907410D01*
X191519046Y-140907410D02*
X191471427Y-140955029D01*
X191471427Y-140955029D02*
X191423808Y-141050267D01*
X191423808Y-141050267D02*
X191423808Y-141145505D01*
X191423808Y-141145505D02*
X191471427Y-141288362D01*
X191471427Y-141288362D02*
X192042855Y-141859791D01*
X192042855Y-141859791D02*
X191423808Y-141859791D01*
X190804760Y-140859791D02*
X190709522Y-140859791D01*
X190709522Y-140859791D02*
X190614284Y-140907410D01*
X190614284Y-140907410D02*
X190566665Y-140955029D01*
X190566665Y-140955029D02*
X190519046Y-141050267D01*
X190519046Y-141050267D02*
X190471427Y-141240743D01*
X190471427Y-141240743D02*
X190471427Y-141478838D01*
X190471427Y-141478838D02*
X190519046Y-141669314D01*
X190519046Y-141669314D02*
X190566665Y-141764552D01*
X190566665Y-141764552D02*
X190614284Y-141812172D01*
X190614284Y-141812172D02*
X190709522Y-141859791D01*
X190709522Y-141859791D02*
X190804760Y-141859791D01*
X190804760Y-141859791D02*
X190899998Y-141812172D01*
X190899998Y-141812172D02*
X190947617Y-141764552D01*
X190947617Y-141764552D02*
X190995236Y-141669314D01*
X190995236Y-141669314D02*
X191042855Y-141478838D01*
X191042855Y-141478838D02*
X191042855Y-141240743D01*
X191042855Y-141240743D02*
X190995236Y-141050267D01*
X190995236Y-141050267D02*
X190947617Y-140955029D01*
X190947617Y-140955029D02*
X190899998Y-140907410D01*
X190899998Y-140907410D02*
X190804760Y-140859791D01*
X190090474Y-140955029D02*
X190042855Y-140907410D01*
X190042855Y-140907410D02*
X189947617Y-140859791D01*
X189947617Y-140859791D02*
X189709522Y-140859791D01*
X189709522Y-140859791D02*
X189614284Y-140907410D01*
X189614284Y-140907410D02*
X189566665Y-140955029D01*
X189566665Y-140955029D02*
X189519046Y-141050267D01*
X189519046Y-141050267D02*
X189519046Y-141145505D01*
X189519046Y-141145505D02*
X189566665Y-141288362D01*
X189566665Y-141288362D02*
X190138093Y-141859791D01*
X190138093Y-141859791D02*
X189519046Y-141859791D01*
X188614284Y-140859791D02*
X189090474Y-140859791D01*
X189090474Y-140859791D02*
X189138093Y-141335981D01*
X189138093Y-141335981D02*
X189090474Y-141288362D01*
X189090474Y-141288362D02*
X188995236Y-141240743D01*
X188995236Y-141240743D02*
X188757141Y-141240743D01*
X188757141Y-141240743D02*
X188661903Y-141288362D01*
X188661903Y-141288362D02*
X188614284Y-141335981D01*
X188614284Y-141335981D02*
X188566665Y-141431219D01*
X188566665Y-141431219D02*
X188566665Y-141669314D01*
X188566665Y-141669314D02*
X188614284Y-141764552D01*
X188614284Y-141764552D02*
X188661903Y-141812172D01*
X188661903Y-141812172D02*
X188757141Y-141859791D01*
X188757141Y-141859791D02*
X188995236Y-141859791D01*
X188995236Y-141859791D02*
X189090474Y-141812172D01*
X189090474Y-141812172D02*
X189138093Y-141764552D01*
X196757143Y-142831009D02*
X197090476Y-142831009D01*
X197090476Y-143354819D02*
X197090476Y-142354819D01*
X197090476Y-142354819D02*
X196614286Y-142354819D01*
X196233333Y-143354819D02*
X196233333Y-142688152D01*
X196233333Y-142878628D02*
X196185714Y-142783390D01*
X196185714Y-142783390D02*
X196138095Y-142735771D01*
X196138095Y-142735771D02*
X196042857Y-142688152D01*
X196042857Y-142688152D02*
X195947619Y-142688152D01*
X195471428Y-143354819D02*
X195566666Y-143307200D01*
X195566666Y-143307200D02*
X195614285Y-143259580D01*
X195614285Y-143259580D02*
X195661904Y-143164342D01*
X195661904Y-143164342D02*
X195661904Y-142878628D01*
X195661904Y-142878628D02*
X195614285Y-142783390D01*
X195614285Y-142783390D02*
X195566666Y-142735771D01*
X195566666Y-142735771D02*
X195471428Y-142688152D01*
X195471428Y-142688152D02*
X195328571Y-142688152D01*
X195328571Y-142688152D02*
X195233333Y-142735771D01*
X195233333Y-142735771D02*
X195185714Y-142783390D01*
X195185714Y-142783390D02*
X195138095Y-142878628D01*
X195138095Y-142878628D02*
X195138095Y-143164342D01*
X195138095Y-143164342D02*
X195185714Y-143259580D01*
X195185714Y-143259580D02*
X195233333Y-143307200D01*
X195233333Y-143307200D02*
X195328571Y-143354819D01*
X195328571Y-143354819D02*
X195471428Y-143354819D01*
X194709523Y-142688152D02*
X194709523Y-143354819D01*
X194709523Y-142783390D02*
X194661904Y-142735771D01*
X194661904Y-142735771D02*
X194566666Y-142688152D01*
X194566666Y-142688152D02*
X194423809Y-142688152D01*
X194423809Y-142688152D02*
X194328571Y-142735771D01*
X194328571Y-142735771D02*
X194280952Y-142831009D01*
X194280952Y-142831009D02*
X194280952Y-143354819D01*
X193947618Y-142688152D02*
X193566666Y-142688152D01*
X193804761Y-142354819D02*
X193804761Y-143211961D01*
X193804761Y-143211961D02*
X193757142Y-143307200D01*
X193757142Y-143307200D02*
X193661904Y-143354819D01*
X193661904Y-143354819D02*
X193566666Y-143354819D01*
%LPC*%
D12*
X186100000Y-42600000D02*
X181500000Y-42600000D01*
X181500000Y-38000000D01*
X186100000Y-38000000D01*
X186100000Y-42600000D01*
G36*
X186100000Y-42600000D02*
G01*
X181500000Y-42600000D01*
X181500000Y-38000000D01*
X186100000Y-38000000D01*
X186100000Y-42600000D01*
G37*
X186150000Y-139600000D02*
X181550000Y-139600000D01*
X181550000Y-135000000D01*
X186150000Y-135000000D01*
X186150000Y-139600000D01*
G36*
X186150000Y-139600000D02*
G01*
X181550000Y-139600000D01*
X181550000Y-135000000D01*
X186150000Y-135000000D01*
X186150000Y-139600000D01*
G37*
X186150000Y-82600000D02*
X181550000Y-82600000D01*
X181550000Y-78000000D01*
X186150000Y-78000000D01*
X186150000Y-82600000D01*
G36*
X186150000Y-82600000D02*
G01*
X181550000Y-82600000D01*
X181550000Y-78000000D01*
X186150000Y-78000000D01*
X186150000Y-82600000D01*
G37*
X186150000Y-62600000D02*
X181550000Y-62600000D01*
X181550000Y-58000000D01*
X186150000Y-58000000D01*
X186150000Y-62600000D01*
G36*
X186150000Y-62600000D02*
G01*
X181550000Y-62600000D01*
X181550000Y-58000000D01*
X186150000Y-58000000D01*
X186150000Y-62600000D01*
G37*
X186150000Y-122600000D02*
X181550000Y-122600000D01*
X181550000Y-118000000D01*
X186150000Y-118000000D01*
X186150000Y-122600000D01*
G36*
X186150000Y-122600000D02*
G01*
X181550000Y-122600000D01*
X181550000Y-118000000D01*
X186150000Y-118000000D01*
X186150000Y-122600000D01*
G37*
X186150000Y-102600000D02*
X181550000Y-102600000D01*
X181550000Y-98000000D01*
X186150000Y-98000000D01*
X186150000Y-102600000D01*
G36*
X186150000Y-102600000D02*
G01*
X181550000Y-102600000D01*
X181550000Y-98000000D01*
X186150000Y-98000000D01*
X186150000Y-102600000D01*
G37*
D13*
X177400000Y-27800000D03*
X213400000Y-27800000D03*
X177400000Y-150300000D03*
X213400000Y-150300000D03*
%LPD*%
M02*
