%TF.GenerationSoftware,KiCad,Pcbnew,8.0.6-8.0.6-0~ubuntu22.04.1*%
%TF.CreationDate,2025-02-02T18:21:29+01:00*%
%TF.ProjectId,Drumbox,4472756d-626f-4782-9e6b-696361645f70,rev?*%
%TF.SameCoordinates,Original*%
%TF.FileFunction,Drillmap*%
%TF.FilePolarity,Positive*%
%FSLAX45Y45*%
G04 Gerber Fmt 4.5, Leading zero omitted, Abs format (unit mm)*
G04 Created by KiCad (PCBNEW 8.0.6-8.0.6-0~ubuntu22.04.1) date 2025-02-02 18:21:29*
%MOMM*%
%LPD*%
G01*
G04 APERTURE LIST*
%ADD10C,0.050000*%
%ADD11C,0.200000*%
G04 APERTURE END LIST*
D10*
X22040000Y-15330000D02*
X17040000Y-15330000D01*
X17040000Y-2480000D02*
X17040000Y-15330000D01*
X22040000Y-2480000D02*
X22040000Y-15330000D01*
X17040000Y-2480000D02*
X22040000Y-2480000D01*
D11*
X17298277Y-15643984D02*
X17298277Y-15443984D01*
X17298277Y-15443984D02*
X17345896Y-15443984D01*
X17345896Y-15443984D02*
X17374467Y-15453508D01*
X17374467Y-15453508D02*
X17393515Y-15472555D01*
X17393515Y-15472555D02*
X17403039Y-15491603D01*
X17403039Y-15491603D02*
X17412563Y-15529698D01*
X17412563Y-15529698D02*
X17412563Y-15558269D01*
X17412563Y-15558269D02*
X17403039Y-15596365D01*
X17403039Y-15596365D02*
X17393515Y-15615412D01*
X17393515Y-15615412D02*
X17374467Y-15634460D01*
X17374467Y-15634460D02*
X17345896Y-15643984D01*
X17345896Y-15643984D02*
X17298277Y-15643984D01*
X17498277Y-15643984D02*
X17498277Y-15510650D01*
X17498277Y-15548746D02*
X17507801Y-15529698D01*
X17507801Y-15529698D02*
X17517324Y-15520174D01*
X17517324Y-15520174D02*
X17536372Y-15510650D01*
X17536372Y-15510650D02*
X17555420Y-15510650D01*
X17622086Y-15643984D02*
X17622086Y-15510650D01*
X17622086Y-15443984D02*
X17612563Y-15453508D01*
X17612563Y-15453508D02*
X17622086Y-15463031D01*
X17622086Y-15463031D02*
X17631610Y-15453508D01*
X17631610Y-15453508D02*
X17622086Y-15443984D01*
X17622086Y-15443984D02*
X17622086Y-15463031D01*
X17745896Y-15643984D02*
X17726848Y-15634460D01*
X17726848Y-15634460D02*
X17717324Y-15615412D01*
X17717324Y-15615412D02*
X17717324Y-15443984D01*
X17850658Y-15643984D02*
X17831610Y-15634460D01*
X17831610Y-15634460D02*
X17822086Y-15615412D01*
X17822086Y-15615412D02*
X17822086Y-15443984D01*
X18079229Y-15643984D02*
X18079229Y-15443984D01*
X18079229Y-15443984D02*
X18145896Y-15586841D01*
X18145896Y-15586841D02*
X18212563Y-15443984D01*
X18212563Y-15443984D02*
X18212563Y-15643984D01*
X18393515Y-15643984D02*
X18393515Y-15539222D01*
X18393515Y-15539222D02*
X18383991Y-15520174D01*
X18383991Y-15520174D02*
X18364944Y-15510650D01*
X18364944Y-15510650D02*
X18326848Y-15510650D01*
X18326848Y-15510650D02*
X18307801Y-15520174D01*
X18393515Y-15634460D02*
X18374467Y-15643984D01*
X18374467Y-15643984D02*
X18326848Y-15643984D01*
X18326848Y-15643984D02*
X18307801Y-15634460D01*
X18307801Y-15634460D02*
X18298277Y-15615412D01*
X18298277Y-15615412D02*
X18298277Y-15596365D01*
X18298277Y-15596365D02*
X18307801Y-15577317D01*
X18307801Y-15577317D02*
X18326848Y-15567793D01*
X18326848Y-15567793D02*
X18374467Y-15567793D01*
X18374467Y-15567793D02*
X18393515Y-15558269D01*
X18488753Y-15510650D02*
X18488753Y-15710650D01*
X18488753Y-15520174D02*
X18507801Y-15510650D01*
X18507801Y-15510650D02*
X18545896Y-15510650D01*
X18545896Y-15510650D02*
X18564944Y-15520174D01*
X18564944Y-15520174D02*
X18574467Y-15529698D01*
X18574467Y-15529698D02*
X18583991Y-15548746D01*
X18583991Y-15548746D02*
X18583991Y-15605888D01*
X18583991Y-15605888D02*
X18574467Y-15624936D01*
X18574467Y-15624936D02*
X18564944Y-15634460D01*
X18564944Y-15634460D02*
X18545896Y-15643984D01*
X18545896Y-15643984D02*
X18507801Y-15643984D01*
X18507801Y-15643984D02*
X18488753Y-15634460D01*
X18669705Y-15624936D02*
X18679229Y-15634460D01*
X18679229Y-15634460D02*
X18669705Y-15643984D01*
X18669705Y-15643984D02*
X18660182Y-15634460D01*
X18660182Y-15634460D02*
X18669705Y-15624936D01*
X18669705Y-15624936D02*
X18669705Y-15643984D01*
X18669705Y-15520174D02*
X18679229Y-15529698D01*
X18679229Y-15529698D02*
X18669705Y-15539222D01*
X18669705Y-15539222D02*
X18660182Y-15529698D01*
X18660182Y-15529698D02*
X18669705Y-15520174D01*
X18669705Y-15520174D02*
X18669705Y-15539222D01*
M02*
