G04 #@! TF.GenerationSoftware,KiCad,Pcbnew,8.0.6-8.0.6-0~ubuntu22.04.1*
G04 #@! TF.CreationDate,2025-02-02T12:48:23+01:00*
G04 #@! TF.ProjectId,Drumbox,4472756d-626f-4782-9e6b-696361645f70,rev?*
G04 #@! TF.SameCoordinates,Original*
G04 #@! TF.FileFunction,Legend,Bot*
G04 #@! TF.FilePolarity,Positive*
%FSLAX46Y46*%
G04 Gerber Fmt 4.6, Leading zero omitted, Abs format (unit mm)*
G04 Created by KiCad (PCBNEW 8.0.6-8.0.6-0~ubuntu22.04.1) date 2025-02-02 12:48:23*
%MOMM*%
%LPD*%
G01*
G04 APERTURE LIST*
%ADD10C,0.150000*%
%ADD11C,0.120000*%
%ADD12C,0.000000*%
%ADD13C,1.600000*%
%ADD14O,1.600000X1.600000*%
%ADD15C,1.524000*%
%ADD16R,1.600000X1.600000*%
%ADD17R,2.000000X1.905000*%
%ADD18O,2.000000X1.905000*%
%ADD19R,1.050000X1.500000*%
%ADD20O,1.050000X1.500000*%
%ADD21C,3.200000*%
%ADD22C,1.700000*%
%ADD23R,1.700000X1.700000*%
%ADD24O,1.700000X1.700000*%
G04 APERTURE END LIST*
D10*
X63733333Y-78484819D02*
X63733333Y-79199104D01*
X63733333Y-79199104D02*
X63780952Y-79341961D01*
X63780952Y-79341961D02*
X63876190Y-79437200D01*
X63876190Y-79437200D02*
X64019047Y-79484819D01*
X64019047Y-79484819D02*
X64114285Y-79484819D01*
X63304761Y-78580057D02*
X63257142Y-78532438D01*
X63257142Y-78532438D02*
X63161904Y-78484819D01*
X63161904Y-78484819D02*
X62923809Y-78484819D01*
X62923809Y-78484819D02*
X62828571Y-78532438D01*
X62828571Y-78532438D02*
X62780952Y-78580057D01*
X62780952Y-78580057D02*
X62733333Y-78675295D01*
X62733333Y-78675295D02*
X62733333Y-78770533D01*
X62733333Y-78770533D02*
X62780952Y-78913390D01*
X62780952Y-78913390D02*
X63352380Y-79484819D01*
X63352380Y-79484819D02*
X62733333Y-79484819D01*
X62809523Y-129984819D02*
X62809523Y-130699104D01*
X62809523Y-130699104D02*
X62857142Y-130841961D01*
X62857142Y-130841961D02*
X62952380Y-130937200D01*
X62952380Y-130937200D02*
X63095237Y-130984819D01*
X63095237Y-130984819D02*
X63190475Y-130984819D01*
X61809523Y-130984819D02*
X62380951Y-130984819D01*
X62095237Y-130984819D02*
X62095237Y-129984819D01*
X62095237Y-129984819D02*
X62190475Y-130127676D01*
X62190475Y-130127676D02*
X62285713Y-130222914D01*
X62285713Y-130222914D02*
X62380951Y-130270533D01*
X61238094Y-130413390D02*
X61333332Y-130365771D01*
X61333332Y-130365771D02*
X61380951Y-130318152D01*
X61380951Y-130318152D02*
X61428570Y-130222914D01*
X61428570Y-130222914D02*
X61428570Y-130175295D01*
X61428570Y-130175295D02*
X61380951Y-130080057D01*
X61380951Y-130080057D02*
X61333332Y-130032438D01*
X61333332Y-130032438D02*
X61238094Y-129984819D01*
X61238094Y-129984819D02*
X61047618Y-129984819D01*
X61047618Y-129984819D02*
X60952380Y-130032438D01*
X60952380Y-130032438D02*
X60904761Y-130080057D01*
X60904761Y-130080057D02*
X60857142Y-130175295D01*
X60857142Y-130175295D02*
X60857142Y-130222914D01*
X60857142Y-130222914D02*
X60904761Y-130318152D01*
X60904761Y-130318152D02*
X60952380Y-130365771D01*
X60952380Y-130365771D02*
X61047618Y-130413390D01*
X61047618Y-130413390D02*
X61238094Y-130413390D01*
X61238094Y-130413390D02*
X61333332Y-130461009D01*
X61333332Y-130461009D02*
X61380951Y-130508628D01*
X61380951Y-130508628D02*
X61428570Y-130603866D01*
X61428570Y-130603866D02*
X61428570Y-130794342D01*
X61428570Y-130794342D02*
X61380951Y-130889580D01*
X61380951Y-130889580D02*
X61333332Y-130937200D01*
X61333332Y-130937200D02*
X61238094Y-130984819D01*
X61238094Y-130984819D02*
X61047618Y-130984819D01*
X61047618Y-130984819D02*
X60952380Y-130937200D01*
X60952380Y-130937200D02*
X60904761Y-130889580D01*
X60904761Y-130889580D02*
X60857142Y-130794342D01*
X60857142Y-130794342D02*
X60857142Y-130603866D01*
X60857142Y-130603866D02*
X60904761Y-130508628D01*
X60904761Y-130508628D02*
X60952380Y-130461009D01*
X60952380Y-130461009D02*
X61047618Y-130413390D01*
X63733333Y-38784819D02*
X63733333Y-39499104D01*
X63733333Y-39499104D02*
X63780952Y-39641961D01*
X63780952Y-39641961D02*
X63876190Y-39737200D01*
X63876190Y-39737200D02*
X64019047Y-39784819D01*
X64019047Y-39784819D02*
X64114285Y-39784819D01*
X63352380Y-38784819D02*
X62733333Y-38784819D01*
X62733333Y-38784819D02*
X63066666Y-39165771D01*
X63066666Y-39165771D02*
X62923809Y-39165771D01*
X62923809Y-39165771D02*
X62828571Y-39213390D01*
X62828571Y-39213390D02*
X62780952Y-39261009D01*
X62780952Y-39261009D02*
X62733333Y-39356247D01*
X62733333Y-39356247D02*
X62733333Y-39594342D01*
X62733333Y-39594342D02*
X62780952Y-39689580D01*
X62780952Y-39689580D02*
X62828571Y-39737200D01*
X62828571Y-39737200D02*
X62923809Y-39784819D01*
X62923809Y-39784819D02*
X63209523Y-39784819D01*
X63209523Y-39784819D02*
X63304761Y-39737200D01*
X63304761Y-39737200D02*
X63352380Y-39689580D01*
D11*
X62070000Y-80470000D02*
X63400000Y-80470000D01*
X62070000Y-81800000D02*
X62070000Y-80470000D01*
X62070000Y-83070000D02*
X64730000Y-83070000D01*
X62070000Y-111070000D02*
X62070000Y-83070000D01*
X62070000Y-111070000D02*
X64730000Y-111070000D01*
X64730000Y-111070000D02*
X64730000Y-83070000D01*
D12*
G36*
X65976737Y-51979321D02*
G01*
X66007270Y-51994830D01*
X66029079Y-52021971D01*
X66037318Y-52062682D01*
X66029564Y-52102908D01*
X66008239Y-52131018D01*
X65977221Y-52148465D01*
X65941357Y-52156704D01*
X65941357Y-51974475D01*
X65976737Y-51979321D01*
G37*
G36*
X65976737Y-57310501D02*
G01*
X66007270Y-57326010D01*
X66029079Y-57353150D01*
X66037318Y-57393861D01*
X66029564Y-57434087D01*
X66008239Y-57462197D01*
X65977221Y-57479645D01*
X65941357Y-57487884D01*
X65941357Y-57305654D01*
X65976737Y-57310501D01*
G37*
G36*
X66027141Y-52527948D02*
G01*
X66032472Y-52564782D01*
X66023990Y-52601615D01*
X65998546Y-52626817D01*
X65957108Y-52641357D01*
X65900646Y-52646203D01*
X65845153Y-52640509D01*
X65800808Y-52623425D01*
X65771729Y-52593740D01*
X65762036Y-52550242D01*
X65763005Y-52523102D01*
X65765913Y-52496930D01*
X66014055Y-52496930D01*
X66027141Y-52527948D01*
G37*
G36*
X65952868Y-58765065D02*
G01*
X65996123Y-58781422D01*
X66024111Y-58809895D01*
X66033441Y-58851696D01*
X66024111Y-58892528D01*
X65996123Y-58921971D01*
X65952868Y-58939782D01*
X65897738Y-58945719D01*
X65842488Y-58940266D01*
X65798869Y-58923909D01*
X65770517Y-58895436D01*
X65761066Y-58853635D01*
X65770517Y-58812803D01*
X65798869Y-58783360D01*
X65842488Y-58765549D01*
X65897738Y-58759612D01*
X65952868Y-58765065D01*
G37*
G36*
X66041503Y-51437661D02*
G01*
X66082606Y-51443758D01*
X66122914Y-51453855D01*
X66162038Y-51467853D01*
X66199601Y-51485619D01*
X66235242Y-51506982D01*
X66268618Y-51531735D01*
X66299407Y-51559640D01*
X66327312Y-51590429D01*
X66352065Y-51623805D01*
X66373427Y-51659446D01*
X66391194Y-51697009D01*
X66405192Y-51736133D01*
X66415289Y-51776441D01*
X66421386Y-51817544D01*
X66423425Y-51859047D01*
X66423425Y-51859128D01*
X66423425Y-59540872D01*
X66423425Y-59540953D01*
X66421386Y-59582456D01*
X66415289Y-59623559D01*
X66405192Y-59663867D01*
X66391194Y-59702991D01*
X66373427Y-59740554D01*
X66352065Y-59776195D01*
X66327312Y-59809571D01*
X66299407Y-59840360D01*
X66268618Y-59868265D01*
X66235242Y-59893018D01*
X66199601Y-59914380D01*
X66162038Y-59932147D01*
X66122914Y-59946145D01*
X66082606Y-59956242D01*
X66041503Y-59962339D01*
X66000000Y-59964378D01*
X65958497Y-59962339D01*
X65917394Y-59956242D01*
X65877086Y-59946145D01*
X65837962Y-59932147D01*
X65800399Y-59914380D01*
X65764758Y-59893018D01*
X65731382Y-59868265D01*
X65700593Y-59840360D01*
X65672688Y-59809571D01*
X65647935Y-59776195D01*
X65626573Y-59740554D01*
X65608806Y-59702991D01*
X65594808Y-59663867D01*
X65584711Y-59623559D01*
X65578614Y-59582456D01*
X65576575Y-59540953D01*
X65576575Y-59540872D01*
X65576575Y-59354766D01*
X65657351Y-59354766D01*
X65661349Y-59421890D01*
X65673344Y-59473990D01*
X65702908Y-59540872D01*
X65799838Y-59505977D01*
X65770759Y-59443457D01*
X65760582Y-59403110D01*
X65757189Y-59354766D01*
X65763489Y-59304846D01*
X65780937Y-59273344D01*
X65806139Y-59257351D01*
X65834733Y-59252989D01*
X65867690Y-59263651D01*
X65893376Y-59290792D01*
X65913732Y-59327625D01*
X65930695Y-59368336D01*
X65952989Y-59424556D01*
X65984976Y-59477383D01*
X66032956Y-59516640D01*
X66104200Y-59532149D01*
X66179321Y-59518457D01*
X66236026Y-59477383D01*
X66262412Y-59436295D01*
X66278244Y-59386053D01*
X66283522Y-59326656D01*
X66280372Y-59274919D01*
X66270921Y-59230210D01*
X66242811Y-59160905D01*
X66150727Y-59195800D01*
X66173990Y-59249596D01*
X66183683Y-59317932D01*
X66176037Y-59370705D01*
X66153096Y-59402369D01*
X66114863Y-59412924D01*
X66084330Y-59403231D01*
X66061066Y-59378514D01*
X66043134Y-59344588D01*
X66028595Y-59307270D01*
X66004847Y-59248627D01*
X65969952Y-59192407D01*
X65915670Y-59150242D01*
X65878958Y-59137884D01*
X65833764Y-59133764D01*
X65759006Y-59147456D01*
X65703393Y-59188530D01*
X65677814Y-59231341D01*
X65662466Y-59286753D01*
X65657351Y-59354766D01*
X65576575Y-59354766D01*
X65576575Y-58851696D01*
X65657351Y-58851696D01*
X65661712Y-58897859D01*
X65674798Y-58939418D01*
X65695880Y-58976010D01*
X65724233Y-59007270D01*
X65759249Y-59032593D01*
X65800323Y-59051373D01*
X65846971Y-59063005D01*
X65898708Y-59066882D01*
X65949717Y-59062884D01*
X65996123Y-59050888D01*
X66037076Y-59031745D01*
X66071729Y-59006300D01*
X66099596Y-58974919D01*
X66120194Y-58937964D01*
X66132916Y-58896527D01*
X66137157Y-58851696D01*
X66132916Y-58806260D01*
X66120194Y-58764943D01*
X66099596Y-58728352D01*
X66071729Y-58697092D01*
X66037076Y-58671769D01*
X65996123Y-58652989D01*
X65949717Y-58641357D01*
X65898708Y-58637480D01*
X65846971Y-58641357D01*
X65800323Y-58652989D01*
X65759249Y-58671648D01*
X65724233Y-58696607D01*
X65695880Y-58727504D01*
X65674798Y-58763974D01*
X65661712Y-58805533D01*
X65657351Y-58851696D01*
X65576575Y-58851696D01*
X65576575Y-58304039D01*
X65659289Y-58304039D01*
X65663893Y-58368861D01*
X65677706Y-58423748D01*
X65699515Y-58469184D01*
X65728110Y-58505654D01*
X65763005Y-58533401D01*
X65803716Y-58552666D01*
X65849031Y-58563934D01*
X65897738Y-58567690D01*
X65945719Y-58563813D01*
X65990792Y-58552181D01*
X66031624Y-58532552D01*
X66066882Y-58504685D01*
X66095961Y-58468457D01*
X66118255Y-58423748D01*
X66132431Y-58370073D01*
X66137157Y-58306947D01*
X66131341Y-58233279D01*
X66111955Y-58166397D01*
X66015994Y-58192569D01*
X66028110Y-58235703D01*
X66033441Y-58296284D01*
X66023263Y-58367528D01*
X65995153Y-58413570D01*
X65952019Y-58438772D01*
X65897738Y-58446527D01*
X65841519Y-58437682D01*
X65798869Y-58411147D01*
X65771971Y-58363287D01*
X65763005Y-58290468D01*
X65766882Y-58231825D01*
X65779483Y-58176090D01*
X65681583Y-58158643D01*
X65665590Y-58219709D01*
X65660864Y-58258724D01*
X65659289Y-58304039D01*
X65576575Y-58304039D01*
X65576575Y-57790307D01*
X65669952Y-57790307D01*
X65724717Y-57820840D01*
X65784814Y-57861066D01*
X65841034Y-57904200D01*
X65885137Y-57944426D01*
X65669952Y-57944426D01*
X65669952Y-58064620D01*
X66322294Y-58064620D01*
X66342649Y-57944426D01*
X65945234Y-57944426D01*
X65988368Y-57909047D01*
X66035380Y-57874152D01*
X66082391Y-57841680D01*
X66125525Y-57814540D01*
X66125525Y-57671082D01*
X66077060Y-57710824D01*
X66023748Y-57756866D01*
X65971405Y-57804362D01*
X65924879Y-57847496D01*
X65869144Y-57795153D01*
X65836066Y-57767286D01*
X65801777Y-57739903D01*
X65766882Y-57713853D01*
X65731987Y-57689984D01*
X65669952Y-57653635D01*
X65669952Y-57790307D01*
X65576575Y-57790307D01*
X65576575Y-57653635D01*
X65576575Y-57360905D01*
X65659289Y-57360905D01*
X65663045Y-57416034D01*
X65674313Y-57465105D01*
X65692973Y-57507754D01*
X65718901Y-57543619D01*
X65751979Y-57572334D01*
X65792084Y-57593538D01*
X65839338Y-57606624D01*
X65893861Y-57610985D01*
X65950323Y-57606381D01*
X65999515Y-57592569D01*
X66041317Y-57571244D01*
X66075606Y-57544103D01*
X66102383Y-57511874D01*
X66121648Y-57475283D01*
X66133279Y-57436026D01*
X66137157Y-57395800D01*
X66130533Y-57333979D01*
X66110662Y-57282929D01*
X66077544Y-57242649D01*
X66031718Y-57213570D01*
X65973721Y-57196123D01*
X65903554Y-57190307D01*
X65879321Y-57190792D01*
X65858966Y-57192245D01*
X65858966Y-57487884D01*
X65819103Y-57478675D01*
X65788691Y-57451050D01*
X65769426Y-57408885D01*
X65763005Y-57356058D01*
X65770759Y-57287722D01*
X65786268Y-57232956D01*
X65684491Y-57216478D01*
X65666559Y-57282391D01*
X65659289Y-57360905D01*
X65576575Y-57360905D01*
X65576575Y-56844265D01*
X65659289Y-56844265D01*
X65666074Y-56917932D01*
X65692246Y-56972213D01*
X65747011Y-57006139D01*
X65787843Y-57014863D01*
X65839580Y-57017771D01*
X66026656Y-57017771D01*
X66026656Y-57121486D01*
X66125525Y-57121486D01*
X66125525Y-57017771D01*
X66239903Y-57017771D01*
X66259289Y-56898546D01*
X66125525Y-56898546D01*
X66125525Y-56707593D01*
X66026656Y-56707593D01*
X66026656Y-56898546D01*
X65842488Y-56898546D01*
X65801777Y-56893699D01*
X65777544Y-56880129D01*
X65765913Y-56858804D01*
X65763005Y-56830695D01*
X65763974Y-56800161D01*
X65767367Y-56773021D01*
X65774637Y-56745880D01*
X65787237Y-56715347D01*
X65684491Y-56698869D01*
X65665105Y-56770113D01*
X65659289Y-56844265D01*
X65576575Y-56844265D01*
X65576575Y-55874960D01*
X65659289Y-55874960D01*
X65666074Y-55948627D01*
X65692246Y-56002908D01*
X65747011Y-56036834D01*
X65787843Y-56045557D01*
X65839580Y-56048465D01*
X66026656Y-56048465D01*
X66026656Y-56152181D01*
X66125525Y-56152181D01*
X66125525Y-56048465D01*
X66239903Y-56048465D01*
X66259289Y-55929241D01*
X66125525Y-55929241D01*
X66125525Y-55738287D01*
X66026656Y-55738287D01*
X66026656Y-55929241D01*
X65842488Y-55929241D01*
X65801777Y-55924394D01*
X65777544Y-55910824D01*
X65765913Y-55889499D01*
X65763005Y-55861389D01*
X65763974Y-55830856D01*
X65767367Y-55803716D01*
X65774637Y-55776575D01*
X65787237Y-55746042D01*
X65684491Y-55729564D01*
X65665105Y-55800808D01*
X65659289Y-55874960D01*
X65576575Y-55874960D01*
X65576575Y-55641357D01*
X65576575Y-55274960D01*
X65669952Y-55274960D01*
X65669952Y-55394184D01*
X65911309Y-55394184D01*
X65966317Y-55397819D01*
X66003393Y-55408724D01*
X66031502Y-55463974D01*
X66027625Y-55496446D01*
X66020840Y-55522132D01*
X65669952Y-55522132D01*
X65669952Y-55641357D01*
X66322294Y-55641357D01*
X66342649Y-55522132D01*
X66121648Y-55522132D01*
X66130856Y-55487237D01*
X66135218Y-55451373D01*
X66131462Y-55405089D01*
X66120194Y-55367044D01*
X66077544Y-55312762D01*
X66011632Y-55283683D01*
X65971284Y-55277140D01*
X65926817Y-55274960D01*
X65669952Y-55274960D01*
X65576575Y-55274960D01*
X65576575Y-54894023D01*
X65659289Y-54894023D01*
X65662682Y-54936793D01*
X65672859Y-54972052D01*
X65712116Y-55022456D01*
X65774637Y-55049111D01*
X65814136Y-55054927D01*
X65858966Y-55056866D01*
X66026656Y-55056866D01*
X66026656Y-55182876D01*
X66125525Y-55182876D01*
X66125525Y-55018094D01*
X66180775Y-55018094D01*
X66201131Y-55070921D01*
X66256381Y-55092730D01*
X66312601Y-55070921D01*
X66332956Y-55018094D01*
X66312601Y-54964782D01*
X66256381Y-54942488D01*
X66201131Y-54964782D01*
X66180775Y-55018094D01*
X66125525Y-55018094D01*
X66125525Y-54937641D01*
X65843457Y-54937641D01*
X65782876Y-54922617D01*
X65763005Y-54872698D01*
X65767367Y-54832956D01*
X65785299Y-54780614D01*
X65689338Y-54765105D01*
X65665590Y-54834410D01*
X65659289Y-54894023D01*
X65576575Y-54894023D01*
X65576575Y-54513086D01*
X65659289Y-54513086D01*
X65662682Y-54567851D01*
X65672859Y-54613893D01*
X65697092Y-54680775D01*
X65796931Y-54662359D01*
X65771729Y-54590145D01*
X65760097Y-54512116D01*
X65766397Y-54445234D01*
X65792084Y-54421971D01*
X65813409Y-54429241D01*
X65828433Y-54449596D01*
X65840549Y-54479645D01*
X65852181Y-54515024D01*
X65870113Y-54568336D01*
X65895800Y-54617771D01*
X65935057Y-54654604D01*
X65994669Y-54669144D01*
X66049435Y-54657997D01*
X66094992Y-54623102D01*
X66126010Y-54562520D01*
X66134370Y-54522052D01*
X66137157Y-54474313D01*
X66135460Y-54431300D01*
X66130372Y-54391438D01*
X66110985Y-54325040D01*
X66010178Y-54343457D01*
X66026171Y-54394830D01*
X66037318Y-54473344D01*
X66026171Y-54534895D01*
X66002423Y-54550888D01*
X65983522Y-54543619D01*
X65968498Y-54524233D01*
X65955412Y-54496123D01*
X65943296Y-54461712D01*
X65923910Y-54407431D01*
X65897254Y-54356543D01*
X65856543Y-54319224D01*
X65795961Y-54304685D01*
X65742649Y-54315347D01*
X65699031Y-54350727D01*
X65669952Y-54415186D01*
X65661955Y-54459531D01*
X65659289Y-54513086D01*
X65576575Y-54513086D01*
X65576575Y-53543780D01*
X65659289Y-53543780D01*
X65662682Y-53598546D01*
X65672859Y-53644588D01*
X65697092Y-53711470D01*
X65796931Y-53693053D01*
X65771729Y-53620840D01*
X65760097Y-53542811D01*
X65766397Y-53475929D01*
X65792084Y-53452666D01*
X65813409Y-53459935D01*
X65828433Y-53480291D01*
X65840549Y-53510339D01*
X65852181Y-53545719D01*
X65870113Y-53599031D01*
X65895800Y-53648465D01*
X65935057Y-53685299D01*
X65994669Y-53699838D01*
X66049435Y-53688691D01*
X66094992Y-53653796D01*
X66126010Y-53593215D01*
X66134370Y-53552746D01*
X66137157Y-53505008D01*
X66135460Y-53461995D01*
X66130372Y-53422132D01*
X66110985Y-53355735D01*
X66010178Y-53374152D01*
X66026171Y-53425525D01*
X66037318Y-53504039D01*
X66026171Y-53565590D01*
X66002423Y-53581583D01*
X65983522Y-53574313D01*
X65968498Y-53554927D01*
X65955412Y-53526817D01*
X65943296Y-53492407D01*
X65923910Y-53438126D01*
X65897254Y-53387237D01*
X65856543Y-53349919D01*
X65795961Y-53335380D01*
X65742649Y-53346042D01*
X65699031Y-53381422D01*
X65669952Y-53445880D01*
X65661955Y-53490226D01*
X65659289Y-53543780D01*
X65576575Y-53543780D01*
X65576575Y-52955412D01*
X65659289Y-52955412D01*
X65662682Y-52998182D01*
X65672859Y-53033441D01*
X65712116Y-53083845D01*
X65774637Y-53110501D01*
X65814136Y-53116317D01*
X65858966Y-53118255D01*
X66026656Y-53118255D01*
X66026656Y-53244265D01*
X66125525Y-53244265D01*
X66125525Y-53079483D01*
X66180775Y-53079483D01*
X66201131Y-53132310D01*
X66256381Y-53154119D01*
X66312601Y-53132310D01*
X66332956Y-53079483D01*
X66312601Y-53026171D01*
X66256381Y-53003877D01*
X66201131Y-53026171D01*
X66180775Y-53079483D01*
X66125525Y-53079483D01*
X66125525Y-52999031D01*
X65843457Y-52999031D01*
X65782876Y-52984006D01*
X65763005Y-52934087D01*
X65767367Y-52894346D01*
X65785299Y-52842003D01*
X65689338Y-52826494D01*
X65665590Y-52895800D01*
X65659289Y-52955412D01*
X65576575Y-52955412D01*
X65576575Y-52551212D01*
X65659289Y-52551212D01*
X65666290Y-52616532D01*
X65687291Y-52670328D01*
X65722294Y-52712601D01*
X65769467Y-52743026D01*
X65826979Y-52761282D01*
X65894830Y-52767367D01*
X65963920Y-52762251D01*
X66022563Y-52746904D01*
X66070759Y-52721325D01*
X66106570Y-52685730D01*
X66128056Y-52640334D01*
X66135218Y-52585137D01*
X66129887Y-52537641D01*
X66114863Y-52496930D01*
X66322294Y-52496930D01*
X66342649Y-52377706D01*
X65683522Y-52377706D01*
X65673829Y-52414297D01*
X65666074Y-52458158D01*
X65660985Y-52505170D01*
X65659289Y-52551212D01*
X65576575Y-52551212D01*
X65576575Y-52029725D01*
X65659289Y-52029725D01*
X65663045Y-52084855D01*
X65674313Y-52133926D01*
X65692973Y-52176575D01*
X65718901Y-52212439D01*
X65751979Y-52241155D01*
X65792084Y-52262359D01*
X65839338Y-52275444D01*
X65893861Y-52279806D01*
X65950323Y-52275202D01*
X65999515Y-52261389D01*
X66041317Y-52240065D01*
X66075606Y-52212924D01*
X66102383Y-52180695D01*
X66121648Y-52144103D01*
X66133279Y-52104846D01*
X66137157Y-52064620D01*
X66130533Y-52002800D01*
X66110662Y-51951750D01*
X66077544Y-51911470D01*
X66031718Y-51882391D01*
X65973721Y-51864943D01*
X65903554Y-51859128D01*
X65879321Y-51859612D01*
X65858966Y-51861066D01*
X65858966Y-52156704D01*
X65819103Y-52147496D01*
X65788691Y-52119871D01*
X65769426Y-52077706D01*
X65763005Y-52024879D01*
X65770759Y-51956543D01*
X65786268Y-51901777D01*
X65684491Y-51885299D01*
X65666559Y-51951212D01*
X65659289Y-52029725D01*
X65576575Y-52029725D01*
X65576575Y-51859128D01*
X65576575Y-51859047D01*
X65578614Y-51817544D01*
X65584711Y-51776441D01*
X65594808Y-51736133D01*
X65608806Y-51697009D01*
X65626573Y-51659446D01*
X65647935Y-51623805D01*
X65672688Y-51590429D01*
X65700593Y-51559640D01*
X65731382Y-51531735D01*
X65764758Y-51506982D01*
X65800399Y-51485619D01*
X65837962Y-51467853D01*
X65877086Y-51453855D01*
X65917394Y-51443758D01*
X65958497Y-51437661D01*
X66000000Y-51435622D01*
X66041503Y-51437661D01*
G37*
G36*
X66076737Y-92579321D02*
G01*
X66107270Y-92594830D01*
X66129079Y-92621971D01*
X66137318Y-92662682D01*
X66129564Y-92702908D01*
X66108239Y-92731018D01*
X66077221Y-92748465D01*
X66041357Y-92756704D01*
X66041357Y-92574475D01*
X66076737Y-92579321D01*
G37*
G36*
X66076737Y-97910501D02*
G01*
X66107270Y-97926010D01*
X66129079Y-97953150D01*
X66137318Y-97993861D01*
X66129564Y-98034087D01*
X66108239Y-98062197D01*
X66077221Y-98079645D01*
X66041357Y-98087884D01*
X66041357Y-97905654D01*
X66076737Y-97910501D01*
G37*
G36*
X66127141Y-93127948D02*
G01*
X66132472Y-93164782D01*
X66123990Y-93201615D01*
X66098546Y-93226817D01*
X66057108Y-93241357D01*
X66000646Y-93246203D01*
X65945153Y-93240509D01*
X65900808Y-93223425D01*
X65871729Y-93193740D01*
X65862036Y-93150242D01*
X65863005Y-93123102D01*
X65865913Y-93096930D01*
X66114055Y-93096930D01*
X66127141Y-93127948D01*
G37*
G36*
X66052868Y-99365065D02*
G01*
X66096123Y-99381422D01*
X66124111Y-99409895D01*
X66133441Y-99451696D01*
X66124111Y-99492528D01*
X66096123Y-99521971D01*
X66052868Y-99539782D01*
X65997738Y-99545719D01*
X65942488Y-99540266D01*
X65898869Y-99523909D01*
X65870517Y-99495436D01*
X65861066Y-99453635D01*
X65870517Y-99412803D01*
X65898869Y-99383360D01*
X65942488Y-99365549D01*
X65997738Y-99359612D01*
X66052868Y-99365065D01*
G37*
G36*
X66141503Y-92037661D02*
G01*
X66182606Y-92043758D01*
X66222914Y-92053855D01*
X66262038Y-92067853D01*
X66299601Y-92085619D01*
X66335242Y-92106982D01*
X66368618Y-92131735D01*
X66399407Y-92159640D01*
X66427312Y-92190429D01*
X66452065Y-92223805D01*
X66473427Y-92259446D01*
X66491194Y-92297009D01*
X66505192Y-92336133D01*
X66515289Y-92376441D01*
X66521386Y-92417544D01*
X66523425Y-92459047D01*
X66523425Y-92459128D01*
X66523425Y-100140872D01*
X66523425Y-100140953D01*
X66521386Y-100182456D01*
X66515289Y-100223559D01*
X66505192Y-100263867D01*
X66491194Y-100302991D01*
X66473427Y-100340554D01*
X66452065Y-100376195D01*
X66427312Y-100409571D01*
X66399407Y-100440360D01*
X66368618Y-100468265D01*
X66335242Y-100493018D01*
X66299601Y-100514380D01*
X66262038Y-100532147D01*
X66222914Y-100546145D01*
X66182606Y-100556242D01*
X66141503Y-100562339D01*
X66100000Y-100564378D01*
X66058497Y-100562339D01*
X66017394Y-100556242D01*
X65977086Y-100546145D01*
X65937962Y-100532147D01*
X65900399Y-100514380D01*
X65864758Y-100493018D01*
X65831382Y-100468265D01*
X65800593Y-100440360D01*
X65772688Y-100409571D01*
X65747935Y-100376195D01*
X65726573Y-100340554D01*
X65708806Y-100302991D01*
X65694808Y-100263867D01*
X65684711Y-100223559D01*
X65678614Y-100182456D01*
X65676575Y-100140953D01*
X65676575Y-100140872D01*
X65676575Y-99954766D01*
X65757351Y-99954766D01*
X65761349Y-100021890D01*
X65773344Y-100073990D01*
X65802908Y-100140872D01*
X65899838Y-100105977D01*
X65870759Y-100043457D01*
X65860582Y-100003110D01*
X65857189Y-99954766D01*
X65863489Y-99904846D01*
X65880937Y-99873344D01*
X65906139Y-99857351D01*
X65934733Y-99852989D01*
X65967690Y-99863651D01*
X65993376Y-99890792D01*
X66013732Y-99927625D01*
X66030695Y-99968336D01*
X66052989Y-100024556D01*
X66084976Y-100077383D01*
X66132956Y-100116640D01*
X66204200Y-100132149D01*
X66279321Y-100118457D01*
X66336026Y-100077383D01*
X66362412Y-100036295D01*
X66378244Y-99986053D01*
X66383522Y-99926656D01*
X66380372Y-99874919D01*
X66370921Y-99830210D01*
X66342811Y-99760905D01*
X66250727Y-99795800D01*
X66273990Y-99849596D01*
X66283683Y-99917932D01*
X66276037Y-99970705D01*
X66253096Y-100002369D01*
X66214863Y-100012924D01*
X66184330Y-100003231D01*
X66161066Y-99978514D01*
X66143134Y-99944588D01*
X66128595Y-99907270D01*
X66104847Y-99848627D01*
X66069952Y-99792407D01*
X66015670Y-99750242D01*
X65978958Y-99737884D01*
X65933764Y-99733764D01*
X65859006Y-99747456D01*
X65803393Y-99788530D01*
X65777814Y-99831341D01*
X65762466Y-99886753D01*
X65757351Y-99954766D01*
X65676575Y-99954766D01*
X65676575Y-99451696D01*
X65757351Y-99451696D01*
X65761712Y-99497859D01*
X65774798Y-99539418D01*
X65795880Y-99576010D01*
X65824233Y-99607270D01*
X65859249Y-99632593D01*
X65900323Y-99651373D01*
X65946971Y-99663005D01*
X65998708Y-99666882D01*
X66049717Y-99662884D01*
X66096123Y-99650888D01*
X66137076Y-99631745D01*
X66171729Y-99606300D01*
X66199596Y-99574919D01*
X66220194Y-99537964D01*
X66232916Y-99496527D01*
X66237157Y-99451696D01*
X66232916Y-99406260D01*
X66220194Y-99364943D01*
X66199596Y-99328352D01*
X66171729Y-99297092D01*
X66137076Y-99271769D01*
X66096123Y-99252989D01*
X66049717Y-99241357D01*
X65998708Y-99237480D01*
X65946971Y-99241357D01*
X65900323Y-99252989D01*
X65859249Y-99271648D01*
X65824233Y-99296607D01*
X65795880Y-99327504D01*
X65774798Y-99363974D01*
X65761712Y-99405533D01*
X65757351Y-99451696D01*
X65676575Y-99451696D01*
X65676575Y-98904039D01*
X65759289Y-98904039D01*
X65763893Y-98968861D01*
X65777706Y-99023748D01*
X65799515Y-99069184D01*
X65828110Y-99105654D01*
X65863005Y-99133401D01*
X65903716Y-99152666D01*
X65949031Y-99163934D01*
X65997738Y-99167690D01*
X66045719Y-99163813D01*
X66090792Y-99152181D01*
X66131624Y-99132552D01*
X66166882Y-99104685D01*
X66195961Y-99068457D01*
X66218255Y-99023748D01*
X66232431Y-98970073D01*
X66237157Y-98906947D01*
X66231341Y-98833279D01*
X66211955Y-98766397D01*
X66115994Y-98792569D01*
X66128110Y-98835703D01*
X66133441Y-98896284D01*
X66123263Y-98967528D01*
X66095153Y-99013570D01*
X66052019Y-99038772D01*
X65997738Y-99046527D01*
X65941519Y-99037682D01*
X65898869Y-99011147D01*
X65871971Y-98963287D01*
X65863005Y-98890468D01*
X65866882Y-98831825D01*
X65879483Y-98776090D01*
X65781583Y-98758643D01*
X65765590Y-98819709D01*
X65760864Y-98858724D01*
X65759289Y-98904039D01*
X65676575Y-98904039D01*
X65676575Y-98390307D01*
X65769952Y-98390307D01*
X65824717Y-98420840D01*
X65884814Y-98461066D01*
X65941034Y-98504200D01*
X65985137Y-98544426D01*
X65769952Y-98544426D01*
X65769952Y-98664620D01*
X66422294Y-98664620D01*
X66442649Y-98544426D01*
X66045234Y-98544426D01*
X66088368Y-98509047D01*
X66135380Y-98474152D01*
X66182391Y-98441680D01*
X66225525Y-98414540D01*
X66225525Y-98271082D01*
X66177060Y-98310824D01*
X66123748Y-98356866D01*
X66071405Y-98404362D01*
X66024879Y-98447496D01*
X65969144Y-98395153D01*
X65936066Y-98367286D01*
X65901777Y-98339903D01*
X65866882Y-98313853D01*
X65831987Y-98289984D01*
X65769952Y-98253635D01*
X65769952Y-98390307D01*
X65676575Y-98390307D01*
X65676575Y-98253635D01*
X65676575Y-97960905D01*
X65759289Y-97960905D01*
X65763045Y-98016034D01*
X65774313Y-98065105D01*
X65792973Y-98107754D01*
X65818901Y-98143619D01*
X65851979Y-98172334D01*
X65892084Y-98193538D01*
X65939338Y-98206624D01*
X65993861Y-98210985D01*
X66050323Y-98206381D01*
X66099515Y-98192569D01*
X66141317Y-98171244D01*
X66175606Y-98144103D01*
X66202383Y-98111874D01*
X66221648Y-98075283D01*
X66233279Y-98036026D01*
X66237157Y-97995800D01*
X66230533Y-97933979D01*
X66210662Y-97882929D01*
X66177544Y-97842649D01*
X66131718Y-97813570D01*
X66073721Y-97796123D01*
X66003554Y-97790307D01*
X65979321Y-97790792D01*
X65958966Y-97792245D01*
X65958966Y-98087884D01*
X65919103Y-98078675D01*
X65888691Y-98051050D01*
X65869426Y-98008885D01*
X65863005Y-97956058D01*
X65870759Y-97887722D01*
X65886268Y-97832956D01*
X65784491Y-97816478D01*
X65766559Y-97882391D01*
X65759289Y-97960905D01*
X65676575Y-97960905D01*
X65676575Y-97444265D01*
X65759289Y-97444265D01*
X65766074Y-97517932D01*
X65792246Y-97572213D01*
X65847011Y-97606139D01*
X65887843Y-97614863D01*
X65939580Y-97617771D01*
X66126656Y-97617771D01*
X66126656Y-97721486D01*
X66225525Y-97721486D01*
X66225525Y-97617771D01*
X66339903Y-97617771D01*
X66359289Y-97498546D01*
X66225525Y-97498546D01*
X66225525Y-97307593D01*
X66126656Y-97307593D01*
X66126656Y-97498546D01*
X65942488Y-97498546D01*
X65901777Y-97493699D01*
X65877544Y-97480129D01*
X65865913Y-97458804D01*
X65863005Y-97430695D01*
X65863974Y-97400161D01*
X65867367Y-97373021D01*
X65874637Y-97345880D01*
X65887237Y-97315347D01*
X65784491Y-97298869D01*
X65765105Y-97370113D01*
X65759289Y-97444265D01*
X65676575Y-97444265D01*
X65676575Y-96474960D01*
X65759289Y-96474960D01*
X65766074Y-96548627D01*
X65792246Y-96602908D01*
X65847011Y-96636834D01*
X65887843Y-96645557D01*
X65939580Y-96648465D01*
X66126656Y-96648465D01*
X66126656Y-96752181D01*
X66225525Y-96752181D01*
X66225525Y-96648465D01*
X66339903Y-96648465D01*
X66359289Y-96529241D01*
X66225525Y-96529241D01*
X66225525Y-96338287D01*
X66126656Y-96338287D01*
X66126656Y-96529241D01*
X65942488Y-96529241D01*
X65901777Y-96524394D01*
X65877544Y-96510824D01*
X65865913Y-96489499D01*
X65863005Y-96461389D01*
X65863974Y-96430856D01*
X65867367Y-96403716D01*
X65874637Y-96376575D01*
X65887237Y-96346042D01*
X65784491Y-96329564D01*
X65765105Y-96400808D01*
X65759289Y-96474960D01*
X65676575Y-96474960D01*
X65676575Y-96241357D01*
X65676575Y-95874960D01*
X65769952Y-95874960D01*
X65769952Y-95994184D01*
X66011309Y-95994184D01*
X66066317Y-95997819D01*
X66103393Y-96008724D01*
X66131502Y-96063974D01*
X66127625Y-96096446D01*
X66120840Y-96122132D01*
X65769952Y-96122132D01*
X65769952Y-96241357D01*
X66422294Y-96241357D01*
X66442649Y-96122132D01*
X66221648Y-96122132D01*
X66230856Y-96087237D01*
X66235218Y-96051373D01*
X66231462Y-96005089D01*
X66220194Y-95967044D01*
X66177544Y-95912762D01*
X66111632Y-95883683D01*
X66071284Y-95877140D01*
X66026817Y-95874960D01*
X65769952Y-95874960D01*
X65676575Y-95874960D01*
X65676575Y-95494023D01*
X65759289Y-95494023D01*
X65762682Y-95536793D01*
X65772859Y-95572052D01*
X65812116Y-95622456D01*
X65874637Y-95649111D01*
X65914136Y-95654927D01*
X65958966Y-95656866D01*
X66126656Y-95656866D01*
X66126656Y-95782876D01*
X66225525Y-95782876D01*
X66225525Y-95618094D01*
X66280775Y-95618094D01*
X66301131Y-95670921D01*
X66356381Y-95692730D01*
X66412601Y-95670921D01*
X66432956Y-95618094D01*
X66412601Y-95564782D01*
X66356381Y-95542488D01*
X66301131Y-95564782D01*
X66280775Y-95618094D01*
X66225525Y-95618094D01*
X66225525Y-95537641D01*
X65943457Y-95537641D01*
X65882876Y-95522617D01*
X65863005Y-95472698D01*
X65867367Y-95432956D01*
X65885299Y-95380614D01*
X65789338Y-95365105D01*
X65765590Y-95434410D01*
X65759289Y-95494023D01*
X65676575Y-95494023D01*
X65676575Y-95113086D01*
X65759289Y-95113086D01*
X65762682Y-95167851D01*
X65772859Y-95213893D01*
X65797092Y-95280775D01*
X65896931Y-95262359D01*
X65871729Y-95190145D01*
X65860097Y-95112116D01*
X65866397Y-95045234D01*
X65892084Y-95021971D01*
X65913409Y-95029241D01*
X65928433Y-95049596D01*
X65940549Y-95079645D01*
X65952181Y-95115024D01*
X65970113Y-95168336D01*
X65995800Y-95217771D01*
X66035057Y-95254604D01*
X66094669Y-95269144D01*
X66149435Y-95257997D01*
X66194992Y-95223102D01*
X66226010Y-95162520D01*
X66234370Y-95122052D01*
X66237157Y-95074313D01*
X66235460Y-95031300D01*
X66230372Y-94991438D01*
X66210985Y-94925040D01*
X66110178Y-94943457D01*
X66126171Y-94994830D01*
X66137318Y-95073344D01*
X66126171Y-95134895D01*
X66102423Y-95150888D01*
X66083522Y-95143619D01*
X66068498Y-95124233D01*
X66055412Y-95096123D01*
X66043296Y-95061712D01*
X66023910Y-95007431D01*
X65997254Y-94956543D01*
X65956543Y-94919224D01*
X65895961Y-94904685D01*
X65842649Y-94915347D01*
X65799031Y-94950727D01*
X65769952Y-95015186D01*
X65761955Y-95059531D01*
X65759289Y-95113086D01*
X65676575Y-95113086D01*
X65676575Y-94143780D01*
X65759289Y-94143780D01*
X65762682Y-94198546D01*
X65772859Y-94244588D01*
X65797092Y-94311470D01*
X65896931Y-94293053D01*
X65871729Y-94220840D01*
X65860097Y-94142811D01*
X65866397Y-94075929D01*
X65892084Y-94052666D01*
X65913409Y-94059935D01*
X65928433Y-94080291D01*
X65940549Y-94110339D01*
X65952181Y-94145719D01*
X65970113Y-94199031D01*
X65995800Y-94248465D01*
X66035057Y-94285299D01*
X66094669Y-94299838D01*
X66149435Y-94288691D01*
X66194992Y-94253796D01*
X66226010Y-94193215D01*
X66234370Y-94152746D01*
X66237157Y-94105008D01*
X66235460Y-94061995D01*
X66230372Y-94022132D01*
X66210985Y-93955735D01*
X66110178Y-93974152D01*
X66126171Y-94025525D01*
X66137318Y-94104039D01*
X66126171Y-94165590D01*
X66102423Y-94181583D01*
X66083522Y-94174313D01*
X66068498Y-94154927D01*
X66055412Y-94126817D01*
X66043296Y-94092407D01*
X66023910Y-94038126D01*
X65997254Y-93987237D01*
X65956543Y-93949919D01*
X65895961Y-93935380D01*
X65842649Y-93946042D01*
X65799031Y-93981422D01*
X65769952Y-94045880D01*
X65761955Y-94090226D01*
X65759289Y-94143780D01*
X65676575Y-94143780D01*
X65676575Y-93555412D01*
X65759289Y-93555412D01*
X65762682Y-93598182D01*
X65772859Y-93633441D01*
X65812116Y-93683845D01*
X65874637Y-93710501D01*
X65914136Y-93716317D01*
X65958966Y-93718255D01*
X66126656Y-93718255D01*
X66126656Y-93844265D01*
X66225525Y-93844265D01*
X66225525Y-93679483D01*
X66280775Y-93679483D01*
X66301131Y-93732310D01*
X66356381Y-93754119D01*
X66412601Y-93732310D01*
X66432956Y-93679483D01*
X66412601Y-93626171D01*
X66356381Y-93603877D01*
X66301131Y-93626171D01*
X66280775Y-93679483D01*
X66225525Y-93679483D01*
X66225525Y-93599031D01*
X65943457Y-93599031D01*
X65882876Y-93584006D01*
X65863005Y-93534087D01*
X65867367Y-93494346D01*
X65885299Y-93442003D01*
X65789338Y-93426494D01*
X65765590Y-93495800D01*
X65759289Y-93555412D01*
X65676575Y-93555412D01*
X65676575Y-93151212D01*
X65759289Y-93151212D01*
X65766290Y-93216532D01*
X65787291Y-93270328D01*
X65822294Y-93312601D01*
X65869467Y-93343026D01*
X65926979Y-93361282D01*
X65994830Y-93367367D01*
X66063920Y-93362251D01*
X66122563Y-93346904D01*
X66170759Y-93321325D01*
X66206570Y-93285730D01*
X66228056Y-93240334D01*
X66235218Y-93185137D01*
X66229887Y-93137641D01*
X66214863Y-93096930D01*
X66422294Y-93096930D01*
X66442649Y-92977706D01*
X65783522Y-92977706D01*
X65773829Y-93014297D01*
X65766074Y-93058158D01*
X65760985Y-93105170D01*
X65759289Y-93151212D01*
X65676575Y-93151212D01*
X65676575Y-92629725D01*
X65759289Y-92629725D01*
X65763045Y-92684855D01*
X65774313Y-92733926D01*
X65792973Y-92776575D01*
X65818901Y-92812439D01*
X65851979Y-92841155D01*
X65892084Y-92862359D01*
X65939338Y-92875444D01*
X65993861Y-92879806D01*
X66050323Y-92875202D01*
X66099515Y-92861389D01*
X66141317Y-92840065D01*
X66175606Y-92812924D01*
X66202383Y-92780695D01*
X66221648Y-92744103D01*
X66233279Y-92704846D01*
X66237157Y-92664620D01*
X66230533Y-92602800D01*
X66210662Y-92551750D01*
X66177544Y-92511470D01*
X66131718Y-92482391D01*
X66073721Y-92464943D01*
X66003554Y-92459128D01*
X65979321Y-92459612D01*
X65958966Y-92461066D01*
X65958966Y-92756704D01*
X65919103Y-92747496D01*
X65888691Y-92719871D01*
X65869426Y-92677706D01*
X65863005Y-92624879D01*
X65870759Y-92556543D01*
X65886268Y-92501777D01*
X65784491Y-92485299D01*
X65766559Y-92551212D01*
X65759289Y-92629725D01*
X65676575Y-92629725D01*
X65676575Y-92459128D01*
X65676575Y-92459047D01*
X65678614Y-92417544D01*
X65684711Y-92376441D01*
X65694808Y-92336133D01*
X65708806Y-92297009D01*
X65726573Y-92259446D01*
X65747935Y-92223805D01*
X65772688Y-92190429D01*
X65800593Y-92159640D01*
X65831382Y-92131735D01*
X65864758Y-92106982D01*
X65900399Y-92085619D01*
X65937962Y-92067853D01*
X65977086Y-92053855D01*
X66017394Y-92043758D01*
X66058497Y-92037661D01*
X66100000Y-92035622D01*
X66141503Y-92037661D01*
G37*
D11*
X60670000Y-131970000D02*
X62000000Y-131970000D01*
X60670000Y-133300000D02*
X60670000Y-131970000D01*
X60670000Y-134570000D02*
X63330000Y-134570000D01*
X60670000Y-142250000D02*
X60670000Y-134570000D01*
X60670000Y-142250000D02*
X63330000Y-142250000D01*
X63330000Y-142250000D02*
X63330000Y-134570000D01*
X62070000Y-40770000D02*
X63400000Y-40770000D01*
X62070000Y-42100000D02*
X62070000Y-40770000D01*
X62070000Y-43370000D02*
X64730000Y-43370000D01*
X62070000Y-71370000D02*
X62070000Y-43370000D01*
X62070000Y-71370000D02*
X64730000Y-71370000D01*
X64730000Y-71370000D02*
X64730000Y-43370000D01*
D12*
G36*
X64776737Y-133579321D02*
G01*
X64807270Y-133594830D01*
X64829079Y-133621971D01*
X64837318Y-133662682D01*
X64829564Y-133702908D01*
X64808239Y-133731018D01*
X64777221Y-133748465D01*
X64741357Y-133756704D01*
X64741357Y-133574475D01*
X64776737Y-133579321D01*
G37*
G36*
X64776737Y-138910501D02*
G01*
X64807270Y-138926010D01*
X64829079Y-138953150D01*
X64837318Y-138993861D01*
X64829564Y-139034087D01*
X64808239Y-139062197D01*
X64777221Y-139079645D01*
X64741357Y-139087884D01*
X64741357Y-138905654D01*
X64776737Y-138910501D01*
G37*
G36*
X64827141Y-134127948D02*
G01*
X64832472Y-134164782D01*
X64823990Y-134201615D01*
X64798546Y-134226817D01*
X64757108Y-134241357D01*
X64700646Y-134246203D01*
X64645153Y-134240509D01*
X64600808Y-134223425D01*
X64571729Y-134193740D01*
X64562036Y-134150242D01*
X64563005Y-134123102D01*
X64565913Y-134096930D01*
X64814055Y-134096930D01*
X64827141Y-134127948D01*
G37*
G36*
X64752868Y-140365065D02*
G01*
X64796123Y-140381422D01*
X64824111Y-140409895D01*
X64833441Y-140451696D01*
X64824111Y-140492528D01*
X64796123Y-140521971D01*
X64752868Y-140539782D01*
X64697738Y-140545719D01*
X64642488Y-140540266D01*
X64598869Y-140523909D01*
X64570517Y-140495436D01*
X64561066Y-140453635D01*
X64570517Y-140412803D01*
X64598869Y-140383360D01*
X64642488Y-140365549D01*
X64697738Y-140359612D01*
X64752868Y-140365065D01*
G37*
G36*
X64841503Y-133037661D02*
G01*
X64882606Y-133043758D01*
X64922914Y-133053855D01*
X64962038Y-133067853D01*
X64999601Y-133085619D01*
X65035242Y-133106982D01*
X65068618Y-133131735D01*
X65099407Y-133159640D01*
X65127312Y-133190429D01*
X65152065Y-133223805D01*
X65173427Y-133259446D01*
X65191194Y-133297009D01*
X65205192Y-133336133D01*
X65215289Y-133376441D01*
X65221386Y-133417544D01*
X65223425Y-133459047D01*
X65223425Y-133459128D01*
X65223425Y-141140872D01*
X65223425Y-141140953D01*
X65221386Y-141182456D01*
X65215289Y-141223559D01*
X65205192Y-141263867D01*
X65191194Y-141302991D01*
X65173427Y-141340554D01*
X65152065Y-141376195D01*
X65127312Y-141409571D01*
X65099407Y-141440360D01*
X65068618Y-141468265D01*
X65035242Y-141493018D01*
X64999601Y-141514380D01*
X64962038Y-141532147D01*
X64922914Y-141546145D01*
X64882606Y-141556242D01*
X64841503Y-141562339D01*
X64800000Y-141564378D01*
X64758497Y-141562339D01*
X64717394Y-141556242D01*
X64677086Y-141546145D01*
X64637962Y-141532147D01*
X64600399Y-141514380D01*
X64564758Y-141493018D01*
X64531382Y-141468265D01*
X64500593Y-141440360D01*
X64472688Y-141409571D01*
X64447935Y-141376195D01*
X64426573Y-141340554D01*
X64408806Y-141302991D01*
X64394808Y-141263867D01*
X64384711Y-141223559D01*
X64378614Y-141182456D01*
X64376575Y-141140953D01*
X64376575Y-141140872D01*
X64376575Y-140954766D01*
X64457351Y-140954766D01*
X64461349Y-141021890D01*
X64473344Y-141073990D01*
X64502908Y-141140872D01*
X64599838Y-141105977D01*
X64570759Y-141043457D01*
X64560582Y-141003110D01*
X64557189Y-140954766D01*
X64563489Y-140904846D01*
X64580937Y-140873344D01*
X64606139Y-140857351D01*
X64634733Y-140852989D01*
X64667690Y-140863651D01*
X64693376Y-140890792D01*
X64713732Y-140927625D01*
X64730695Y-140968336D01*
X64752989Y-141024556D01*
X64784976Y-141077383D01*
X64832956Y-141116640D01*
X64904200Y-141132149D01*
X64979321Y-141118457D01*
X65036026Y-141077383D01*
X65062412Y-141036295D01*
X65078244Y-140986053D01*
X65083522Y-140926656D01*
X65080372Y-140874919D01*
X65070921Y-140830210D01*
X65042811Y-140760905D01*
X64950727Y-140795800D01*
X64973990Y-140849596D01*
X64983683Y-140917932D01*
X64976037Y-140970705D01*
X64953096Y-141002369D01*
X64914863Y-141012924D01*
X64884330Y-141003231D01*
X64861066Y-140978514D01*
X64843134Y-140944588D01*
X64828595Y-140907270D01*
X64804847Y-140848627D01*
X64769952Y-140792407D01*
X64715670Y-140750242D01*
X64678958Y-140737884D01*
X64633764Y-140733764D01*
X64559006Y-140747456D01*
X64503393Y-140788530D01*
X64477814Y-140831341D01*
X64462466Y-140886753D01*
X64457351Y-140954766D01*
X64376575Y-140954766D01*
X64376575Y-140451696D01*
X64457351Y-140451696D01*
X64461712Y-140497859D01*
X64474798Y-140539418D01*
X64495880Y-140576010D01*
X64524233Y-140607270D01*
X64559249Y-140632593D01*
X64600323Y-140651373D01*
X64646971Y-140663005D01*
X64698708Y-140666882D01*
X64749717Y-140662884D01*
X64796123Y-140650888D01*
X64837076Y-140631745D01*
X64871729Y-140606300D01*
X64899596Y-140574919D01*
X64920194Y-140537964D01*
X64932916Y-140496527D01*
X64937157Y-140451696D01*
X64932916Y-140406260D01*
X64920194Y-140364943D01*
X64899596Y-140328352D01*
X64871729Y-140297092D01*
X64837076Y-140271769D01*
X64796123Y-140252989D01*
X64749717Y-140241357D01*
X64698708Y-140237480D01*
X64646971Y-140241357D01*
X64600323Y-140252989D01*
X64559249Y-140271648D01*
X64524233Y-140296607D01*
X64495880Y-140327504D01*
X64474798Y-140363974D01*
X64461712Y-140405533D01*
X64457351Y-140451696D01*
X64376575Y-140451696D01*
X64376575Y-139904039D01*
X64459289Y-139904039D01*
X64463893Y-139968861D01*
X64477706Y-140023748D01*
X64499515Y-140069184D01*
X64528110Y-140105654D01*
X64563005Y-140133401D01*
X64603716Y-140152666D01*
X64649031Y-140163934D01*
X64697738Y-140167690D01*
X64745719Y-140163813D01*
X64790792Y-140152181D01*
X64831624Y-140132552D01*
X64866882Y-140104685D01*
X64895961Y-140068457D01*
X64918255Y-140023748D01*
X64932431Y-139970073D01*
X64937157Y-139906947D01*
X64931341Y-139833279D01*
X64911955Y-139766397D01*
X64815994Y-139792569D01*
X64828110Y-139835703D01*
X64833441Y-139896284D01*
X64823263Y-139967528D01*
X64795153Y-140013570D01*
X64752019Y-140038772D01*
X64697738Y-140046527D01*
X64641519Y-140037682D01*
X64598869Y-140011147D01*
X64571971Y-139963287D01*
X64563005Y-139890468D01*
X64566882Y-139831825D01*
X64579483Y-139776090D01*
X64481583Y-139758643D01*
X64465590Y-139819709D01*
X64460864Y-139858724D01*
X64459289Y-139904039D01*
X64376575Y-139904039D01*
X64376575Y-139390307D01*
X64469952Y-139390307D01*
X64524717Y-139420840D01*
X64584814Y-139461066D01*
X64641034Y-139504200D01*
X64685137Y-139544426D01*
X64469952Y-139544426D01*
X64469952Y-139664620D01*
X65122294Y-139664620D01*
X65142649Y-139544426D01*
X64745234Y-139544426D01*
X64788368Y-139509047D01*
X64835380Y-139474152D01*
X64882391Y-139441680D01*
X64925525Y-139414540D01*
X64925525Y-139271082D01*
X64877060Y-139310824D01*
X64823748Y-139356866D01*
X64771405Y-139404362D01*
X64724879Y-139447496D01*
X64669144Y-139395153D01*
X64636066Y-139367286D01*
X64601777Y-139339903D01*
X64566882Y-139313853D01*
X64531987Y-139289984D01*
X64469952Y-139253635D01*
X64469952Y-139390307D01*
X64376575Y-139390307D01*
X64376575Y-139253635D01*
X64376575Y-138960905D01*
X64459289Y-138960905D01*
X64463045Y-139016034D01*
X64474313Y-139065105D01*
X64492973Y-139107754D01*
X64518901Y-139143619D01*
X64551979Y-139172334D01*
X64592084Y-139193538D01*
X64639338Y-139206624D01*
X64693861Y-139210985D01*
X64750323Y-139206381D01*
X64799515Y-139192569D01*
X64841317Y-139171244D01*
X64875606Y-139144103D01*
X64902383Y-139111874D01*
X64921648Y-139075283D01*
X64933279Y-139036026D01*
X64937157Y-138995800D01*
X64930533Y-138933979D01*
X64910662Y-138882929D01*
X64877544Y-138842649D01*
X64831718Y-138813570D01*
X64773721Y-138796123D01*
X64703554Y-138790307D01*
X64679321Y-138790792D01*
X64658966Y-138792245D01*
X64658966Y-139087884D01*
X64619103Y-139078675D01*
X64588691Y-139051050D01*
X64569426Y-139008885D01*
X64563005Y-138956058D01*
X64570759Y-138887722D01*
X64586268Y-138832956D01*
X64484491Y-138816478D01*
X64466559Y-138882391D01*
X64459289Y-138960905D01*
X64376575Y-138960905D01*
X64376575Y-138444265D01*
X64459289Y-138444265D01*
X64466074Y-138517932D01*
X64492246Y-138572213D01*
X64547011Y-138606139D01*
X64587843Y-138614863D01*
X64639580Y-138617771D01*
X64826656Y-138617771D01*
X64826656Y-138721486D01*
X64925525Y-138721486D01*
X64925525Y-138617771D01*
X65039903Y-138617771D01*
X65059289Y-138498546D01*
X64925525Y-138498546D01*
X64925525Y-138307593D01*
X64826656Y-138307593D01*
X64826656Y-138498546D01*
X64642488Y-138498546D01*
X64601777Y-138493699D01*
X64577544Y-138480129D01*
X64565913Y-138458804D01*
X64563005Y-138430695D01*
X64563974Y-138400161D01*
X64567367Y-138373021D01*
X64574637Y-138345880D01*
X64587237Y-138315347D01*
X64484491Y-138298869D01*
X64465105Y-138370113D01*
X64459289Y-138444265D01*
X64376575Y-138444265D01*
X64376575Y-137474960D01*
X64459289Y-137474960D01*
X64466074Y-137548627D01*
X64492246Y-137602908D01*
X64547011Y-137636834D01*
X64587843Y-137645557D01*
X64639580Y-137648465D01*
X64826656Y-137648465D01*
X64826656Y-137752181D01*
X64925525Y-137752181D01*
X64925525Y-137648465D01*
X65039903Y-137648465D01*
X65059289Y-137529241D01*
X64925525Y-137529241D01*
X64925525Y-137338287D01*
X64826656Y-137338287D01*
X64826656Y-137529241D01*
X64642488Y-137529241D01*
X64601777Y-137524394D01*
X64577544Y-137510824D01*
X64565913Y-137489499D01*
X64563005Y-137461389D01*
X64563974Y-137430856D01*
X64567367Y-137403716D01*
X64574637Y-137376575D01*
X64587237Y-137346042D01*
X64484491Y-137329564D01*
X64465105Y-137400808D01*
X64459289Y-137474960D01*
X64376575Y-137474960D01*
X64376575Y-137241357D01*
X64376575Y-136874960D01*
X64469952Y-136874960D01*
X64469952Y-136994184D01*
X64711309Y-136994184D01*
X64766317Y-136997819D01*
X64803393Y-137008724D01*
X64831502Y-137063974D01*
X64827625Y-137096446D01*
X64820840Y-137122132D01*
X64469952Y-137122132D01*
X64469952Y-137241357D01*
X65122294Y-137241357D01*
X65142649Y-137122132D01*
X64921648Y-137122132D01*
X64930856Y-137087237D01*
X64935218Y-137051373D01*
X64931462Y-137005089D01*
X64920194Y-136967044D01*
X64877544Y-136912762D01*
X64811632Y-136883683D01*
X64771284Y-136877140D01*
X64726817Y-136874960D01*
X64469952Y-136874960D01*
X64376575Y-136874960D01*
X64376575Y-136494023D01*
X64459289Y-136494023D01*
X64462682Y-136536793D01*
X64472859Y-136572052D01*
X64512116Y-136622456D01*
X64574637Y-136649111D01*
X64614136Y-136654927D01*
X64658966Y-136656866D01*
X64826656Y-136656866D01*
X64826656Y-136782876D01*
X64925525Y-136782876D01*
X64925525Y-136618094D01*
X64980775Y-136618094D01*
X65001131Y-136670921D01*
X65056381Y-136692730D01*
X65112601Y-136670921D01*
X65132956Y-136618094D01*
X65112601Y-136564782D01*
X65056381Y-136542488D01*
X65001131Y-136564782D01*
X64980775Y-136618094D01*
X64925525Y-136618094D01*
X64925525Y-136537641D01*
X64643457Y-136537641D01*
X64582876Y-136522617D01*
X64563005Y-136472698D01*
X64567367Y-136432956D01*
X64585299Y-136380614D01*
X64489338Y-136365105D01*
X64465590Y-136434410D01*
X64459289Y-136494023D01*
X64376575Y-136494023D01*
X64376575Y-136113086D01*
X64459289Y-136113086D01*
X64462682Y-136167851D01*
X64472859Y-136213893D01*
X64497092Y-136280775D01*
X64596931Y-136262359D01*
X64571729Y-136190145D01*
X64560097Y-136112116D01*
X64566397Y-136045234D01*
X64592084Y-136021971D01*
X64613409Y-136029241D01*
X64628433Y-136049596D01*
X64640549Y-136079645D01*
X64652181Y-136115024D01*
X64670113Y-136168336D01*
X64695800Y-136217771D01*
X64735057Y-136254604D01*
X64794669Y-136269144D01*
X64849435Y-136257997D01*
X64894992Y-136223102D01*
X64926010Y-136162520D01*
X64934370Y-136122052D01*
X64937157Y-136074313D01*
X64935460Y-136031300D01*
X64930372Y-135991438D01*
X64910985Y-135925040D01*
X64810178Y-135943457D01*
X64826171Y-135994830D01*
X64837318Y-136073344D01*
X64826171Y-136134895D01*
X64802423Y-136150888D01*
X64783522Y-136143619D01*
X64768498Y-136124233D01*
X64755412Y-136096123D01*
X64743296Y-136061712D01*
X64723910Y-136007431D01*
X64697254Y-135956543D01*
X64656543Y-135919224D01*
X64595961Y-135904685D01*
X64542649Y-135915347D01*
X64499031Y-135950727D01*
X64469952Y-136015186D01*
X64461955Y-136059531D01*
X64459289Y-136113086D01*
X64376575Y-136113086D01*
X64376575Y-135143780D01*
X64459289Y-135143780D01*
X64462682Y-135198546D01*
X64472859Y-135244588D01*
X64497092Y-135311470D01*
X64596931Y-135293053D01*
X64571729Y-135220840D01*
X64560097Y-135142811D01*
X64566397Y-135075929D01*
X64592084Y-135052666D01*
X64613409Y-135059935D01*
X64628433Y-135080291D01*
X64640549Y-135110339D01*
X64652181Y-135145719D01*
X64670113Y-135199031D01*
X64695800Y-135248465D01*
X64735057Y-135285299D01*
X64794669Y-135299838D01*
X64849435Y-135288691D01*
X64894992Y-135253796D01*
X64926010Y-135193215D01*
X64934370Y-135152746D01*
X64937157Y-135105008D01*
X64935460Y-135061995D01*
X64930372Y-135022132D01*
X64910985Y-134955735D01*
X64810178Y-134974152D01*
X64826171Y-135025525D01*
X64837318Y-135104039D01*
X64826171Y-135165590D01*
X64802423Y-135181583D01*
X64783522Y-135174313D01*
X64768498Y-135154927D01*
X64755412Y-135126817D01*
X64743296Y-135092407D01*
X64723910Y-135038126D01*
X64697254Y-134987237D01*
X64656543Y-134949919D01*
X64595961Y-134935380D01*
X64542649Y-134946042D01*
X64499031Y-134981422D01*
X64469952Y-135045880D01*
X64461955Y-135090226D01*
X64459289Y-135143780D01*
X64376575Y-135143780D01*
X64376575Y-134555412D01*
X64459289Y-134555412D01*
X64462682Y-134598182D01*
X64472859Y-134633441D01*
X64512116Y-134683845D01*
X64574637Y-134710501D01*
X64614136Y-134716317D01*
X64658966Y-134718255D01*
X64826656Y-134718255D01*
X64826656Y-134844265D01*
X64925525Y-134844265D01*
X64925525Y-134679483D01*
X64980775Y-134679483D01*
X65001131Y-134732310D01*
X65056381Y-134754119D01*
X65112601Y-134732310D01*
X65132956Y-134679483D01*
X65112601Y-134626171D01*
X65056381Y-134603877D01*
X65001131Y-134626171D01*
X64980775Y-134679483D01*
X64925525Y-134679483D01*
X64925525Y-134599031D01*
X64643457Y-134599031D01*
X64582876Y-134584006D01*
X64563005Y-134534087D01*
X64567367Y-134494346D01*
X64585299Y-134442003D01*
X64489338Y-134426494D01*
X64465590Y-134495800D01*
X64459289Y-134555412D01*
X64376575Y-134555412D01*
X64376575Y-134151212D01*
X64459289Y-134151212D01*
X64466290Y-134216532D01*
X64487291Y-134270328D01*
X64522294Y-134312601D01*
X64569467Y-134343026D01*
X64626979Y-134361282D01*
X64694830Y-134367367D01*
X64763920Y-134362251D01*
X64822563Y-134346904D01*
X64870759Y-134321325D01*
X64906570Y-134285730D01*
X64928056Y-134240334D01*
X64935218Y-134185137D01*
X64929887Y-134137641D01*
X64914863Y-134096930D01*
X65122294Y-134096930D01*
X65142649Y-133977706D01*
X64483522Y-133977706D01*
X64473829Y-134014297D01*
X64466074Y-134058158D01*
X64460985Y-134105170D01*
X64459289Y-134151212D01*
X64376575Y-134151212D01*
X64376575Y-133629725D01*
X64459289Y-133629725D01*
X64463045Y-133684855D01*
X64474313Y-133733926D01*
X64492973Y-133776575D01*
X64518901Y-133812439D01*
X64551979Y-133841155D01*
X64592084Y-133862359D01*
X64639338Y-133875444D01*
X64693861Y-133879806D01*
X64750323Y-133875202D01*
X64799515Y-133861389D01*
X64841317Y-133840065D01*
X64875606Y-133812924D01*
X64902383Y-133780695D01*
X64921648Y-133744103D01*
X64933279Y-133704846D01*
X64937157Y-133664620D01*
X64930533Y-133602800D01*
X64910662Y-133551750D01*
X64877544Y-133511470D01*
X64831718Y-133482391D01*
X64773721Y-133464943D01*
X64703554Y-133459128D01*
X64679321Y-133459612D01*
X64658966Y-133461066D01*
X64658966Y-133756704D01*
X64619103Y-133747496D01*
X64588691Y-133719871D01*
X64569426Y-133677706D01*
X64563005Y-133624879D01*
X64570759Y-133556543D01*
X64586268Y-133501777D01*
X64484491Y-133485299D01*
X64466559Y-133551212D01*
X64459289Y-133629725D01*
X64376575Y-133629725D01*
X64376575Y-133459128D01*
X64376575Y-133459047D01*
X64378614Y-133417544D01*
X64384711Y-133376441D01*
X64394808Y-133336133D01*
X64408806Y-133297009D01*
X64426573Y-133259446D01*
X64447935Y-133223805D01*
X64472688Y-133190429D01*
X64500593Y-133159640D01*
X64531382Y-133131735D01*
X64564758Y-133106982D01*
X64600399Y-133085619D01*
X64637962Y-133067853D01*
X64677086Y-133053855D01*
X64717394Y-133043758D01*
X64758497Y-133037661D01*
X64800000Y-133035622D01*
X64841503Y-133037661D01*
G37*
%LPC*%
D13*
X86500000Y-78800000D03*
X81500000Y-78800000D03*
X58510000Y-101900000D03*
D14*
X50890000Y-101900000D03*
D13*
X88990000Y-71500000D03*
D14*
X96610000Y-71500000D03*
D13*
X50890000Y-98800000D03*
D14*
X58510000Y-98800000D03*
D13*
X70800000Y-108600000D03*
X75800000Y-108600000D03*
X80100000Y-57420000D03*
D14*
X80100000Y-49800000D03*
D13*
X57200000Y-122700000D03*
X52200000Y-122700000D03*
X69900000Y-78000000D03*
X74900000Y-78000000D03*
D15*
X79300000Y-38600000D03*
X74300000Y-38600000D03*
D13*
X69790000Y-61800000D03*
D14*
X77410000Y-61800000D03*
D16*
X96620000Y-49700000D03*
D14*
X89000000Y-49700000D03*
D13*
X96620000Y-55700000D03*
D14*
X89000000Y-55700000D03*
D13*
X89200000Y-84650000D03*
X94200000Y-84650000D03*
X89955113Y-61900000D03*
X89955113Y-66900000D03*
X88800000Y-38900000D03*
D14*
X96420000Y-38900000D03*
D13*
X75990000Y-125200000D03*
D14*
X68370000Y-125200000D03*
D13*
X68390000Y-99000000D03*
D14*
X76010000Y-99000000D03*
D17*
X95045113Y-67240000D03*
D18*
X95045113Y-64700000D03*
X95045113Y-62160000D03*
D16*
X50890000Y-131500000D03*
D14*
X58510000Y-131500000D03*
D13*
X58510000Y-125700000D03*
D14*
X50890000Y-125700000D03*
D13*
X89000000Y-101700000D03*
D14*
X96620000Y-101700000D03*
D13*
X68360000Y-118150000D03*
D14*
X75980000Y-118150000D03*
D16*
X86500000Y-64400000D03*
D13*
X84500000Y-64400000D03*
X70780000Y-121700000D03*
X75780000Y-121700000D03*
X89200000Y-87700000D03*
X94200000Y-87700000D03*
X69600000Y-96000000D03*
X74600000Y-96000000D03*
X69710000Y-87000000D03*
X74710000Y-87000000D03*
X58410000Y-107900000D03*
D14*
X50790000Y-107900000D03*
D13*
X86300000Y-55500000D03*
X86300000Y-50500000D03*
X57000000Y-104900000D03*
X52000000Y-104900000D03*
X68390000Y-93000000D03*
D14*
X76010000Y-93000000D03*
D16*
X50990000Y-77900000D03*
D14*
X58610000Y-77900000D03*
D13*
X75870000Y-115100000D03*
X70870000Y-115100000D03*
X88800000Y-35800000D03*
D14*
X96420000Y-35800000D03*
D13*
X50790000Y-116500000D03*
D14*
X58410000Y-116500000D03*
D13*
X83200000Y-42500000D03*
D14*
X83200000Y-34880000D03*
D13*
X50890000Y-134300000D03*
D14*
X58510000Y-134300000D03*
D13*
X50990000Y-80800000D03*
D14*
X58610000Y-80800000D03*
D13*
X96610000Y-81600000D03*
D14*
X88990000Y-81600000D03*
D13*
X68590000Y-72000000D03*
D14*
X76210000Y-72000000D03*
D16*
X50900000Y-96000000D03*
D14*
X58520000Y-96000000D03*
D13*
X78690000Y-100600000D03*
D14*
X86310000Y-100600000D03*
D16*
X84600000Y-130900000D03*
D13*
X84600000Y-128900000D03*
X95110000Y-41900000D03*
X90110000Y-41900000D03*
X94100000Y-121800000D03*
X89100000Y-121800000D03*
X86890000Y-125900000D03*
D14*
X94510000Y-125900000D03*
D13*
X85100000Y-104300000D03*
X80100000Y-104300000D03*
X50910000Y-93200000D03*
D14*
X58530000Y-93200000D03*
D13*
X95200000Y-75000000D03*
X90200000Y-75000000D03*
X76000000Y-105100000D03*
D14*
X68380000Y-105100000D03*
D13*
X57400000Y-68500000D03*
X52400000Y-68500000D03*
X88890000Y-112100000D03*
D14*
X96510000Y-112100000D03*
D13*
X58610000Y-72000000D03*
D14*
X50990000Y-72000000D03*
D13*
X69800000Y-55600000D03*
D14*
X77420000Y-55600000D03*
D19*
X80160000Y-46300000D03*
D20*
X81430000Y-46300000D03*
X82700000Y-46300000D03*
D21*
X81900000Y-71700000D03*
D13*
X83200000Y-50500000D03*
X83200000Y-55500000D03*
D16*
X78670000Y-107475000D03*
D14*
X78670000Y-110015000D03*
X78670000Y-112555000D03*
X78670000Y-115095000D03*
X78670000Y-117635000D03*
X78670000Y-120175000D03*
X78670000Y-122715000D03*
X86290000Y-122715000D03*
X86290000Y-120175000D03*
X86290000Y-117635000D03*
X86290000Y-115095000D03*
X86290000Y-112555000D03*
X86290000Y-110015000D03*
X86290000Y-107475000D03*
D13*
X58530000Y-90200000D03*
D14*
X50910000Y-90200000D03*
D13*
X58710000Y-64900000D03*
D14*
X51090000Y-64900000D03*
D13*
X69900000Y-68500000D03*
X74900000Y-68500000D03*
G36*
G01*
X74940000Y-139790000D02*
X73740000Y-139790000D01*
G75*
G02*
X73490000Y-139540000I0J250000D01*
G01*
X73490000Y-138340000D01*
G75*
G02*
X73740000Y-138090000I250000J0D01*
G01*
X74940000Y-138090000D01*
G75*
G02*
X75190000Y-138340000I0J-250000D01*
G01*
X75190000Y-139540000D01*
G75*
G02*
X74940000Y-139790000I-250000J0D01*
G01*
G37*
D22*
X74340000Y-136400000D03*
X76880000Y-138940000D03*
X76880000Y-136400000D03*
X79420000Y-138940000D03*
X79420000Y-136400000D03*
X81960000Y-138940000D03*
X81960000Y-136400000D03*
X84500000Y-138940000D03*
X84500000Y-136400000D03*
D13*
X69790000Y-58700000D03*
D14*
X77410000Y-58700000D03*
D13*
X74700000Y-90000000D03*
X69700000Y-90000000D03*
X88980000Y-78550000D03*
D14*
X96600000Y-78550000D03*
D13*
X58720000Y-84200000D03*
D14*
X51100000Y-84200000D03*
D13*
X58420000Y-119700000D03*
D14*
X50800000Y-119700000D03*
D13*
X89200000Y-95200000D03*
X94200000Y-95200000D03*
D16*
X50790000Y-113700000D03*
D14*
X58410000Y-113700000D03*
D19*
X91430000Y-46360000D03*
D20*
X92700000Y-46360000D03*
X93970000Y-46360000D03*
D13*
X50990000Y-75100000D03*
D14*
X58610000Y-75100000D03*
D13*
X75910000Y-81000000D03*
D14*
X68290000Y-81000000D03*
D13*
X94100000Y-108600000D03*
X89100000Y-108600000D03*
X75700000Y-44700000D03*
X75700000Y-49700000D03*
X96600000Y-98700000D03*
D14*
X88980000Y-98700000D03*
D13*
X57110000Y-87200000D03*
X52110000Y-87200000D03*
D16*
X74400000Y-128900000D03*
D13*
X74400000Y-130900000D03*
X94200000Y-91200000D03*
X89200000Y-91200000D03*
X68380000Y-112100000D03*
D14*
X76000000Y-112100000D03*
D13*
X75920000Y-84000000D03*
D14*
X68300000Y-84000000D03*
D19*
X85760000Y-46300000D03*
D20*
X87030000Y-46300000D03*
X88300000Y-46300000D03*
D13*
X86200000Y-34880000D03*
D14*
X86200000Y-42500000D03*
D13*
X96510000Y-105100000D03*
D14*
X88890000Y-105100000D03*
D13*
X50890000Y-128700000D03*
D14*
X58510000Y-128700000D03*
D13*
X88980000Y-52600000D03*
D14*
X96600000Y-52600000D03*
D13*
X50790000Y-110900000D03*
D14*
X58410000Y-110900000D03*
D13*
X88890000Y-118200000D03*
D14*
X96510000Y-118200000D03*
D13*
X69800000Y-52500000D03*
D14*
X77420000Y-52500000D03*
D13*
X74900000Y-75000000D03*
X69900000Y-75000000D03*
X68390000Y-65000000D03*
D14*
X76010000Y-65000000D03*
D13*
X94070000Y-115100000D03*
X89070000Y-115100000D03*
D16*
X78680000Y-82060000D03*
D14*
X78680000Y-84600000D03*
X78680000Y-87140000D03*
X78680000Y-89680000D03*
X78680000Y-92220000D03*
X78680000Y-94760000D03*
X78680000Y-97300000D03*
X86300000Y-97300000D03*
X86300000Y-94760000D03*
X86300000Y-92220000D03*
X86300000Y-89680000D03*
X86300000Y-87140000D03*
X86300000Y-84600000D03*
X86300000Y-82060000D03*
D23*
X63400000Y-81800000D03*
D24*
X63400000Y-84340000D03*
X63400000Y-86880000D03*
X63400000Y-89420000D03*
X63400000Y-91960000D03*
X63400000Y-94500000D03*
X63400000Y-97040000D03*
X63400000Y-99580000D03*
X63400000Y-102120000D03*
X63400000Y-104660000D03*
X63400000Y-107200000D03*
X63400000Y-109740000D03*
D23*
X62000000Y-133300000D03*
D24*
X62000000Y-135840000D03*
X62000000Y-138380000D03*
X62000000Y-140920000D03*
D23*
X63400000Y-42100000D03*
D24*
X63400000Y-44640000D03*
X63400000Y-47180000D03*
X63400000Y-49720000D03*
X63400000Y-52260000D03*
X63400000Y-54800000D03*
X63400000Y-57340000D03*
X63400000Y-59880000D03*
X63400000Y-62420000D03*
X63400000Y-64960000D03*
X63400000Y-67500000D03*
X63400000Y-70040000D03*
%LPD*%
M02*
