M48
; DRILL file {KiCad 8.0.6-8.0.6-0~ubuntu22.04.1} date 2025-02-02T12:48:23+0100
; FORMAT={-:-/ absolute / metric / decimal}
; #@! TF.CreationDate,2025-02-02T12:48:23+01:00
; #@! TF.GenerationSoftware,Kicad,Pcbnew,8.0.6-8.0.6-0~ubuntu22.04.1
; #@! TF.FileFunction,Plated,1,2,PTH
FMAT,2
METRIC
; #@! TA.AperFunction,Plated,PTH,ViaDrill
T1C0.400
; #@! TA.AperFunction,Plated,PTH,ComponentDrill
T2C0.750
; #@! TA.AperFunction,Plated,PTH,ComponentDrill
T3C0.762
; #@! TA.AperFunction,Plated,PTH,ComponentDrill
T4C0.800
; #@! TA.AperFunction,Plated,PTH,ComponentDrill
T5C1.000
; #@! TA.AperFunction,Plated,PTH,ComponentDrill
T6C1.100
%
G90
G05
T1
X59.1Y-60.3
X60.25Y-116.4
X60.8Y-93.4
X61.75Y-114.1
X63.8Y-128.2
X64.5Y-98.3
X64.7Y-128.2
X67.3Y-51.7
X67.3Y-52.9
X67.9Y-95.1
X68.0Y-67.3
X68.0Y-69.8
X70.2Y-105.6
X73.1Y-107.3
X73.2Y-123.0
X73.7Y-101.35
X74.0Y-107.3
X74.1Y-123.0
X79.0Y-131.8
X79.9Y-131.8
X80.214Y-127.786
X80.3Y-94.6
X81.3Y-97.5
X81.8Y-118.9
X82.6Y-106.7
X83.0Y-85.2
X83.0Y-86.1
X85.8Y-59.8
X86.4Y-67.8
X86.4Y-68.7
X86.7Y-59.8
X87.8Y-132.2
X88.7Y-132.2
X89.6Y-132.2
X90.5Y-132.2
X90.8Y-111.8
X90.8Y-112.7
X90.9Y-109.9
X90.9Y-117.5
X90.9Y-118.4
X92.8Y-126.9
X93.4Y-77.6
X93.5Y-58.4
X94.4Y-58.4
X94.7Y-132.9
X94.7Y-133.8
X95.6Y-129.2
X96.25Y-84.6
T2
X80.16Y-46.3
X81.43Y-46.3
X82.7Y-46.3
X85.76Y-46.3
X87.03Y-46.3
X88.3Y-46.3
X91.43Y-46.36
X92.7Y-46.36
X93.97Y-46.36
T3
X74.3Y-38.6
X79.3Y-38.6
T4
X50.79Y-107.9
X50.79Y-110.9
X50.79Y-113.7
X50.79Y-116.5
X50.8Y-119.7
X50.89Y-98.8
X50.89Y-101.9
X50.89Y-125.7
X50.89Y-128.7
X50.89Y-131.5
X50.89Y-134.3
X50.9Y-96.0
X50.91Y-90.2
X50.91Y-93.2
X50.99Y-72.0
X50.99Y-75.1
X50.99Y-77.9
X50.99Y-80.8
X51.09Y-64.9
X51.1Y-84.2
X52.0Y-104.9
X52.11Y-87.2
X52.2Y-122.7
X52.4Y-68.5
X57.0Y-104.9
X57.11Y-87.2
X57.2Y-122.7
X57.4Y-68.5
X58.41Y-107.9
X58.41Y-110.9
X58.41Y-113.7
X58.41Y-116.5
X58.42Y-119.7
X58.51Y-98.8
X58.51Y-101.9
X58.51Y-125.7
X58.51Y-128.7
X58.51Y-131.5
X58.51Y-134.3
X58.52Y-96.0
X58.53Y-90.2
X58.53Y-93.2
X58.61Y-72.0
X58.61Y-75.1
X58.61Y-77.9
X58.61Y-80.8
X58.71Y-64.9
X58.72Y-84.2
X68.29Y-81.0
X68.3Y-84.0
X68.36Y-118.15
X68.37Y-125.2
X68.38Y-105.1
X68.38Y-112.1
X68.39Y-65.0
X68.39Y-93.0
X68.39Y-99.0
X68.59Y-72.0
X69.6Y-96.0
X69.7Y-90.0
X69.71Y-87.0
X69.79Y-58.7
X69.79Y-61.8
X69.8Y-52.5
X69.8Y-55.6
X69.9Y-68.5
X69.9Y-75.0
X69.9Y-78.0
X70.78Y-121.7
X70.8Y-108.6
X70.87Y-115.1
X74.4Y-128.9
X74.4Y-130.9
X74.6Y-96.0
X74.7Y-90.0
X74.71Y-87.0
X74.9Y-68.5
X74.9Y-75.0
X74.9Y-78.0
X75.7Y-44.7
X75.7Y-49.7
X75.78Y-121.7
X75.8Y-108.6
X75.87Y-115.1
X75.91Y-81.0
X75.92Y-84.0
X75.98Y-118.15
X75.99Y-125.2
X76.0Y-105.1
X76.0Y-112.1
X76.01Y-65.0
X76.01Y-93.0
X76.01Y-99.0
X76.21Y-72.0
X77.41Y-58.7
X77.41Y-61.8
X77.42Y-52.5
X77.42Y-55.6
X78.67Y-107.475
X78.67Y-110.015
X78.67Y-112.555
X78.67Y-115.095
X78.67Y-117.635
X78.67Y-120.175
X78.67Y-122.715
X78.68Y-82.06
X78.68Y-84.6
X78.68Y-87.14
X78.68Y-89.68
X78.68Y-92.22
X78.68Y-94.76
X78.68Y-97.3
X78.69Y-100.6
X80.1Y-49.8
X80.1Y-57.42
X80.1Y-104.3
X81.5Y-78.8
X83.2Y-34.88
X83.2Y-42.5
X83.2Y-50.5
X83.2Y-55.5
X84.5Y-64.4
X84.6Y-128.9
X84.6Y-130.9
X85.1Y-104.3
X86.2Y-34.88
X86.2Y-42.5
X86.29Y-107.475
X86.29Y-110.015
X86.29Y-112.555
X86.29Y-115.095
X86.29Y-117.635
X86.29Y-120.175
X86.29Y-122.715
X86.3Y-50.5
X86.3Y-55.5
X86.3Y-82.06
X86.3Y-84.6
X86.3Y-87.14
X86.3Y-89.68
X86.3Y-92.22
X86.3Y-94.76
X86.3Y-97.3
X86.31Y-100.6
X86.5Y-64.4
X86.5Y-78.8
X86.89Y-125.9
X88.8Y-35.8
X88.8Y-38.9
X88.89Y-105.1
X88.89Y-112.1
X88.89Y-118.2
X88.98Y-52.6
X88.98Y-78.55
X88.98Y-98.7
X88.99Y-71.5
X88.99Y-81.6
X89.0Y-49.7
X89.0Y-55.7
X89.0Y-101.7
X89.07Y-115.1
X89.1Y-108.6
X89.1Y-121.8
X89.2Y-84.65
X89.2Y-87.7
X89.2Y-91.2
X89.2Y-95.2
X89.955Y-61.9
X89.955Y-66.9
X90.11Y-41.9
X90.2Y-75.0
X94.07Y-115.1
X94.1Y-108.6
X94.1Y-121.8
X94.2Y-84.65
X94.2Y-87.7
X94.2Y-91.2
X94.2Y-95.2
X94.51Y-125.9
X95.11Y-41.9
X95.2Y-75.0
X96.42Y-35.8
X96.42Y-38.9
X96.51Y-105.1
X96.51Y-112.1
X96.51Y-118.2
X96.6Y-52.6
X96.6Y-78.55
X96.6Y-98.7
X96.61Y-71.5
X96.61Y-81.6
X96.62Y-49.7
X96.62Y-55.7
X96.62Y-101.7
T5
X62.0Y-133.3
X62.0Y-135.84
X62.0Y-138.38
X62.0Y-140.92
X63.4Y-42.1
X63.4Y-44.64
X63.4Y-47.18
X63.4Y-49.72
X63.4Y-52.26
X63.4Y-54.8
X63.4Y-57.34
X63.4Y-59.88
X63.4Y-62.42
X63.4Y-64.96
X63.4Y-67.5
X63.4Y-70.04
X63.4Y-81.8
X63.4Y-84.34
X63.4Y-86.88
X63.4Y-89.42
X63.4Y-91.96
X63.4Y-94.5
X63.4Y-97.04
X63.4Y-99.58
X63.4Y-102.12
X63.4Y-104.66
X63.4Y-107.2
X63.4Y-109.74
X74.34Y-136.4
X74.34Y-138.94
X76.88Y-136.4
X76.88Y-138.94
X79.42Y-136.4
X79.42Y-138.94
X81.96Y-136.4
X81.96Y-138.94
X84.5Y-136.4
X84.5Y-138.94
T6
X95.045Y-62.16
X95.045Y-64.7
X95.045Y-67.24
M30
