%TF.GenerationSoftware,KiCad,Pcbnew,8.0.6-8.0.6-0~ubuntu22.04.1*%
%TF.CreationDate,2025-02-02T12:48:23+01:00*%
%TF.ProjectId,Drumbox,4472756d-626f-4782-9e6b-696361645f70,rev?*%
%TF.SameCoordinates,Original*%
%TF.FileFunction,Drillmap*%
%TF.FilePolarity,Positive*%
%FSLAX45Y45*%
G04 Gerber Fmt 4.5, Leading zero omitted, Abs format (unit mm)*
G04 Created by KiCad (PCBNEW 8.0.6-8.0.6-0~ubuntu22.04.1) date 2025-02-02 12:48:23*
%MOMM*%
%LPD*%
G01*
G04 APERTURE LIST*
%ADD10C,0.050000*%
%ADD11C,0.200000*%
%ADD12C,0.100000*%
%ADD13C,0.110000*%
G04 APERTURE END LIST*
D10*
X4790000Y-3380000D02*
X9790000Y-3380000D01*
X9790000Y-3380000D02*
X9790000Y-14380000D01*
X4790000Y-3380000D02*
X4790000Y-14380000D01*
X4790000Y-14380000D02*
X9790000Y-14380000D01*
D11*
D12*
X5890000Y-6010000D02*
X5930000Y-6050000D01*
X5930000Y-6010000D02*
X5890000Y-6050000D01*
X6005000Y-11620000D02*
X6045000Y-11660000D01*
X6045000Y-11620000D02*
X6005000Y-11660000D01*
X6060000Y-9320000D02*
X6100000Y-9360000D01*
X6100000Y-9320000D02*
X6060000Y-9360000D01*
X6155000Y-11390000D02*
X6195000Y-11430000D01*
X6195000Y-11390000D02*
X6155000Y-11430000D01*
X6360000Y-12800000D02*
X6400000Y-12840000D01*
X6400000Y-12800000D02*
X6360000Y-12840000D01*
X6430000Y-9810000D02*
X6470000Y-9850000D01*
X6470000Y-9810000D02*
X6430000Y-9850000D01*
X6450000Y-12800000D02*
X6490000Y-12840000D01*
X6490000Y-12800000D02*
X6450000Y-12840000D01*
X6710000Y-5150000D02*
X6750000Y-5190000D01*
X6750000Y-5150000D02*
X6710000Y-5190000D01*
X6710000Y-5270000D02*
X6750000Y-5310000D01*
X6750000Y-5270000D02*
X6710000Y-5310000D01*
X6770000Y-9490000D02*
X6810000Y-9530000D01*
X6810000Y-9490000D02*
X6770000Y-9530000D01*
X6780000Y-6710000D02*
X6820000Y-6750000D01*
X6820000Y-6710000D02*
X6780000Y-6750000D01*
X6780000Y-6960000D02*
X6820000Y-7000000D01*
X6820000Y-6960000D02*
X6780000Y-7000000D01*
X7000000Y-10540000D02*
X7040000Y-10580000D01*
X7040000Y-10540000D02*
X7000000Y-10580000D01*
X7290000Y-10710000D02*
X7330000Y-10750000D01*
X7330000Y-10710000D02*
X7290000Y-10750000D01*
X7300000Y-12280000D02*
X7340000Y-12320000D01*
X7340000Y-12280000D02*
X7300000Y-12320000D01*
X7350000Y-10115000D02*
X7390000Y-10155000D01*
X7390000Y-10115000D02*
X7350000Y-10155000D01*
X7380000Y-10710000D02*
X7420000Y-10750000D01*
X7420000Y-10710000D02*
X7380000Y-10750000D01*
X7390000Y-12280000D02*
X7430000Y-12320000D01*
X7430000Y-12280000D02*
X7390000Y-12320000D01*
X7880000Y-13160000D02*
X7920000Y-13200000D01*
X7920000Y-13160000D02*
X7880000Y-13200000D01*
X7970000Y-13160000D02*
X8010000Y-13200000D01*
X8010000Y-13160000D02*
X7970000Y-13200000D01*
X8001360Y-12758640D02*
X8041360Y-12798640D01*
X8041360Y-12758640D02*
X8001360Y-12798640D01*
X8010000Y-9440000D02*
X8050000Y-9480000D01*
X8050000Y-9440000D02*
X8010000Y-9480000D01*
X8110000Y-9730000D02*
X8150000Y-9770000D01*
X8150000Y-9730000D02*
X8110000Y-9770000D01*
X8160000Y-11870000D02*
X8200000Y-11910000D01*
X8200000Y-11870000D02*
X8160000Y-11910000D01*
X8240000Y-10650000D02*
X8280000Y-10690000D01*
X8280000Y-10650000D02*
X8240000Y-10690000D01*
X8280000Y-8500000D02*
X8320000Y-8540000D01*
X8320000Y-8500000D02*
X8280000Y-8540000D01*
X8280000Y-8590000D02*
X8320000Y-8630000D01*
X8320000Y-8590000D02*
X8280000Y-8630000D01*
X8560000Y-5960000D02*
X8600000Y-6000000D01*
X8600000Y-5960000D02*
X8560000Y-6000000D01*
X8620000Y-6760000D02*
X8660000Y-6800000D01*
X8660000Y-6760000D02*
X8620000Y-6800000D01*
X8620000Y-6850000D02*
X8660000Y-6890000D01*
X8660000Y-6850000D02*
X8620000Y-6890000D01*
X8650000Y-5960000D02*
X8690000Y-6000000D01*
X8690000Y-5960000D02*
X8650000Y-6000000D01*
X8760000Y-13200000D02*
X8800000Y-13240000D01*
X8800000Y-13200000D02*
X8760000Y-13240000D01*
X8850000Y-13200000D02*
X8890000Y-13240000D01*
X8890000Y-13200000D02*
X8850000Y-13240000D01*
X8940000Y-13200000D02*
X8980000Y-13240000D01*
X8980000Y-13200000D02*
X8940000Y-13240000D01*
X9030000Y-13200000D02*
X9070000Y-13240000D01*
X9070000Y-13200000D02*
X9030000Y-13240000D01*
X9060000Y-11160000D02*
X9100000Y-11200000D01*
X9100000Y-11160000D02*
X9060000Y-11200000D01*
X9060000Y-11250000D02*
X9100000Y-11290000D01*
X9100000Y-11250000D02*
X9060000Y-11290000D01*
X9070000Y-10970000D02*
X9110000Y-11010000D01*
X9110000Y-10970000D02*
X9070000Y-11010000D01*
X9070000Y-11730000D02*
X9110000Y-11770000D01*
X9110000Y-11730000D02*
X9070000Y-11770000D01*
X9070000Y-11820000D02*
X9110000Y-11860000D01*
X9110000Y-11820000D02*
X9070000Y-11860000D01*
X9260000Y-12670000D02*
X9300000Y-12710000D01*
X9300000Y-12670000D02*
X9260000Y-12710000D01*
X9320000Y-7740000D02*
X9360000Y-7780000D01*
X9360000Y-7740000D02*
X9320000Y-7780000D01*
X9330000Y-5820000D02*
X9370000Y-5860000D01*
X9370000Y-5820000D02*
X9330000Y-5860000D01*
X9420000Y-5820000D02*
X9460000Y-5860000D01*
X9460000Y-5820000D02*
X9420000Y-5860000D01*
X9450000Y-13270000D02*
X9490000Y-13310000D01*
X9490000Y-13270000D02*
X9450000Y-13310000D01*
X9450000Y-13360000D02*
X9490000Y-13400000D01*
X9490000Y-13360000D02*
X9450000Y-13400000D01*
X9540000Y-12900000D02*
X9580000Y-12940000D01*
X9580000Y-12900000D02*
X9540000Y-12940000D01*
X9605000Y-8440000D02*
X9645000Y-8480000D01*
X9645000Y-8440000D02*
X9605000Y-8480000D01*
X8053500Y-4630000D02*
G75*
G02*
X7978500Y-4630000I-37500J0D01*
G01*
X7978500Y-4630000D02*
G75*
G02*
X8053500Y-4630000I37500J0D01*
G01*
X8180500Y-4630000D02*
G75*
G02*
X8105500Y-4630000I-37500J0D01*
G01*
X8105500Y-4630000D02*
G75*
G02*
X8180500Y-4630000I37500J0D01*
G01*
X8307500Y-4630000D02*
G75*
G02*
X8232500Y-4630000I-37500J0D01*
G01*
X8232500Y-4630000D02*
G75*
G02*
X8307500Y-4630000I37500J0D01*
G01*
X8613500Y-4630000D02*
G75*
G02*
X8538500Y-4630000I-37500J0D01*
G01*
X8538500Y-4630000D02*
G75*
G02*
X8613500Y-4630000I37500J0D01*
G01*
X8740500Y-4630000D02*
G75*
G02*
X8665500Y-4630000I-37500J0D01*
G01*
X8665500Y-4630000D02*
G75*
G02*
X8740500Y-4630000I37500J0D01*
G01*
X8867500Y-4630000D02*
G75*
G02*
X8792500Y-4630000I-37500J0D01*
G01*
X8792500Y-4630000D02*
G75*
G02*
X8867500Y-4630000I37500J0D01*
G01*
X9180500Y-4636000D02*
G75*
G02*
X9105500Y-4636000I-37500J0D01*
G01*
X9105500Y-4636000D02*
G75*
G02*
X9180500Y-4636000I37500J0D01*
G01*
X9307500Y-4636000D02*
G75*
G02*
X9232500Y-4636000I-37500J0D01*
G01*
X9232500Y-4636000D02*
G75*
G02*
X9307500Y-4636000I37500J0D01*
G01*
X9434500Y-4636000D02*
G75*
G02*
X9359500Y-4636000I-37500J0D01*
G01*
X9359500Y-4636000D02*
G75*
G02*
X9434500Y-4636000I37500J0D01*
G01*
X7430000Y-3821900D02*
X7430000Y-3898100D01*
X7391900Y-3860000D02*
X7468100Y-3860000D01*
X7930000Y-3821900D02*
X7930000Y-3898100D01*
X7891900Y-3860000D02*
X7968100Y-3860000D01*
X5107285Y-10818285D02*
X5107285Y-10761716D01*
X5050716Y-10761716D01*
X5050716Y-10818285D01*
X5107285Y-10818285D01*
X5107285Y-11118285D02*
X5107285Y-11061716D01*
X5050716Y-11061716D01*
X5050716Y-11118285D01*
X5107285Y-11118285D01*
X5107285Y-11398284D02*
X5107285Y-11341715D01*
X5050716Y-11341715D01*
X5050716Y-11398284D01*
X5107285Y-11398284D01*
X5107285Y-11678284D02*
X5107285Y-11621715D01*
X5050716Y-11621715D01*
X5050716Y-11678284D01*
X5107285Y-11678284D01*
X5108285Y-11998284D02*
X5108285Y-11941715D01*
X5051716Y-11941715D01*
X5051716Y-11998284D01*
X5108285Y-11998284D01*
X5117285Y-9908285D02*
X5117285Y-9851716D01*
X5060716Y-9851716D01*
X5060716Y-9908285D01*
X5117285Y-9908285D01*
X5117285Y-10218285D02*
X5117285Y-10161716D01*
X5060716Y-10161716D01*
X5060716Y-10218285D01*
X5117285Y-10218285D01*
X5117285Y-12598284D02*
X5117285Y-12541715D01*
X5060716Y-12541715D01*
X5060716Y-12598284D01*
X5117285Y-12598284D01*
X5117285Y-12898284D02*
X5117285Y-12841715D01*
X5060716Y-12841715D01*
X5060716Y-12898284D01*
X5117285Y-12898284D01*
X5117285Y-13178284D02*
X5117285Y-13121715D01*
X5060716Y-13121715D01*
X5060716Y-13178284D01*
X5117285Y-13178284D01*
X5117285Y-13458284D02*
X5117285Y-13401715D01*
X5060716Y-13401715D01*
X5060716Y-13458284D01*
X5117285Y-13458284D01*
X5118285Y-9628285D02*
X5118285Y-9571716D01*
X5061716Y-9571716D01*
X5061716Y-9628285D01*
X5118285Y-9628285D01*
X5119285Y-9048285D02*
X5119285Y-8991716D01*
X5062716Y-8991716D01*
X5062716Y-9048285D01*
X5119285Y-9048285D01*
X5119285Y-9348285D02*
X5119285Y-9291716D01*
X5062716Y-9291716D01*
X5062716Y-9348285D01*
X5119285Y-9348285D01*
X5127285Y-7228284D02*
X5127285Y-7171715D01*
X5070716Y-7171715D01*
X5070716Y-7228284D01*
X5127285Y-7228284D01*
X5127285Y-7538284D02*
X5127285Y-7481715D01*
X5070716Y-7481715D01*
X5070716Y-7538284D01*
X5127285Y-7538284D01*
X5127285Y-7818284D02*
X5127285Y-7761715D01*
X5070716Y-7761715D01*
X5070716Y-7818284D01*
X5127285Y-7818284D01*
X5127285Y-8108284D02*
X5127285Y-8051715D01*
X5070716Y-8051715D01*
X5070716Y-8108284D01*
X5127285Y-8108284D01*
X5137285Y-6518284D02*
X5137285Y-6461715D01*
X5080716Y-6461715D01*
X5080716Y-6518284D01*
X5137285Y-6518284D01*
X5138285Y-8448285D02*
X5138285Y-8391716D01*
X5081716Y-8391716D01*
X5081716Y-8448285D01*
X5138285Y-8448285D01*
X5228285Y-10518285D02*
X5228285Y-10461716D01*
X5171716Y-10461716D01*
X5171716Y-10518285D01*
X5228285Y-10518285D01*
X5239285Y-8748285D02*
X5239285Y-8691716D01*
X5182716Y-8691716D01*
X5182716Y-8748285D01*
X5239285Y-8748285D01*
X5248285Y-12298284D02*
X5248285Y-12241715D01*
X5191716Y-12241715D01*
X5191716Y-12298284D01*
X5248285Y-12298284D01*
X5268285Y-6878284D02*
X5268285Y-6821715D01*
X5211716Y-6821715D01*
X5211716Y-6878284D01*
X5268285Y-6878284D01*
X5728284Y-10518285D02*
X5728284Y-10461716D01*
X5671715Y-10461716D01*
X5671715Y-10518285D01*
X5728284Y-10518285D01*
X5739284Y-8748285D02*
X5739284Y-8691716D01*
X5682715Y-8691716D01*
X5682715Y-8748285D01*
X5739284Y-8748285D01*
X5748284Y-12298284D02*
X5748284Y-12241715D01*
X5691715Y-12241715D01*
X5691715Y-12298284D01*
X5748284Y-12298284D01*
X5768284Y-6878284D02*
X5768284Y-6821715D01*
X5711715Y-6821715D01*
X5711715Y-6878284D01*
X5768284Y-6878284D01*
X5869284Y-10818285D02*
X5869284Y-10761716D01*
X5812715Y-10761716D01*
X5812715Y-10818285D01*
X5869284Y-10818285D01*
X5869284Y-11118285D02*
X5869284Y-11061716D01*
X5812715Y-11061716D01*
X5812715Y-11118285D01*
X5869284Y-11118285D01*
X5869284Y-11398284D02*
X5869284Y-11341715D01*
X5812715Y-11341715D01*
X5812715Y-11398284D01*
X5869284Y-11398284D01*
X5869284Y-11678284D02*
X5869284Y-11621715D01*
X5812715Y-11621715D01*
X5812715Y-11678284D01*
X5869284Y-11678284D01*
X5870284Y-11998284D02*
X5870284Y-11941715D01*
X5813715Y-11941715D01*
X5813715Y-11998284D01*
X5870284Y-11998284D01*
X5879284Y-9908285D02*
X5879284Y-9851716D01*
X5822715Y-9851716D01*
X5822715Y-9908285D01*
X5879284Y-9908285D01*
X5879284Y-10218285D02*
X5879284Y-10161716D01*
X5822715Y-10161716D01*
X5822715Y-10218285D01*
X5879284Y-10218285D01*
X5879284Y-12598284D02*
X5879284Y-12541715D01*
X5822715Y-12541715D01*
X5822715Y-12598284D01*
X5879284Y-12598284D01*
X5879284Y-12898284D02*
X5879284Y-12841715D01*
X5822715Y-12841715D01*
X5822715Y-12898284D01*
X5879284Y-12898284D01*
X5879284Y-13178284D02*
X5879284Y-13121715D01*
X5822715Y-13121715D01*
X5822715Y-13178284D01*
X5879284Y-13178284D01*
X5879284Y-13458284D02*
X5879284Y-13401715D01*
X5822715Y-13401715D01*
X5822715Y-13458284D01*
X5879284Y-13458284D01*
X5880284Y-9628285D02*
X5880284Y-9571716D01*
X5823715Y-9571716D01*
X5823715Y-9628285D01*
X5880284Y-9628285D01*
X5881284Y-9048285D02*
X5881284Y-8991716D01*
X5824715Y-8991716D01*
X5824715Y-9048285D01*
X5881284Y-9048285D01*
X5881284Y-9348285D02*
X5881284Y-9291716D01*
X5824715Y-9291716D01*
X5824715Y-9348285D01*
X5881284Y-9348285D01*
X5889284Y-7228284D02*
X5889284Y-7171715D01*
X5832715Y-7171715D01*
X5832715Y-7228284D01*
X5889284Y-7228284D01*
X5889284Y-7538284D02*
X5889284Y-7481715D01*
X5832715Y-7481715D01*
X5832715Y-7538284D01*
X5889284Y-7538284D01*
X5889284Y-7818284D02*
X5889284Y-7761715D01*
X5832715Y-7761715D01*
X5832715Y-7818284D01*
X5889284Y-7818284D01*
X5889284Y-8108284D02*
X5889284Y-8051715D01*
X5832715Y-8051715D01*
X5832715Y-8108284D01*
X5889284Y-8108284D01*
X5899284Y-6518284D02*
X5899284Y-6461715D01*
X5842715Y-6461715D01*
X5842715Y-6518284D01*
X5899284Y-6518284D01*
X5900284Y-8448285D02*
X5900284Y-8391716D01*
X5843715Y-8391716D01*
X5843715Y-8448285D01*
X5900284Y-8448285D01*
X6857284Y-8128284D02*
X6857284Y-8071715D01*
X6800715Y-8071715D01*
X6800715Y-8128284D01*
X6857284Y-8128284D01*
X6858284Y-8428285D02*
X6858284Y-8371715D01*
X6801715Y-8371715D01*
X6801715Y-8428285D01*
X6858284Y-8428285D01*
X6864284Y-11843284D02*
X6864284Y-11786715D01*
X6807715Y-11786715D01*
X6807715Y-11843284D01*
X6864284Y-11843284D01*
X6865284Y-12548284D02*
X6865284Y-12491715D01*
X6808715Y-12491715D01*
X6808715Y-12548284D01*
X6865284Y-12548284D01*
X6866284Y-10538285D02*
X6866284Y-10481716D01*
X6809715Y-10481716D01*
X6809715Y-10538285D01*
X6866284Y-10538285D01*
X6866284Y-11238284D02*
X6866284Y-11181716D01*
X6809715Y-11181716D01*
X6809715Y-11238284D01*
X6866284Y-11238284D01*
X6867284Y-6528284D02*
X6867284Y-6471715D01*
X6810715Y-6471715D01*
X6810715Y-6528284D01*
X6867284Y-6528284D01*
X6867284Y-9328285D02*
X6867284Y-9271716D01*
X6810715Y-9271716D01*
X6810715Y-9328285D01*
X6867284Y-9328285D01*
X6867284Y-9928285D02*
X6867284Y-9871716D01*
X6810715Y-9871716D01*
X6810715Y-9928285D01*
X6867284Y-9928285D01*
X6887284Y-7228284D02*
X6887284Y-7171715D01*
X6830715Y-7171715D01*
X6830715Y-7228284D01*
X6887284Y-7228284D01*
X6988284Y-9628285D02*
X6988284Y-9571716D01*
X6931715Y-9571716D01*
X6931715Y-9628285D01*
X6988284Y-9628285D01*
X6998284Y-9028285D02*
X6998284Y-8971716D01*
X6941715Y-8971716D01*
X6941715Y-9028285D01*
X6998284Y-9028285D01*
X6999284Y-8728285D02*
X6999284Y-8671716D01*
X6942715Y-8671716D01*
X6942715Y-8728285D01*
X6999284Y-8728285D01*
X7007284Y-5898284D02*
X7007284Y-5841715D01*
X6950715Y-5841715D01*
X6950715Y-5898284D01*
X7007284Y-5898284D01*
X7007284Y-6208284D02*
X7007284Y-6151715D01*
X6950715Y-6151715D01*
X6950715Y-6208284D01*
X7007284Y-6208284D01*
X7008284Y-5278285D02*
X7008284Y-5221716D01*
X6951715Y-5221716D01*
X6951715Y-5278285D01*
X7008284Y-5278285D01*
X7008284Y-5588285D02*
X7008284Y-5531716D01*
X6951715Y-5531716D01*
X6951715Y-5588285D01*
X7008284Y-5588285D01*
X7018284Y-6878284D02*
X7018284Y-6821715D01*
X6961715Y-6821715D01*
X6961715Y-6878284D01*
X7018284Y-6878284D01*
X7018284Y-7528284D02*
X7018284Y-7471715D01*
X6961715Y-7471715D01*
X6961715Y-7528284D01*
X7018284Y-7528284D01*
X7018284Y-7828284D02*
X7018284Y-7771715D01*
X6961715Y-7771715D01*
X6961715Y-7828284D01*
X7018284Y-7828284D01*
X7106284Y-12198284D02*
X7106284Y-12141715D01*
X7049715Y-12141715D01*
X7049715Y-12198284D01*
X7106284Y-12198284D01*
X7108284Y-10888285D02*
X7108284Y-10831716D01*
X7051715Y-10831716D01*
X7051715Y-10888285D01*
X7108284Y-10888285D01*
X7115284Y-11538284D02*
X7115284Y-11481715D01*
X7058715Y-11481715D01*
X7058715Y-11538284D01*
X7115284Y-11538284D01*
X7468284Y-12918284D02*
X7468284Y-12861715D01*
X7411715Y-12861715D01*
X7411715Y-12918284D01*
X7468284Y-12918284D01*
X7468284Y-13118284D02*
X7468284Y-13061715D01*
X7411715Y-13061715D01*
X7411715Y-13118284D01*
X7468284Y-13118284D01*
X7488284Y-9628285D02*
X7488284Y-9571716D01*
X7431715Y-9571716D01*
X7431715Y-9628285D01*
X7488284Y-9628285D01*
X7498284Y-9028285D02*
X7498284Y-8971716D01*
X7441715Y-8971716D01*
X7441715Y-9028285D01*
X7498284Y-9028285D01*
X7499284Y-8728285D02*
X7499284Y-8671716D01*
X7442715Y-8671716D01*
X7442715Y-8728285D01*
X7499284Y-8728285D01*
X7518284Y-6878284D02*
X7518284Y-6821715D01*
X7461715Y-6821715D01*
X7461715Y-6878284D01*
X7518284Y-6878284D01*
X7518284Y-7528284D02*
X7518284Y-7471715D01*
X7461715Y-7471715D01*
X7461715Y-7528284D01*
X7518284Y-7528284D01*
X7518284Y-7828284D02*
X7518284Y-7771715D01*
X7461715Y-7771715D01*
X7461715Y-7828284D01*
X7518284Y-7828284D01*
X7598284Y-4498285D02*
X7598284Y-4441716D01*
X7541715Y-4441716D01*
X7541715Y-4498285D01*
X7598284Y-4498285D01*
X7598284Y-4998285D02*
X7598284Y-4941716D01*
X7541715Y-4941716D01*
X7541715Y-4998285D01*
X7598284Y-4998285D01*
X7606284Y-12198284D02*
X7606284Y-12141715D01*
X7549715Y-12141715D01*
X7549715Y-12198284D01*
X7606284Y-12198284D01*
X7608284Y-10888285D02*
X7608284Y-10831716D01*
X7551715Y-10831716D01*
X7551715Y-10888285D01*
X7608284Y-10888285D01*
X7615284Y-11538284D02*
X7615284Y-11481715D01*
X7558715Y-11481715D01*
X7558715Y-11538284D01*
X7615284Y-11538284D01*
X7619284Y-8128284D02*
X7619284Y-8071715D01*
X7562715Y-8071715D01*
X7562715Y-8128284D01*
X7619284Y-8128284D01*
X7620284Y-8428285D02*
X7620284Y-8371715D01*
X7563715Y-8371715D01*
X7563715Y-8428285D01*
X7620284Y-8428285D01*
X7626284Y-11843284D02*
X7626284Y-11786715D01*
X7569715Y-11786715D01*
X7569715Y-11843284D01*
X7626284Y-11843284D01*
X7627284Y-12548284D02*
X7627284Y-12491715D01*
X7570715Y-12491715D01*
X7570715Y-12548284D01*
X7627284Y-12548284D01*
X7628284Y-10538285D02*
X7628284Y-10481716D01*
X7571715Y-10481716D01*
X7571715Y-10538285D01*
X7628284Y-10538285D01*
X7628284Y-11238284D02*
X7628284Y-11181716D01*
X7571715Y-11181716D01*
X7571715Y-11238284D01*
X7628284Y-11238284D01*
X7629284Y-6528284D02*
X7629284Y-6471715D01*
X7572715Y-6471715D01*
X7572715Y-6528284D01*
X7629284Y-6528284D01*
X7629284Y-9328285D02*
X7629284Y-9271716D01*
X7572715Y-9271716D01*
X7572715Y-9328285D01*
X7629284Y-9328285D01*
X7629284Y-9928285D02*
X7629284Y-9871716D01*
X7572715Y-9871716D01*
X7572715Y-9928285D01*
X7629284Y-9928285D01*
X7649284Y-7228284D02*
X7649284Y-7171715D01*
X7592715Y-7171715D01*
X7592715Y-7228284D01*
X7649284Y-7228284D01*
X7769284Y-5898284D02*
X7769284Y-5841715D01*
X7712715Y-5841715D01*
X7712715Y-5898284D01*
X7769284Y-5898284D01*
X7769284Y-6208284D02*
X7769284Y-6151715D01*
X7712715Y-6151715D01*
X7712715Y-6208284D01*
X7769284Y-6208284D01*
X7770284Y-5278285D02*
X7770284Y-5221716D01*
X7713715Y-5221716D01*
X7713715Y-5278285D01*
X7770284Y-5278285D01*
X7770284Y-5588285D02*
X7770284Y-5531716D01*
X7713715Y-5531716D01*
X7713715Y-5588285D01*
X7770284Y-5588285D01*
X7895284Y-10775785D02*
X7895284Y-10719216D01*
X7838715Y-10719216D01*
X7838715Y-10775785D01*
X7895284Y-10775785D01*
X7895284Y-11029785D02*
X7895284Y-10973216D01*
X7838715Y-10973216D01*
X7838715Y-11029785D01*
X7895284Y-11029785D01*
X7895284Y-11283784D02*
X7895284Y-11227215D01*
X7838715Y-11227215D01*
X7838715Y-11283784D01*
X7895284Y-11283784D01*
X7895284Y-11537784D02*
X7895284Y-11481215D01*
X7838715Y-11481215D01*
X7838715Y-11537784D01*
X7895284Y-11537784D01*
X7895284Y-11791784D02*
X7895284Y-11735215D01*
X7838715Y-11735215D01*
X7838715Y-11791784D01*
X7895284Y-11791784D01*
X7895284Y-12045784D02*
X7895284Y-11989215D01*
X7838715Y-11989215D01*
X7838715Y-12045784D01*
X7895284Y-12045784D01*
X7895284Y-12299784D02*
X7895284Y-12243215D01*
X7838715Y-12243215D01*
X7838715Y-12299784D01*
X7895284Y-12299784D01*
X7896284Y-8234284D02*
X7896284Y-8177715D01*
X7839715Y-8177715D01*
X7839715Y-8234284D01*
X7896284Y-8234284D01*
X7896284Y-8488285D02*
X7896284Y-8431716D01*
X7839715Y-8431716D01*
X7839715Y-8488285D01*
X7896284Y-8488285D01*
X7896284Y-8742285D02*
X7896284Y-8685716D01*
X7839715Y-8685716D01*
X7839715Y-8742285D01*
X7896284Y-8742285D01*
X7896284Y-8996285D02*
X7896284Y-8939716D01*
X7839715Y-8939716D01*
X7839715Y-8996285D01*
X7896284Y-8996285D01*
X7896284Y-9250285D02*
X7896284Y-9193716D01*
X7839715Y-9193716D01*
X7839715Y-9250285D01*
X7896284Y-9250285D01*
X7896284Y-9504285D02*
X7896284Y-9447716D01*
X7839715Y-9447716D01*
X7839715Y-9504285D01*
X7896284Y-9504285D01*
X7896284Y-9758285D02*
X7896284Y-9701716D01*
X7839715Y-9701716D01*
X7839715Y-9758285D01*
X7896284Y-9758285D01*
X7897284Y-10088285D02*
X7897284Y-10031716D01*
X7840715Y-10031716D01*
X7840715Y-10088285D01*
X7897284Y-10088285D01*
X8038284Y-5008285D02*
X8038284Y-4951716D01*
X7981715Y-4951716D01*
X7981715Y-5008285D01*
X8038284Y-5008285D01*
X8038284Y-5770284D02*
X8038284Y-5713715D01*
X7981715Y-5713715D01*
X7981715Y-5770284D01*
X8038284Y-5770284D01*
X8038284Y-10458285D02*
X8038284Y-10401716D01*
X7981715Y-10401716D01*
X7981715Y-10458285D01*
X8038284Y-10458285D01*
X8178284Y-7908284D02*
X8178284Y-7851715D01*
X8121715Y-7851715D01*
X8121715Y-7908284D01*
X8178284Y-7908284D01*
X8348284Y-3516284D02*
X8348284Y-3459715D01*
X8291715Y-3459715D01*
X8291715Y-3516284D01*
X8348284Y-3516284D01*
X8348284Y-4278285D02*
X8348284Y-4221716D01*
X8291715Y-4221716D01*
X8291715Y-4278285D01*
X8348284Y-4278285D01*
X8348284Y-5078285D02*
X8348284Y-5021716D01*
X8291715Y-5021716D01*
X8291715Y-5078285D01*
X8348284Y-5078285D01*
X8348284Y-5578285D02*
X8348284Y-5521716D01*
X8291715Y-5521716D01*
X8291715Y-5578285D01*
X8348284Y-5578285D01*
X8478285Y-6468284D02*
X8478285Y-6411715D01*
X8421716Y-6411715D01*
X8421716Y-6468284D01*
X8478285Y-6468284D01*
X8488285Y-12918284D02*
X8488285Y-12861715D01*
X8431716Y-12861715D01*
X8431716Y-12918284D01*
X8488285Y-12918284D01*
X8488285Y-13118284D02*
X8488285Y-13061715D01*
X8431716Y-13061715D01*
X8431716Y-13118284D01*
X8488285Y-13118284D01*
X8538285Y-10458285D02*
X8538285Y-10401716D01*
X8481716Y-10401716D01*
X8481716Y-10458285D01*
X8538285Y-10458285D01*
X8648285Y-3516284D02*
X8648285Y-3459715D01*
X8591716Y-3459715D01*
X8591716Y-3516284D01*
X8648285Y-3516284D01*
X8648285Y-4278285D02*
X8648285Y-4221716D01*
X8591716Y-4221716D01*
X8591716Y-4278285D01*
X8648285Y-4278285D01*
X8657285Y-10775785D02*
X8657285Y-10719216D01*
X8600716Y-10719216D01*
X8600716Y-10775785D01*
X8657285Y-10775785D01*
X8657285Y-11029785D02*
X8657285Y-10973216D01*
X8600716Y-10973216D01*
X8600716Y-11029785D01*
X8657285Y-11029785D01*
X8657285Y-11283784D02*
X8657285Y-11227215D01*
X8600716Y-11227215D01*
X8600716Y-11283784D01*
X8657285Y-11283784D01*
X8657285Y-11537784D02*
X8657285Y-11481215D01*
X8600716Y-11481215D01*
X8600716Y-11537784D01*
X8657285Y-11537784D01*
X8657285Y-11791784D02*
X8657285Y-11735215D01*
X8600716Y-11735215D01*
X8600716Y-11791784D01*
X8657285Y-11791784D01*
X8657285Y-12045784D02*
X8657285Y-11989215D01*
X8600716Y-11989215D01*
X8600716Y-12045784D01*
X8657285Y-12045784D01*
X8657285Y-12299784D02*
X8657285Y-12243215D01*
X8600716Y-12243215D01*
X8600716Y-12299784D01*
X8657285Y-12299784D01*
X8658285Y-5078285D02*
X8658285Y-5021716D01*
X8601716Y-5021716D01*
X8601716Y-5078285D01*
X8658285Y-5078285D01*
X8658285Y-5578285D02*
X8658285Y-5521716D01*
X8601716Y-5521716D01*
X8601716Y-5578285D01*
X8658285Y-5578285D01*
X8658285Y-8234284D02*
X8658285Y-8177715D01*
X8601716Y-8177715D01*
X8601716Y-8234284D01*
X8658285Y-8234284D01*
X8658285Y-8488285D02*
X8658285Y-8431716D01*
X8601716Y-8431716D01*
X8601716Y-8488285D01*
X8658285Y-8488285D01*
X8658285Y-8742285D02*
X8658285Y-8685716D01*
X8601716Y-8685716D01*
X8601716Y-8742285D01*
X8658285Y-8742285D01*
X8658285Y-8996285D02*
X8658285Y-8939716D01*
X8601716Y-8939716D01*
X8601716Y-8996285D01*
X8658285Y-8996285D01*
X8658285Y-9250285D02*
X8658285Y-9193716D01*
X8601716Y-9193716D01*
X8601716Y-9250285D01*
X8658285Y-9250285D01*
X8658285Y-9504285D02*
X8658285Y-9447716D01*
X8601716Y-9447716D01*
X8601716Y-9504285D01*
X8658285Y-9504285D01*
X8658285Y-9758285D02*
X8658285Y-9701716D01*
X8601716Y-9701716D01*
X8601716Y-9758285D01*
X8658285Y-9758285D01*
X8659285Y-10088285D02*
X8659285Y-10031716D01*
X8602716Y-10031716D01*
X8602716Y-10088285D01*
X8659285Y-10088285D01*
X8678285Y-6468284D02*
X8678285Y-6411715D01*
X8621716Y-6411715D01*
X8621716Y-6468284D01*
X8678285Y-6468284D01*
X8678285Y-7908284D02*
X8678285Y-7851715D01*
X8621716Y-7851715D01*
X8621716Y-7908284D01*
X8678285Y-7908284D01*
X8717285Y-12618284D02*
X8717285Y-12561715D01*
X8660716Y-12561715D01*
X8660716Y-12618284D01*
X8717285Y-12618284D01*
X8908285Y-3608284D02*
X8908285Y-3551715D01*
X8851716Y-3551715D01*
X8851716Y-3608284D01*
X8908285Y-3608284D01*
X8908285Y-3918284D02*
X8908285Y-3861715D01*
X8851716Y-3861715D01*
X8851716Y-3918284D01*
X8908285Y-3918284D01*
X8917285Y-10538285D02*
X8917285Y-10481716D01*
X8860716Y-10481716D01*
X8860716Y-10538285D01*
X8917285Y-10538285D01*
X8917285Y-11238284D02*
X8917285Y-11181716D01*
X8860716Y-11181716D01*
X8860716Y-11238284D01*
X8917285Y-11238284D01*
X8917285Y-11848284D02*
X8917285Y-11791715D01*
X8860716Y-11791715D01*
X8860716Y-11848284D01*
X8917285Y-11848284D01*
X8926285Y-5288285D02*
X8926285Y-5231716D01*
X8869716Y-5231716D01*
X8869716Y-5288285D01*
X8926285Y-5288285D01*
X8926285Y-7883284D02*
X8926285Y-7826715D01*
X8869716Y-7826715D01*
X8869716Y-7883284D01*
X8926285Y-7883284D01*
X8926285Y-9898285D02*
X8926285Y-9841716D01*
X8869716Y-9841716D01*
X8869716Y-9898285D01*
X8926285Y-9898285D01*
X8927285Y-7178284D02*
X8927285Y-7121715D01*
X8870716Y-7121715D01*
X8870716Y-7178284D01*
X8927285Y-7178284D01*
X8927285Y-8188284D02*
X8927285Y-8131715D01*
X8870716Y-8131715D01*
X8870716Y-8188284D01*
X8927285Y-8188284D01*
X8928285Y-4998285D02*
X8928285Y-4941716D01*
X8871716Y-4941716D01*
X8871716Y-4998285D01*
X8928285Y-4998285D01*
X8928285Y-5598284D02*
X8928285Y-5541716D01*
X8871716Y-5541716D01*
X8871716Y-5598284D01*
X8928285Y-5598284D01*
X8928285Y-10198285D02*
X8928285Y-10141716D01*
X8871716Y-10141716D01*
X8871716Y-10198285D01*
X8928285Y-10198285D01*
X8935285Y-11538284D02*
X8935285Y-11481715D01*
X8878716Y-11481715D01*
X8878716Y-11538284D01*
X8935285Y-11538284D01*
X8938285Y-10888285D02*
X8938285Y-10831716D01*
X8881716Y-10831716D01*
X8881716Y-10888285D01*
X8938285Y-10888285D01*
X8938285Y-12208284D02*
X8938285Y-12151715D01*
X8881716Y-12151715D01*
X8881716Y-12208284D01*
X8938285Y-12208284D01*
X8948285Y-8493285D02*
X8948285Y-8436716D01*
X8891716Y-8436716D01*
X8891716Y-8493285D01*
X8948285Y-8493285D01*
X8948285Y-8798285D02*
X8948285Y-8741716D01*
X8891716Y-8741716D01*
X8891716Y-8798285D01*
X8948285Y-8798285D01*
X8948285Y-9148285D02*
X8948285Y-9091716D01*
X8891716Y-9091716D01*
X8891716Y-9148285D01*
X8948285Y-9148285D01*
X8948285Y-9548285D02*
X8948285Y-9491716D01*
X8891716Y-9491716D01*
X8891716Y-9548285D01*
X8948285Y-9548285D01*
X9023796Y-6218284D02*
X9023796Y-6161715D01*
X8967227Y-6161715D01*
X8967227Y-6218284D01*
X9023796Y-6218284D01*
X9023796Y-6718284D02*
X9023796Y-6661715D01*
X8967227Y-6661715D01*
X8967227Y-6718284D01*
X9023796Y-6718284D01*
X9039285Y-4218285D02*
X9039285Y-4161715D01*
X8982716Y-4161715D01*
X8982716Y-4218285D01*
X9039285Y-4218285D01*
X9048285Y-7528284D02*
X9048285Y-7471715D01*
X8991716Y-7471715D01*
X8991716Y-7528284D01*
X9048285Y-7528284D01*
X9435285Y-11538284D02*
X9435285Y-11481715D01*
X9378716Y-11481715D01*
X9378716Y-11538284D01*
X9435285Y-11538284D01*
X9438285Y-10888285D02*
X9438285Y-10831716D01*
X9381716Y-10831716D01*
X9381716Y-10888285D01*
X9438285Y-10888285D01*
X9438285Y-12208284D02*
X9438285Y-12151715D01*
X9381716Y-12151715D01*
X9381716Y-12208284D01*
X9438285Y-12208284D01*
X9448285Y-8493285D02*
X9448285Y-8436716D01*
X9391716Y-8436716D01*
X9391716Y-8493285D01*
X9448285Y-8493285D01*
X9448285Y-8798285D02*
X9448285Y-8741716D01*
X9391716Y-8741716D01*
X9391716Y-8798285D01*
X9448285Y-8798285D01*
X9448285Y-9148285D02*
X9448285Y-9091716D01*
X9391716Y-9091716D01*
X9391716Y-9148285D01*
X9448285Y-9148285D01*
X9448285Y-9548285D02*
X9448285Y-9491716D01*
X9391716Y-9491716D01*
X9391716Y-9548285D01*
X9448285Y-9548285D01*
X9479285Y-12618284D02*
X9479285Y-12561715D01*
X9422716Y-12561715D01*
X9422716Y-12618284D01*
X9479285Y-12618284D01*
X9539285Y-4218285D02*
X9539285Y-4161715D01*
X9482716Y-4161715D01*
X9482716Y-4218285D01*
X9539285Y-4218285D01*
X9548285Y-7528284D02*
X9548285Y-7471715D01*
X9491716Y-7471715D01*
X9491716Y-7528284D01*
X9548285Y-7528284D01*
X9670285Y-3608284D02*
X9670285Y-3551715D01*
X9613716Y-3551715D01*
X9613716Y-3608284D01*
X9670285Y-3608284D01*
X9670285Y-3918284D02*
X9670285Y-3861715D01*
X9613716Y-3861715D01*
X9613716Y-3918284D01*
X9670285Y-3918284D01*
X9679285Y-10538285D02*
X9679285Y-10481716D01*
X9622716Y-10481716D01*
X9622716Y-10538285D01*
X9679285Y-10538285D01*
X9679285Y-11238284D02*
X9679285Y-11181716D01*
X9622716Y-11181716D01*
X9622716Y-11238284D01*
X9679285Y-11238284D01*
X9679285Y-11848284D02*
X9679285Y-11791715D01*
X9622716Y-11791715D01*
X9622716Y-11848284D01*
X9679285Y-11848284D01*
X9688285Y-5288285D02*
X9688285Y-5231716D01*
X9631716Y-5231716D01*
X9631716Y-5288285D01*
X9688285Y-5288285D01*
X9688285Y-7883284D02*
X9688285Y-7826715D01*
X9631716Y-7826715D01*
X9631716Y-7883284D01*
X9688285Y-7883284D01*
X9688285Y-9898285D02*
X9688285Y-9841716D01*
X9631716Y-9841716D01*
X9631716Y-9898285D01*
X9688285Y-9898285D01*
X9689285Y-7178284D02*
X9689285Y-7121715D01*
X9632716Y-7121715D01*
X9632716Y-7178284D01*
X9689285Y-7178284D01*
X9689285Y-8188284D02*
X9689285Y-8131715D01*
X9632716Y-8131715D01*
X9632716Y-8188284D01*
X9689285Y-8188284D01*
X9690285Y-4998285D02*
X9690285Y-4941716D01*
X9633716Y-4941716D01*
X9633716Y-4998285D01*
X9690285Y-4998285D01*
X9690285Y-5598284D02*
X9690285Y-5541716D01*
X9633716Y-5541716D01*
X9633716Y-5598284D01*
X9690285Y-5598284D01*
X9690285Y-10198285D02*
X9690285Y-10141716D01*
X9633716Y-10141716D01*
X9633716Y-10198285D01*
X9690285Y-10198285D01*
X6200000Y-13380000D02*
X6250000Y-13330000D01*
X6200000Y-13280000D01*
X6150000Y-13330000D01*
X6200000Y-13380000D01*
X6200000Y-13634000D02*
X6250000Y-13584000D01*
X6200000Y-13534000D01*
X6150000Y-13584000D01*
X6200000Y-13634000D01*
X6200000Y-13888000D02*
X6250000Y-13838000D01*
X6200000Y-13788000D01*
X6150000Y-13838000D01*
X6200000Y-13888000D01*
X6200000Y-14142000D02*
X6250000Y-14092000D01*
X6200000Y-14042000D01*
X6150000Y-14092000D01*
X6200000Y-14142000D01*
X6340000Y-4260000D02*
X6390000Y-4210000D01*
X6340000Y-4160000D01*
X6290000Y-4210000D01*
X6340000Y-4260000D01*
X6340000Y-4514000D02*
X6390000Y-4464000D01*
X6340000Y-4414000D01*
X6290000Y-4464000D01*
X6340000Y-4514000D01*
X6340000Y-4768000D02*
X6390000Y-4718000D01*
X6340000Y-4668000D01*
X6290000Y-4718000D01*
X6340000Y-4768000D01*
X6340000Y-5022000D02*
X6390000Y-4972000D01*
X6340000Y-4922000D01*
X6290000Y-4972000D01*
X6340000Y-5022000D01*
X6340000Y-5276000D02*
X6390000Y-5226000D01*
X6340000Y-5176000D01*
X6290000Y-5226000D01*
X6340000Y-5276000D01*
X6340000Y-5530000D02*
X6390000Y-5480000D01*
X6340000Y-5430000D01*
X6290000Y-5480000D01*
X6340000Y-5530000D01*
X6340000Y-5784000D02*
X6390000Y-5734000D01*
X6340000Y-5684000D01*
X6290000Y-5734000D01*
X6340000Y-5784000D01*
X6340000Y-6038000D02*
X6390000Y-5988000D01*
X6340000Y-5938000D01*
X6290000Y-5988000D01*
X6340000Y-6038000D01*
X6340000Y-6292000D02*
X6390000Y-6242000D01*
X6340000Y-6192000D01*
X6290000Y-6242000D01*
X6340000Y-6292000D01*
X6340000Y-6546000D02*
X6390000Y-6496000D01*
X6340000Y-6446000D01*
X6290000Y-6496000D01*
X6340000Y-6546000D01*
X6340000Y-6800000D02*
X6390000Y-6750000D01*
X6340000Y-6700000D01*
X6290000Y-6750000D01*
X6340000Y-6800000D01*
X6340000Y-7054000D02*
X6390000Y-7004000D01*
X6340000Y-6954000D01*
X6290000Y-7004000D01*
X6340000Y-7054000D01*
X6340000Y-8230000D02*
X6390000Y-8180000D01*
X6340000Y-8130000D01*
X6290000Y-8180000D01*
X6340000Y-8230000D01*
X6340000Y-8484000D02*
X6390000Y-8434000D01*
X6340000Y-8384000D01*
X6290000Y-8434000D01*
X6340000Y-8484000D01*
X6340000Y-8738000D02*
X6390000Y-8688000D01*
X6340000Y-8638000D01*
X6290000Y-8688000D01*
X6340000Y-8738000D01*
X6340000Y-8992000D02*
X6390000Y-8942000D01*
X6340000Y-8892000D01*
X6290000Y-8942000D01*
X6340000Y-8992000D01*
X6340000Y-9246000D02*
X6390000Y-9196000D01*
X6340000Y-9146000D01*
X6290000Y-9196000D01*
X6340000Y-9246000D01*
X6340000Y-9500000D02*
X6390000Y-9450000D01*
X6340000Y-9400000D01*
X6290000Y-9450000D01*
X6340000Y-9500000D01*
X6340000Y-9754000D02*
X6390000Y-9704000D01*
X6340000Y-9654000D01*
X6290000Y-9704000D01*
X6340000Y-9754000D01*
X6340000Y-10008000D02*
X6390000Y-9958000D01*
X6340000Y-9908000D01*
X6290000Y-9958000D01*
X6340000Y-10008000D01*
X6340000Y-10262000D02*
X6390000Y-10212000D01*
X6340000Y-10162000D01*
X6290000Y-10212000D01*
X6340000Y-10262000D01*
X6340000Y-10516000D02*
X6390000Y-10466000D01*
X6340000Y-10416000D01*
X6290000Y-10466000D01*
X6340000Y-10516000D01*
X6340000Y-10770000D02*
X6390000Y-10720000D01*
X6340000Y-10670000D01*
X6290000Y-10720000D01*
X6340000Y-10770000D01*
X6340000Y-11024000D02*
X6390000Y-10974000D01*
X6340000Y-10924000D01*
X6290000Y-10974000D01*
X6340000Y-11024000D01*
X7434000Y-13690000D02*
X7484000Y-13640000D01*
X7434000Y-13590000D01*
X7384000Y-13640000D01*
X7434000Y-13690000D01*
X7434000Y-13944000D02*
X7484000Y-13894000D01*
X7434000Y-13844000D01*
X7384000Y-13894000D01*
X7434000Y-13944000D01*
X7688000Y-13690000D02*
X7738000Y-13640000D01*
X7688000Y-13590000D01*
X7638000Y-13640000D01*
X7688000Y-13690000D01*
X7688000Y-13944000D02*
X7738000Y-13894000D01*
X7688000Y-13844000D01*
X7638000Y-13894000D01*
X7688000Y-13944000D01*
X7942000Y-13690000D02*
X7992000Y-13640000D01*
X7942000Y-13590000D01*
X7892000Y-13640000D01*
X7942000Y-13690000D01*
X7942000Y-13944000D02*
X7992000Y-13894000D01*
X7942000Y-13844000D01*
X7892000Y-13894000D01*
X7942000Y-13944000D01*
X8196000Y-13690000D02*
X8246000Y-13640000D01*
X8196000Y-13590000D01*
X8146000Y-13640000D01*
X8196000Y-13690000D01*
X8196000Y-13944000D02*
X8246000Y-13894000D01*
X8196000Y-13844000D01*
X8146000Y-13894000D01*
X8196000Y-13944000D01*
X8450000Y-13690000D02*
X8500000Y-13640000D01*
X8450000Y-13590000D01*
X8400000Y-13640000D01*
X8450000Y-13690000D01*
X8450000Y-13944000D02*
X8500000Y-13894000D01*
X8450000Y-13844000D01*
X8400000Y-13894000D01*
X8450000Y-13944000D01*
D13*
X9449511Y-6161000D02*
X9559511Y-6271000D01*
X9559511Y-6161000D02*
X9449511Y-6271000D01*
X9559511Y-6216000D02*
G75*
G02*
X9449511Y-6216000I-55000J0D01*
G01*
X9449511Y-6216000D02*
G75*
G02*
X9559511Y-6216000I55000J0D01*
G01*
X9449511Y-6415000D02*
X9559511Y-6525000D01*
X9559511Y-6415000D02*
X9449511Y-6525000D01*
X9559511Y-6470000D02*
G75*
G02*
X9449511Y-6470000I-55000J0D01*
G01*
X9449511Y-6470000D02*
G75*
G02*
X9559511Y-6470000I55000J0D01*
G01*
X9449511Y-6669000D02*
X9559511Y-6779000D01*
X9559511Y-6669000D02*
X9449511Y-6779000D01*
X9559511Y-6724000D02*
G75*
G02*
X9449511Y-6724000I-55000J0D01*
G01*
X9449511Y-6724000D02*
G75*
G02*
X9559511Y-6724000I55000J0D01*
G01*
D11*
X5048277Y-14693984D02*
X5048277Y-14493984D01*
X5048277Y-14493984D02*
X5095896Y-14493984D01*
X5095896Y-14493984D02*
X5124467Y-14503508D01*
X5124467Y-14503508D02*
X5143515Y-14522555D01*
X5143515Y-14522555D02*
X5153039Y-14541603D01*
X5153039Y-14541603D02*
X5162563Y-14579698D01*
X5162563Y-14579698D02*
X5162563Y-14608269D01*
X5162563Y-14608269D02*
X5153039Y-14646365D01*
X5153039Y-14646365D02*
X5143515Y-14665412D01*
X5143515Y-14665412D02*
X5124467Y-14684460D01*
X5124467Y-14684460D02*
X5095896Y-14693984D01*
X5095896Y-14693984D02*
X5048277Y-14693984D01*
X5248277Y-14693984D02*
X5248277Y-14560650D01*
X5248277Y-14598746D02*
X5257801Y-14579698D01*
X5257801Y-14579698D02*
X5267324Y-14570174D01*
X5267324Y-14570174D02*
X5286372Y-14560650D01*
X5286372Y-14560650D02*
X5305420Y-14560650D01*
X5372086Y-14693984D02*
X5372086Y-14560650D01*
X5372086Y-14493984D02*
X5362563Y-14503508D01*
X5362563Y-14503508D02*
X5372086Y-14513031D01*
X5372086Y-14513031D02*
X5381610Y-14503508D01*
X5381610Y-14503508D02*
X5372086Y-14493984D01*
X5372086Y-14493984D02*
X5372086Y-14513031D01*
X5495896Y-14693984D02*
X5476848Y-14684460D01*
X5476848Y-14684460D02*
X5467324Y-14665412D01*
X5467324Y-14665412D02*
X5467324Y-14493984D01*
X5600658Y-14693984D02*
X5581610Y-14684460D01*
X5581610Y-14684460D02*
X5572086Y-14665412D01*
X5572086Y-14665412D02*
X5572086Y-14493984D01*
X5829229Y-14693984D02*
X5829229Y-14493984D01*
X5829229Y-14493984D02*
X5895896Y-14636841D01*
X5895896Y-14636841D02*
X5962562Y-14493984D01*
X5962562Y-14493984D02*
X5962562Y-14693984D01*
X6143515Y-14693984D02*
X6143515Y-14589222D01*
X6143515Y-14589222D02*
X6133991Y-14570174D01*
X6133991Y-14570174D02*
X6114943Y-14560650D01*
X6114943Y-14560650D02*
X6076848Y-14560650D01*
X6076848Y-14560650D02*
X6057801Y-14570174D01*
X6143515Y-14684460D02*
X6124467Y-14693984D01*
X6124467Y-14693984D02*
X6076848Y-14693984D01*
X6076848Y-14693984D02*
X6057801Y-14684460D01*
X6057801Y-14684460D02*
X6048277Y-14665412D01*
X6048277Y-14665412D02*
X6048277Y-14646365D01*
X6048277Y-14646365D02*
X6057801Y-14627317D01*
X6057801Y-14627317D02*
X6076848Y-14617793D01*
X6076848Y-14617793D02*
X6124467Y-14617793D01*
X6124467Y-14617793D02*
X6143515Y-14608269D01*
X6238753Y-14560650D02*
X6238753Y-14760650D01*
X6238753Y-14570174D02*
X6257801Y-14560650D01*
X6257801Y-14560650D02*
X6295896Y-14560650D01*
X6295896Y-14560650D02*
X6314943Y-14570174D01*
X6314943Y-14570174D02*
X6324467Y-14579698D01*
X6324467Y-14579698D02*
X6333991Y-14598746D01*
X6333991Y-14598746D02*
X6333991Y-14655888D01*
X6333991Y-14655888D02*
X6324467Y-14674936D01*
X6324467Y-14674936D02*
X6314943Y-14684460D01*
X6314943Y-14684460D02*
X6295896Y-14693984D01*
X6295896Y-14693984D02*
X6257801Y-14693984D01*
X6257801Y-14693984D02*
X6238753Y-14684460D01*
X6419705Y-14674936D02*
X6429229Y-14684460D01*
X6429229Y-14684460D02*
X6419705Y-14693984D01*
X6419705Y-14693984D02*
X6410182Y-14684460D01*
X6410182Y-14684460D02*
X6419705Y-14674936D01*
X6419705Y-14674936D02*
X6419705Y-14693984D01*
X6419705Y-14570174D02*
X6429229Y-14579698D01*
X6429229Y-14579698D02*
X6419705Y-14589222D01*
X6419705Y-14589222D02*
X6410182Y-14579698D01*
X6410182Y-14579698D02*
X6419705Y-14570174D01*
X6419705Y-14570174D02*
X6419705Y-14589222D01*
D12*
X4747500Y-15002500D02*
X4787500Y-15042500D01*
X4787500Y-15002500D02*
X4747500Y-15042500D01*
D11*
X5086372Y-14913984D02*
X5105420Y-14913984D01*
X5105420Y-14913984D02*
X5124467Y-14923508D01*
X5124467Y-14923508D02*
X5133991Y-14933031D01*
X5133991Y-14933031D02*
X5143515Y-14952079D01*
X5143515Y-14952079D02*
X5153039Y-14990174D01*
X5153039Y-14990174D02*
X5153039Y-15037793D01*
X5153039Y-15037793D02*
X5143515Y-15075888D01*
X5143515Y-15075888D02*
X5133991Y-15094936D01*
X5133991Y-15094936D02*
X5124467Y-15104460D01*
X5124467Y-15104460D02*
X5105420Y-15113984D01*
X5105420Y-15113984D02*
X5086372Y-15113984D01*
X5086372Y-15113984D02*
X5067324Y-15104460D01*
X5067324Y-15104460D02*
X5057801Y-15094936D01*
X5057801Y-15094936D02*
X5048277Y-15075888D01*
X5048277Y-15075888D02*
X5038753Y-15037793D01*
X5038753Y-15037793D02*
X5038753Y-14990174D01*
X5038753Y-14990174D02*
X5048277Y-14952079D01*
X5048277Y-14952079D02*
X5057801Y-14933031D01*
X5057801Y-14933031D02*
X5067324Y-14923508D01*
X5067324Y-14923508D02*
X5086372Y-14913984D01*
X5238753Y-15094936D02*
X5248277Y-15104460D01*
X5248277Y-15104460D02*
X5238753Y-15113984D01*
X5238753Y-15113984D02*
X5229229Y-15104460D01*
X5229229Y-15104460D02*
X5238753Y-15094936D01*
X5238753Y-15094936D02*
X5238753Y-15113984D01*
X5419705Y-14980650D02*
X5419705Y-15113984D01*
X5372086Y-14904460D02*
X5324467Y-15047317D01*
X5324467Y-15047317D02*
X5448277Y-15047317D01*
X5562563Y-14913984D02*
X5581610Y-14913984D01*
X5581610Y-14913984D02*
X5600658Y-14923508D01*
X5600658Y-14923508D02*
X5610182Y-14933031D01*
X5610182Y-14933031D02*
X5619705Y-14952079D01*
X5619705Y-14952079D02*
X5629229Y-14990174D01*
X5629229Y-14990174D02*
X5629229Y-15037793D01*
X5629229Y-15037793D02*
X5619705Y-15075888D01*
X5619705Y-15075888D02*
X5610182Y-15094936D01*
X5610182Y-15094936D02*
X5600658Y-15104460D01*
X5600658Y-15104460D02*
X5581610Y-15113984D01*
X5581610Y-15113984D02*
X5562563Y-15113984D01*
X5562563Y-15113984D02*
X5543515Y-15104460D01*
X5543515Y-15104460D02*
X5533991Y-15094936D01*
X5533991Y-15094936D02*
X5524467Y-15075888D01*
X5524467Y-15075888D02*
X5514944Y-15037793D01*
X5514944Y-15037793D02*
X5514944Y-14990174D01*
X5514944Y-14990174D02*
X5524467Y-14952079D01*
X5524467Y-14952079D02*
X5533991Y-14933031D01*
X5533991Y-14933031D02*
X5543515Y-14923508D01*
X5543515Y-14923508D02*
X5562563Y-14913984D01*
X5753039Y-14913984D02*
X5772086Y-14913984D01*
X5772086Y-14913984D02*
X5791134Y-14923508D01*
X5791134Y-14923508D02*
X5800658Y-14933031D01*
X5800658Y-14933031D02*
X5810182Y-14952079D01*
X5810182Y-14952079D02*
X5819705Y-14990174D01*
X5819705Y-14990174D02*
X5819705Y-15037793D01*
X5819705Y-15037793D02*
X5810182Y-15075888D01*
X5810182Y-15075888D02*
X5800658Y-15094936D01*
X5800658Y-15094936D02*
X5791134Y-15104460D01*
X5791134Y-15104460D02*
X5772086Y-15113984D01*
X5772086Y-15113984D02*
X5753039Y-15113984D01*
X5753039Y-15113984D02*
X5733991Y-15104460D01*
X5733991Y-15104460D02*
X5724467Y-15094936D01*
X5724467Y-15094936D02*
X5714943Y-15075888D01*
X5714943Y-15075888D02*
X5705420Y-15037793D01*
X5705420Y-15037793D02*
X5705420Y-14990174D01*
X5705420Y-14990174D02*
X5714943Y-14952079D01*
X5714943Y-14952079D02*
X5724467Y-14933031D01*
X5724467Y-14933031D02*
X5733991Y-14923508D01*
X5733991Y-14923508D02*
X5753039Y-14913984D01*
X5905420Y-15113984D02*
X5905420Y-14980650D01*
X5905420Y-14999698D02*
X5914943Y-14990174D01*
X5914943Y-14990174D02*
X5933991Y-14980650D01*
X5933991Y-14980650D02*
X5962563Y-14980650D01*
X5962563Y-14980650D02*
X5981610Y-14990174D01*
X5981610Y-14990174D02*
X5991134Y-15009222D01*
X5991134Y-15009222D02*
X5991134Y-15113984D01*
X5991134Y-15009222D02*
X6000658Y-14990174D01*
X6000658Y-14990174D02*
X6019705Y-14980650D01*
X6019705Y-14980650D02*
X6048277Y-14980650D01*
X6048277Y-14980650D02*
X6067324Y-14990174D01*
X6067324Y-14990174D02*
X6076848Y-15009222D01*
X6076848Y-15009222D02*
X6076848Y-15113984D01*
X6172086Y-15113984D02*
X6172086Y-14980650D01*
X6172086Y-14999698D02*
X6181610Y-14990174D01*
X6181610Y-14990174D02*
X6200658Y-14980650D01*
X6200658Y-14980650D02*
X6229229Y-14980650D01*
X6229229Y-14980650D02*
X6248277Y-14990174D01*
X6248277Y-14990174D02*
X6257801Y-15009222D01*
X6257801Y-15009222D02*
X6257801Y-15113984D01*
X6257801Y-15009222D02*
X6267324Y-14990174D01*
X6267324Y-14990174D02*
X6286372Y-14980650D01*
X6286372Y-14980650D02*
X6314943Y-14980650D01*
X6314943Y-14980650D02*
X6333991Y-14990174D01*
X6333991Y-14990174D02*
X6343515Y-15009222D01*
X6343515Y-15009222D02*
X6343515Y-15113984D01*
X6733991Y-14904460D02*
X6562563Y-15161603D01*
X6991134Y-14913984D02*
X7010182Y-14913984D01*
X7010182Y-14913984D02*
X7029229Y-14923508D01*
X7029229Y-14923508D02*
X7038753Y-14933031D01*
X7038753Y-14933031D02*
X7048277Y-14952079D01*
X7048277Y-14952079D02*
X7057801Y-14990174D01*
X7057801Y-14990174D02*
X7057801Y-15037793D01*
X7057801Y-15037793D02*
X7048277Y-15075888D01*
X7048277Y-15075888D02*
X7038753Y-15094936D01*
X7038753Y-15094936D02*
X7029229Y-15104460D01*
X7029229Y-15104460D02*
X7010182Y-15113984D01*
X7010182Y-15113984D02*
X6991134Y-15113984D01*
X6991134Y-15113984D02*
X6972086Y-15104460D01*
X6972086Y-15104460D02*
X6962563Y-15094936D01*
X6962563Y-15094936D02*
X6953039Y-15075888D01*
X6953039Y-15075888D02*
X6943515Y-15037793D01*
X6943515Y-15037793D02*
X6943515Y-14990174D01*
X6943515Y-14990174D02*
X6953039Y-14952079D01*
X6953039Y-14952079D02*
X6962563Y-14933031D01*
X6962563Y-14933031D02*
X6972086Y-14923508D01*
X6972086Y-14923508D02*
X6991134Y-14913984D01*
X7143515Y-15094936D02*
X7153039Y-15104460D01*
X7153039Y-15104460D02*
X7143515Y-15113984D01*
X7143515Y-15113984D02*
X7133991Y-15104460D01*
X7133991Y-15104460D02*
X7143515Y-15094936D01*
X7143515Y-15094936D02*
X7143515Y-15113984D01*
X7276848Y-14913984D02*
X7295896Y-14913984D01*
X7295896Y-14913984D02*
X7314944Y-14923508D01*
X7314944Y-14923508D02*
X7324467Y-14933031D01*
X7324467Y-14933031D02*
X7333991Y-14952079D01*
X7333991Y-14952079D02*
X7343515Y-14990174D01*
X7343515Y-14990174D02*
X7343515Y-15037793D01*
X7343515Y-15037793D02*
X7333991Y-15075888D01*
X7333991Y-15075888D02*
X7324467Y-15094936D01*
X7324467Y-15094936D02*
X7314944Y-15104460D01*
X7314944Y-15104460D02*
X7295896Y-15113984D01*
X7295896Y-15113984D02*
X7276848Y-15113984D01*
X7276848Y-15113984D02*
X7257801Y-15104460D01*
X7257801Y-15104460D02*
X7248277Y-15094936D01*
X7248277Y-15094936D02*
X7238753Y-15075888D01*
X7238753Y-15075888D02*
X7229229Y-15037793D01*
X7229229Y-15037793D02*
X7229229Y-14990174D01*
X7229229Y-14990174D02*
X7238753Y-14952079D01*
X7238753Y-14952079D02*
X7248277Y-14933031D01*
X7248277Y-14933031D02*
X7257801Y-14923508D01*
X7257801Y-14923508D02*
X7276848Y-14913984D01*
X7533991Y-15113984D02*
X7419706Y-15113984D01*
X7476848Y-15113984D02*
X7476848Y-14913984D01*
X7476848Y-14913984D02*
X7457801Y-14942555D01*
X7457801Y-14942555D02*
X7438753Y-14961603D01*
X7438753Y-14961603D02*
X7419706Y-14971127D01*
X7714944Y-14913984D02*
X7619706Y-14913984D01*
X7619706Y-14913984D02*
X7610182Y-15009222D01*
X7610182Y-15009222D02*
X7619706Y-14999698D01*
X7619706Y-14999698D02*
X7638753Y-14990174D01*
X7638753Y-14990174D02*
X7686372Y-14990174D01*
X7686372Y-14990174D02*
X7705420Y-14999698D01*
X7705420Y-14999698D02*
X7714944Y-15009222D01*
X7714944Y-15009222D02*
X7724467Y-15028269D01*
X7724467Y-15028269D02*
X7724467Y-15075888D01*
X7724467Y-15075888D02*
X7714944Y-15094936D01*
X7714944Y-15094936D02*
X7705420Y-15104460D01*
X7705420Y-15104460D02*
X7686372Y-15113984D01*
X7686372Y-15113984D02*
X7638753Y-15113984D01*
X7638753Y-15113984D02*
X7619706Y-15104460D01*
X7619706Y-15104460D02*
X7610182Y-15094936D01*
X7791134Y-14913984D02*
X7924467Y-14913984D01*
X7924467Y-14913984D02*
X7838753Y-15113984D01*
X7991134Y-14913984D02*
X7991134Y-14952079D01*
X8067325Y-14913984D02*
X8067325Y-14952079D01*
X8362563Y-15190174D02*
X8353039Y-15180650D01*
X8353039Y-15180650D02*
X8333991Y-15152079D01*
X8333991Y-15152079D02*
X8324468Y-15133031D01*
X8324468Y-15133031D02*
X8314944Y-15104460D01*
X8314944Y-15104460D02*
X8305420Y-15056841D01*
X8305420Y-15056841D02*
X8305420Y-15018746D01*
X8305420Y-15018746D02*
X8314944Y-14971127D01*
X8314944Y-14971127D02*
X8324468Y-14942555D01*
X8324468Y-14942555D02*
X8333991Y-14923508D01*
X8333991Y-14923508D02*
X8353039Y-14894936D01*
X8353039Y-14894936D02*
X8362563Y-14885412D01*
X8524468Y-14980650D02*
X8524468Y-15113984D01*
X8476849Y-14904460D02*
X8429230Y-15047317D01*
X8429230Y-15047317D02*
X8553039Y-15047317D01*
X8657801Y-14999698D02*
X8638753Y-14990174D01*
X8638753Y-14990174D02*
X8629230Y-14980650D01*
X8629230Y-14980650D02*
X8619706Y-14961603D01*
X8619706Y-14961603D02*
X8619706Y-14952079D01*
X8619706Y-14952079D02*
X8629230Y-14933031D01*
X8629230Y-14933031D02*
X8638753Y-14923508D01*
X8638753Y-14923508D02*
X8657801Y-14913984D01*
X8657801Y-14913984D02*
X8695896Y-14913984D01*
X8695896Y-14913984D02*
X8714944Y-14923508D01*
X8714944Y-14923508D02*
X8724468Y-14933031D01*
X8724468Y-14933031D02*
X8733991Y-14952079D01*
X8733991Y-14952079D02*
X8733991Y-14961603D01*
X8733991Y-14961603D02*
X8724468Y-14980650D01*
X8724468Y-14980650D02*
X8714944Y-14990174D01*
X8714944Y-14990174D02*
X8695896Y-14999698D01*
X8695896Y-14999698D02*
X8657801Y-14999698D01*
X8657801Y-14999698D02*
X8638753Y-15009222D01*
X8638753Y-15009222D02*
X8629230Y-15018746D01*
X8629230Y-15018746D02*
X8619706Y-15037793D01*
X8619706Y-15037793D02*
X8619706Y-15075888D01*
X8619706Y-15075888D02*
X8629230Y-15094936D01*
X8629230Y-15094936D02*
X8638753Y-15104460D01*
X8638753Y-15104460D02*
X8657801Y-15113984D01*
X8657801Y-15113984D02*
X8695896Y-15113984D01*
X8695896Y-15113984D02*
X8714944Y-15104460D01*
X8714944Y-15104460D02*
X8724468Y-15094936D01*
X8724468Y-15094936D02*
X8733991Y-15075888D01*
X8733991Y-15075888D02*
X8733991Y-15037793D01*
X8733991Y-15037793D02*
X8724468Y-15018746D01*
X8724468Y-15018746D02*
X8714944Y-15009222D01*
X8714944Y-15009222D02*
X8695896Y-14999698D01*
X8972087Y-15113984D02*
X8972087Y-14913984D01*
X9057801Y-15113984D02*
X9057801Y-15009222D01*
X9057801Y-15009222D02*
X9048277Y-14990174D01*
X9048277Y-14990174D02*
X9029230Y-14980650D01*
X9029230Y-14980650D02*
X9000658Y-14980650D01*
X9000658Y-14980650D02*
X8981611Y-14990174D01*
X8981611Y-14990174D02*
X8972087Y-14999698D01*
X9181611Y-15113984D02*
X9162563Y-15104460D01*
X9162563Y-15104460D02*
X9153039Y-15094936D01*
X9153039Y-15094936D02*
X9143515Y-15075888D01*
X9143515Y-15075888D02*
X9143515Y-15018746D01*
X9143515Y-15018746D02*
X9153039Y-14999698D01*
X9153039Y-14999698D02*
X9162563Y-14990174D01*
X9162563Y-14990174D02*
X9181611Y-14980650D01*
X9181611Y-14980650D02*
X9210182Y-14980650D01*
X9210182Y-14980650D02*
X9229230Y-14990174D01*
X9229230Y-14990174D02*
X9238753Y-14999698D01*
X9238753Y-14999698D02*
X9248277Y-15018746D01*
X9248277Y-15018746D02*
X9248277Y-15075888D01*
X9248277Y-15075888D02*
X9238753Y-15094936D01*
X9238753Y-15094936D02*
X9229230Y-15104460D01*
X9229230Y-15104460D02*
X9210182Y-15113984D01*
X9210182Y-15113984D02*
X9181611Y-15113984D01*
X9362563Y-15113984D02*
X9343515Y-15104460D01*
X9343515Y-15104460D02*
X9333992Y-15085412D01*
X9333992Y-15085412D02*
X9333992Y-14913984D01*
X9514944Y-15104460D02*
X9495896Y-15113984D01*
X9495896Y-15113984D02*
X9457801Y-15113984D01*
X9457801Y-15113984D02*
X9438753Y-15104460D01*
X9438753Y-15104460D02*
X9429230Y-15085412D01*
X9429230Y-15085412D02*
X9429230Y-15009222D01*
X9429230Y-15009222D02*
X9438753Y-14990174D01*
X9438753Y-14990174D02*
X9457801Y-14980650D01*
X9457801Y-14980650D02*
X9495896Y-14980650D01*
X9495896Y-14980650D02*
X9514944Y-14990174D01*
X9514944Y-14990174D02*
X9524468Y-15009222D01*
X9524468Y-15009222D02*
X9524468Y-15028269D01*
X9524468Y-15028269D02*
X9429230Y-15047317D01*
X9600658Y-15104460D02*
X9619706Y-15113984D01*
X9619706Y-15113984D02*
X9657801Y-15113984D01*
X9657801Y-15113984D02*
X9676849Y-15104460D01*
X9676849Y-15104460D02*
X9686373Y-15085412D01*
X9686373Y-15085412D02*
X9686373Y-15075888D01*
X9686373Y-15075888D02*
X9676849Y-15056841D01*
X9676849Y-15056841D02*
X9657801Y-15047317D01*
X9657801Y-15047317D02*
X9629230Y-15047317D01*
X9629230Y-15047317D02*
X9610182Y-15037793D01*
X9610182Y-15037793D02*
X9600658Y-15018746D01*
X9600658Y-15018746D02*
X9600658Y-15009222D01*
X9600658Y-15009222D02*
X9610182Y-14990174D01*
X9610182Y-14990174D02*
X9629230Y-14980650D01*
X9629230Y-14980650D02*
X9657801Y-14980650D01*
X9657801Y-14980650D02*
X9676849Y-14990174D01*
X9753039Y-15190174D02*
X9762563Y-15180650D01*
X9762563Y-15180650D02*
X9781611Y-15152079D01*
X9781611Y-15152079D02*
X9791134Y-15133031D01*
X9791134Y-15133031D02*
X9800658Y-15104460D01*
X9800658Y-15104460D02*
X9810182Y-15056841D01*
X9810182Y-15056841D02*
X9810182Y-15018746D01*
X9810182Y-15018746D02*
X9800658Y-14971127D01*
X9800658Y-14971127D02*
X9791134Y-14942555D01*
X9791134Y-14942555D02*
X9781611Y-14923508D01*
X9781611Y-14923508D02*
X9762563Y-14894936D01*
X9762563Y-14894936D02*
X9753039Y-14885412D01*
D12*
X4787500Y-15286500D02*
G75*
G02*
X4712500Y-15286500I-37500J0D01*
G01*
X4712500Y-15286500D02*
G75*
G02*
X4787500Y-15286500I37500J0D01*
G01*
D11*
X5086372Y-15177984D02*
X5105420Y-15177984D01*
X5105420Y-15177984D02*
X5124467Y-15187508D01*
X5124467Y-15187508D02*
X5133991Y-15197031D01*
X5133991Y-15197031D02*
X5143515Y-15216079D01*
X5143515Y-15216079D02*
X5153039Y-15254174D01*
X5153039Y-15254174D02*
X5153039Y-15301793D01*
X5153039Y-15301793D02*
X5143515Y-15339888D01*
X5143515Y-15339888D02*
X5133991Y-15358936D01*
X5133991Y-15358936D02*
X5124467Y-15368460D01*
X5124467Y-15368460D02*
X5105420Y-15377984D01*
X5105420Y-15377984D02*
X5086372Y-15377984D01*
X5086372Y-15377984D02*
X5067324Y-15368460D01*
X5067324Y-15368460D02*
X5057801Y-15358936D01*
X5057801Y-15358936D02*
X5048277Y-15339888D01*
X5048277Y-15339888D02*
X5038753Y-15301793D01*
X5038753Y-15301793D02*
X5038753Y-15254174D01*
X5038753Y-15254174D02*
X5048277Y-15216079D01*
X5048277Y-15216079D02*
X5057801Y-15197031D01*
X5057801Y-15197031D02*
X5067324Y-15187508D01*
X5067324Y-15187508D02*
X5086372Y-15177984D01*
X5238753Y-15358936D02*
X5248277Y-15368460D01*
X5248277Y-15368460D02*
X5238753Y-15377984D01*
X5238753Y-15377984D02*
X5229229Y-15368460D01*
X5229229Y-15368460D02*
X5238753Y-15358936D01*
X5238753Y-15358936D02*
X5238753Y-15377984D01*
X5314944Y-15177984D02*
X5448277Y-15177984D01*
X5448277Y-15177984D02*
X5362563Y-15377984D01*
X5619705Y-15177984D02*
X5524467Y-15177984D01*
X5524467Y-15177984D02*
X5514944Y-15273222D01*
X5514944Y-15273222D02*
X5524467Y-15263698D01*
X5524467Y-15263698D02*
X5543515Y-15254174D01*
X5543515Y-15254174D02*
X5591134Y-15254174D01*
X5591134Y-15254174D02*
X5610182Y-15263698D01*
X5610182Y-15263698D02*
X5619705Y-15273222D01*
X5619705Y-15273222D02*
X5629229Y-15292269D01*
X5629229Y-15292269D02*
X5629229Y-15339888D01*
X5629229Y-15339888D02*
X5619705Y-15358936D01*
X5619705Y-15358936D02*
X5610182Y-15368460D01*
X5610182Y-15368460D02*
X5591134Y-15377984D01*
X5591134Y-15377984D02*
X5543515Y-15377984D01*
X5543515Y-15377984D02*
X5524467Y-15368460D01*
X5524467Y-15368460D02*
X5514944Y-15358936D01*
X5753039Y-15177984D02*
X5772086Y-15177984D01*
X5772086Y-15177984D02*
X5791134Y-15187508D01*
X5791134Y-15187508D02*
X5800658Y-15197031D01*
X5800658Y-15197031D02*
X5810182Y-15216079D01*
X5810182Y-15216079D02*
X5819705Y-15254174D01*
X5819705Y-15254174D02*
X5819705Y-15301793D01*
X5819705Y-15301793D02*
X5810182Y-15339888D01*
X5810182Y-15339888D02*
X5800658Y-15358936D01*
X5800658Y-15358936D02*
X5791134Y-15368460D01*
X5791134Y-15368460D02*
X5772086Y-15377984D01*
X5772086Y-15377984D02*
X5753039Y-15377984D01*
X5753039Y-15377984D02*
X5733991Y-15368460D01*
X5733991Y-15368460D02*
X5724467Y-15358936D01*
X5724467Y-15358936D02*
X5714943Y-15339888D01*
X5714943Y-15339888D02*
X5705420Y-15301793D01*
X5705420Y-15301793D02*
X5705420Y-15254174D01*
X5705420Y-15254174D02*
X5714943Y-15216079D01*
X5714943Y-15216079D02*
X5724467Y-15197031D01*
X5724467Y-15197031D02*
X5733991Y-15187508D01*
X5733991Y-15187508D02*
X5753039Y-15177984D01*
X5905420Y-15377984D02*
X5905420Y-15244650D01*
X5905420Y-15263698D02*
X5914943Y-15254174D01*
X5914943Y-15254174D02*
X5933991Y-15244650D01*
X5933991Y-15244650D02*
X5962563Y-15244650D01*
X5962563Y-15244650D02*
X5981610Y-15254174D01*
X5981610Y-15254174D02*
X5991134Y-15273222D01*
X5991134Y-15273222D02*
X5991134Y-15377984D01*
X5991134Y-15273222D02*
X6000658Y-15254174D01*
X6000658Y-15254174D02*
X6019705Y-15244650D01*
X6019705Y-15244650D02*
X6048277Y-15244650D01*
X6048277Y-15244650D02*
X6067324Y-15254174D01*
X6067324Y-15254174D02*
X6076848Y-15273222D01*
X6076848Y-15273222D02*
X6076848Y-15377984D01*
X6172086Y-15377984D02*
X6172086Y-15244650D01*
X6172086Y-15263698D02*
X6181610Y-15254174D01*
X6181610Y-15254174D02*
X6200658Y-15244650D01*
X6200658Y-15244650D02*
X6229229Y-15244650D01*
X6229229Y-15244650D02*
X6248277Y-15254174D01*
X6248277Y-15254174D02*
X6257801Y-15273222D01*
X6257801Y-15273222D02*
X6257801Y-15377984D01*
X6257801Y-15273222D02*
X6267324Y-15254174D01*
X6267324Y-15254174D02*
X6286372Y-15244650D01*
X6286372Y-15244650D02*
X6314943Y-15244650D01*
X6314943Y-15244650D02*
X6333991Y-15254174D01*
X6333991Y-15254174D02*
X6343515Y-15273222D01*
X6343515Y-15273222D02*
X6343515Y-15377984D01*
X6733991Y-15168460D02*
X6562563Y-15425603D01*
X6991134Y-15177984D02*
X7010182Y-15177984D01*
X7010182Y-15177984D02*
X7029229Y-15187508D01*
X7029229Y-15187508D02*
X7038753Y-15197031D01*
X7038753Y-15197031D02*
X7048277Y-15216079D01*
X7048277Y-15216079D02*
X7057801Y-15254174D01*
X7057801Y-15254174D02*
X7057801Y-15301793D01*
X7057801Y-15301793D02*
X7048277Y-15339888D01*
X7048277Y-15339888D02*
X7038753Y-15358936D01*
X7038753Y-15358936D02*
X7029229Y-15368460D01*
X7029229Y-15368460D02*
X7010182Y-15377984D01*
X7010182Y-15377984D02*
X6991134Y-15377984D01*
X6991134Y-15377984D02*
X6972086Y-15368460D01*
X6972086Y-15368460D02*
X6962563Y-15358936D01*
X6962563Y-15358936D02*
X6953039Y-15339888D01*
X6953039Y-15339888D02*
X6943515Y-15301793D01*
X6943515Y-15301793D02*
X6943515Y-15254174D01*
X6943515Y-15254174D02*
X6953039Y-15216079D01*
X6953039Y-15216079D02*
X6962563Y-15197031D01*
X6962563Y-15197031D02*
X6972086Y-15187508D01*
X6972086Y-15187508D02*
X6991134Y-15177984D01*
X7143515Y-15358936D02*
X7153039Y-15368460D01*
X7153039Y-15368460D02*
X7143515Y-15377984D01*
X7143515Y-15377984D02*
X7133991Y-15368460D01*
X7133991Y-15368460D02*
X7143515Y-15358936D01*
X7143515Y-15358936D02*
X7143515Y-15377984D01*
X7276848Y-15177984D02*
X7295896Y-15177984D01*
X7295896Y-15177984D02*
X7314944Y-15187508D01*
X7314944Y-15187508D02*
X7324467Y-15197031D01*
X7324467Y-15197031D02*
X7333991Y-15216079D01*
X7333991Y-15216079D02*
X7343515Y-15254174D01*
X7343515Y-15254174D02*
X7343515Y-15301793D01*
X7343515Y-15301793D02*
X7333991Y-15339888D01*
X7333991Y-15339888D02*
X7324467Y-15358936D01*
X7324467Y-15358936D02*
X7314944Y-15368460D01*
X7314944Y-15368460D02*
X7295896Y-15377984D01*
X7295896Y-15377984D02*
X7276848Y-15377984D01*
X7276848Y-15377984D02*
X7257801Y-15368460D01*
X7257801Y-15368460D02*
X7248277Y-15358936D01*
X7248277Y-15358936D02*
X7238753Y-15339888D01*
X7238753Y-15339888D02*
X7229229Y-15301793D01*
X7229229Y-15301793D02*
X7229229Y-15254174D01*
X7229229Y-15254174D02*
X7238753Y-15216079D01*
X7238753Y-15216079D02*
X7248277Y-15197031D01*
X7248277Y-15197031D02*
X7257801Y-15187508D01*
X7257801Y-15187508D02*
X7276848Y-15177984D01*
X7419706Y-15197031D02*
X7429229Y-15187508D01*
X7429229Y-15187508D02*
X7448277Y-15177984D01*
X7448277Y-15177984D02*
X7495896Y-15177984D01*
X7495896Y-15177984D02*
X7514944Y-15187508D01*
X7514944Y-15187508D02*
X7524467Y-15197031D01*
X7524467Y-15197031D02*
X7533991Y-15216079D01*
X7533991Y-15216079D02*
X7533991Y-15235127D01*
X7533991Y-15235127D02*
X7524467Y-15263698D01*
X7524467Y-15263698D02*
X7410182Y-15377984D01*
X7410182Y-15377984D02*
X7533991Y-15377984D01*
X7629229Y-15377984D02*
X7667325Y-15377984D01*
X7667325Y-15377984D02*
X7686372Y-15368460D01*
X7686372Y-15368460D02*
X7695896Y-15358936D01*
X7695896Y-15358936D02*
X7714944Y-15330365D01*
X7714944Y-15330365D02*
X7724467Y-15292269D01*
X7724467Y-15292269D02*
X7724467Y-15216079D01*
X7724467Y-15216079D02*
X7714944Y-15197031D01*
X7714944Y-15197031D02*
X7705420Y-15187508D01*
X7705420Y-15187508D02*
X7686372Y-15177984D01*
X7686372Y-15177984D02*
X7648277Y-15177984D01*
X7648277Y-15177984D02*
X7629229Y-15187508D01*
X7629229Y-15187508D02*
X7619706Y-15197031D01*
X7619706Y-15197031D02*
X7610182Y-15216079D01*
X7610182Y-15216079D02*
X7610182Y-15263698D01*
X7610182Y-15263698D02*
X7619706Y-15282746D01*
X7619706Y-15282746D02*
X7629229Y-15292269D01*
X7629229Y-15292269D02*
X7648277Y-15301793D01*
X7648277Y-15301793D02*
X7686372Y-15301793D01*
X7686372Y-15301793D02*
X7705420Y-15292269D01*
X7705420Y-15292269D02*
X7714944Y-15282746D01*
X7714944Y-15282746D02*
X7724467Y-15263698D01*
X7905420Y-15177984D02*
X7810182Y-15177984D01*
X7810182Y-15177984D02*
X7800658Y-15273222D01*
X7800658Y-15273222D02*
X7810182Y-15263698D01*
X7810182Y-15263698D02*
X7829229Y-15254174D01*
X7829229Y-15254174D02*
X7876848Y-15254174D01*
X7876848Y-15254174D02*
X7895896Y-15263698D01*
X7895896Y-15263698D02*
X7905420Y-15273222D01*
X7905420Y-15273222D02*
X7914944Y-15292269D01*
X7914944Y-15292269D02*
X7914944Y-15339888D01*
X7914944Y-15339888D02*
X7905420Y-15358936D01*
X7905420Y-15358936D02*
X7895896Y-15368460D01*
X7895896Y-15368460D02*
X7876848Y-15377984D01*
X7876848Y-15377984D02*
X7829229Y-15377984D01*
X7829229Y-15377984D02*
X7810182Y-15368460D01*
X7810182Y-15368460D02*
X7800658Y-15358936D01*
X7991134Y-15177984D02*
X7991134Y-15216079D01*
X8067325Y-15177984D02*
X8067325Y-15216079D01*
X8362563Y-15454174D02*
X8353039Y-15444650D01*
X8353039Y-15444650D02*
X8333991Y-15416079D01*
X8333991Y-15416079D02*
X8324468Y-15397031D01*
X8324468Y-15397031D02*
X8314944Y-15368460D01*
X8314944Y-15368460D02*
X8305420Y-15320841D01*
X8305420Y-15320841D02*
X8305420Y-15282746D01*
X8305420Y-15282746D02*
X8314944Y-15235127D01*
X8314944Y-15235127D02*
X8324468Y-15206555D01*
X8324468Y-15206555D02*
X8333991Y-15187508D01*
X8333991Y-15187508D02*
X8353039Y-15158936D01*
X8353039Y-15158936D02*
X8362563Y-15149412D01*
X8448277Y-15377984D02*
X8486372Y-15377984D01*
X8486372Y-15377984D02*
X8505420Y-15368460D01*
X8505420Y-15368460D02*
X8514944Y-15358936D01*
X8514944Y-15358936D02*
X8533991Y-15330365D01*
X8533991Y-15330365D02*
X8543515Y-15292269D01*
X8543515Y-15292269D02*
X8543515Y-15216079D01*
X8543515Y-15216079D02*
X8533991Y-15197031D01*
X8533991Y-15197031D02*
X8524468Y-15187508D01*
X8524468Y-15187508D02*
X8505420Y-15177984D01*
X8505420Y-15177984D02*
X8467325Y-15177984D01*
X8467325Y-15177984D02*
X8448277Y-15187508D01*
X8448277Y-15187508D02*
X8438753Y-15197031D01*
X8438753Y-15197031D02*
X8429230Y-15216079D01*
X8429230Y-15216079D02*
X8429230Y-15263698D01*
X8429230Y-15263698D02*
X8438753Y-15282746D01*
X8438753Y-15282746D02*
X8448277Y-15292269D01*
X8448277Y-15292269D02*
X8467325Y-15301793D01*
X8467325Y-15301793D02*
X8505420Y-15301793D01*
X8505420Y-15301793D02*
X8524468Y-15292269D01*
X8524468Y-15292269D02*
X8533991Y-15282746D01*
X8533991Y-15282746D02*
X8543515Y-15263698D01*
X8781611Y-15377984D02*
X8781611Y-15177984D01*
X8867325Y-15377984D02*
X8867325Y-15273222D01*
X8867325Y-15273222D02*
X8857801Y-15254174D01*
X8857801Y-15254174D02*
X8838753Y-15244650D01*
X8838753Y-15244650D02*
X8810182Y-15244650D01*
X8810182Y-15244650D02*
X8791134Y-15254174D01*
X8791134Y-15254174D02*
X8781611Y-15263698D01*
X8991134Y-15377984D02*
X8972087Y-15368460D01*
X8972087Y-15368460D02*
X8962563Y-15358936D01*
X8962563Y-15358936D02*
X8953039Y-15339888D01*
X8953039Y-15339888D02*
X8953039Y-15282746D01*
X8953039Y-15282746D02*
X8962563Y-15263698D01*
X8962563Y-15263698D02*
X8972087Y-15254174D01*
X8972087Y-15254174D02*
X8991134Y-15244650D01*
X8991134Y-15244650D02*
X9019706Y-15244650D01*
X9019706Y-15244650D02*
X9038753Y-15254174D01*
X9038753Y-15254174D02*
X9048277Y-15263698D01*
X9048277Y-15263698D02*
X9057801Y-15282746D01*
X9057801Y-15282746D02*
X9057801Y-15339888D01*
X9057801Y-15339888D02*
X9048277Y-15358936D01*
X9048277Y-15358936D02*
X9038753Y-15368460D01*
X9038753Y-15368460D02*
X9019706Y-15377984D01*
X9019706Y-15377984D02*
X8991134Y-15377984D01*
X9172087Y-15377984D02*
X9153039Y-15368460D01*
X9153039Y-15368460D02*
X9143515Y-15349412D01*
X9143515Y-15349412D02*
X9143515Y-15177984D01*
X9324468Y-15368460D02*
X9305420Y-15377984D01*
X9305420Y-15377984D02*
X9267325Y-15377984D01*
X9267325Y-15377984D02*
X9248277Y-15368460D01*
X9248277Y-15368460D02*
X9238753Y-15349412D01*
X9238753Y-15349412D02*
X9238753Y-15273222D01*
X9238753Y-15273222D02*
X9248277Y-15254174D01*
X9248277Y-15254174D02*
X9267325Y-15244650D01*
X9267325Y-15244650D02*
X9305420Y-15244650D01*
X9305420Y-15244650D02*
X9324468Y-15254174D01*
X9324468Y-15254174D02*
X9333992Y-15273222D01*
X9333992Y-15273222D02*
X9333992Y-15292269D01*
X9333992Y-15292269D02*
X9238753Y-15311317D01*
X9410182Y-15368460D02*
X9429230Y-15377984D01*
X9429230Y-15377984D02*
X9467325Y-15377984D01*
X9467325Y-15377984D02*
X9486373Y-15368460D01*
X9486373Y-15368460D02*
X9495896Y-15349412D01*
X9495896Y-15349412D02*
X9495896Y-15339888D01*
X9495896Y-15339888D02*
X9486373Y-15320841D01*
X9486373Y-15320841D02*
X9467325Y-15311317D01*
X9467325Y-15311317D02*
X9438753Y-15311317D01*
X9438753Y-15311317D02*
X9419706Y-15301793D01*
X9419706Y-15301793D02*
X9410182Y-15282746D01*
X9410182Y-15282746D02*
X9410182Y-15273222D01*
X9410182Y-15273222D02*
X9419706Y-15254174D01*
X9419706Y-15254174D02*
X9438753Y-15244650D01*
X9438753Y-15244650D02*
X9467325Y-15244650D01*
X9467325Y-15244650D02*
X9486373Y-15254174D01*
X9562563Y-15454174D02*
X9572087Y-15444650D01*
X9572087Y-15444650D02*
X9591134Y-15416079D01*
X9591134Y-15416079D02*
X9600658Y-15397031D01*
X9600658Y-15397031D02*
X9610182Y-15368460D01*
X9610182Y-15368460D02*
X9619706Y-15320841D01*
X9619706Y-15320841D02*
X9619706Y-15282746D01*
X9619706Y-15282746D02*
X9610182Y-15235127D01*
X9610182Y-15235127D02*
X9600658Y-15206555D01*
X9600658Y-15206555D02*
X9591134Y-15187508D01*
X9591134Y-15187508D02*
X9572087Y-15158936D01*
X9572087Y-15158936D02*
X9562563Y-15149412D01*
D12*
X4749400Y-15512400D02*
X4749400Y-15588600D01*
X4711300Y-15550500D02*
X4787500Y-15550500D01*
D11*
X5086372Y-15441984D02*
X5105420Y-15441984D01*
X5105420Y-15441984D02*
X5124467Y-15451508D01*
X5124467Y-15451508D02*
X5133991Y-15461031D01*
X5133991Y-15461031D02*
X5143515Y-15480079D01*
X5143515Y-15480079D02*
X5153039Y-15518174D01*
X5153039Y-15518174D02*
X5153039Y-15565793D01*
X5153039Y-15565793D02*
X5143515Y-15603888D01*
X5143515Y-15603888D02*
X5133991Y-15622936D01*
X5133991Y-15622936D02*
X5124467Y-15632460D01*
X5124467Y-15632460D02*
X5105420Y-15641984D01*
X5105420Y-15641984D02*
X5086372Y-15641984D01*
X5086372Y-15641984D02*
X5067324Y-15632460D01*
X5067324Y-15632460D02*
X5057801Y-15622936D01*
X5057801Y-15622936D02*
X5048277Y-15603888D01*
X5048277Y-15603888D02*
X5038753Y-15565793D01*
X5038753Y-15565793D02*
X5038753Y-15518174D01*
X5038753Y-15518174D02*
X5048277Y-15480079D01*
X5048277Y-15480079D02*
X5057801Y-15461031D01*
X5057801Y-15461031D02*
X5067324Y-15451508D01*
X5067324Y-15451508D02*
X5086372Y-15441984D01*
X5238753Y-15622936D02*
X5248277Y-15632460D01*
X5248277Y-15632460D02*
X5238753Y-15641984D01*
X5238753Y-15641984D02*
X5229229Y-15632460D01*
X5229229Y-15632460D02*
X5238753Y-15622936D01*
X5238753Y-15622936D02*
X5238753Y-15641984D01*
X5314944Y-15441984D02*
X5448277Y-15441984D01*
X5448277Y-15441984D02*
X5362563Y-15641984D01*
X5610182Y-15441984D02*
X5572086Y-15441984D01*
X5572086Y-15441984D02*
X5553039Y-15451508D01*
X5553039Y-15451508D02*
X5543515Y-15461031D01*
X5543515Y-15461031D02*
X5524467Y-15489603D01*
X5524467Y-15489603D02*
X5514944Y-15527698D01*
X5514944Y-15527698D02*
X5514944Y-15603888D01*
X5514944Y-15603888D02*
X5524467Y-15622936D01*
X5524467Y-15622936D02*
X5533991Y-15632460D01*
X5533991Y-15632460D02*
X5553039Y-15641984D01*
X5553039Y-15641984D02*
X5591134Y-15641984D01*
X5591134Y-15641984D02*
X5610182Y-15632460D01*
X5610182Y-15632460D02*
X5619705Y-15622936D01*
X5619705Y-15622936D02*
X5629229Y-15603888D01*
X5629229Y-15603888D02*
X5629229Y-15556269D01*
X5629229Y-15556269D02*
X5619705Y-15537222D01*
X5619705Y-15537222D02*
X5610182Y-15527698D01*
X5610182Y-15527698D02*
X5591134Y-15518174D01*
X5591134Y-15518174D02*
X5553039Y-15518174D01*
X5553039Y-15518174D02*
X5533991Y-15527698D01*
X5533991Y-15527698D02*
X5524467Y-15537222D01*
X5524467Y-15537222D02*
X5514944Y-15556269D01*
X5705420Y-15461031D02*
X5714943Y-15451508D01*
X5714943Y-15451508D02*
X5733991Y-15441984D01*
X5733991Y-15441984D02*
X5781610Y-15441984D01*
X5781610Y-15441984D02*
X5800658Y-15451508D01*
X5800658Y-15451508D02*
X5810182Y-15461031D01*
X5810182Y-15461031D02*
X5819705Y-15480079D01*
X5819705Y-15480079D02*
X5819705Y-15499127D01*
X5819705Y-15499127D02*
X5810182Y-15527698D01*
X5810182Y-15527698D02*
X5695896Y-15641984D01*
X5695896Y-15641984D02*
X5819705Y-15641984D01*
X5905420Y-15641984D02*
X5905420Y-15508650D01*
X5905420Y-15527698D02*
X5914943Y-15518174D01*
X5914943Y-15518174D02*
X5933991Y-15508650D01*
X5933991Y-15508650D02*
X5962563Y-15508650D01*
X5962563Y-15508650D02*
X5981610Y-15518174D01*
X5981610Y-15518174D02*
X5991134Y-15537222D01*
X5991134Y-15537222D02*
X5991134Y-15641984D01*
X5991134Y-15537222D02*
X6000658Y-15518174D01*
X6000658Y-15518174D02*
X6019705Y-15508650D01*
X6019705Y-15508650D02*
X6048277Y-15508650D01*
X6048277Y-15508650D02*
X6067324Y-15518174D01*
X6067324Y-15518174D02*
X6076848Y-15537222D01*
X6076848Y-15537222D02*
X6076848Y-15641984D01*
X6172086Y-15641984D02*
X6172086Y-15508650D01*
X6172086Y-15527698D02*
X6181610Y-15518174D01*
X6181610Y-15518174D02*
X6200658Y-15508650D01*
X6200658Y-15508650D02*
X6229229Y-15508650D01*
X6229229Y-15508650D02*
X6248277Y-15518174D01*
X6248277Y-15518174D02*
X6257801Y-15537222D01*
X6257801Y-15537222D02*
X6257801Y-15641984D01*
X6257801Y-15537222D02*
X6267324Y-15518174D01*
X6267324Y-15518174D02*
X6286372Y-15508650D01*
X6286372Y-15508650D02*
X6314943Y-15508650D01*
X6314943Y-15508650D02*
X6333991Y-15518174D01*
X6333991Y-15518174D02*
X6343515Y-15537222D01*
X6343515Y-15537222D02*
X6343515Y-15641984D01*
X6733991Y-15432460D02*
X6562563Y-15689603D01*
X6991134Y-15441984D02*
X7010182Y-15441984D01*
X7010182Y-15441984D02*
X7029229Y-15451508D01*
X7029229Y-15451508D02*
X7038753Y-15461031D01*
X7038753Y-15461031D02*
X7048277Y-15480079D01*
X7048277Y-15480079D02*
X7057801Y-15518174D01*
X7057801Y-15518174D02*
X7057801Y-15565793D01*
X7057801Y-15565793D02*
X7048277Y-15603888D01*
X7048277Y-15603888D02*
X7038753Y-15622936D01*
X7038753Y-15622936D02*
X7029229Y-15632460D01*
X7029229Y-15632460D02*
X7010182Y-15641984D01*
X7010182Y-15641984D02*
X6991134Y-15641984D01*
X6991134Y-15641984D02*
X6972086Y-15632460D01*
X6972086Y-15632460D02*
X6962563Y-15622936D01*
X6962563Y-15622936D02*
X6953039Y-15603888D01*
X6953039Y-15603888D02*
X6943515Y-15565793D01*
X6943515Y-15565793D02*
X6943515Y-15518174D01*
X6943515Y-15518174D02*
X6953039Y-15480079D01*
X6953039Y-15480079D02*
X6962563Y-15461031D01*
X6962563Y-15461031D02*
X6972086Y-15451508D01*
X6972086Y-15451508D02*
X6991134Y-15441984D01*
X7143515Y-15622936D02*
X7153039Y-15632460D01*
X7153039Y-15632460D02*
X7143515Y-15641984D01*
X7143515Y-15641984D02*
X7133991Y-15632460D01*
X7133991Y-15632460D02*
X7143515Y-15622936D01*
X7143515Y-15622936D02*
X7143515Y-15641984D01*
X7276848Y-15441984D02*
X7295896Y-15441984D01*
X7295896Y-15441984D02*
X7314944Y-15451508D01*
X7314944Y-15451508D02*
X7324467Y-15461031D01*
X7324467Y-15461031D02*
X7333991Y-15480079D01*
X7333991Y-15480079D02*
X7343515Y-15518174D01*
X7343515Y-15518174D02*
X7343515Y-15565793D01*
X7343515Y-15565793D02*
X7333991Y-15603888D01*
X7333991Y-15603888D02*
X7324467Y-15622936D01*
X7324467Y-15622936D02*
X7314944Y-15632460D01*
X7314944Y-15632460D02*
X7295896Y-15641984D01*
X7295896Y-15641984D02*
X7276848Y-15641984D01*
X7276848Y-15641984D02*
X7257801Y-15632460D01*
X7257801Y-15632460D02*
X7248277Y-15622936D01*
X7248277Y-15622936D02*
X7238753Y-15603888D01*
X7238753Y-15603888D02*
X7229229Y-15565793D01*
X7229229Y-15565793D02*
X7229229Y-15518174D01*
X7229229Y-15518174D02*
X7238753Y-15480079D01*
X7238753Y-15480079D02*
X7248277Y-15461031D01*
X7248277Y-15461031D02*
X7257801Y-15451508D01*
X7257801Y-15451508D02*
X7276848Y-15441984D01*
X7410182Y-15441984D02*
X7533991Y-15441984D01*
X7533991Y-15441984D02*
X7467325Y-15518174D01*
X7467325Y-15518174D02*
X7495896Y-15518174D01*
X7495896Y-15518174D02*
X7514944Y-15527698D01*
X7514944Y-15527698D02*
X7524467Y-15537222D01*
X7524467Y-15537222D02*
X7533991Y-15556269D01*
X7533991Y-15556269D02*
X7533991Y-15603888D01*
X7533991Y-15603888D02*
X7524467Y-15622936D01*
X7524467Y-15622936D02*
X7514944Y-15632460D01*
X7514944Y-15632460D02*
X7495896Y-15641984D01*
X7495896Y-15641984D02*
X7438753Y-15641984D01*
X7438753Y-15641984D02*
X7419706Y-15632460D01*
X7419706Y-15632460D02*
X7410182Y-15622936D01*
X7657801Y-15441984D02*
X7676848Y-15441984D01*
X7676848Y-15441984D02*
X7695896Y-15451508D01*
X7695896Y-15451508D02*
X7705420Y-15461031D01*
X7705420Y-15461031D02*
X7714944Y-15480079D01*
X7714944Y-15480079D02*
X7724467Y-15518174D01*
X7724467Y-15518174D02*
X7724467Y-15565793D01*
X7724467Y-15565793D02*
X7714944Y-15603888D01*
X7714944Y-15603888D02*
X7705420Y-15622936D01*
X7705420Y-15622936D02*
X7695896Y-15632460D01*
X7695896Y-15632460D02*
X7676848Y-15641984D01*
X7676848Y-15641984D02*
X7657801Y-15641984D01*
X7657801Y-15641984D02*
X7638753Y-15632460D01*
X7638753Y-15632460D02*
X7629229Y-15622936D01*
X7629229Y-15622936D02*
X7619706Y-15603888D01*
X7619706Y-15603888D02*
X7610182Y-15565793D01*
X7610182Y-15565793D02*
X7610182Y-15518174D01*
X7610182Y-15518174D02*
X7619706Y-15480079D01*
X7619706Y-15480079D02*
X7629229Y-15461031D01*
X7629229Y-15461031D02*
X7638753Y-15451508D01*
X7638753Y-15451508D02*
X7657801Y-15441984D01*
X7848277Y-15441984D02*
X7867325Y-15441984D01*
X7867325Y-15441984D02*
X7886372Y-15451508D01*
X7886372Y-15451508D02*
X7895896Y-15461031D01*
X7895896Y-15461031D02*
X7905420Y-15480079D01*
X7905420Y-15480079D02*
X7914944Y-15518174D01*
X7914944Y-15518174D02*
X7914944Y-15565793D01*
X7914944Y-15565793D02*
X7905420Y-15603888D01*
X7905420Y-15603888D02*
X7895896Y-15622936D01*
X7895896Y-15622936D02*
X7886372Y-15632460D01*
X7886372Y-15632460D02*
X7867325Y-15641984D01*
X7867325Y-15641984D02*
X7848277Y-15641984D01*
X7848277Y-15641984D02*
X7829229Y-15632460D01*
X7829229Y-15632460D02*
X7819706Y-15622936D01*
X7819706Y-15622936D02*
X7810182Y-15603888D01*
X7810182Y-15603888D02*
X7800658Y-15565793D01*
X7800658Y-15565793D02*
X7800658Y-15518174D01*
X7800658Y-15518174D02*
X7810182Y-15480079D01*
X7810182Y-15480079D02*
X7819706Y-15461031D01*
X7819706Y-15461031D02*
X7829229Y-15451508D01*
X7829229Y-15451508D02*
X7848277Y-15441984D01*
X7991134Y-15441984D02*
X7991134Y-15480079D01*
X8067325Y-15441984D02*
X8067325Y-15480079D01*
X8362563Y-15718174D02*
X8353039Y-15708650D01*
X8353039Y-15708650D02*
X8333991Y-15680079D01*
X8333991Y-15680079D02*
X8324468Y-15661031D01*
X8324468Y-15661031D02*
X8314944Y-15632460D01*
X8314944Y-15632460D02*
X8305420Y-15584841D01*
X8305420Y-15584841D02*
X8305420Y-15546746D01*
X8305420Y-15546746D02*
X8314944Y-15499127D01*
X8314944Y-15499127D02*
X8324468Y-15470555D01*
X8324468Y-15470555D02*
X8333991Y-15451508D01*
X8333991Y-15451508D02*
X8353039Y-15422936D01*
X8353039Y-15422936D02*
X8362563Y-15413412D01*
X8429230Y-15461031D02*
X8438753Y-15451508D01*
X8438753Y-15451508D02*
X8457801Y-15441984D01*
X8457801Y-15441984D02*
X8505420Y-15441984D01*
X8505420Y-15441984D02*
X8524468Y-15451508D01*
X8524468Y-15451508D02*
X8533991Y-15461031D01*
X8533991Y-15461031D02*
X8543515Y-15480079D01*
X8543515Y-15480079D02*
X8543515Y-15499127D01*
X8543515Y-15499127D02*
X8533991Y-15527698D01*
X8533991Y-15527698D02*
X8419706Y-15641984D01*
X8419706Y-15641984D02*
X8543515Y-15641984D01*
X8781611Y-15641984D02*
X8781611Y-15441984D01*
X8867325Y-15641984D02*
X8867325Y-15537222D01*
X8867325Y-15537222D02*
X8857801Y-15518174D01*
X8857801Y-15518174D02*
X8838753Y-15508650D01*
X8838753Y-15508650D02*
X8810182Y-15508650D01*
X8810182Y-15508650D02*
X8791134Y-15518174D01*
X8791134Y-15518174D02*
X8781611Y-15527698D01*
X8991134Y-15641984D02*
X8972087Y-15632460D01*
X8972087Y-15632460D02*
X8962563Y-15622936D01*
X8962563Y-15622936D02*
X8953039Y-15603888D01*
X8953039Y-15603888D02*
X8953039Y-15546746D01*
X8953039Y-15546746D02*
X8962563Y-15527698D01*
X8962563Y-15527698D02*
X8972087Y-15518174D01*
X8972087Y-15518174D02*
X8991134Y-15508650D01*
X8991134Y-15508650D02*
X9019706Y-15508650D01*
X9019706Y-15508650D02*
X9038753Y-15518174D01*
X9038753Y-15518174D02*
X9048277Y-15527698D01*
X9048277Y-15527698D02*
X9057801Y-15546746D01*
X9057801Y-15546746D02*
X9057801Y-15603888D01*
X9057801Y-15603888D02*
X9048277Y-15622936D01*
X9048277Y-15622936D02*
X9038753Y-15632460D01*
X9038753Y-15632460D02*
X9019706Y-15641984D01*
X9019706Y-15641984D02*
X8991134Y-15641984D01*
X9172087Y-15641984D02*
X9153039Y-15632460D01*
X9153039Y-15632460D02*
X9143515Y-15613412D01*
X9143515Y-15613412D02*
X9143515Y-15441984D01*
X9324468Y-15632460D02*
X9305420Y-15641984D01*
X9305420Y-15641984D02*
X9267325Y-15641984D01*
X9267325Y-15641984D02*
X9248277Y-15632460D01*
X9248277Y-15632460D02*
X9238753Y-15613412D01*
X9238753Y-15613412D02*
X9238753Y-15537222D01*
X9238753Y-15537222D02*
X9248277Y-15518174D01*
X9248277Y-15518174D02*
X9267325Y-15508650D01*
X9267325Y-15508650D02*
X9305420Y-15508650D01*
X9305420Y-15508650D02*
X9324468Y-15518174D01*
X9324468Y-15518174D02*
X9333992Y-15537222D01*
X9333992Y-15537222D02*
X9333992Y-15556269D01*
X9333992Y-15556269D02*
X9238753Y-15575317D01*
X9410182Y-15632460D02*
X9429230Y-15641984D01*
X9429230Y-15641984D02*
X9467325Y-15641984D01*
X9467325Y-15641984D02*
X9486373Y-15632460D01*
X9486373Y-15632460D02*
X9495896Y-15613412D01*
X9495896Y-15613412D02*
X9495896Y-15603888D01*
X9495896Y-15603888D02*
X9486373Y-15584841D01*
X9486373Y-15584841D02*
X9467325Y-15575317D01*
X9467325Y-15575317D02*
X9438753Y-15575317D01*
X9438753Y-15575317D02*
X9419706Y-15565793D01*
X9419706Y-15565793D02*
X9410182Y-15546746D01*
X9410182Y-15546746D02*
X9410182Y-15537222D01*
X9410182Y-15537222D02*
X9419706Y-15518174D01*
X9419706Y-15518174D02*
X9438753Y-15508650D01*
X9438753Y-15508650D02*
X9467325Y-15508650D01*
X9467325Y-15508650D02*
X9486373Y-15518174D01*
X9562563Y-15718174D02*
X9572087Y-15708650D01*
X9572087Y-15708650D02*
X9591134Y-15680079D01*
X9591134Y-15680079D02*
X9600658Y-15661031D01*
X9600658Y-15661031D02*
X9610182Y-15632460D01*
X9610182Y-15632460D02*
X9619706Y-15584841D01*
X9619706Y-15584841D02*
X9619706Y-15546746D01*
X9619706Y-15546746D02*
X9610182Y-15499127D01*
X9610182Y-15499127D02*
X9600658Y-15470555D01*
X9600658Y-15470555D02*
X9591134Y-15451508D01*
X9591134Y-15451508D02*
X9572087Y-15422936D01*
X9572087Y-15422936D02*
X9562563Y-15413412D01*
D12*
X4775785Y-15842784D02*
X4775785Y-15786215D01*
X4719216Y-15786215D01*
X4719216Y-15842784D01*
X4775785Y-15842784D01*
D11*
X5086372Y-15705984D02*
X5105420Y-15705984D01*
X5105420Y-15705984D02*
X5124467Y-15715508D01*
X5124467Y-15715508D02*
X5133991Y-15725031D01*
X5133991Y-15725031D02*
X5143515Y-15744079D01*
X5143515Y-15744079D02*
X5153039Y-15782174D01*
X5153039Y-15782174D02*
X5153039Y-15829793D01*
X5153039Y-15829793D02*
X5143515Y-15867888D01*
X5143515Y-15867888D02*
X5133991Y-15886936D01*
X5133991Y-15886936D02*
X5124467Y-15896460D01*
X5124467Y-15896460D02*
X5105420Y-15905984D01*
X5105420Y-15905984D02*
X5086372Y-15905984D01*
X5086372Y-15905984D02*
X5067324Y-15896460D01*
X5067324Y-15896460D02*
X5057801Y-15886936D01*
X5057801Y-15886936D02*
X5048277Y-15867888D01*
X5048277Y-15867888D02*
X5038753Y-15829793D01*
X5038753Y-15829793D02*
X5038753Y-15782174D01*
X5038753Y-15782174D02*
X5048277Y-15744079D01*
X5048277Y-15744079D02*
X5057801Y-15725031D01*
X5057801Y-15725031D02*
X5067324Y-15715508D01*
X5067324Y-15715508D02*
X5086372Y-15705984D01*
X5238753Y-15886936D02*
X5248277Y-15896460D01*
X5248277Y-15896460D02*
X5238753Y-15905984D01*
X5238753Y-15905984D02*
X5229229Y-15896460D01*
X5229229Y-15896460D02*
X5238753Y-15886936D01*
X5238753Y-15886936D02*
X5238753Y-15905984D01*
X5362563Y-15791698D02*
X5343515Y-15782174D01*
X5343515Y-15782174D02*
X5333991Y-15772650D01*
X5333991Y-15772650D02*
X5324467Y-15753603D01*
X5324467Y-15753603D02*
X5324467Y-15744079D01*
X5324467Y-15744079D02*
X5333991Y-15725031D01*
X5333991Y-15725031D02*
X5343515Y-15715508D01*
X5343515Y-15715508D02*
X5362563Y-15705984D01*
X5362563Y-15705984D02*
X5400658Y-15705984D01*
X5400658Y-15705984D02*
X5419705Y-15715508D01*
X5419705Y-15715508D02*
X5429229Y-15725031D01*
X5429229Y-15725031D02*
X5438753Y-15744079D01*
X5438753Y-15744079D02*
X5438753Y-15753603D01*
X5438753Y-15753603D02*
X5429229Y-15772650D01*
X5429229Y-15772650D02*
X5419705Y-15782174D01*
X5419705Y-15782174D02*
X5400658Y-15791698D01*
X5400658Y-15791698D02*
X5362563Y-15791698D01*
X5362563Y-15791698D02*
X5343515Y-15801222D01*
X5343515Y-15801222D02*
X5333991Y-15810746D01*
X5333991Y-15810746D02*
X5324467Y-15829793D01*
X5324467Y-15829793D02*
X5324467Y-15867888D01*
X5324467Y-15867888D02*
X5333991Y-15886936D01*
X5333991Y-15886936D02*
X5343515Y-15896460D01*
X5343515Y-15896460D02*
X5362563Y-15905984D01*
X5362563Y-15905984D02*
X5400658Y-15905984D01*
X5400658Y-15905984D02*
X5419705Y-15896460D01*
X5419705Y-15896460D02*
X5429229Y-15886936D01*
X5429229Y-15886936D02*
X5438753Y-15867888D01*
X5438753Y-15867888D02*
X5438753Y-15829793D01*
X5438753Y-15829793D02*
X5429229Y-15810746D01*
X5429229Y-15810746D02*
X5419705Y-15801222D01*
X5419705Y-15801222D02*
X5400658Y-15791698D01*
X5562563Y-15705984D02*
X5581610Y-15705984D01*
X5581610Y-15705984D02*
X5600658Y-15715508D01*
X5600658Y-15715508D02*
X5610182Y-15725031D01*
X5610182Y-15725031D02*
X5619705Y-15744079D01*
X5619705Y-15744079D02*
X5629229Y-15782174D01*
X5629229Y-15782174D02*
X5629229Y-15829793D01*
X5629229Y-15829793D02*
X5619705Y-15867888D01*
X5619705Y-15867888D02*
X5610182Y-15886936D01*
X5610182Y-15886936D02*
X5600658Y-15896460D01*
X5600658Y-15896460D02*
X5581610Y-15905984D01*
X5581610Y-15905984D02*
X5562563Y-15905984D01*
X5562563Y-15905984D02*
X5543515Y-15896460D01*
X5543515Y-15896460D02*
X5533991Y-15886936D01*
X5533991Y-15886936D02*
X5524467Y-15867888D01*
X5524467Y-15867888D02*
X5514944Y-15829793D01*
X5514944Y-15829793D02*
X5514944Y-15782174D01*
X5514944Y-15782174D02*
X5524467Y-15744079D01*
X5524467Y-15744079D02*
X5533991Y-15725031D01*
X5533991Y-15725031D02*
X5543515Y-15715508D01*
X5543515Y-15715508D02*
X5562563Y-15705984D01*
X5753039Y-15705984D02*
X5772086Y-15705984D01*
X5772086Y-15705984D02*
X5791134Y-15715508D01*
X5791134Y-15715508D02*
X5800658Y-15725031D01*
X5800658Y-15725031D02*
X5810182Y-15744079D01*
X5810182Y-15744079D02*
X5819705Y-15782174D01*
X5819705Y-15782174D02*
X5819705Y-15829793D01*
X5819705Y-15829793D02*
X5810182Y-15867888D01*
X5810182Y-15867888D02*
X5800658Y-15886936D01*
X5800658Y-15886936D02*
X5791134Y-15896460D01*
X5791134Y-15896460D02*
X5772086Y-15905984D01*
X5772086Y-15905984D02*
X5753039Y-15905984D01*
X5753039Y-15905984D02*
X5733991Y-15896460D01*
X5733991Y-15896460D02*
X5724467Y-15886936D01*
X5724467Y-15886936D02*
X5714943Y-15867888D01*
X5714943Y-15867888D02*
X5705420Y-15829793D01*
X5705420Y-15829793D02*
X5705420Y-15782174D01*
X5705420Y-15782174D02*
X5714943Y-15744079D01*
X5714943Y-15744079D02*
X5724467Y-15725031D01*
X5724467Y-15725031D02*
X5733991Y-15715508D01*
X5733991Y-15715508D02*
X5753039Y-15705984D01*
X5905420Y-15905984D02*
X5905420Y-15772650D01*
X5905420Y-15791698D02*
X5914943Y-15782174D01*
X5914943Y-15782174D02*
X5933991Y-15772650D01*
X5933991Y-15772650D02*
X5962563Y-15772650D01*
X5962563Y-15772650D02*
X5981610Y-15782174D01*
X5981610Y-15782174D02*
X5991134Y-15801222D01*
X5991134Y-15801222D02*
X5991134Y-15905984D01*
X5991134Y-15801222D02*
X6000658Y-15782174D01*
X6000658Y-15782174D02*
X6019705Y-15772650D01*
X6019705Y-15772650D02*
X6048277Y-15772650D01*
X6048277Y-15772650D02*
X6067324Y-15782174D01*
X6067324Y-15782174D02*
X6076848Y-15801222D01*
X6076848Y-15801222D02*
X6076848Y-15905984D01*
X6172086Y-15905984D02*
X6172086Y-15772650D01*
X6172086Y-15791698D02*
X6181610Y-15782174D01*
X6181610Y-15782174D02*
X6200658Y-15772650D01*
X6200658Y-15772650D02*
X6229229Y-15772650D01*
X6229229Y-15772650D02*
X6248277Y-15782174D01*
X6248277Y-15782174D02*
X6257801Y-15801222D01*
X6257801Y-15801222D02*
X6257801Y-15905984D01*
X6257801Y-15801222D02*
X6267324Y-15782174D01*
X6267324Y-15782174D02*
X6286372Y-15772650D01*
X6286372Y-15772650D02*
X6314943Y-15772650D01*
X6314943Y-15772650D02*
X6333991Y-15782174D01*
X6333991Y-15782174D02*
X6343515Y-15801222D01*
X6343515Y-15801222D02*
X6343515Y-15905984D01*
X6733991Y-15696460D02*
X6562563Y-15953603D01*
X6991134Y-15705984D02*
X7010182Y-15705984D01*
X7010182Y-15705984D02*
X7029229Y-15715508D01*
X7029229Y-15715508D02*
X7038753Y-15725031D01*
X7038753Y-15725031D02*
X7048277Y-15744079D01*
X7048277Y-15744079D02*
X7057801Y-15782174D01*
X7057801Y-15782174D02*
X7057801Y-15829793D01*
X7057801Y-15829793D02*
X7048277Y-15867888D01*
X7048277Y-15867888D02*
X7038753Y-15886936D01*
X7038753Y-15886936D02*
X7029229Y-15896460D01*
X7029229Y-15896460D02*
X7010182Y-15905984D01*
X7010182Y-15905984D02*
X6991134Y-15905984D01*
X6991134Y-15905984D02*
X6972086Y-15896460D01*
X6972086Y-15896460D02*
X6962563Y-15886936D01*
X6962563Y-15886936D02*
X6953039Y-15867888D01*
X6953039Y-15867888D02*
X6943515Y-15829793D01*
X6943515Y-15829793D02*
X6943515Y-15782174D01*
X6943515Y-15782174D02*
X6953039Y-15744079D01*
X6953039Y-15744079D02*
X6962563Y-15725031D01*
X6962563Y-15725031D02*
X6972086Y-15715508D01*
X6972086Y-15715508D02*
X6991134Y-15705984D01*
X7143515Y-15886936D02*
X7153039Y-15896460D01*
X7153039Y-15896460D02*
X7143515Y-15905984D01*
X7143515Y-15905984D02*
X7133991Y-15896460D01*
X7133991Y-15896460D02*
X7143515Y-15886936D01*
X7143515Y-15886936D02*
X7143515Y-15905984D01*
X7276848Y-15705984D02*
X7295896Y-15705984D01*
X7295896Y-15705984D02*
X7314944Y-15715508D01*
X7314944Y-15715508D02*
X7324467Y-15725031D01*
X7324467Y-15725031D02*
X7333991Y-15744079D01*
X7333991Y-15744079D02*
X7343515Y-15782174D01*
X7343515Y-15782174D02*
X7343515Y-15829793D01*
X7343515Y-15829793D02*
X7333991Y-15867888D01*
X7333991Y-15867888D02*
X7324467Y-15886936D01*
X7324467Y-15886936D02*
X7314944Y-15896460D01*
X7314944Y-15896460D02*
X7295896Y-15905984D01*
X7295896Y-15905984D02*
X7276848Y-15905984D01*
X7276848Y-15905984D02*
X7257801Y-15896460D01*
X7257801Y-15896460D02*
X7248277Y-15886936D01*
X7248277Y-15886936D02*
X7238753Y-15867888D01*
X7238753Y-15867888D02*
X7229229Y-15829793D01*
X7229229Y-15829793D02*
X7229229Y-15782174D01*
X7229229Y-15782174D02*
X7238753Y-15744079D01*
X7238753Y-15744079D02*
X7248277Y-15725031D01*
X7248277Y-15725031D02*
X7257801Y-15715508D01*
X7257801Y-15715508D02*
X7276848Y-15705984D01*
X7410182Y-15705984D02*
X7533991Y-15705984D01*
X7533991Y-15705984D02*
X7467325Y-15782174D01*
X7467325Y-15782174D02*
X7495896Y-15782174D01*
X7495896Y-15782174D02*
X7514944Y-15791698D01*
X7514944Y-15791698D02*
X7524467Y-15801222D01*
X7524467Y-15801222D02*
X7533991Y-15820269D01*
X7533991Y-15820269D02*
X7533991Y-15867888D01*
X7533991Y-15867888D02*
X7524467Y-15886936D01*
X7524467Y-15886936D02*
X7514944Y-15896460D01*
X7514944Y-15896460D02*
X7495896Y-15905984D01*
X7495896Y-15905984D02*
X7438753Y-15905984D01*
X7438753Y-15905984D02*
X7419706Y-15896460D01*
X7419706Y-15896460D02*
X7410182Y-15886936D01*
X7724467Y-15905984D02*
X7610182Y-15905984D01*
X7667325Y-15905984D02*
X7667325Y-15705984D01*
X7667325Y-15705984D02*
X7648277Y-15734555D01*
X7648277Y-15734555D02*
X7629229Y-15753603D01*
X7629229Y-15753603D02*
X7610182Y-15763127D01*
X7905420Y-15705984D02*
X7810182Y-15705984D01*
X7810182Y-15705984D02*
X7800658Y-15801222D01*
X7800658Y-15801222D02*
X7810182Y-15791698D01*
X7810182Y-15791698D02*
X7829229Y-15782174D01*
X7829229Y-15782174D02*
X7876848Y-15782174D01*
X7876848Y-15782174D02*
X7895896Y-15791698D01*
X7895896Y-15791698D02*
X7905420Y-15801222D01*
X7905420Y-15801222D02*
X7914944Y-15820269D01*
X7914944Y-15820269D02*
X7914944Y-15867888D01*
X7914944Y-15867888D02*
X7905420Y-15886936D01*
X7905420Y-15886936D02*
X7895896Y-15896460D01*
X7895896Y-15896460D02*
X7876848Y-15905984D01*
X7876848Y-15905984D02*
X7829229Y-15905984D01*
X7829229Y-15905984D02*
X7810182Y-15896460D01*
X7810182Y-15896460D02*
X7800658Y-15886936D01*
X7991134Y-15705984D02*
X7991134Y-15744079D01*
X8067325Y-15705984D02*
X8067325Y-15744079D01*
X8362563Y-15982174D02*
X8353039Y-15972650D01*
X8353039Y-15972650D02*
X8333991Y-15944079D01*
X8333991Y-15944079D02*
X8324468Y-15925031D01*
X8324468Y-15925031D02*
X8314944Y-15896460D01*
X8314944Y-15896460D02*
X8305420Y-15848841D01*
X8305420Y-15848841D02*
X8305420Y-15810746D01*
X8305420Y-15810746D02*
X8314944Y-15763127D01*
X8314944Y-15763127D02*
X8324468Y-15734555D01*
X8324468Y-15734555D02*
X8333991Y-15715508D01*
X8333991Y-15715508D02*
X8353039Y-15686936D01*
X8353039Y-15686936D02*
X8362563Y-15677412D01*
X8543515Y-15905984D02*
X8429230Y-15905984D01*
X8486372Y-15905984D02*
X8486372Y-15705984D01*
X8486372Y-15705984D02*
X8467325Y-15734555D01*
X8467325Y-15734555D02*
X8448277Y-15753603D01*
X8448277Y-15753603D02*
X8429230Y-15763127D01*
X8638753Y-15905984D02*
X8676849Y-15905984D01*
X8676849Y-15905984D02*
X8695896Y-15896460D01*
X8695896Y-15896460D02*
X8705420Y-15886936D01*
X8705420Y-15886936D02*
X8724468Y-15858365D01*
X8724468Y-15858365D02*
X8733991Y-15820269D01*
X8733991Y-15820269D02*
X8733991Y-15744079D01*
X8733991Y-15744079D02*
X8724468Y-15725031D01*
X8724468Y-15725031D02*
X8714944Y-15715508D01*
X8714944Y-15715508D02*
X8695896Y-15705984D01*
X8695896Y-15705984D02*
X8657801Y-15705984D01*
X8657801Y-15705984D02*
X8638753Y-15715508D01*
X8638753Y-15715508D02*
X8629230Y-15725031D01*
X8629230Y-15725031D02*
X8619706Y-15744079D01*
X8619706Y-15744079D02*
X8619706Y-15791698D01*
X8619706Y-15791698D02*
X8629230Y-15810746D01*
X8629230Y-15810746D02*
X8638753Y-15820269D01*
X8638753Y-15820269D02*
X8657801Y-15829793D01*
X8657801Y-15829793D02*
X8695896Y-15829793D01*
X8695896Y-15829793D02*
X8714944Y-15820269D01*
X8714944Y-15820269D02*
X8724468Y-15810746D01*
X8724468Y-15810746D02*
X8733991Y-15791698D01*
X8905420Y-15772650D02*
X8905420Y-15905984D01*
X8857801Y-15696460D02*
X8810182Y-15839317D01*
X8810182Y-15839317D02*
X8933991Y-15839317D01*
X9162563Y-15905984D02*
X9162563Y-15705984D01*
X9248277Y-15905984D02*
X9248277Y-15801222D01*
X9248277Y-15801222D02*
X9238753Y-15782174D01*
X9238753Y-15782174D02*
X9219706Y-15772650D01*
X9219706Y-15772650D02*
X9191134Y-15772650D01*
X9191134Y-15772650D02*
X9172087Y-15782174D01*
X9172087Y-15782174D02*
X9162563Y-15791698D01*
X9372087Y-15905984D02*
X9353039Y-15896460D01*
X9353039Y-15896460D02*
X9343515Y-15886936D01*
X9343515Y-15886936D02*
X9333992Y-15867888D01*
X9333992Y-15867888D02*
X9333992Y-15810746D01*
X9333992Y-15810746D02*
X9343515Y-15791698D01*
X9343515Y-15791698D02*
X9353039Y-15782174D01*
X9353039Y-15782174D02*
X9372087Y-15772650D01*
X9372087Y-15772650D02*
X9400658Y-15772650D01*
X9400658Y-15772650D02*
X9419706Y-15782174D01*
X9419706Y-15782174D02*
X9429230Y-15791698D01*
X9429230Y-15791698D02*
X9438753Y-15810746D01*
X9438753Y-15810746D02*
X9438753Y-15867888D01*
X9438753Y-15867888D02*
X9429230Y-15886936D01*
X9429230Y-15886936D02*
X9419706Y-15896460D01*
X9419706Y-15896460D02*
X9400658Y-15905984D01*
X9400658Y-15905984D02*
X9372087Y-15905984D01*
X9553039Y-15905984D02*
X9533992Y-15896460D01*
X9533992Y-15896460D02*
X9524468Y-15877412D01*
X9524468Y-15877412D02*
X9524468Y-15705984D01*
X9705420Y-15896460D02*
X9686373Y-15905984D01*
X9686373Y-15905984D02*
X9648277Y-15905984D01*
X9648277Y-15905984D02*
X9629230Y-15896460D01*
X9629230Y-15896460D02*
X9619706Y-15877412D01*
X9619706Y-15877412D02*
X9619706Y-15801222D01*
X9619706Y-15801222D02*
X9629230Y-15782174D01*
X9629230Y-15782174D02*
X9648277Y-15772650D01*
X9648277Y-15772650D02*
X9686373Y-15772650D01*
X9686373Y-15772650D02*
X9705420Y-15782174D01*
X9705420Y-15782174D02*
X9714944Y-15801222D01*
X9714944Y-15801222D02*
X9714944Y-15820269D01*
X9714944Y-15820269D02*
X9619706Y-15839317D01*
X9791134Y-15896460D02*
X9810182Y-15905984D01*
X9810182Y-15905984D02*
X9848277Y-15905984D01*
X9848277Y-15905984D02*
X9867325Y-15896460D01*
X9867325Y-15896460D02*
X9876849Y-15877412D01*
X9876849Y-15877412D02*
X9876849Y-15867888D01*
X9876849Y-15867888D02*
X9867325Y-15848841D01*
X9867325Y-15848841D02*
X9848277Y-15839317D01*
X9848277Y-15839317D02*
X9819706Y-15839317D01*
X9819706Y-15839317D02*
X9800658Y-15829793D01*
X9800658Y-15829793D02*
X9791134Y-15810746D01*
X9791134Y-15810746D02*
X9791134Y-15801222D01*
X9791134Y-15801222D02*
X9800658Y-15782174D01*
X9800658Y-15782174D02*
X9819706Y-15772650D01*
X9819706Y-15772650D02*
X9848277Y-15772650D01*
X9848277Y-15772650D02*
X9867325Y-15782174D01*
X9943515Y-15982174D02*
X9953039Y-15972650D01*
X9953039Y-15972650D02*
X9972087Y-15944079D01*
X9972087Y-15944079D02*
X9981611Y-15925031D01*
X9981611Y-15925031D02*
X9991134Y-15896460D01*
X9991134Y-15896460D02*
X10000658Y-15848841D01*
X10000658Y-15848841D02*
X10000658Y-15810746D01*
X10000658Y-15810746D02*
X9991134Y-15763127D01*
X9991134Y-15763127D02*
X9981611Y-15734555D01*
X9981611Y-15734555D02*
X9972087Y-15715508D01*
X9972087Y-15715508D02*
X9953039Y-15686936D01*
X9953039Y-15686936D02*
X9943515Y-15677412D01*
D12*
X4737500Y-16128500D02*
X4787500Y-16078500D01*
X4737500Y-16028500D01*
X4687500Y-16078500D01*
X4737500Y-16128500D01*
D11*
X5153039Y-16169984D02*
X5038753Y-16169984D01*
X5095896Y-16169984D02*
X5095896Y-15969984D01*
X5095896Y-15969984D02*
X5076848Y-15998555D01*
X5076848Y-15998555D02*
X5057801Y-16017603D01*
X5057801Y-16017603D02*
X5038753Y-16027127D01*
X5238753Y-16150936D02*
X5248277Y-16160460D01*
X5248277Y-16160460D02*
X5238753Y-16169984D01*
X5238753Y-16169984D02*
X5229229Y-16160460D01*
X5229229Y-16160460D02*
X5238753Y-16150936D01*
X5238753Y-16150936D02*
X5238753Y-16169984D01*
X5372086Y-15969984D02*
X5391134Y-15969984D01*
X5391134Y-15969984D02*
X5410182Y-15979508D01*
X5410182Y-15979508D02*
X5419705Y-15989031D01*
X5419705Y-15989031D02*
X5429229Y-16008079D01*
X5429229Y-16008079D02*
X5438753Y-16046174D01*
X5438753Y-16046174D02*
X5438753Y-16093793D01*
X5438753Y-16093793D02*
X5429229Y-16131888D01*
X5429229Y-16131888D02*
X5419705Y-16150936D01*
X5419705Y-16150936D02*
X5410182Y-16160460D01*
X5410182Y-16160460D02*
X5391134Y-16169984D01*
X5391134Y-16169984D02*
X5372086Y-16169984D01*
X5372086Y-16169984D02*
X5353039Y-16160460D01*
X5353039Y-16160460D02*
X5343515Y-16150936D01*
X5343515Y-16150936D02*
X5333991Y-16131888D01*
X5333991Y-16131888D02*
X5324467Y-16093793D01*
X5324467Y-16093793D02*
X5324467Y-16046174D01*
X5324467Y-16046174D02*
X5333991Y-16008079D01*
X5333991Y-16008079D02*
X5343515Y-15989031D01*
X5343515Y-15989031D02*
X5353039Y-15979508D01*
X5353039Y-15979508D02*
X5372086Y-15969984D01*
X5562563Y-15969984D02*
X5581610Y-15969984D01*
X5581610Y-15969984D02*
X5600658Y-15979508D01*
X5600658Y-15979508D02*
X5610182Y-15989031D01*
X5610182Y-15989031D02*
X5619705Y-16008079D01*
X5619705Y-16008079D02*
X5629229Y-16046174D01*
X5629229Y-16046174D02*
X5629229Y-16093793D01*
X5629229Y-16093793D02*
X5619705Y-16131888D01*
X5619705Y-16131888D02*
X5610182Y-16150936D01*
X5610182Y-16150936D02*
X5600658Y-16160460D01*
X5600658Y-16160460D02*
X5581610Y-16169984D01*
X5581610Y-16169984D02*
X5562563Y-16169984D01*
X5562563Y-16169984D02*
X5543515Y-16160460D01*
X5543515Y-16160460D02*
X5533991Y-16150936D01*
X5533991Y-16150936D02*
X5524467Y-16131888D01*
X5524467Y-16131888D02*
X5514944Y-16093793D01*
X5514944Y-16093793D02*
X5514944Y-16046174D01*
X5514944Y-16046174D02*
X5524467Y-16008079D01*
X5524467Y-16008079D02*
X5533991Y-15989031D01*
X5533991Y-15989031D02*
X5543515Y-15979508D01*
X5543515Y-15979508D02*
X5562563Y-15969984D01*
X5753039Y-15969984D02*
X5772086Y-15969984D01*
X5772086Y-15969984D02*
X5791134Y-15979508D01*
X5791134Y-15979508D02*
X5800658Y-15989031D01*
X5800658Y-15989031D02*
X5810182Y-16008079D01*
X5810182Y-16008079D02*
X5819705Y-16046174D01*
X5819705Y-16046174D02*
X5819705Y-16093793D01*
X5819705Y-16093793D02*
X5810182Y-16131888D01*
X5810182Y-16131888D02*
X5800658Y-16150936D01*
X5800658Y-16150936D02*
X5791134Y-16160460D01*
X5791134Y-16160460D02*
X5772086Y-16169984D01*
X5772086Y-16169984D02*
X5753039Y-16169984D01*
X5753039Y-16169984D02*
X5733991Y-16160460D01*
X5733991Y-16160460D02*
X5724467Y-16150936D01*
X5724467Y-16150936D02*
X5714943Y-16131888D01*
X5714943Y-16131888D02*
X5705420Y-16093793D01*
X5705420Y-16093793D02*
X5705420Y-16046174D01*
X5705420Y-16046174D02*
X5714943Y-16008079D01*
X5714943Y-16008079D02*
X5724467Y-15989031D01*
X5724467Y-15989031D02*
X5733991Y-15979508D01*
X5733991Y-15979508D02*
X5753039Y-15969984D01*
X5905420Y-16169984D02*
X5905420Y-16036650D01*
X5905420Y-16055698D02*
X5914943Y-16046174D01*
X5914943Y-16046174D02*
X5933991Y-16036650D01*
X5933991Y-16036650D02*
X5962563Y-16036650D01*
X5962563Y-16036650D02*
X5981610Y-16046174D01*
X5981610Y-16046174D02*
X5991134Y-16065222D01*
X5991134Y-16065222D02*
X5991134Y-16169984D01*
X5991134Y-16065222D02*
X6000658Y-16046174D01*
X6000658Y-16046174D02*
X6019705Y-16036650D01*
X6019705Y-16036650D02*
X6048277Y-16036650D01*
X6048277Y-16036650D02*
X6067324Y-16046174D01*
X6067324Y-16046174D02*
X6076848Y-16065222D01*
X6076848Y-16065222D02*
X6076848Y-16169984D01*
X6172086Y-16169984D02*
X6172086Y-16036650D01*
X6172086Y-16055698D02*
X6181610Y-16046174D01*
X6181610Y-16046174D02*
X6200658Y-16036650D01*
X6200658Y-16036650D02*
X6229229Y-16036650D01*
X6229229Y-16036650D02*
X6248277Y-16046174D01*
X6248277Y-16046174D02*
X6257801Y-16065222D01*
X6257801Y-16065222D02*
X6257801Y-16169984D01*
X6257801Y-16065222D02*
X6267324Y-16046174D01*
X6267324Y-16046174D02*
X6286372Y-16036650D01*
X6286372Y-16036650D02*
X6314943Y-16036650D01*
X6314943Y-16036650D02*
X6333991Y-16046174D01*
X6333991Y-16046174D02*
X6343515Y-16065222D01*
X6343515Y-16065222D02*
X6343515Y-16169984D01*
X6733991Y-15960460D02*
X6562563Y-16217603D01*
X6991134Y-15969984D02*
X7010182Y-15969984D01*
X7010182Y-15969984D02*
X7029229Y-15979508D01*
X7029229Y-15979508D02*
X7038753Y-15989031D01*
X7038753Y-15989031D02*
X7048277Y-16008079D01*
X7048277Y-16008079D02*
X7057801Y-16046174D01*
X7057801Y-16046174D02*
X7057801Y-16093793D01*
X7057801Y-16093793D02*
X7048277Y-16131888D01*
X7048277Y-16131888D02*
X7038753Y-16150936D01*
X7038753Y-16150936D02*
X7029229Y-16160460D01*
X7029229Y-16160460D02*
X7010182Y-16169984D01*
X7010182Y-16169984D02*
X6991134Y-16169984D01*
X6991134Y-16169984D02*
X6972086Y-16160460D01*
X6972086Y-16160460D02*
X6962563Y-16150936D01*
X6962563Y-16150936D02*
X6953039Y-16131888D01*
X6953039Y-16131888D02*
X6943515Y-16093793D01*
X6943515Y-16093793D02*
X6943515Y-16046174D01*
X6943515Y-16046174D02*
X6953039Y-16008079D01*
X6953039Y-16008079D02*
X6962563Y-15989031D01*
X6962563Y-15989031D02*
X6972086Y-15979508D01*
X6972086Y-15979508D02*
X6991134Y-15969984D01*
X7143515Y-16150936D02*
X7153039Y-16160460D01*
X7153039Y-16160460D02*
X7143515Y-16169984D01*
X7143515Y-16169984D02*
X7133991Y-16160460D01*
X7133991Y-16160460D02*
X7143515Y-16150936D01*
X7143515Y-16150936D02*
X7143515Y-16169984D01*
X7276848Y-15969984D02*
X7295896Y-15969984D01*
X7295896Y-15969984D02*
X7314944Y-15979508D01*
X7314944Y-15979508D02*
X7324467Y-15989031D01*
X7324467Y-15989031D02*
X7333991Y-16008079D01*
X7333991Y-16008079D02*
X7343515Y-16046174D01*
X7343515Y-16046174D02*
X7343515Y-16093793D01*
X7343515Y-16093793D02*
X7333991Y-16131888D01*
X7333991Y-16131888D02*
X7324467Y-16150936D01*
X7324467Y-16150936D02*
X7314944Y-16160460D01*
X7314944Y-16160460D02*
X7295896Y-16169984D01*
X7295896Y-16169984D02*
X7276848Y-16169984D01*
X7276848Y-16169984D02*
X7257801Y-16160460D01*
X7257801Y-16160460D02*
X7248277Y-16150936D01*
X7248277Y-16150936D02*
X7238753Y-16131888D01*
X7238753Y-16131888D02*
X7229229Y-16093793D01*
X7229229Y-16093793D02*
X7229229Y-16046174D01*
X7229229Y-16046174D02*
X7238753Y-16008079D01*
X7238753Y-16008079D02*
X7248277Y-15989031D01*
X7248277Y-15989031D02*
X7257801Y-15979508D01*
X7257801Y-15979508D02*
X7276848Y-15969984D01*
X7410182Y-15969984D02*
X7533991Y-15969984D01*
X7533991Y-15969984D02*
X7467325Y-16046174D01*
X7467325Y-16046174D02*
X7495896Y-16046174D01*
X7495896Y-16046174D02*
X7514944Y-16055698D01*
X7514944Y-16055698D02*
X7524467Y-16065222D01*
X7524467Y-16065222D02*
X7533991Y-16084269D01*
X7533991Y-16084269D02*
X7533991Y-16131888D01*
X7533991Y-16131888D02*
X7524467Y-16150936D01*
X7524467Y-16150936D02*
X7514944Y-16160460D01*
X7514944Y-16160460D02*
X7495896Y-16169984D01*
X7495896Y-16169984D02*
X7438753Y-16169984D01*
X7438753Y-16169984D02*
X7419706Y-16160460D01*
X7419706Y-16160460D02*
X7410182Y-16150936D01*
X7629229Y-16169984D02*
X7667325Y-16169984D01*
X7667325Y-16169984D02*
X7686372Y-16160460D01*
X7686372Y-16160460D02*
X7695896Y-16150936D01*
X7695896Y-16150936D02*
X7714944Y-16122365D01*
X7714944Y-16122365D02*
X7724467Y-16084269D01*
X7724467Y-16084269D02*
X7724467Y-16008079D01*
X7724467Y-16008079D02*
X7714944Y-15989031D01*
X7714944Y-15989031D02*
X7705420Y-15979508D01*
X7705420Y-15979508D02*
X7686372Y-15969984D01*
X7686372Y-15969984D02*
X7648277Y-15969984D01*
X7648277Y-15969984D02*
X7629229Y-15979508D01*
X7629229Y-15979508D02*
X7619706Y-15989031D01*
X7619706Y-15989031D02*
X7610182Y-16008079D01*
X7610182Y-16008079D02*
X7610182Y-16055698D01*
X7610182Y-16055698D02*
X7619706Y-16074746D01*
X7619706Y-16074746D02*
X7629229Y-16084269D01*
X7629229Y-16084269D02*
X7648277Y-16093793D01*
X7648277Y-16093793D02*
X7686372Y-16093793D01*
X7686372Y-16093793D02*
X7705420Y-16084269D01*
X7705420Y-16084269D02*
X7714944Y-16074746D01*
X7714944Y-16074746D02*
X7724467Y-16055698D01*
X7895896Y-16036650D02*
X7895896Y-16169984D01*
X7848277Y-15960460D02*
X7800658Y-16103317D01*
X7800658Y-16103317D02*
X7924467Y-16103317D01*
X7991134Y-15969984D02*
X7991134Y-16008079D01*
X8067325Y-15969984D02*
X8067325Y-16008079D01*
X8362563Y-16246174D02*
X8353039Y-16236650D01*
X8353039Y-16236650D02*
X8333991Y-16208079D01*
X8333991Y-16208079D02*
X8324468Y-16189031D01*
X8324468Y-16189031D02*
X8314944Y-16160460D01*
X8314944Y-16160460D02*
X8305420Y-16112841D01*
X8305420Y-16112841D02*
X8305420Y-16074746D01*
X8305420Y-16074746D02*
X8314944Y-16027127D01*
X8314944Y-16027127D02*
X8324468Y-15998555D01*
X8324468Y-15998555D02*
X8333991Y-15979508D01*
X8333991Y-15979508D02*
X8353039Y-15950936D01*
X8353039Y-15950936D02*
X8362563Y-15941412D01*
X8419706Y-15969984D02*
X8543515Y-15969984D01*
X8543515Y-15969984D02*
X8476849Y-16046174D01*
X8476849Y-16046174D02*
X8505420Y-16046174D01*
X8505420Y-16046174D02*
X8524468Y-16055698D01*
X8524468Y-16055698D02*
X8533991Y-16065222D01*
X8533991Y-16065222D02*
X8543515Y-16084269D01*
X8543515Y-16084269D02*
X8543515Y-16131888D01*
X8543515Y-16131888D02*
X8533991Y-16150936D01*
X8533991Y-16150936D02*
X8524468Y-16160460D01*
X8524468Y-16160460D02*
X8505420Y-16169984D01*
X8505420Y-16169984D02*
X8448277Y-16169984D01*
X8448277Y-16169984D02*
X8429230Y-16160460D01*
X8429230Y-16160460D02*
X8419706Y-16150936D01*
X8657801Y-16055698D02*
X8638753Y-16046174D01*
X8638753Y-16046174D02*
X8629230Y-16036650D01*
X8629230Y-16036650D02*
X8619706Y-16017603D01*
X8619706Y-16017603D02*
X8619706Y-16008079D01*
X8619706Y-16008079D02*
X8629230Y-15989031D01*
X8629230Y-15989031D02*
X8638753Y-15979508D01*
X8638753Y-15979508D02*
X8657801Y-15969984D01*
X8657801Y-15969984D02*
X8695896Y-15969984D01*
X8695896Y-15969984D02*
X8714944Y-15979508D01*
X8714944Y-15979508D02*
X8724468Y-15989031D01*
X8724468Y-15989031D02*
X8733991Y-16008079D01*
X8733991Y-16008079D02*
X8733991Y-16017603D01*
X8733991Y-16017603D02*
X8724468Y-16036650D01*
X8724468Y-16036650D02*
X8714944Y-16046174D01*
X8714944Y-16046174D02*
X8695896Y-16055698D01*
X8695896Y-16055698D02*
X8657801Y-16055698D01*
X8657801Y-16055698D02*
X8638753Y-16065222D01*
X8638753Y-16065222D02*
X8629230Y-16074746D01*
X8629230Y-16074746D02*
X8619706Y-16093793D01*
X8619706Y-16093793D02*
X8619706Y-16131888D01*
X8619706Y-16131888D02*
X8629230Y-16150936D01*
X8629230Y-16150936D02*
X8638753Y-16160460D01*
X8638753Y-16160460D02*
X8657801Y-16169984D01*
X8657801Y-16169984D02*
X8695896Y-16169984D01*
X8695896Y-16169984D02*
X8714944Y-16160460D01*
X8714944Y-16160460D02*
X8724468Y-16150936D01*
X8724468Y-16150936D02*
X8733991Y-16131888D01*
X8733991Y-16131888D02*
X8733991Y-16093793D01*
X8733991Y-16093793D02*
X8724468Y-16074746D01*
X8724468Y-16074746D02*
X8714944Y-16065222D01*
X8714944Y-16065222D02*
X8695896Y-16055698D01*
X8972087Y-16169984D02*
X8972087Y-15969984D01*
X9057801Y-16169984D02*
X9057801Y-16065222D01*
X9057801Y-16065222D02*
X9048277Y-16046174D01*
X9048277Y-16046174D02*
X9029230Y-16036650D01*
X9029230Y-16036650D02*
X9000658Y-16036650D01*
X9000658Y-16036650D02*
X8981611Y-16046174D01*
X8981611Y-16046174D02*
X8972087Y-16055698D01*
X9181611Y-16169984D02*
X9162563Y-16160460D01*
X9162563Y-16160460D02*
X9153039Y-16150936D01*
X9153039Y-16150936D02*
X9143515Y-16131888D01*
X9143515Y-16131888D02*
X9143515Y-16074746D01*
X9143515Y-16074746D02*
X9153039Y-16055698D01*
X9153039Y-16055698D02*
X9162563Y-16046174D01*
X9162563Y-16046174D02*
X9181611Y-16036650D01*
X9181611Y-16036650D02*
X9210182Y-16036650D01*
X9210182Y-16036650D02*
X9229230Y-16046174D01*
X9229230Y-16046174D02*
X9238753Y-16055698D01*
X9238753Y-16055698D02*
X9248277Y-16074746D01*
X9248277Y-16074746D02*
X9248277Y-16131888D01*
X9248277Y-16131888D02*
X9238753Y-16150936D01*
X9238753Y-16150936D02*
X9229230Y-16160460D01*
X9229230Y-16160460D02*
X9210182Y-16169984D01*
X9210182Y-16169984D02*
X9181611Y-16169984D01*
X9362563Y-16169984D02*
X9343515Y-16160460D01*
X9343515Y-16160460D02*
X9333992Y-16141412D01*
X9333992Y-16141412D02*
X9333992Y-15969984D01*
X9514944Y-16160460D02*
X9495896Y-16169984D01*
X9495896Y-16169984D02*
X9457801Y-16169984D01*
X9457801Y-16169984D02*
X9438753Y-16160460D01*
X9438753Y-16160460D02*
X9429230Y-16141412D01*
X9429230Y-16141412D02*
X9429230Y-16065222D01*
X9429230Y-16065222D02*
X9438753Y-16046174D01*
X9438753Y-16046174D02*
X9457801Y-16036650D01*
X9457801Y-16036650D02*
X9495896Y-16036650D01*
X9495896Y-16036650D02*
X9514944Y-16046174D01*
X9514944Y-16046174D02*
X9524468Y-16065222D01*
X9524468Y-16065222D02*
X9524468Y-16084269D01*
X9524468Y-16084269D02*
X9429230Y-16103317D01*
X9600658Y-16160460D02*
X9619706Y-16169984D01*
X9619706Y-16169984D02*
X9657801Y-16169984D01*
X9657801Y-16169984D02*
X9676849Y-16160460D01*
X9676849Y-16160460D02*
X9686373Y-16141412D01*
X9686373Y-16141412D02*
X9686373Y-16131888D01*
X9686373Y-16131888D02*
X9676849Y-16112841D01*
X9676849Y-16112841D02*
X9657801Y-16103317D01*
X9657801Y-16103317D02*
X9629230Y-16103317D01*
X9629230Y-16103317D02*
X9610182Y-16093793D01*
X9610182Y-16093793D02*
X9600658Y-16074746D01*
X9600658Y-16074746D02*
X9600658Y-16065222D01*
X9600658Y-16065222D02*
X9610182Y-16046174D01*
X9610182Y-16046174D02*
X9629230Y-16036650D01*
X9629230Y-16036650D02*
X9657801Y-16036650D01*
X9657801Y-16036650D02*
X9676849Y-16046174D01*
X9753039Y-16246174D02*
X9762563Y-16236650D01*
X9762563Y-16236650D02*
X9781611Y-16208079D01*
X9781611Y-16208079D02*
X9791134Y-16189031D01*
X9791134Y-16189031D02*
X9800658Y-16160460D01*
X9800658Y-16160460D02*
X9810182Y-16112841D01*
X9810182Y-16112841D02*
X9810182Y-16074746D01*
X9810182Y-16074746D02*
X9800658Y-16027127D01*
X9800658Y-16027127D02*
X9791134Y-15998555D01*
X9791134Y-15998555D02*
X9781611Y-15979508D01*
X9781611Y-15979508D02*
X9762563Y-15950936D01*
X9762563Y-15950936D02*
X9753039Y-15941412D01*
D13*
X4677500Y-16287500D02*
X4787500Y-16397500D01*
X4787500Y-16287500D02*
X4677500Y-16397500D01*
X4787500Y-16342500D02*
G75*
G02*
X4677500Y-16342500I-55000J0D01*
G01*
X4677500Y-16342500D02*
G75*
G02*
X4787500Y-16342500I55000J0D01*
G01*
D11*
X5153039Y-16433984D02*
X5038753Y-16433984D01*
X5095896Y-16433984D02*
X5095896Y-16233984D01*
X5095896Y-16233984D02*
X5076848Y-16262555D01*
X5076848Y-16262555D02*
X5057801Y-16281603D01*
X5057801Y-16281603D02*
X5038753Y-16291127D01*
X5238753Y-16414936D02*
X5248277Y-16424460D01*
X5248277Y-16424460D02*
X5238753Y-16433984D01*
X5238753Y-16433984D02*
X5229229Y-16424460D01*
X5229229Y-16424460D02*
X5238753Y-16414936D01*
X5238753Y-16414936D02*
X5238753Y-16433984D01*
X5438753Y-16433984D02*
X5324467Y-16433984D01*
X5381610Y-16433984D02*
X5381610Y-16233984D01*
X5381610Y-16233984D02*
X5362563Y-16262555D01*
X5362563Y-16262555D02*
X5343515Y-16281603D01*
X5343515Y-16281603D02*
X5324467Y-16291127D01*
X5562563Y-16233984D02*
X5581610Y-16233984D01*
X5581610Y-16233984D02*
X5600658Y-16243508D01*
X5600658Y-16243508D02*
X5610182Y-16253031D01*
X5610182Y-16253031D02*
X5619705Y-16272079D01*
X5619705Y-16272079D02*
X5629229Y-16310174D01*
X5629229Y-16310174D02*
X5629229Y-16357793D01*
X5629229Y-16357793D02*
X5619705Y-16395888D01*
X5619705Y-16395888D02*
X5610182Y-16414936D01*
X5610182Y-16414936D02*
X5600658Y-16424460D01*
X5600658Y-16424460D02*
X5581610Y-16433984D01*
X5581610Y-16433984D02*
X5562563Y-16433984D01*
X5562563Y-16433984D02*
X5543515Y-16424460D01*
X5543515Y-16424460D02*
X5533991Y-16414936D01*
X5533991Y-16414936D02*
X5524467Y-16395888D01*
X5524467Y-16395888D02*
X5514944Y-16357793D01*
X5514944Y-16357793D02*
X5514944Y-16310174D01*
X5514944Y-16310174D02*
X5524467Y-16272079D01*
X5524467Y-16272079D02*
X5533991Y-16253031D01*
X5533991Y-16253031D02*
X5543515Y-16243508D01*
X5543515Y-16243508D02*
X5562563Y-16233984D01*
X5753039Y-16233984D02*
X5772086Y-16233984D01*
X5772086Y-16233984D02*
X5791134Y-16243508D01*
X5791134Y-16243508D02*
X5800658Y-16253031D01*
X5800658Y-16253031D02*
X5810182Y-16272079D01*
X5810182Y-16272079D02*
X5819705Y-16310174D01*
X5819705Y-16310174D02*
X5819705Y-16357793D01*
X5819705Y-16357793D02*
X5810182Y-16395888D01*
X5810182Y-16395888D02*
X5800658Y-16414936D01*
X5800658Y-16414936D02*
X5791134Y-16424460D01*
X5791134Y-16424460D02*
X5772086Y-16433984D01*
X5772086Y-16433984D02*
X5753039Y-16433984D01*
X5753039Y-16433984D02*
X5733991Y-16424460D01*
X5733991Y-16424460D02*
X5724467Y-16414936D01*
X5724467Y-16414936D02*
X5714943Y-16395888D01*
X5714943Y-16395888D02*
X5705420Y-16357793D01*
X5705420Y-16357793D02*
X5705420Y-16310174D01*
X5705420Y-16310174D02*
X5714943Y-16272079D01*
X5714943Y-16272079D02*
X5724467Y-16253031D01*
X5724467Y-16253031D02*
X5733991Y-16243508D01*
X5733991Y-16243508D02*
X5753039Y-16233984D01*
X5905420Y-16433984D02*
X5905420Y-16300650D01*
X5905420Y-16319698D02*
X5914943Y-16310174D01*
X5914943Y-16310174D02*
X5933991Y-16300650D01*
X5933991Y-16300650D02*
X5962563Y-16300650D01*
X5962563Y-16300650D02*
X5981610Y-16310174D01*
X5981610Y-16310174D02*
X5991134Y-16329222D01*
X5991134Y-16329222D02*
X5991134Y-16433984D01*
X5991134Y-16329222D02*
X6000658Y-16310174D01*
X6000658Y-16310174D02*
X6019705Y-16300650D01*
X6019705Y-16300650D02*
X6048277Y-16300650D01*
X6048277Y-16300650D02*
X6067324Y-16310174D01*
X6067324Y-16310174D02*
X6076848Y-16329222D01*
X6076848Y-16329222D02*
X6076848Y-16433984D01*
X6172086Y-16433984D02*
X6172086Y-16300650D01*
X6172086Y-16319698D02*
X6181610Y-16310174D01*
X6181610Y-16310174D02*
X6200658Y-16300650D01*
X6200658Y-16300650D02*
X6229229Y-16300650D01*
X6229229Y-16300650D02*
X6248277Y-16310174D01*
X6248277Y-16310174D02*
X6257801Y-16329222D01*
X6257801Y-16329222D02*
X6257801Y-16433984D01*
X6257801Y-16329222D02*
X6267324Y-16310174D01*
X6267324Y-16310174D02*
X6286372Y-16300650D01*
X6286372Y-16300650D02*
X6314943Y-16300650D01*
X6314943Y-16300650D02*
X6333991Y-16310174D01*
X6333991Y-16310174D02*
X6343515Y-16329222D01*
X6343515Y-16329222D02*
X6343515Y-16433984D01*
X6733991Y-16224460D02*
X6562563Y-16481603D01*
X6991134Y-16233984D02*
X7010182Y-16233984D01*
X7010182Y-16233984D02*
X7029229Y-16243508D01*
X7029229Y-16243508D02*
X7038753Y-16253031D01*
X7038753Y-16253031D02*
X7048277Y-16272079D01*
X7048277Y-16272079D02*
X7057801Y-16310174D01*
X7057801Y-16310174D02*
X7057801Y-16357793D01*
X7057801Y-16357793D02*
X7048277Y-16395888D01*
X7048277Y-16395888D02*
X7038753Y-16414936D01*
X7038753Y-16414936D02*
X7029229Y-16424460D01*
X7029229Y-16424460D02*
X7010182Y-16433984D01*
X7010182Y-16433984D02*
X6991134Y-16433984D01*
X6991134Y-16433984D02*
X6972086Y-16424460D01*
X6972086Y-16424460D02*
X6962563Y-16414936D01*
X6962563Y-16414936D02*
X6953039Y-16395888D01*
X6953039Y-16395888D02*
X6943515Y-16357793D01*
X6943515Y-16357793D02*
X6943515Y-16310174D01*
X6943515Y-16310174D02*
X6953039Y-16272079D01*
X6953039Y-16272079D02*
X6962563Y-16253031D01*
X6962563Y-16253031D02*
X6972086Y-16243508D01*
X6972086Y-16243508D02*
X6991134Y-16233984D01*
X7143515Y-16414936D02*
X7153039Y-16424460D01*
X7153039Y-16424460D02*
X7143515Y-16433984D01*
X7143515Y-16433984D02*
X7133991Y-16424460D01*
X7133991Y-16424460D02*
X7143515Y-16414936D01*
X7143515Y-16414936D02*
X7143515Y-16433984D01*
X7276848Y-16233984D02*
X7295896Y-16233984D01*
X7295896Y-16233984D02*
X7314944Y-16243508D01*
X7314944Y-16243508D02*
X7324467Y-16253031D01*
X7324467Y-16253031D02*
X7333991Y-16272079D01*
X7333991Y-16272079D02*
X7343515Y-16310174D01*
X7343515Y-16310174D02*
X7343515Y-16357793D01*
X7343515Y-16357793D02*
X7333991Y-16395888D01*
X7333991Y-16395888D02*
X7324467Y-16414936D01*
X7324467Y-16414936D02*
X7314944Y-16424460D01*
X7314944Y-16424460D02*
X7295896Y-16433984D01*
X7295896Y-16433984D02*
X7276848Y-16433984D01*
X7276848Y-16433984D02*
X7257801Y-16424460D01*
X7257801Y-16424460D02*
X7248277Y-16414936D01*
X7248277Y-16414936D02*
X7238753Y-16395888D01*
X7238753Y-16395888D02*
X7229229Y-16357793D01*
X7229229Y-16357793D02*
X7229229Y-16310174D01*
X7229229Y-16310174D02*
X7238753Y-16272079D01*
X7238753Y-16272079D02*
X7248277Y-16253031D01*
X7248277Y-16253031D02*
X7257801Y-16243508D01*
X7257801Y-16243508D02*
X7276848Y-16233984D01*
X7514944Y-16300650D02*
X7514944Y-16433984D01*
X7467325Y-16224460D02*
X7419706Y-16367317D01*
X7419706Y-16367317D02*
X7543515Y-16367317D01*
X7600658Y-16233984D02*
X7724467Y-16233984D01*
X7724467Y-16233984D02*
X7657801Y-16310174D01*
X7657801Y-16310174D02*
X7686372Y-16310174D01*
X7686372Y-16310174D02*
X7705420Y-16319698D01*
X7705420Y-16319698D02*
X7714944Y-16329222D01*
X7714944Y-16329222D02*
X7724467Y-16348269D01*
X7724467Y-16348269D02*
X7724467Y-16395888D01*
X7724467Y-16395888D02*
X7714944Y-16414936D01*
X7714944Y-16414936D02*
X7705420Y-16424460D01*
X7705420Y-16424460D02*
X7686372Y-16433984D01*
X7686372Y-16433984D02*
X7629229Y-16433984D01*
X7629229Y-16433984D02*
X7610182Y-16424460D01*
X7610182Y-16424460D02*
X7600658Y-16414936D01*
X7791134Y-16233984D02*
X7914944Y-16233984D01*
X7914944Y-16233984D02*
X7848277Y-16310174D01*
X7848277Y-16310174D02*
X7876848Y-16310174D01*
X7876848Y-16310174D02*
X7895896Y-16319698D01*
X7895896Y-16319698D02*
X7905420Y-16329222D01*
X7905420Y-16329222D02*
X7914944Y-16348269D01*
X7914944Y-16348269D02*
X7914944Y-16395888D01*
X7914944Y-16395888D02*
X7905420Y-16414936D01*
X7905420Y-16414936D02*
X7895896Y-16424460D01*
X7895896Y-16424460D02*
X7876848Y-16433984D01*
X7876848Y-16433984D02*
X7819706Y-16433984D01*
X7819706Y-16433984D02*
X7800658Y-16424460D01*
X7800658Y-16424460D02*
X7791134Y-16414936D01*
X7991134Y-16233984D02*
X7991134Y-16272079D01*
X8067325Y-16233984D02*
X8067325Y-16272079D01*
X8362563Y-16510174D02*
X8353039Y-16500650D01*
X8353039Y-16500650D02*
X8333991Y-16472079D01*
X8333991Y-16472079D02*
X8324468Y-16453031D01*
X8324468Y-16453031D02*
X8314944Y-16424460D01*
X8314944Y-16424460D02*
X8305420Y-16376841D01*
X8305420Y-16376841D02*
X8305420Y-16338746D01*
X8305420Y-16338746D02*
X8314944Y-16291127D01*
X8314944Y-16291127D02*
X8324468Y-16262555D01*
X8324468Y-16262555D02*
X8333991Y-16243508D01*
X8333991Y-16243508D02*
X8353039Y-16214936D01*
X8353039Y-16214936D02*
X8362563Y-16205412D01*
X8419706Y-16233984D02*
X8543515Y-16233984D01*
X8543515Y-16233984D02*
X8476849Y-16310174D01*
X8476849Y-16310174D02*
X8505420Y-16310174D01*
X8505420Y-16310174D02*
X8524468Y-16319698D01*
X8524468Y-16319698D02*
X8533991Y-16329222D01*
X8533991Y-16329222D02*
X8543515Y-16348269D01*
X8543515Y-16348269D02*
X8543515Y-16395888D01*
X8543515Y-16395888D02*
X8533991Y-16414936D01*
X8533991Y-16414936D02*
X8524468Y-16424460D01*
X8524468Y-16424460D02*
X8505420Y-16433984D01*
X8505420Y-16433984D02*
X8448277Y-16433984D01*
X8448277Y-16433984D02*
X8429230Y-16424460D01*
X8429230Y-16424460D02*
X8419706Y-16414936D01*
X8781611Y-16433984D02*
X8781611Y-16233984D01*
X8867325Y-16433984D02*
X8867325Y-16329222D01*
X8867325Y-16329222D02*
X8857801Y-16310174D01*
X8857801Y-16310174D02*
X8838753Y-16300650D01*
X8838753Y-16300650D02*
X8810182Y-16300650D01*
X8810182Y-16300650D02*
X8791134Y-16310174D01*
X8791134Y-16310174D02*
X8781611Y-16319698D01*
X8991134Y-16433984D02*
X8972087Y-16424460D01*
X8972087Y-16424460D02*
X8962563Y-16414936D01*
X8962563Y-16414936D02*
X8953039Y-16395888D01*
X8953039Y-16395888D02*
X8953039Y-16338746D01*
X8953039Y-16338746D02*
X8962563Y-16319698D01*
X8962563Y-16319698D02*
X8972087Y-16310174D01*
X8972087Y-16310174D02*
X8991134Y-16300650D01*
X8991134Y-16300650D02*
X9019706Y-16300650D01*
X9019706Y-16300650D02*
X9038753Y-16310174D01*
X9038753Y-16310174D02*
X9048277Y-16319698D01*
X9048277Y-16319698D02*
X9057801Y-16338746D01*
X9057801Y-16338746D02*
X9057801Y-16395888D01*
X9057801Y-16395888D02*
X9048277Y-16414936D01*
X9048277Y-16414936D02*
X9038753Y-16424460D01*
X9038753Y-16424460D02*
X9019706Y-16433984D01*
X9019706Y-16433984D02*
X8991134Y-16433984D01*
X9172087Y-16433984D02*
X9153039Y-16424460D01*
X9153039Y-16424460D02*
X9143515Y-16405412D01*
X9143515Y-16405412D02*
X9143515Y-16233984D01*
X9324468Y-16424460D02*
X9305420Y-16433984D01*
X9305420Y-16433984D02*
X9267325Y-16433984D01*
X9267325Y-16433984D02*
X9248277Y-16424460D01*
X9248277Y-16424460D02*
X9238753Y-16405412D01*
X9238753Y-16405412D02*
X9238753Y-16329222D01*
X9238753Y-16329222D02*
X9248277Y-16310174D01*
X9248277Y-16310174D02*
X9267325Y-16300650D01*
X9267325Y-16300650D02*
X9305420Y-16300650D01*
X9305420Y-16300650D02*
X9324468Y-16310174D01*
X9324468Y-16310174D02*
X9333992Y-16329222D01*
X9333992Y-16329222D02*
X9333992Y-16348269D01*
X9333992Y-16348269D02*
X9238753Y-16367317D01*
X9410182Y-16424460D02*
X9429230Y-16433984D01*
X9429230Y-16433984D02*
X9467325Y-16433984D01*
X9467325Y-16433984D02*
X9486373Y-16424460D01*
X9486373Y-16424460D02*
X9495896Y-16405412D01*
X9495896Y-16405412D02*
X9495896Y-16395888D01*
X9495896Y-16395888D02*
X9486373Y-16376841D01*
X9486373Y-16376841D02*
X9467325Y-16367317D01*
X9467325Y-16367317D02*
X9438753Y-16367317D01*
X9438753Y-16367317D02*
X9419706Y-16357793D01*
X9419706Y-16357793D02*
X9410182Y-16338746D01*
X9410182Y-16338746D02*
X9410182Y-16329222D01*
X9410182Y-16329222D02*
X9419706Y-16310174D01*
X9419706Y-16310174D02*
X9438753Y-16300650D01*
X9438753Y-16300650D02*
X9467325Y-16300650D01*
X9467325Y-16300650D02*
X9486373Y-16310174D01*
X9562563Y-16510174D02*
X9572087Y-16500650D01*
X9572087Y-16500650D02*
X9591134Y-16472079D01*
X9591134Y-16472079D02*
X9600658Y-16453031D01*
X9600658Y-16453031D02*
X9610182Y-16424460D01*
X9610182Y-16424460D02*
X9619706Y-16376841D01*
X9619706Y-16376841D02*
X9619706Y-16338746D01*
X9619706Y-16338746D02*
X9610182Y-16291127D01*
X9610182Y-16291127D02*
X9600658Y-16262555D01*
X9600658Y-16262555D02*
X9591134Y-16243508D01*
X9591134Y-16243508D02*
X9572087Y-16214936D01*
X9572087Y-16214936D02*
X9562563Y-16205412D01*
M02*
